<?xml version="1.0" encoding="UTF-8" standalone="no"?>
<!-- Created with Inkscape (http://www.inkscape.org/) -->

<svg
   width="180mm"
   height="105mm"
   viewBox="0 0 180 105"
   version="1.1"
   id="svg1"
   inkscape:version="1.3.2 (091e20e, 2023-11-25, custom)"
   sodipodi:docname="brkpnt_stp_3.svg"
   xmlns:inkscape="http://www.inkscape.org/namespaces/inkscape"
   xmlns:sodipodi="http://sodipodi.sourceforge.net/DTD/sodipodi-0.dtd"
   xmlns="http://www.w3.org/2000/svg"
   xmlns:svg="http://www.w3.org/2000/svg">
  <sodipodi:namedview
     id="namedview1"
     pagecolor="#ffffff"
     bordercolor="#000000"
     borderopacity="0.25"
     inkscape:showpageshadow="2"
     inkscape:pageopacity="0.0"
     inkscape:pagecheckerboard="0"
     inkscape:deskcolor="#d1d1d1"
     inkscape:document-units="mm"
     inkscape:zoom="6.3274462"
     inkscape:cx="442.27954"
     inkscape:cy="327.38327"
     inkscape:window-width="1920"
     inkscape:window-height="991"
     inkscape:window-x="-9"
     inkscape:window-y="-9"
     inkscape:window-maximized="1"
     inkscape:current-layer="layer1" />
  <defs
     id="defs1">
    <pattern
       id="EMFhbasepattern"
       patternUnits="userSpaceOnUse"
       width="6"
       height="6"
       x="0"
       y="0" />
    <pattern
       id="EMFhbasepattern-9"
       patternUnits="userSpaceOnUse"
       width="6"
       height="6"
       x="0"
       y="0" />
    <pattern
       id="EMFhbasepattern-3"
       patternUnits="userSpaceOnUse"
       width="6"
       height="6"
       x="0"
       y="0" />
  </defs>
  <g
     inkscape:label="Слой 1"
     inkscape:groupmode="layer"
     id="layer1">
    <path
       style="fill:none;stroke:#000000;stroke-width:0.305154px;stroke-linecap:round;stroke-linejoin:round;stroke-miterlimit:4;stroke-dasharray:none;stroke-opacity:1"
       d="m 15.910666,21.22717 v 3.051535 h 1.525768 -1.525768 v 15.257673 h 1.525768 -1.525768 v 15.257673 h 1.525768 -1.525768 v 15.257673 h 1.525768 -1.525768 V 85.3094 h 1.525768 -1.525768 v 3.051533 h 3.051535 v -1.525768 1.525768 h 38.144184 v -1.525768 1.525768 h 38.144184 v -1.525768 1.525768 h 38.144181 v -1.525768 1.525768 h 38.14418 v -1.525768 1.525768 h 3.05154"
       id="path1" />
    <text
       xml:space="preserve"
       style="font-style:normal;font-variant:normal;font-weight:400;font-size:3.80837px;line-height:125%;font-family:Arial;text-align:start;letter-spacing:0px;word-spacing:0px;text-anchor:start;fill:#000000;fill-opacity:1;stroke:none;stroke-width:0.451052"
       x="17.822727"
       y="93.765793"
       id="text2"><tspan
         sodipodi:role="line"
         x="17.822727"
         y="93.765793"
         id="tspan2"
         style="font-size:3.80837px;stroke-width:0.451052"><tspan
           dx="0"
           dy="0"
           style="font-style:normal;font-variant:normal;font-weight:400;font-size:3.80837px;font-family:Arial;fill:#000000;stroke-width:0.451052"
           id="tspan1">1</tspan></tspan></text>
    <text
       xml:space="preserve"
       style="font-style:normal;font-variant:normal;font-weight:400;font-size:3.80837px;line-height:125%;font-family:Arial;text-align:start;letter-spacing:0px;word-spacing:0px;text-anchor:start;fill:#000000;fill-opacity:1;stroke:none;stroke-width:0.451052"
       x="52.915375"
       y="93.765793"
       id="text4"><tspan
         sodipodi:role="line"
         x="52.915375"
         y="93.765793"
         id="tspan4"
         style="font-size:3.80837px;stroke-width:0.451052"><tspan
           dx="0"
           dy="0"
           style="font-style:normal;font-variant:normal;font-weight:400;font-size:3.80837px;font-family:Arial;fill:#000000;stroke-width:0.451052"
           id="tspan3">1670</tspan></tspan></text>
    <text
       xml:space="preserve"
       style="font-style:normal;font-variant:normal;font-weight:400;font-size:3.80837px;line-height:125%;font-family:Arial;text-align:start;letter-spacing:0px;word-spacing:0px;text-anchor:start;fill:#000000;fill-opacity:1;stroke:none;stroke-width:0.451052"
       x="91.059563"
       y="93.765793"
       id="text6"><tspan
         sodipodi:role="line"
         x="91.059563"
         y="93.765793"
         id="tspan6"
         style="font-size:3.80837px;stroke-width:0.451052"><tspan
           dx="0"
           dy="0"
           style="font-style:normal;font-variant:normal;font-weight:400;font-size:3.80837px;font-family:Arial;fill:#000000;stroke-width:0.451052"
           id="tspan5">3340</tspan></tspan></text>
    <text
       xml:space="preserve"
       style="font-style:normal;font-variant:normal;font-weight:400;font-size:3.80837px;line-height:125%;font-family:Arial;text-align:start;letter-spacing:0px;word-spacing:0px;text-anchor:start;fill:#000000;fill-opacity:1;stroke:none;stroke-width:0.451052"
       x="129.20374"
       y="93.765793"
       id="text8"><tspan
         sodipodi:role="line"
         x="129.20374"
         y="93.765793"
         id="tspan8"
         style="font-size:3.80837px;stroke-width:0.451052"><tspan
           dx="0"
           dy="0"
           style="font-style:normal;font-variant:normal;font-weight:400;font-size:3.80837px;font-family:Arial;fill:#000000;stroke-width:0.451052"
           id="tspan7">5011</tspan></tspan></text>
    <text
       xml:space="preserve"
       style="font-style:normal;font-variant:normal;font-weight:400;font-size:3.80837px;line-height:125%;font-family:Arial;text-align:start;letter-spacing:0px;word-spacing:0px;text-anchor:start;fill:#000000;fill-opacity:1;stroke:none;stroke-width:0.451052"
       x="167.34793"
       y="93.765793"
       id="text10"><tspan
         sodipodi:role="line"
         x="167.34793"
         y="93.765793"
         id="tspan10"
         style="font-size:3.80837px;stroke-width:0.451052"><tspan
           dx="0"
           dy="0"
           style="font-style:normal;font-variant:normal;font-weight:400;font-size:3.80837px;font-family:Arial;fill:#000000;stroke-width:0.451052"
           id="tspan9">6679</tspan></tspan></text>
    <text
       xml:space="preserve"
       style="font-style:normal;font-variant:normal;font-weight:400;font-size:3.80837px;line-height:125%;font-family:Arial;text-align:start;letter-spacing:0px;word-spacing:0px;text-anchor:start;fill:#000000;fill-opacity:1;stroke:none;stroke-width:0.451052"
       x="13.949248"
       y="99.868866"
       id="text12"><tspan
         sodipodi:role="line"
         x="13.949248"
         y="99.868866"
         id="tspan12"
         style="font-size:3.80837px;stroke-width:0.451052"><tspan
           dx="0"
           dy="0"
           style="font-style:normal;font-variant:normal;font-weight:400;font-size:3.80837px;font-family:Arial;fill:#000000;stroke-width:0.451052"
           id="tspan11">Nucleotide position in relation to LC732124_human_JPN_2016_Human-JPN-2016-JP14989_Chi</tspan></tspan></text>
    <text
       xml:space="preserve"
       style="font-style:normal;font-variant:normal;font-weight:400;font-size:4.285px;line-height:356.071%;font-family:Arial;text-align:start;letter-spacing:0px;word-spacing:0px;text-anchor:start;fill:#000000;fill-opacity:1;stroke:none;stroke-width:0.451052"
       x="8.4670238"
       y="25.79772"
       id="text22"><tspan
         sodipodi:role="line"
         x="8.4670238"
         y="25.79772"
         id="tspan14"
         style="stroke-width:0.451052"><tspan
           dx="0"
           dy="0"
           style="font-style:normal;font-variant:normal;font-weight:400;font-size:4.285px;font-family:Arial;fill:#000000;stroke-width:0.451052"
           id="tspan13">2</tspan></tspan><tspan
         sodipodi:role="line"
         x="8.4670238"
         y="41.055363"
         id="tspan16"
         style="stroke-width:0.451052"><tspan
           dx="0"
           dy="0"
           style="font-style:normal;font-variant:normal;font-weight:400;font-size:4.285px;font-family:Arial;fill:#000000;stroke-width:0.451052"
           id="tspan15">1,5</tspan></tspan><tspan
         sodipodi:role="line"
         x="8.4670238"
         y="56.313004"
         id="tspan18"
         style="stroke-width:0.451052"><tspan
           dx="0"
           dy="0"
           style="font-style:normal;font-variant:normal;font-weight:400;font-size:4.285px;font-family:Arial;fill:#000000;stroke-width:0.451052"
           id="tspan17">1</tspan></tspan><tspan
         sodipodi:role="line"
         x="8.4670238"
         y="71.570648"
         id="tspan20"
         style="stroke-width:0.451052"><tspan
           dx="0"
           dy="0"
           style="font-style:normal;font-variant:normal;font-weight:400;font-size:4.285px;font-family:Arial;fill:#000000;stroke-width:0.451052"
           id="tspan19">0,5</tspan></tspan><tspan
         sodipodi:role="line"
         x="8.4670238"
         y="86.828293"
         id="tspan22"
         style="stroke-width:0.451052"><tspan
           dx="0"
           dy="0"
           style="font-style:normal;font-variant:normal;font-weight:400;font-size:4.285px;font-family:Arial;fill:#000000;stroke-width:0.451052"
           id="tspan21">0</tspan></tspan></text>
    <path
       style="fill:none;stroke:#000000;stroke-width:0.305154px;stroke-linecap:round;stroke-linejoin:round;stroke-miterlimit:4;stroke-dasharray:none;stroke-opacity:1"
       d="m 76.331053,18.175635 v 1.525769 m 18.004053,-1.525769 v 1.525769 m 17.698904,-1.525769 v 1.525769"
       id="path22" />
    <path
       style="fill:none;stroke:#000000;stroke-width:0.305154px;stroke-linecap:round;stroke-linejoin:round;stroke-miterlimit:4;stroke-dasharray:0.451052, 0.451052;stroke-dashoffset:0;stroke-opacity:1"
       d="M 15.910666,24.278705 H 174.59047"
       id="path34" />
    <path
       style="fill:none;stroke:#000000;stroke-width:0.305154px;stroke-linecap:round;stroke-linejoin:round;stroke-miterlimit:4;stroke-dasharray:1.35315, 0.451052, 0.451052, 0.451052, 0.451052, 0.451052;stroke-dashoffset:0;stroke-opacity:1"
       d="M 15.910666,24.278705 H 174.59047"
       id="path35" />
    <path
       style="fill:#c6c6c6;fill-opacity:1;fill-rule:evenodd;stroke:#c6c6c6;stroke-width:0.305154px;stroke-linecap:round;stroke-linejoin:round;stroke-miterlimit:4;stroke-dasharray:none;stroke-opacity:1"
       d="m 19.267355,85.3094 h 0.305154 0.305153 0.305153 0.305155 0.305152 0.305154 0.305153 0.305153 0.305154 0.305154 0.305152 0.305155 V 54.794051 h 0.305153 0.305153 0.305154 0.305154 0.305152 0.305155 0.305152 0.305154 0.305153 0.305154 0.305154 0.305153 0.305153 0.305155 0.305152 0.305154 0.305154 0.305153 0.305153 0.305154 0.305152 0.305155 0.305153 0.305153 0.305154 0.305154 0.305153 0.305154 0.305153 0.305154 0.305153 0.305153 0.305154 0.305153 0.305153 0.305155 0.305152 0.305155 0.305153 0.305153 0.305154 0.305154 0.305152 0.305154 0.305153 0.305153 0.305154 0.305154 0.305153 0.305154 0.305153 0.305154 0.305153 0.305154 0.305154 0.305152 0.305154 0.305154 0.305152 0.305155 0.305153 0.305153 0.305154 0.305154 0.305151 0.305156 0.305151 0.305156 0.305154 0.305152 0.305155 0.305151 0.305155 0.305152 0.305154 0.305152 0.305156 0.305152 0.305155 0.305155 0.30515 0.305157 0.305149 0.305157 0.30515 0.305156 0.305152 0.305155 0.305151 0.305156 0.305155 0.305152 0.305154 0.305152 0.305154 0.305152 0.305156 0.305151 0.305155 0.305152 0.305155 0.305155 0.305151 0.305157 0.305151 0.305154 0.30515 0.305157 0.305151 0.305155 0.305151 0.305156 0.305151 0.305156 0.305155 0.305152 0.305155 0.30515 0.305156 0.305151 0.305155 0.305152 0.305155 0.305152 0.305154 0.305157 0.305151 0.305156 0.305151 0.305154 0.305151 0.305155 0.305151 0.305156 0.305152 0.305155 0.305155 0.305152 0.305155 0.305153 0.305154 0.305151 0.305155 0.305151 0.305155 0.305152 0.305155 0.305156 0.305151 0.305156 0.305151 0.305155 0.305151 0.305157 0.305148 0.305156 0.305152 0.305156 0.305151 0.305155 0.305155 0.305153 0.305154 0.305151 0.305156 0.305151 0.305154 0.305152 0.305155 0.305152 0.305155 0.305156 0.305151 0.305155 0.305152 0.305156 0.30515 0.305157 0.30515 0.305155 0.305151 0.305155 0.305155 0.305153 0.305154 0.305153 0.305154 0.305152 0.305156 0.30515 0.305155 0.305151 0.305155 0.305153 0.305154 0.305155 0.305152 0.305156 0.30515 0.305157 0.30515 0.305156 0.305151 0.305154 0.305152 0.305156 0.305155 0.305152 0.305154 0.305152 0.305156 0.30515 0.305155 0.305152 0.305155 0.305153 0.305153 0.305156 0.305151 0.305156 0.305152 0.305155 0.30515 0.305157 0.30515 0.305155 0.305152 0.305156 0.305154 0.305152 0.305154 0.305153 0.305155 0.30515 0.305157 0.30515 0.305156 0.305152 0.305154 0.305155 0.305153 0.305155 0.305155 0.305155 0.305144 0.305156 0.305154 0.305156 0.305154 0.305155 0.305145 0.30516 0.305148 0.30515 0.30516 0.30515 0.30516 0.30515 0.30514 0.30516 0.30517 0.30514 0.30516 0.30514 0.30517 0.30516 0.30513 0.30516 0.30516 0.30515 0.30516 0.30515 0.30514 0.30516 0.30517 0.30513 0.30516 0.30517 0.30514 0.30516 0.30515 0.30515 0.30516 0.30514 0.30516 0.30516 0.30515 0.30516 0.30515 0.30515 0.30515 0.30516 0.30515 0.30515 0.30517 0.30514 0.30515 0.30515 0.30516 0.30516 0.30515 0.30515 0.30516 0.30514 0.30517 0.30514 0.30516 0.30515 0.30516 0.30515 0.30515 0.30517 0.30513 0.30516 0.30516 0.30515 0.30516 0.30515 0.30514 0.30517 0.30515 0.30515 0.30515 0.30516 0.30515 0.30515 0.30516 0.30514 0.30517 0.30514 0.30516 0.30516 0.30515 0.30516 0.30514 0.30515 0.30517 0.30515 0.30515 0.30515 0.30517 0.30515 0.30514 0.30515 0.30516 0.30516 0.30514 0.30516 0.30516 0.30514 0.30517 0.30514 0.30515 0.30517 0.30515 0.30515 0.30515 0.30517 0.30514 0.30515 0.30516 0.30515 0.30516 0.30515 0.30514 0.30516 0.30515 0.30516 0.30516 0.30514 0.30517 0.30514 0.30516 0.30514 0.30517 0.30515 0.30515 0.30516 0.30515 0.30516 0.30516 0.30514 0.30517 0.30513 0.30516 0.30516 0.30514 0.30517 0.30515 0.30515 0.30516 0.30515 0.30515 0.30515 0.30516 0.30515 0.30516 0.30516 0.30514 0.30516 0.30515 0.30515 0.30516 0.30515 0.30516 0.30515 0.30514 0.30516 0.30516 0.30515 0.30515 0.30516 0.30516 0.30515 0.30515 0.30514 0.30517 0.30516 0.30514 0.30516 0.30516 0.30514 0.30515 0.30515 0.30516 0.30516 0.30515 0.30515 0.30516 0.30515 0.30515 0.30516 0.30514 0.30517 0.30516 0.30514 0.30516 0.30515 0.30515 0.30516 0.30515 0.30515 0.30516 0.30516 0.30513 0.30516 0.30516 0.30515 0.30516 0.30514 0.30517 0.30516 0.30513 0.30516 0.30516 0.30515 0.30516 0.30515 0.30515 0.30515 0.30516 0.30515 0.30515 0.30517 0.30514 0.30516 0.30515 0.30515 0.30516 0.30514 0.30516 0.30516 0.30515 0.30516 0.30514 V 85.3094 h 0.30516 0.30515 0.30516 0.30515 0.30515 0.30517 0.30514 0.30515 0.30515 0.30516 0.30516 0.30514 v 0 h -0.30514 -0.30516 -0.30516 -0.30515 -0.30515 -0.30514 -0.30517 -0.30515 -0.30515 -0.30516 -0.30515 -0.30516 -0.30514 -0.30516 -0.30515 -0.30516 -0.30516 -0.30514 -0.30516 -0.30515 -0.30515 -0.30516 -0.30514 -0.30517 -0.30515 -0.30515 -0.30516 -0.30515 -0.30515 -0.30515 -0.30516 -0.30515 -0.30516 -0.30516 -0.30513 -0.30516 -0.30517 -0.30514 -0.30516 -0.30515 -0.30516 -0.30516 -0.30513 -0.30516 -0.30516 -0.30515 -0.30515 -0.30516 -0.30515 -0.30515 -0.30516 -0.30514 -0.30516 -0.30517 -0.30514 -0.30516 -0.30515 -0.30515 -0.30516 -0.30515 -0.30515 -0.30516 -0.30516 -0.30515 -0.30515 -0.30514 -0.30516 -0.30516 -0.30514 -0.30516 -0.30517 -0.30514 -0.30515 -0.30515 -0.30516 -0.30516 -0.30515 -0.30515 -0.30516 -0.30516 -0.30514 -0.30515 -0.30516 -0.30515 -0.30516 -0.30515 -0.30515 -0.30516 -0.30514 -0.30516 -0.30516 -0.30515 -0.30516 -0.30515 -0.30515 -0.30515 -0.30516 -0.30515 -0.30515 -0.30517 -0.30514 -0.30516 -0.30516 -0.30513 -0.30517 -0.30514 -0.30516 -0.30516 -0.30515 -0.30516 -0.30515 -0.30515 -0.30517 -0.30514 -0.30516 -0.30514 -0.30517 -0.30514 -0.30516 -0.30516 -0.30515 -0.30516 -0.30514 -0.30515 -0.30516 -0.30515 -0.30516 -0.30515 -0.30514 -0.30517 -0.30515 -0.30515 -0.30515 -0.30517 -0.30515 -0.30514 -0.30517 -0.30514 -0.30516 -0.30516 -0.30514 -0.30516 -0.30516 -0.30515 -0.30514 -0.30515 -0.30517 -0.30515 -0.30515 -0.30515 -0.30517 -0.30515 -0.30514 -0.30516 -0.30515 -0.30516 -0.30516 -0.30514 -0.30517 -0.30514 -0.30516 -0.30515 -0.30515 -0.30516 -0.30515 -0.30515 -0.30515 -0.30517 -0.30514 -0.30515 -0.30516 -0.30515 -0.30516 -0.30516 -0.30513 -0.30517 -0.30515 -0.30515 -0.30516 -0.30515 -0.30516 -0.30514 -0.30517 -0.30514 -0.30516 -0.30515 -0.30515 -0.30516 -0.30516 -0.30515 -0.30515 -0.30514 -0.30517 -0.30515 -0.30515 -0.30516 -0.30515 -0.30515 -0.30515 -0.30516 -0.30515 -0.30516 -0.30516 -0.30514 -0.30516 -0.30515 -0.30515 -0.30516 -0.30514 -0.30517 -0.30516 -0.30513 -0.30517 -0.30516 -0.30514 -0.30515 -0.30516 -0.30515 -0.30516 -0.30516 -0.30513 -0.30516 -0.30517 -0.30514 -0.30516 -0.30514 -0.30517 -0.30516 -0.30514 -0.30515 -0.30516 -0.30515 -0.30516 -0.30515 -0.305148 -0.30516 -0.305145 -0.305155 -0.305154 -0.305156 -0.305154 -0.305156 -0.305144 -0.305155 -0.305155 -0.305155 -0.305153 -0.305155 -0.305154 -0.305152 -0.305156 -0.30515 -0.305157 -0.30515 -0.305155 -0.305153 -0.305154 -0.305152 -0.305154 -0.305156 -0.305152 -0.305155 -0.30515 -0.305157 -0.30515 -0.305155 -0.305152 -0.305156 -0.305151 -0.305156 -0.305153 -0.305153 -0.305155 -0.305152 -0.305155 -0.30515 -0.305156 -0.305152 -0.305154 -0.305152 -0.305155 -0.305156 -0.305152 -0.305154 -0.305151 -0.305156 -0.30515 -0.305157 -0.30515 -0.305156 -0.305152 -0.305155 -0.305154 -0.305153 -0.305155 -0.305151 -0.305155 -0.30515 -0.305156 -0.305152 -0.305154 -0.305153 -0.305154 -0.305153 -0.305155 -0.305155 -0.305151 -0.305155 -0.30515 -0.305157 -0.30515 H 76.331053 76.025901 75.720746 75.415595 75.110439 74.805284 74.500132 74.194977 73.889825 73.584671 73.27952 72.974364 72.669213 72.364059 72.058906 71.753751 71.448596 71.143445 70.838289 70.533137 70.227981 69.922833 69.617676 69.312525 69.00737 68.702219 68.397063 68.091912 67.786756 67.481601 67.176449 66.871294 66.566143 66.260988 65.955837 65.650683 65.34553 65.040375 64.735223 64.430068 64.124913 63.819761 63.514605 63.209454 62.904299 62.599148 62.293994 61.988843 61.683687 61.378536 61.073379 60.768225 60.463073 60.157918 59.852766 59.547611 59.24246 58.937304 58.632154 58.326999 58.021847 57.716692 57.411536 57.106385 56.801229 56.496078 56.190923 55.885772 55.580615 55.275465 54.970311 54.66516 54.360003 54.054852 53.749697 53.444542 53.13939 52.834235 52.529084 52.223928 51.918776 51.613622 51.30847 51.003316 50.698164 50.393009 50.087853 49.782702 49.477547 49.172395 48.867239 48.562089 48.256932 47.951783 47.646626 47.341476 47.036321 46.731166 46.426014 46.120858 45.815706 45.510552 45.2054 44.900245 44.595094 44.289939 43.984787 43.679633 43.374477 43.069326 42.76417 42.459019 42.153865 41.848711 41.543558 41.238405 40.93325 40.628098 40.322944 40.01779 39.712638 39.407484 39.10233 38.797177 38.492023 38.18687 37.881716 37.576563 37.271409 36.966255 36.661102 36.355949 36.050795 35.745643 35.440489 35.135335 34.830182 34.525029 34.219874 33.914722 33.609567 33.304414 32.999261 32.694107 32.388954 32.083801 31.778647 31.473494 31.16834 30.863187 30.558033 30.252879 29.947726 29.642573 29.337418 29.032266 28.727112 28.421959 28.116806 27.811652 27.506498 27.201346 26.896191 26.591038 26.285885 25.980731 25.675577 25.370424 25.06527 24.760118 24.454963 24.149811 23.844657 23.539503 23.23435 22.929197 22.624042 22.31889 22.013736 21.708582 21.403429 21.098276 20.793122 20.48797 20.182815 19.877662 19.572509 Z"
       id="path36" />
    <path
       style="fill:#808080;fill-opacity:1;fill-rule:evenodd;stroke:#808080;stroke-width:0.305154px;stroke-linecap:round;stroke-linejoin:round;stroke-miterlimit:4;stroke-dasharray:none;stroke-opacity:1"
       d="m 19.267355,85.3094 h 0.305154 0.305153 0.305153 0.305155 0.305152 0.305154 0.305153 0.305153 0.305154 0.305154 0.305152 0.305155 0.305153 0.305153 0.305154 0.305154 0.305152 0.305155 0.305152 0.305154 0.305153 0.305154 0.305154 V 54.794051 h 0.305153 0.305153 0.305155 0.305152 0.305154 0.305154 0.305153 0.305153 0.305154 0.305152 0.305155 0.305153 0.305153 0.305154 0.305154 0.305153 0.305154 0.305153 0.305154 0.305153 0.305153 0.305154 0.305153 0.305153 0.305155 0.305152 0.305155 0.305153 0.305153 0.305154 0.305154 0.305152 0.305154 0.305153 0.305153 0.305154 0.305154 0.305153 0.305154 0.305153 0.305154 0.305153 0.305154 0.305154 0.305152 0.305154 0.305154 0.305152 0.305155 0.305153 0.305153 0.305154 0.305154 0.305151 0.305156 0.305151 0.305156 0.305154 0.305152 0.305155 0.305151 0.305155 0.305152 0.305154 0.305152 0.305156 0.305152 0.305155 0.305155 0.30515 0.305157 0.305149 0.305157 0.30515 0.305156 0.305152 0.305155 0.305151 0.305156 0.305155 0.305152 0.305154 0.305152 0.305154 0.305152 0.305156 0.305151 0.305155 0.305152 0.305155 0.305155 0.305151 0.305157 0.305151 0.305154 0.30515 0.305157 0.305151 0.305155 0.305151 0.305156 0.305151 0.305156 0.305155 0.305152 0.305155 0.30515 0.305156 0.305151 0.305155 0.305152 0.305155 0.305152 0.305154 0.305157 0.305151 0.305156 0.305151 0.305154 0.305151 0.305155 0.305151 0.305156 0.305152 0.305155 0.305155 0.305152 0.305155 0.305153 0.305154 0.305151 0.305155 0.305151 0.305155 0.305152 0.305155 0.305156 0.305151 0.305156 0.305151 0.305155 0.305151 0.305157 0.305148 0.305156 0.305152 0.305156 0.305151 0.305155 0.305155 0.305153 0.305154 0.305151 0.305156 0.305151 0.305154 0.305152 0.305155 0.305152 0.305155 0.305156 0.305151 0.305155 0.305152 0.305156 0.30515 0.305157 0.30515 0.305155 0.305151 0.305155 0.305155 0.305153 0.305154 0.305153 0.305154 0.305152 0.305156 0.30515 0.305155 0.305151 0.305155 0.305153 0.305154 0.305155 0.305152 0.305156 0.30515 0.305157 0.30515 0.305156 0.305151 0.305154 0.305152 0.305156 0.305155 0.305152 0.305154 0.305152 0.305156 0.30515 0.305155 0.305152 0.305155 0.305153 0.305153 0.305156 0.305151 0.305156 0.305152 0.305155 0.30515 0.305157 0.30515 0.305155 0.305152 0.305156 0.305154 0.305152 0.305154 0.305153 0.305155 0.30515 0.305157 0.30515 0.305156 0.305152 0.305154 0.305155 0.305153 0.305155 0.305155 0.305155 0.305144 0.305156 0.305154 0.305156 0.305154 0.305155 0.305145 0.30516 0.305148 0.30515 0.30516 0.30515 0.30516 0.30515 0.30514 0.30516 0.30517 0.30514 0.30516 0.30514 0.30517 0.30516 0.30513 0.30516 0.30516 0.30515 0.30516 0.30515 0.30514 0.30516 0.30517 0.30513 0.30516 0.30517 0.30514 0.30516 0.30515 0.30515 0.30516 0.30514 0.30516 0.30516 0.30515 0.30516 0.30515 0.30515 0.30515 0.30516 0.30515 0.30515 0.30517 0.30514 0.30515 0.30515 0.30516 0.30516 0.30515 0.30515 0.30516 0.30514 0.30517 0.30514 0.30516 0.30515 0.30516 0.30515 0.30515 0.30517 0.30513 0.30516 0.30516 0.30515 0.30516 V 85.3094 h 0.30515 0.30514 0.30517 0.30515 0.30515 0.30515 V 54.794051 h 0.30516 0.30515 V 85.3094 h 0.30515 0.30516 0.30514 0.30517 0.30514 0.30516 0.30516 0.30515 0.30516 0.30514 0.30515 0.30517 V 54.794051 85.3094 54.794051 h 0.30515 0.30515 0.30515 0.30517 0.30515 0.30514 0.30515 0.30516 0.30516 0.30514 0.30516 0.30516 0.30514 0.30517 0.30514 0.30515 0.30517 0.30515 0.30515 0.30515 0.30517 0.30514 0.30515 0.30516 0.30515 0.30516 0.30515 0.30514 0.30516 0.30515 0.30516 0.30516 0.30514 0.30517 0.30514 0.30516 0.30514 0.30517 0.30515 0.30515 0.30516 0.30515 0.30516 0.30516 0.30514 0.30517 0.30513 0.30516 0.30516 0.30514 0.30517 0.30515 0.30515 0.30516 0.30515 0.30515 0.30515 0.30516 0.30515 0.30516 0.30516 0.30514 0.30516 0.30515 0.30515 0.30516 0.30515 0.30516 0.30515 0.30514 0.30516 0.30516 0.30515 0.30515 0.30516 0.30516 0.30515 0.30515 0.30514 0.30517 0.30516 0.30514 0.30516 0.30516 0.30514 0.30515 0.30515 0.30516 0.30516 0.30515 0.30515 0.30516 0.30515 0.30515 0.30516 0.30514 0.30517 0.30516 0.30514 0.30516 0.30515 0.30515 0.30516 0.30515 0.30515 0.30516 0.30516 0.30513 0.30516 0.30516 0.30515 0.30516 0.30514 0.30517 0.30516 0.30513 0.30516 0.30516 0.30515 0.30516 0.30515 0.30515 0.30515 0.30516 0.30515 0.30515 0.30517 0.30514 0.30516 V 85.3094 h 0.30515 0.30515 0.30516 0.30514 0.30516 0.30516 0.30515 0.30516 0.30514 0.30516 0.30515 0.30516 0.30515 0.30515 0.30517 0.30514 0.30515 0.30515 0.30516 0.30516 0.30514 v 0 h -0.30514 -0.30516 -0.30516 -0.30515 -0.30515 -0.30514 -0.30517 -0.30515 -0.30515 -0.30516 -0.30515 -0.30516 -0.30514 -0.30516 -0.30515 -0.30516 -0.30516 -0.30514 -0.30516 -0.30515 -0.30515 -0.30516 -0.30514 -0.30517 -0.30515 -0.30515 -0.30516 -0.30515 -0.30515 -0.30515 -0.30516 -0.30515 -0.30516 -0.30516 -0.30513 -0.30516 -0.30517 -0.30514 -0.30516 -0.30515 -0.30516 -0.30516 -0.30513 -0.30516 -0.30516 -0.30515 -0.30515 -0.30516 -0.30515 -0.30515 -0.30516 -0.30514 -0.30516 -0.30517 -0.30514 -0.30516 -0.30515 -0.30515 -0.30516 -0.30515 -0.30515 -0.30516 -0.30516 -0.30515 -0.30515 -0.30514 -0.30516 -0.30516 -0.30514 -0.30516 -0.30517 -0.30514 -0.30515 -0.30515 -0.30516 -0.30516 -0.30515 -0.30515 -0.30516 -0.30516 -0.30514 -0.30515 -0.30516 -0.30515 -0.30516 -0.30515 -0.30515 -0.30516 -0.30514 -0.30516 -0.30516 -0.30515 -0.30516 -0.30515 -0.30515 -0.30515 -0.30516 -0.30515 -0.30515 -0.30517 -0.30514 -0.30516 -0.30516 -0.30513 -0.30517 -0.30514 -0.30516 -0.30516 -0.30515 -0.30516 -0.30515 -0.30515 -0.30517 -0.30514 -0.30516 -0.30514 -0.30517 -0.30514 -0.30516 -0.30516 -0.30515 -0.30516 -0.30514 -0.30515 -0.30516 -0.30515 -0.30516 -0.30515 -0.30514 -0.30517 -0.30515 -0.30515 -0.30515 -0.30517 -0.30515 -0.30514 -0.30517 -0.30514 -0.30516 -0.30516 -0.30514 -0.30516 -0.30516 -0.30515 -0.30514 -0.30515 -0.30517 -0.30515 -0.30515 -0.30515 -0.30517 -0.30515 -0.30514 -0.30516 -0.30515 -0.30516 -0.30516 -0.30514 -0.30517 -0.30514 -0.30516 -0.30515 -0.30515 -0.30516 -0.30515 -0.30515 -0.30515 -0.30517 -0.30514 -0.30515 -0.30516 -0.30515 -0.30516 -0.30516 -0.30513 -0.30517 -0.30515 -0.30515 -0.30516 -0.30515 -0.30516 -0.30514 -0.30517 -0.30514 -0.30516 -0.30515 -0.30515 -0.30516 -0.30516 -0.30515 -0.30515 -0.30514 -0.30517 -0.30515 -0.30515 -0.30516 -0.30515 -0.30515 -0.30515 -0.30516 -0.30515 -0.30516 -0.30516 -0.30514 -0.30516 -0.30515 -0.30515 -0.30516 -0.30514 -0.30517 -0.30516 -0.30513 -0.30517 -0.30516 -0.30514 -0.30515 -0.30516 -0.30515 -0.30516 -0.30516 -0.30513 -0.30516 -0.30517 -0.30514 -0.30516 -0.30514 -0.30517 -0.30516 -0.30514 -0.30515 -0.30516 -0.30515 -0.30516 -0.30515 -0.305148 -0.30516 -0.305145 -0.305155 -0.305154 -0.305156 -0.305154 -0.305156 -0.305144 -0.305155 -0.305155 -0.305155 -0.305153 -0.305155 -0.305154 -0.305152 -0.305156 -0.30515 -0.305157 -0.30515 -0.305155 -0.305153 -0.305154 -0.305152 -0.305154 -0.305156 -0.305152 -0.305155 -0.30515 -0.305157 -0.30515 -0.305155 -0.305152 -0.305156 -0.305151 -0.305156 -0.305153 -0.305153 -0.305155 -0.305152 -0.305155 -0.30515 -0.305156 -0.305152 -0.305154 -0.305152 -0.305155 -0.305156 -0.305152 -0.305154 -0.305151 -0.305156 -0.30515 -0.305157 -0.30515 -0.305156 -0.305152 -0.305155 -0.305154 -0.305153 -0.305155 -0.305151 -0.305155 -0.30515 -0.305156 -0.305152 -0.305154 -0.305153 -0.305154 -0.305153 -0.305155 -0.305155 -0.305151 -0.305155 -0.30515 -0.305157 -0.30515 H 76.331053 76.025901 75.720746 75.415595 75.110439 74.805284 74.500132 74.194977 73.889825 73.584671 73.27952 72.974364 72.669213 72.364059 72.058906 71.753751 71.448596 71.143445 70.838289 70.533137 70.227981 69.922833 69.617676 69.312525 69.00737 68.702219 68.397063 68.091912 67.786756 67.481601 67.176449 66.871294 66.566143 66.260988 65.955837 65.650683 65.34553 65.040375 64.735223 64.430068 64.124913 63.819761 63.514605 63.209454 62.904299 62.599148 62.293994 61.988843 61.683687 61.378536 61.073379 60.768225 60.463073 60.157918 59.852766 59.547611 59.24246 58.937304 58.632154 58.326999 58.021847 57.716692 57.411536 57.106385 56.801229 56.496078 56.190923 55.885772 55.580615 55.275465 54.970311 54.66516 54.360003 54.054852 53.749697 53.444542 53.13939 52.834235 52.529084 52.223928 51.918776 51.613622 51.30847 51.003316 50.698164 50.393009 50.087853 49.782702 49.477547 49.172395 48.867239 48.562089 48.256932 47.951783 47.646626 47.341476 47.036321 46.731166 46.426014 46.120858 45.815706 45.510552 45.2054 44.900245 44.595094 44.289939 43.984787 43.679633 43.374477 43.069326 42.76417 42.459019 42.153865 41.848711 41.543558 41.238405 40.93325 40.628098 40.322944 40.01779 39.712638 39.407484 39.10233 38.797177 38.492023 38.18687 37.881716 37.576563 37.271409 36.966255 36.661102 36.355949 36.050795 35.745643 35.440489 35.135335 34.830182 34.525029 34.219874 33.914722 33.609567 33.304414 32.999261 32.694107 32.388954 32.083801 31.778647 31.473494 31.16834 30.863187 30.558033 30.252879 29.947726 29.642573 29.337418 29.032266 28.727112 28.421959 28.116806 27.811652 27.506498 27.201346 26.896191 26.591038 26.285885 25.980731 25.675577 25.370424 25.06527 24.760118 24.454963 24.149811 23.844657 23.539503 23.23435 22.929197 22.624042 22.31889 22.013736 21.708582 21.403429 21.098276 20.793122 20.48797 20.182815 19.877662 19.572509 Z"
       id="path37" />
    <path
       style="fill:none;stroke:#000000;stroke-width:0.305154px;stroke-linecap:round;stroke-linejoin:round;stroke-miterlimit:4;stroke-dasharray:none;stroke-opacity:1"
       d="m 18.962201,85.3094 v 0 0 0 0 0 h 0.305154 v 0 0 0 0 0 0 0 0 0 0 0 0 0 h 0.305154 v 0 0 0 0 0 0 0 0 0 0 0 0 h 0.305153 v 0 0 0 0 0 0 0 0 0 0 0 0 h 0.305153 v 0 0 0 0 0 0 0 0 0 0 0 0 0 h 0.305155 v 0 0 0 0 0 0 0 0 0 0 0 0 h 0.305152 v 0 0 0 0 0 0 0 0 0 0 0 0 h 0.305154 v 0 0 0 0 0 0 0 0 0 0 0 0 0 h 0.305153 v 0 0 0 0 0 0 0 0 0 0 0 0 h 0.305153 v 0 0 0 0 0 0 0 0 0 0 0 0 h 0.305154 v 0 0 0 0 0 0 0 0 0 0 0 0 0 h 0.305154 v 0 0 0 0 0 0 0 0 0 0 0 0 h 0.305152 v 0 0 0 0 0 0 0 0 0 0 0 0 h 0.305155 v 0 0 0 0 0 0 0 0 0 0 0 0 0 h 0.305153 v 0 0 0 0 0 0 0 0 0 0 0 0 h 0.305153 v 0 0 0 0 0 0 0 0 0 0 0 0 0 h 0.305154 v 0 0 0 0 0 0 0 0 0 0 0 0 h 0.305154 v 0 0 0 0 0 0 0 0 0 0 0 0 h 0.305152 v 0 0 0 0 0 0 0 0 0 0 0 0 0 h 0.305155 v 0 0 0 0 0 0 0 0 0 0 0 0 h 0.305152 v 0 0 0 0 0 0 0 0 0 0 0 0 h 0.305154 v 0 0 0 0 0 0 0 0 0 0 0 0 0 h 0.305153 v 0 0 0 0 0 0 0 0 0 0 0 0 h 0.305154 v 0 0 0 0 0 0 0 0 0 0 0 0 h 0.305154 v 0 0 0 0 0 0 0 0 0 0 0 0 0 h 0.305153 v 0 0 0 0 0 0 0 0 0 0 0 0 h 0.305153 v 0 0 0 0 0 0 0 0 0 0 0 0 h 0.305155 v 0 0 0 0 0 0 0 0 0 0 0 0 0 h 0.305152 v 0 0 0 0 0 0 0 0 0 0 0 0 h 0.305154 v 0 0 0 0 0 0 0 0 0 0 0 0 0 h 0.305154 v 0 0 0 0 0 0 0 0 0 0 0 0 h 0.305153 v 0 0 0 0 0 0 0 0 0 0 0 0 h 0.305153 v 0 0 0 0 0 0 0 0 0 0 0 0 0 h 0.305154 v 0 0 0 0 0 0 0 0 0 0 0 0 h 0.305152 v 0 0 0 0 0 0 0 0 0 0 0 0 h 0.305155 v 0 0 0 0 0 0 0 0 0 0 0 0 0 h 0.305153 v 0 0 0 0 0 0 0 0 0 0 0 0 h 0.305153 v 0 0 0 0 0 0 0 0 0 0 0 0 h 0.305154 v 0 0 0 0 0 0 0 0 0 0 0 0 0 h 0.305154 v 0 0 0 0 0 0 0 0 0 0 0 0 h 0.305153 v 0 0 0 0 0 0 0 0 0 0 0 0 h 0.305154 v 0 0 0 0 0 0 0 0 0 0 0 0 0 h 0.305153 v 0 0 0 0 0 0 0 0 0 0 0 0 h 0.305154 v 0 0 0 0 0 0 0 0 0 0 0 0 0 h 0.305153 v 0 0 0 0 0 0 0 0 0 0 0 0 h 0.305153 v 0 0 0 0 0 0 0 0 0 0 0 0 h 0.305154 v 0 0 0 0 0 0 0 0 0 0 0 0 0 h 0.305153 v 0 0 0 0 0 0 0 0 0 0 0 0 h 0.305153 v 0 0 0 0 0 0 0 0 0 0 0 0 h 0.305155 v 0 0 0 0 0 0 0 0 0 0 0 0 0 h 0.305152 v 0 0 0 0 0 0 0 0 0 0 0 0 h 0.305155 v 0 0 0 0 0 0 0 0 0 0 0 0 h 0.305153 v 0 0 0 0 0 0 0 0 0 0 0 0 0 h 0.305153 v 0 0 0 0 0 0 0 0 0 0 0 0 h 0.305154 v 0 0 0 0 0 0 0 0 0 0 0 0 0 h 0.305154 v 0 0 0 0 0 0 0 0 0 0 0 0 h 0.305152 v 0 0 0 0 0 0 0 0 0 0 0 0 h 0.305154 v 0 0 0 0 0 0 0 0 0 0 0 0 0 h 0.305153 v 0 0 0 0 0 0 0 0 0 0 0 0 h 0.305153 v 0 0 0 0 0 0 0 0 0 0 0 0 h 0.305154 v 0 0 0 0 0 0 0 0 0 0 0 0 0 h 0.305154 v 0 0 0 0 0 0 0 0 0 0 0 0 h 0.305153 v 0 0 0 0 0 0 0 0 0 0 0 0 h 0.305154 v 0 0 0 0 0 0 0 0 0 0 0 0 0 h 0.305153 v 0 0 0 0 0 0 0 0 0 0 0 0 h 0.305154 v 0 0 0 0 0 0 0 0 0 0 0 0 h 0.305153 v 0 0 0 0 0 0 0 0 0 0 0 0 0 h 0.305154 v 0 0 0 0 0 0 0 0 0 0 0 0 h 0.305154 v 0 0 0 0 0 0 0 0 0 0 0 0 0 h 0.305152 v 0 0 0 0 0 0 0 0 0 0 0 0 h 0.305154 v 0 0 0 0 0 0 0 0 0 0 0 0 h 0.305154 v 0 0 0 0 0 0 0 0 0 0 0 0 0 h 0.305152 v 0 0 0 0 0 0 0 0 0 0 0 0 h 0.305155 v 0 0 0 0 0 0 0 0 0 0 0 0 h 0.305153 v 0 0 0 0 0 0 0 0 0 0 0 0 0 h 0.305153 v 0 0 0 0 0 0 0 0 0 0 0 0 h 0.305154 v 0 0 0 0 0 0 0 0 0 0 0 0 h 0.305154 v 0 0 0 0 0 0 0 0 0 0 0 0 0 h 0.305151 v 0 0 0 0 0 0 0 0 0 0 0 0 h 0.305156 v 0 0 0 0 0 0 0 0 0 0 0 0 h 0.305151 v 0 0 0 0 0 0 0 0 0 0 0 0 0 h 0.305156 v 0 0 0 0 0 0 0 0 0 0 0 0 h 0.305154 v 0 0 0 0 0 0 0 0 0 0 0 0 0 h 0.305152 v 0 0 0 0 0 0 0 0 0 0 0 0 h 0.305155 v 0 0 0 0 0 0 0 0 0 0 0 0 h 0.305151 v 0 0 0 0 0 0 0 0 0 0 0 0 0 H 45.2054 v 0 0 0 0 0 0 0 0 0 0 0 0 h 0.305152 v 0 0 0 0 0 0 0 0 0 0 0 0 h 0.305154 v 0 0 0 0 0 0 0 0 0 0 0 0 0 h 0.305152 v 0 0 0 0 0 0 0 0 0 0 0 0 h 0.305156 v 0 0 0 0 0 0 0 0 0 0 0 0 h 0.305152 v 0 0 0 0 0 0 0 0 0 0 0 0 0 h 0.305155 v 0 0 0 0 0 0 0 0 0 0 0 0 h 0.305155 v 0 0 0 0 0 0 0 0 0 0 0 0 h 0.30515 v 0 0 0 0 0 0 0 0 0 0 0 0 0 h 0.305157 v 0 0 0 0 0 0 0 0 0 0 0 0 h 0.305149 v 0 0 0 0 0 0 0 0 0 0 0 0 0 h 0.305157 v 0 0 0 0 0 0 0 0 0 0 0 0 h 0.30515 v 0 0 0 0 0 0 0 0 0 0 0 0 h 0.305156 v 0 0 0 0 0 0 0 0 0 0 0 0 0 h 0.305152 v 0 0 0 0 0 0 0 0 0 0 0 0 h 0.305155 v 0 0 0 0 0 0 0 0 0 0 0 0 h 0.305151 v 0 0 0 0 0 0 0 0 0 0 0 0 0 h 0.305156 v 0 0 0 0 0 0 0 0 0 0 0 0 h 0.305155 v 0 0 0 0 0 0 0 0 0 0 0 0 h 0.305152 v 0 0 0 0 0 0 0 0 0 0 0 0 0 h 0.305154 v 0 0 0 0 0 0 0 0 0 0 0 0 h 0.305152 v 0 0 0 0 0 0 0 0 0 0 0 0 h 0.305154 v 0 0 0 0 0 0 0 0 0 0 0 0 0 h 0.305152 v 0 0 0 0 0 0 0 0 0 0 0 0 h 0.305156 v 0 0 0 0 0 0 0 0 0 0 0 0 0 h 0.305151 v 0 0 0 0 0 0 0 0 0 0 0 0 h 0.305155 v 0 0 0 0 0 0 0 0 0 0 0 0 h 0.305152 v 0 0 0 0 0 0 0 0 0 0 0 0 0 h 0.305155 v 0 0 0 0 0 0 0 0 0 0 0 0 h 0.305155 v 0 0 0 0 0 0 0 0 0 0 0 0 h 0.305151 v 0 0 0 0 0 0 0 0 0 0 0 0 0 h 0.305157 v 0 0 0 0 0 0 0 0 0 0 0 0 h 0.305151 v 0 0 0 0 0 0 0 0 0 0 0 0 h 0.305154 v 0 0 0 0 0 0 0 0 0 0 0 0 0 h 0.30515 v 0 0 0 0 0 0 0 0 0 0 0 0 h 0.305157 v 0 0 0 0 0 0 0 0 0 0 0 0 h 0.305151 v 0 0 0 0 0 0 0 0 0 0 0 0 0 h 0.305155 v 0 0 0 0 0 0 0 0 0 0 0 0 h 0.305151 v 0 0 0 0 0 0 0 0 0 0 0 0 0 h 0.305156 v 0 0 0 0 0 0 0 0 0 0 0 0 h 0.305151 v 0 0 0 0 0 0 0 0 0 0 0 0 h 0.305156 v 0 0 0 0 0 0 0 0 0 0 0 0 0 h 0.305155 v 0 0 0 0 0 0 0 0 0 0 0 0 h 0.305152 v 0 0 0 0 0 0 0 0 0 0 0 0 h 0.305155 v 0 0 0 0 0 0 0 0 0 0 0 0 0 h 0.30515 v 0 0 0 0 0 0 0 0 0 0 0 0 h 0.305156 v 0 0 0 0 0 0 0 0 0 0 0 0 h 0.305151 v 0 0 0 0 0 0 0 0 0 0 0 0 0 h 0.305155 v 0 0 0 0 0 0 0 0 0 0 0 0 h 0.305152 v 0 0 0 0 0 0 0 0 0 0 0 0 0 h 0.305155 v 0 0 0 0 0 0 0 0 0 0 0 0 h 0.305152 v 0 0 0 0 0 0 0 0 0 0 0 0 h 0.305154 v 0 0 0 0 0 0 0 0 0 0 0 0 0 h 0.305157 v 0 0 0 0 0 0 0 0 0 0 0 0 h 0.305151 v 0 0 0 0 0 0 0 0 0 0 0 0 h 0.305156 v 0 0 0 0 0 0 0 0 0 0 0 0 0 h 0.305151 v 0 0 0 0 0 0 0 0 0 0 0 0 h 0.305154 v 0 0 0 0 0 0 0 0 0 0 0 0 h 0.305151 v 0 0 0 0 0 0 0 0 0 0 0 0 0 h 0.305155 v 0 0 0 0 0 0 0 0 0 0 0 0 h 0.305151 v 0 0 0 0 0 0 0 0 0 0 0 0 h 0.305156 v 0 0 0 0 0 0 0 0 0 0 0 0 0 h 0.305152 v 0 0 0 0 0 0 0 0 0 0 0 0 h 0.305155 v 0 0 0 0 0 0 0 0 0 0 0 0 0 h 0.305155 v 0 0 0 0 0 0 0 0 0 0 0 0 h 0.305152 v 0 0 0 0 0 0 0 0 0 0 0 0 h 0.305155 v 0 0 0 0 0 0 0 0 0 0 0 0 0 h 0.305153 v 0 0 0 0 0 0 0 0 0 0 0 0 h 0.305154 v 0 0 0 0 0 0 0 0 0 0 0 0 h 0.305151 v 0 0 0 0 0 0 0 0 0 0 0 0 0 h 0.305155 v 0 0 0 0 0 0 0 0 0 0 0 0 h 0.305151 v 0 0 0 0 0 0 0 0 0 0 0 0 h 0.305155 v 0 0 0 0 0 0 0 0 0 0 0 0 0 h 0.305152 v 0 0 0 0 0 0 0 0 0 0 0 0 h 0.305155 v 0 0 0 0 0 0 0 0 0 0 0 0 h 0.305156 v 0 0 0 0 0 0 0 0 0 0 0 0 0 h 0.305151 v 0 0 0 0 0 0 0 0 0 0 0 0 h 0.305156 v 0 0 0 0 0 0 0 0 0 0 0 0 0 h 0.305151 v 0 0 0 0 0 0 0 0 0 0 0 0 h 0.305155 v 0 0 0 0 0 0 0 0 0 0 0 0 h 0.305151 v 0 0 0 0 0 0 0 0 0 0 0 0 0 h 0.305157 v 0 0 0 0 0 0 0 0 0 0 0 0 h 0.305148 v 0 0 0 0 0 0 0 0 0 0 0 0 h 0.305156 v 0 0 0 0 0 0 0 0 0 0 0 0 0 h 0.305152 v 0 0 0 0 0 0 0 0 0 0 0 0 h 0.305156 v 0 0 0 0 0 0 0 0 0 0 0 0 h 0.305151 v 0 0 0 0 0 0 0 0 0 0 0 0 0 h 0.305155 v 0 0 0 0 0 0 0 0 0 0 0 0 h 0.305155 v 0 0 0 0 0 0 0 0 0 0 0 0 h 0.305153 v 0 0 0 0 0 0 0 0 0 0 0 0 0 h 0.305154 v 0 0 0 0 0 0 0 0 0 0 0 0 h 0.305151 v 0 0 0 0 0 0 0 0 0 0 0 0 0 h 0.305156 v 0 0 0 0 0 0 0 0 0 0 0 0 h 0.305151 v 0 0 0 0 0 0 0 0 0 0 0 0 h 0.305154 v 0 0 0 0 0 0 0 -30.515349 0 0 0 0 0 h 0.305152 v 0 0 0 0 0 0 0 0 0 0 0 0 h 0.305155 v 0 0 0 0 0 0 0 0 0 0 0 0 h 0.305152 v 0 0 0 0 0 0 0 0 0 0 0 0 0 h 0.305155 v 0 0 0 0 0 0 0 0 0 0 0 0 h 0.305156 v 0 0 0 0 0 0 0 0 0 0 0 0 h 0.305151 v 0 0 0 0 0 0 0 0 0 0 0 0 0 h 0.305155 v 0 0 0 0 0 0 0 0 0 0 0 0 h 0.305152 v 0 0 0 0 0 0 0 0 0 0 0 0 h 0.305156 v 0 0 0 0 0 0 0 0 0 0 0 0 0 h 0.30515 v 0 0 0 0 0 0 0 0 0 0 0 0 h 0.305157 v 0 0 0 0 0 0 0 0 0 0 0 0 0 h 0.30515 v 0 0 0 0 0 0 0 0 0 0 0 0 h 0.305155 v 0 0 0 0 0 0 0 0 0 0 0 0 h 0.305151 v 0 0 0 0 0 0 0 0 0 0 0 0 0 h 0.305155 v 0 0 0 0 0 0 30.515349 0 0 0 0 0 h 0.305155 v 0 0 0 0 0 0 0 0 0 0 0 0 h 0.305153 v 0 0 0 0 0 0 0 0 0 0 0 0 0 h 0.305154 v 0 0 0 0 0 0 0 0 0 0 0 0 h 0.305153 v 0 0 0 0 0 0 0 0 0 0 0 0 h 0.305154 v 0 0 0 0 0 0 0 0 0 0 0 0 0 h 0.305152 v 0 0 0 0 0 0 0 0 0 0 0 0 h 0.305156 v 0 0 0 0 0 0 0 0 0 0 0 0 h 0.30515 v 0 0 0 0 0 0 0 0 0 0 0 0 0 h 0.305155 v 0 0 0 0 0 0 0 0 0 0 0 0 h 0.305151 v 0 0 0 0 0 0 0 0 0 0 0 0 0 h 0.305155 v 0 0 0 0 0 0 0 0 0 0 0 0 h 0.305153 v 0 0 0 0 0 0 0 0 0 0 0 0 h 0.305154 v 0 0 0 0 0 0 0 0 0 0 0 0 0 h 0.305155 v 0 0 0 0 0 0 0 0 0 0 0 0 h 0.305152 v 0 0 0 0 0 0 0 0 0 0 0 0 h 0.305156 v 0 0 0 0 0 0 0 0 0 0 0 0 0 h 0.30515 v 0 0 0 0 0 0 0 0 0 0 0 0 h 0.305157 v 0 0 0 0 0 0 0 0 0 0 0 0 h 0.30515 v 0 0 0 0 0 0 0 0 0 0 0 0 0 h 0.305156 v 0 0 0 0 0 0 0 0 0 0 0 0 h 0.305151 v 0 0 0 0 0 0 0 0 0 0 0 0 0 h 0.305154 v 0 0 0 0 0 0 0 0 0 0 0 0 h 0.305152 v 0 0 0 0 0 0 0 0 0 0 0 0 h 0.305156 v 0 0 0 0 0 0 0 0 0 0 0 0 0 h 0.305155 v 0 0 0 0 0 0 0 0 0 0 0 0 h 0.305152 v 0 0 0 0 0 0 0 0 0 0 0 0 h 0.305154 v 0 0 0 0 0 0 0 0 0 0 0 0 0 h 0.305152 v 0 0 0 0 0 0 0 0 0 0 0 0 h 0.305156 v 0 0 0 0 0 0 0 0 0 0 0 0 h 0.30515 v 0 0 0 0 0 0 0 0 0 0 0 0 0 h 0.305155 v 0 0 0 0 0 0 0 0 0 0 0 0 h 0.305152 v 0 0 0 0 0 0 0 0 0 0 0 0 h 0.305155 v 0 0 0 0 0 0 0 0 0 0 0 0 0 h 0.305153 v 0 0 0 0 0 0 0 0 0 0 0 0 h 0.305153 v 0 0 0 0 0 0 0 0 0 0 0 0 0 h 0.305156 v 0 0 0 0 0 0 0 0 0 0 0 0 h 0.305151 v 0 0 0 0 0 0 0 0 0 0 0 0 h 0.305156 v 0 0 0 0 0 0 0 0 0 0 0 0 0 h 0.305152 v 0 0 0 0 0 0 0 0 0 0 0 0 h 0.305155 v 0 0 0 0 0 0 0 0 0 0 0 0 h 0.30515 v 0 0 0 0 0 0 0 0 0 0 0 0 0 h 0.305157 v 0 0 0 0 0 0 0 0 0 0 0 0 h 0.30515 v 0 0 0 0 0 0 0 0 0 0 0 0 h 0.305155 v 0 0 0 0 0 0 0 0 0 0 0 0 0 h 0.305152 v 0 -30.515349 0 0 0 0 0 0 0 0 0 0 h 0.305156 v 0 0 0 0 0 0 0 0 0 0 0 0 h 0.305154 v 0 0 0 0 0 0 0 0 0 0 0 0 0 h 0.305152 v 0 0 0 0 0 0 0 0 0 0 0 0 h 0.305154 v 0 0 0 0 0 0 0 0 0 0 0 0 0 h 0.305153 v 0 0 0 0 0 0 0 0 0 0 0 0 h 0.305155 v 0 0 0 0 0 0 0 0 0 0 0 0 h 0.30515 v 0 0 0 0 0 0 0 0 0 0 0 0 0 h 0.305157 v 0 0 0 0 0 0 0 0 0 0 0 0 h 0.30515 v 0 0 0 0 0 0 0 0 0 0 0 0 h 0.305156 v 0 0 0 0 0 0 0 0 0 0 0 0 0 h 0.305152 v 0 0 0 0 0 0 0 0 0 0 0 0 h 0.305154 v 0 0 0 0 0 0 0 0 0 0 0 0 h 0.305155 v 0 0 0 0 0 0 0 0 0 0 0 0 0 h 0.305153 v 0 0 0 0 0 0 0 0 0 0 0 0 h 0.305155 v 0 30.515349 0 0 0 0 0 0 0 0 0 0 h 0.305155 v 0 0 0 0 0 0 0 0 0 0 0 0 0 h 0.305155 v 0 0 0 0 0 0 0 0 0 0 0 0 h 0.305144 v 0 0 0 0 0 0 0 0 0 0 0 0 0 h 0.305156 v 0 0 0 0 0 0 0 0 0 0 0 0 h 0.305154 v 0 0 0 0 0 0 0 0 0 0 0 0 h 0.305156 v 0 0 0 0 0 0 0 0 0 0 0 0 0 h 0.305154 v 0 0 0 0 0 0 0 0 0 0 0 0 h 0.305155 v 0 0 0 0 0 0 0 0 0 0 0 0 h 0.305145 v 0 0 0 0 0 0 0 0 0 0 0 0 0 h 0.30516 v 0 0 0 0 0 0 0 0 0 0 0 0 h 0.305148 v 0 0 0 0 0 0 0 0 0 0 0 0 h 0.30515 v 0 0 0 0 0 0 0 0 0 0 0 0 0 h 0.30516 v 0 0 0 0 0 0 0 0 0 0 0 0 h 0.30515 v 0 0 0 0 0 0 0 0 0 0 0 0 h 0.30516 v 0 0 0 0 0 0 0 0 0 0 0 0 0 h 0.30515 v 0 0 0 0 0 0 0 0 0 0 0 0 h 0.30514 v 0 0 0 0 0 0 0 0 0 0 0 0 0 h 0.30516 v 0 0 0 0 0 0 0 0 0 0 0 0 h 0.30517 v 0 0 0 0 0 0 0 0 0 0 0 0 h 0.30514 v 0 0 0 0 0 0 0 0 0 0 0 0 0 h 0.30516 v 0 0 0 0 0 0 0 0 0 0 0 0 h 0.30514 v 0 0 0 0 0 0 0 0 0 0 0 0 h 0.30517 v 0 0 0 0 0 0 0 0 0 0 0 0 0 h 0.30516 v 0 0 0 0 0 0 0 0 0 0 0 0 h 0.30513 v 0 0 0 0 0 0 0 0 0 0 0 0 h 0.30516 v 0 0 0 0 0 0 0 0 0 0 0 0 0 h 0.30516 v 0 0 0 0 0 0 0 0 0 0 0 0 h 0.30515 v 0 0 0 0 0 0 0 0 0 0 0 0 h 0.30516 v 0 0 0 0 0 0 0 0 0 0 0 0 0 h 0.30515 v 0 0 0 0 0 0 0 0 0 0 0 0 h 0.30514 v 0 0 0 0 0 0 0 0 0 0 0 0 0 h 0.30516 v 0 0 0 0 0 0 0 0 0 0 0 0 h 0.30517 v 0 0 0 0 0 0 0 0 0 0 0 0 h 0.30513 v 0 0 0 0 0 0 0 0 0 0 0 0 0 h 0.30516 v 0 0 0 0 0 0 0 0 0 0 0 0 h 0.30517 v 0 0 0 0 0 0 0 0 0 0 0 0 h 0.30514 v 0 0 0 0 0 0 0 0 0 0 0 0 0 h 0.30516 v 0 0 0 0 0 0 0 0 0 0 0 0 h 0.30515 v 0 0 0 0 0 0 0 0 0 0 0 0 h 0.30515 v 0 0 0 0 0 0 0 0 0 0 0 0 0 h 0.30516 v 0 0 0 0 0 0 0 0 0 0 0 0 h 0.30514 v 0 0 0 0 0 0 0 0 0 0 0 0 0 h 0.30516 v 0 0 0 0 -30.515349 0 0 0 0 0 0 0 h 0.30516 v 0 0 0 0 0 0 0 0 0 0 0 0 h 0.30515 v 0 0 0 0 0 0 0 0 0 0 0 0 0 h 0.30516 v 0 0 0 0 0 0 0 0 0 0 0 0 h 0.30515 v 0 0 0 0 0 0 0 0 0 0 0 0 h 0.30515 v 0 0 0 0 0 0 0 0 0 0 0 0 0 h 0.30515 v 0 0 0 0 0 0 0 0 0 0 0 0 h 0.30516 v 0 0 0 0 0 0 0 0 0 0 0 0 h 0.30515 v 0 0 0 0 0 0 0 0 0 0 0 0 0 h 0.30515 v 0 0 0 0 0 0 0 0 0 0 0 0 h 0.30517 v 0 0 0 0 0 0 0 0 0 0 0 0 h 0.30514 v 0 0 0 0 0 0 0 0 0 0 0 0 0 h 0.30515 v 0 0 0 0 0 0 0 0 0 0 0 0 h 0.30515 v 0 0 0 0 0 0 0 0 0 0 0 0 0 h 0.30516 v 0 0 0 0 0 0 0 0 0 0 0 0 h 0.30516 v 0 0 0 0 30.515349 0 0 0 0 0 0 0 h 0.30515 v 0 0 0 0 0 0 0 0 0 0 0 0 0 h 0.30515 v 0 0 0 0 0 0 0 0 0 0 0 0 h 0.30516 v 0 0 0 0 0 0 0 0 0 0 0 0 h 0.30514 v 0 0 0 0 0 0 0 0 0 0 0 0 0 h 0.30517 v 0 0 0 0 0 0 0 0 0 0 0 0 h 0.30514 v 0 0 0 0 0 0 0 0 0 0 0 0 h 0.30516 v 0 0 0 0 0 0 0 0 0 0 0 0 0 h 0.30515 v 0 0 0 0 0 0 0 0 0 0 0 0 h 0.30516 v 0 0 0 0 0 0 0 0 0 0 0 0 h 0.30515 v 0 0 0 0 0 0 0 0 0 0 0 0 0 h 0.30515 v 0 0 0 0 0 0 0 0 0 0 0 0 h 0.30517 v 0 0 0 0 0 0 0 0 0 0 0 0 0 h 0.30513 v 0 0 0 0 0 0 0 0 0 0 0 0 h 0.30516 v 0 0 0 0 0 0 0 0 0 0 0 0 h 0.30516 v 0 0 0 0 0 0 0 0 0 0 0 0 0 h 0.30515 v 0 0 0 0 0 0 0 0 0 0 0 0 h 0.30516 v 0 0 0 0 0 0 0 0 0 0 0 0 h 0.30515 v 0 0 0 0 0 0 0 0 0 0 0 0 0 h 0.30514 v 0 0 0 0 0 0 0 0 0 0 0 0 h 0.30517 v 0 0 0 0 0 0 0 0 0 0 0 0 h 0.30515 v 0 0 0 0 0 0 0 0 0 0 0 0 0 h 0.30515 v 0 0 0 0 0 0 0 0 0 0 0 0 h 0.30515 v 0 0 0 0 0 0 0 0 0 0 0 0 h 0.30516 v 0 0 0 0 0 0 0 0 0 0 0 0 0 h 0.30515 v 0 0 0 0 0 0 0 0 0 0 0 0 h 0.30515 v 0 0 0 0 0 0 0 0 0 0 0 0 0 h 0.30516 v 0 0 0 0 0 0 0 0 0 0 0 0 h 0.30514 v 0 0 0 0 0 0 0 0 0 0 0 0 h 0.30517 v 0 0 0 0 0 0 0 0 0 0 0 0 0 h 0.30514 v 0 0 0 0 0 0 0 0 0 0 0 0 h 0.30516 v 0 0 0 0 0 0 0 0 0 0 0 0 h 0.30516 v 0 0 0 0 0 0 0 0 0 0 0 0 0 h 0.30515 v 0 0 0 0 0 0 0 0 0 0 0 0 h 0.30516 v 0 0 0 0 0 0 0 0 0 0 0 0 h 0.30514 v 0 0 0 0 0 0 0 0 0 0 0 0 0 h 0.30515 v 0 0 0 0 0 0 0 0 0 0 0 0 h 0.30517 v 0 0 0 0 0 0 0 0 0 0 0 0 h 0.30515 v 0 0 0 0 0 0 0 0 0 0 0 0 0 h 0.30515 v 0 0 0 0 0 0 0 0 0 0 0 0 h 0.30515 v 0 0 0 0 0 0 0 0 0 0 0 0 0 h 0.30517 v 0 0 0 0 0 0 0 0 0 0 0 0 h 0.30515 v 0 0 0 0 0 0 0 0 0 0 0 0 h 0.30514 v 0 0 0 0 0 0 0 0 0 0 0 0 0 h 0.30515 v 0 0 0 0 0 0 0 0 0 0 0 0 h 0.30516 v 0 0 0 0 0 0 0 0 0 0 0 0 h 0.30516 v 0 0 0 0 0 0 0 0 0 0 0 0 0 h 0.30514 v 0 0 0 0 0 0 0 0 0 0 0 0 h 0.30516 v 0 0 0 0 0 0 0 0 0 0 0 0 h 0.30516 v 0 0 0 0 0 0 0 0 0 0 0 0 0 h 0.30514 v 0 0 0 0 0 0 0 0 0 0 0 0 h 0.30517 v 0 0 0 0 0 0 0 0 0 0 0 0 h 0.30514 v 0 0 0 0 0 0 0 0 0 0 0 0 0 h 0.30515 v 0 0 0 0 0 0 0 0 0 0 0 0 h 0.30517 v 0 0 0 0 0 0 0 0 0 0 0 0 0 h 0.30515 v 0 0 0 0 0 0 0 0 0 0 0 0 h 0.30515 v 0 0 0 0 0 0 0 0 0 0 0 0 h 0.30515 v 0 0 0 0 0 0 0 0 0 0 0 0 0 h 0.30517 v 0 0 0 0 0 0 0 0 0 0 0 0 h 0.30514 v 0 0 0 0 0 0 0 0 0 0 0 0 h 0.30515 v 0 0 0 0 0 0 0 0 0 0 0 0 0 h 0.30516 v 0 0 0 0 0 0 0 0 0 0 0 0 h 0.30515 v 0 0 0 0 0 0 0 0 0 0 0 0 h 0.30516 v 0 0 0 0 0 0 0 0 0 0 0 0 0 h 0.30515 v 0 0 0 0 0 0 0 0 0 0 0 0 h 0.30514 v 0 0 0 0 0 0 0 0 0 0 0 0 0 h 0.30516 v 0 0 0 0 0 0 0 0 0 0 0 0 h 0.30515 v 0 0 0 0 0 0 0 0 0 0 0 0 h 0.30516 v 0 0 0 0 0 0 0 0 0 0 0 0 0 h 0.30516 v 0 0 0 0 0 0 0 0 0 0 0 0 h 0.30514 v 0 0 0 0 0 0 0 0 0 0 0 0 h 0.30517 v 0 0 0 0 0 0 0 0 0 0 0 0 0 h 0.30514 v 0 0 0 0 0 0 0 0 0 0 0 0 h 0.30516 v 0 0 0 0 0 0 0 0 0 0 0 0 h 0.30514 v 0 0 0 0 0 0 0 0 0 0 0 0 0 h 0.30517 v 0 0 0 0 0 0 0 0 0 0 0 0 h 0.30515 v 0 0 0 0 0 0 0 0 0 0 0 0 h 0.30515 v 0 0 0 0 0 0 0 0 0 0 0 0 0 h 0.30516 v 0 0 0 0 0 0 0 0 0 0 0 0 h 0.30515 v 0 0 0 0 0 0 0 0 0 0 0 0 0 h 0.30516 v 0 0 0 0 0 0 0 0 0 0 0 0 h 0.30516 v 0 0 0 0 0 0 0 0 0 0 0 0 h 0.30514 v 0 0 0 0 0 0 0 0 0 0 0 0 0 h 0.30517 v 0 0 0 0 0 0 0 0 0 0 0 0 h 0.30513 v 0 0 0 0 0 0 0 0 0 0 0 0 h 0.30516 v 0 0 0 0 0 0 0 0 0 0 0 0 0 h 0.30516 v 0 0 0 0 0 0 0 0 0 0 0 0 h 0.30514 v 0 0 0 0 0 0 0 0 0 0 0 0 h 0.30517 v 0 0 0 0 0 0 0 0 0 0 0 0 0 h 0.30515 v 0 0 0 0 0 0 0 0 0 0 0 0 h 0.30515 v 0 0 0 0 0 0 0 0 0 0 0 0 h 0.30516 v 0 0 0 0 0 0 0 0 0 0 0 0 0 h 0.30515 v 0 0 0 0 0 0 0 0 0 0 0 0 h 0.30515 v 0 0 0 0 0 0 0 0 0 0 0 0 0 h 0.30515 v 0 0 0 0 0 0 0 0 0 0 0 0 h 0.30516 v 0 0 0 0 0 0 0 0 0 0 0 0 h 0.30515 v 0 0 0 0 0 0 0 0 0 0 0 0 0 h 0.30516 v 0 0 0 0 0 0 0 0 0 0 0 0 h 0.30516 v 0 0 0 0 0 0 0 0 0 0 0 0 h 0.30514 v 0 0 0 0 0 0 0 0 0 0 0 0 0 h 0.30516 v 0 0 0 0 0 0 0 0 0 0 0 0 h 0.30515 v 0 0 0 0 0 0 0 0 0 0 0 0 h 0.30515 v 0 0 0 0 0 0 0 0 0 0 0 0 0 h 0.30516 v 0 0 0 0 0 0 0 0 0 0 0 0 h 0.30515 v 0 0 0 0 0 0 0 0 0 0 0 0 h 0.30516 v 0 0 0 0 0 0 0 0 0 0 0 0 0 h 0.30515 v 0 0 0 0 0 0 0 0 0 0 0 0 h 0.30514 v 0 0 0 0 0 0 0 0 0 0 0 0 0 h 0.30516 v 0 0 0 0 0 0 0 0 0 0 0 0 h 0.30516 v 0 0 0 0 0 0 0 0 0 0 0 0 h 0.30515 v 0 0 0 0 0 0 0 0 0 0 0 0 0 h 0.30515 v 0 0 0 0 0 0 0 0 0 0 0 0 h 0.30516 v 0 0 0 0 0 0 0 0 0 0 0 0 h 0.30516 v 0 0 0 0 0 0 0 0 0 0 0 0 0 h 0.30515 v 0 0 0 0 0 0 0 0 0 0 0 0 h 0.30515 v 0 0 0 0 0 0 0 0 0 0 0 0 h 0.30514 v 0 0 0 0 0 0 0 0 0 0 0 0 0 h 0.30517 v 0 0 0 0 0 0 0 0 0 0 0 0 h 0.30516 v 0 0 0 0 0 0 0 0 0 0 0 0 h 0.30514 v 0 0 0 0 0 0 0 0 0 0 0 0 0 h 0.30516 v 0 0 0 0 0 0 0 0 0 0 0 0 h 0.30516 v 0 0 0 0 0 0 0 0 0 0 0 0 0 h 0.30514 v 0 0 0 0 0 0 0 0 0 0 0 0 h 0.30515 v 0 0 0 0 0 0 0 0 0 0 0 0 h 0.30515 v 0 0 0 0 0 0 0 0 0 0 0 0 0 h 0.30516 v 0 0 0 0 0 0 0 0 0 0 0 0 h 0.30516 v 0 0 0 0 0 0 0 0 0 0 0 0 h 0.30515 v 0 0 0 0 0 0 0 0 0 0 0 0 0 h 0.30515 v 0 0 0 0 0 0 0 0 0 0 0 0 h 0.30516 v 0 0 0 0 0 0 0 0 0 0 0 0 h 0.30515 v 0 0 0 0 0 0 0 0 0 0 0 0 0 h 0.30515 v 0 0 0 0 0 0 0 0 0 0 0 0 h 0.30516 v 0 0 0 0 0 0 0 0 0 0 0 0 h 0.30514 v 0 0 0 0 0 0 0 0 0 0 0 0 0 h 0.30517 v 0 0 0 0 0 0 0 0 0 0 0 0 h 0.30516 v 0 0 0 0 0 0 0 0 0 0 0 0 0 h 0.30514 v 0 0 0 0 0 0 0 0 0 0 0 0 h 0.30516 v 0 0 0 0 0 0 0 0 0 0 0 0 h 0.30515 v 0 0 0 0 0 0 0 0 0 0 0 0 0 h 0.30515 v 0 0 0 0 0 0 0 0 0 0 0 0 h 0.30516 v 0 0 0 0 0 0 0 0 0 0 0 0 h 0.30515 v 0 0 0 0 0 0 0 0 0 0 0 0 0 h 0.30515 v 0 0 0 0 0 0 0 0 0 0 0 0 h 0.30516 v 0 0 0 0 0 0 0 0 0 0 0 0 h 0.30516 v 0 0 0 0 0 0 0 0 0 0 0 0 0 h 0.30513 v 0 0 0 0 0 0 0 0 0 0 0 0 h 0.30516 v 0 0 0 0 0 0 0 0 0 0 0 0 0 h 0.30516 v 0 0 0 0 0 0 0 0 0 0 0 0 h 0.30515 v 0 0 0 0 0 0 0 0 0 0 0 0 h 0.30516 v 0 0 0 0 0 0 0 0 0 0 0 0 0 h 0.30514 v 0 0 0 0 0 0 0 0 0 0 0 0 h 0.30517 v 0 0 0 0 0 0 0 0 0 0 0 0 h 0.30516 v 0 0 0 0 0 0 0 0 0 0 0 0 0 h 0.30513 v 0 0 0 0 0 0 0 0 0 0 0 0 h 0.30516 v 0 0 0 0 0 0 0 0 0 0 0 0 h 0.30516 v 0 0 0 0 0 0 0 0 0 0 0 0 0 h 0.30515 v 0 0 0 0 0 0 0 0 0 0 0 0 h 0.30516 v 0 0 0 0 0 0 0 0 0 0 0 0 h 0.30515 v 0 0 0 0 0 0 0 0 0 0 0 0 0 h 0.30515 v 0 0 0 0 0 0 0 0 0 0 0 0 h 0.30515 v 0 0 0 0 0 0 0 0 0 0 0 0 0 h 0.30516 v 0 0 0 0 0 0 0 0 0 0 0 0 h 0.30515 v 0 0 0 0 0 0 0 0 0 0 0 0 h 0.30515 v 0 0 0 0 0 0 0 0 0 0 0 0 0 h 0.30517 v 0 0 0 0 0 0 0 0 0 0 0 0 h 0.30514 v 0 0 0 0 0 0 0 0 0 0 0 0 h 0.30516 v 0 0 0 0 0 0 0 0 0 0 0 0 0 h 0.30515 v 0 0 0 0 0 0 0 0 0 0 0 0 h 0.30515 v 0 0 0 0 0 0 0 0 0 0 0 0 h 0.30516 v 0 0 0 0 0 0 0 0 0 0 0 0 0 h 0.30514 v 0 0 0 0 0 0 0 0 0 0 0 0 h 0.30516 v 0 0 0 0 0 0 0 0 0 0 0 0 h 0.30516 v 0 0 0 0 0 0 0 0 0 0 0 0 0 h 0.30515 v 0 0 0 0 0 0 0 0 0 0 0 0 h 0.30516 v 0 0 0 0 0 0 0 0 0 0 0 0 0 h 0.30514 v 0 0 0 0 0 0 0 0 0 0 0 0 h 0.30516 v 0 0 0 0 0 0 0 0 0 0 0 0 h 0.30515 v 0 0 0 0 0 0 0 0 0 0 0 0 0 h 0.30516 v 0 0 0 0 0 0 0 0 0 0 0 0 h 0.30515 v 0 0 0 0 0 0 0 0 0 0 0 0 h 0.30515 v 0 0 0 0 0 0 0 0 0 0 0 0 0 h 0.30517 v 0 0 0 0 0 0 0 0 0 0 0 0 h 0.30514 v 0 0 0 0 0 0 0 0 0 0 0 0 h 0.30515 v 0 0 0 0 0 0 0 0 0 0 0 0 0 h 0.30515 v 0 0 0 0 0 0 0 0 0 0 0 0 h 0.30516 v 0 0 0 0 0 0 0 0 0 0 0 0 h 0.30516 v 0 0 0 0 0 0 0 0 0 0 0 0 0 h 0.30514 v 0 0 0 0 0 0"
       id="path38" />
    <text
       xml:space="preserve"
       style="font-style:normal;font-variant:normal;font-weight:400;font-size:3.80837px;line-height:125%;font-family:Arial;text-align:start;letter-spacing:0px;word-spacing:0px;text-anchor:start;fill:#000000;fill-opacity:1;stroke:none;stroke-width:0.451052"
       transform="rotate(-90)"
       x="-80.121788"
       y="5.1847258"
       id="text39"><tspan
         sodipodi:role="line"
         x="-80.121788"
         y="5.1847258"
         id="tspan39"
         style="font-size:3.80837px;stroke-width:0.451052"><tspan
           dx="0"
           dy="0"
           style="font-style:normal;font-variant:normal;font-weight:400;font-size:3.80837px;font-family:Arial;fill:#000000;stroke-width:0.451052"
           id="tspan38">Breakpoints per 200 nt window</tspan></tspan></text>
    <path
       style="fill:none;stroke:#c6c6c6;stroke-width:0.295714px;stroke-linecap:round;stroke-linejoin:round;stroke-miterlimit:4;stroke-dasharray:none;stroke-opacity:1"
       d="m 179.52553,26.304424 h 3.0543"
       id="path23" />
    <text
       xml:space="preserve"
       style="font-size:6.08352px;display:inline;opacity:0.5;fill:#666666;fill-opacity:1;stroke:#7fbfaa;stroke-width:0.354872;stroke-linecap:butt;stroke-linejoin:round;stroke-dasharray:none;stroke-opacity:0;paint-order:normal"
       x="148.04993"
       y="11.771424"
       id="text429-9-0-0"
       inkscape:label="text_orf2"
       transform="scale(0.98917251,1.010946)"><tspan
         sodipodi:role="line"
         id="tspan429-6-8-1"
         style="font-style:normal;font-variant:normal;font-weight:normal;font-stretch:normal;font-size:6.08352px;font-family:Tahoma;-inkscape-font-specification:Tahoma;fill:#666666;fill-opacity:1;stroke:#7fbfaa;stroke-width:0.354872"
         x="148.04993"
         y="11.771424">ORF2</tspan></text>
    <rect
       style="display:inline;fill:#008056;fill-opacity:0.501961;stroke-width:0.603375;stroke-linecap:butt;stroke-linejoin:round;image-rendering:auto"
       id="rect318-1-0-9-2-8-3-9-0-1"
       width="0.21560034"
       height="84.899055"
       x="18.829561"
       y="3.5384262"
       inkscape:label="orf1a_beg" />
    <rect
       style="display:inline;fill:#008056;fill-opacity:0.501961;stroke-width:0.603529;stroke-linecap:butt;stroke-linejoin:round;image-rendering:auto"
       id="rect318-1-0-9-2-8-3-9-0-1-4"
       width="0.21560034"
       height="84.94223"
       x="81.795319"
       y="3.5345101"
       inkscape:label="orf1a_beg" />
    <rect
       style="display:inline;fill:#004280;fill-opacity:0.501961;stroke-width:0.603437;stroke-linecap:butt;stroke-linejoin:round;image-rendering:auto"
       id="rect318-1-0-9-2-8-3-9-0-1-4-5"
       width="0.21560034"
       height="84.916519"
       x="82.017273"
       y="3.5424123"
       inkscape:label="orf1a_beg" />
    <rect
       style="display:inline;fill:#004280;fill-opacity:0.501961;stroke-width:0.603437;stroke-linecap:butt;stroke-linejoin:round;image-rendering:auto"
       id="rect318-1-0-9-2-8-3-9-0-1-4-5-9"
       width="0.21560034"
       height="84.916519"
       x="117.74497"
       y="3.5587475"
       inkscape:label="orf1a_beg" />
    <rect
       style="display:inline;fill:#800026;fill-opacity:0.501961;stroke-width:0.60329;stroke-linecap:butt;stroke-linejoin:round;image-rendering:auto"
       id="rect318-1-0-9-2-8-3-9-0-1-4-5-9-9"
       width="0.21560034"
       height="84.875191"
       x="117.96352"
       y="3.5645046"
       inkscape:label="orf1a_beg" />
    <rect
       style="display:inline;fill:#800026;fill-opacity:0.501961;stroke-width:0.60329;stroke-linecap:butt;stroke-linejoin:round;image-rendering:auto"
       id="rect318-1-0-9-2-8-3-9-0-1-4-5-9-9-3"
       width="0.21560034"
       height="84.875191"
       x="135.85168"
       y="3.5539882"
       inkscape:label="orf1a_beg" />
    <rect
       style="display:inline;fill:#800026;fill-opacity:0.501961;stroke-width:0.60329;stroke-linecap:butt;stroke-linejoin:round;image-rendering:auto"
       id="rect318-1-0-9-2-8-3-9-0-1-4-5-9-9-3-7"
       width="0.21560034"
       height="84.875191"
       x="171.41856"
       y="3.5589488"
       inkscape:label="orf1a_beg" />
    <text
       xml:space="preserve"
       style="font-size:3.71774px;display:inline;opacity:0.89;fill:#000000;fill-opacity:1;stroke:#7fbfaa;stroke-width:0.354872;stroke-linecap:butt;stroke-linejoin:round;stroke-dasharray:none;stroke-opacity:0;paint-order:normal"
       x="124.30235"
       y="10.854009"
       id="text429-9-0-8-0"
       inkscape:label="text_vp34"
       transform="scale(0.98917251,1.010946)"><tspan
         sodipodi:role="line"
         id="tspan429-6-8-3-6"
         style="font-style:normal;font-variant:normal;font-weight:normal;font-stretch:normal;font-size:3.71774px;font-family:Tahoma;-inkscape-font-specification:Tahoma;fill:#000000;fill-opacity:1;stroke:#7fbfaa;stroke-width:0.354872"
         x="124.30235"
         y="10.854009">VP34</tspan></text>
    <rect
       style="display:inline;opacity:0.649533;fill:#8f485e;fill-opacity:1;stroke:#008000;stroke-width:0.179797;stroke-linecap:butt;stroke-linejoin:round;stroke-dasharray:none;stroke-opacity:0;paint-order:normal"
       id="rect428-8-8-1"
       width="18.158274"
       height="12.181646"
       x="117.91278"
       y="3.5485673"
       inkscape:label="orf2_мз34" />
    <text
       xml:space="preserve"
       style="font-size:6.08352px;display:inline;opacity:0.5;fill:#666666;fill-opacity:1;stroke:#7fbfaa;stroke-width:0.354872;stroke-linecap:butt;stroke-linejoin:round;stroke-dasharray:none;stroke-opacity:0;paint-order:normal"
       x="42.143322"
       y="11.610711"
       id="text429-9"
       inkscape:label="text_orf1b"
       transform="scale(0.98917251,1.010946)"><tspan
         sodipodi:role="line"
         id="tspan429-6"
         style="font-style:normal;font-variant:normal;font-weight:normal;font-stretch:normal;font-size:6.08352px;font-family:Tahoma;-inkscape-font-specification:Tahoma;fill:#666666;fill-opacity:1;stroke:#7fbfaa;stroke-width:0.354872"
         x="42.143322"
         y="11.610711">ORF1a</tspan></text>
    <rect
       style="display:inline;opacity:0.5;fill:#008055;fill-opacity:1;stroke:#008000;stroke-width:0.336355;stroke-linecap:butt;stroke-linejoin:round;stroke-dasharray:none;stroke-opacity:0;paint-order:normal"
       id="rect428"
       width="63.41431"
       height="12.207964"
       x="18.819672"
       y="3.5251451"
       inkscape:label="orf1a" />
    <text
       xml:space="preserve"
       style="font-size:6.08352px;display:inline;opacity:0.5;fill:#666666;fill-opacity:1;stroke:#7fbfaa;stroke-width:0.354872;stroke-linecap:butt;stroke-linejoin:round;stroke-dasharray:none;stroke-opacity:0;paint-order:normal"
       x="91.939041"
       y="11.738992"
       id="text429-9-0"
       inkscape:label="text_orf1b"
       transform="scale(0.98917251,1.010946)"><tspan
         sodipodi:role="line"
         id="tspan429-6-8"
         style="font-style:normal;font-variant:normal;font-weight:normal;font-stretch:normal;font-size:6.08352px;font-family:Tahoma;-inkscape-font-specification:Tahoma;fill:#666666;fill-opacity:1;stroke:#7fbfaa;stroke-width:0.354872"
         x="91.939041"
         y="11.738992">ORF1b</tspan></text>
    <rect
       style="display:inline;opacity:0.5;fill:#004180;fill-opacity:1;stroke:#008000;stroke-width:0.254534;stroke-linecap:butt;stroke-linejoin:round;stroke-dasharray:none;stroke-opacity:0;paint-order:normal"
       id="rect428-8"
       width="36.397827"
       height="12.180467"
       x="81.808235"
       y="3.5377982"
       inkscape:label="orf1b" />
    <rect
       style="display:inline;opacity:0.5;fill:#800025;fill-opacity:1;stroke:#008000;stroke-width:0.309924;stroke-linecap:butt;stroke-linejoin:round;stroke-dasharray:none;stroke-opacity:0;paint-order:normal"
       id="rect428-8-8"
       width="53.883095"
       height="12.198605"
       x="117.75111"
       y="3.5441892"
       inkscape:label="orf2" />
    <text
       xml:space="preserve"
       style="font-style:normal;font-variant:normal;font-weight:400;font-size:2.82222px;line-height:125%;font-family:Arial;text-align:start;letter-spacing:0px;word-spacing:0px;text-anchor:start;fill:#004280;fill-opacity:0.501961;stroke:none;stroke-width:0.451095"
       x="83.086777"
       y="91.407822"
       id="text4-8"><tspan
         sodipodi:role="line"
         x="83.086777"
         y="91.407822"
         id="tspan4-5"
         style="font-weight:bold;font-size:2.82222px;fill:#004280;fill-opacity:0.501961;stroke-width:0.451095">2761</tspan></text>
    <text
       xml:space="preserve"
       style="font-style:normal;font-variant:normal;font-weight:400;font-size:2.82222px;line-height:125%;font-family:Arial;text-align:start;letter-spacing:0px;word-spacing:0px;text-anchor:start;fill:#004280;fill-opacity:0.501961;stroke:none;stroke-width:0.451095"
       x="111.04501"
       y="91.330414"
       id="text4-8-6"><tspan
         sodipodi:role="line"
         x="111.04501"
         y="91.330414"
         id="tspan4-5-01"
         style="font-weight:bold;font-size:2.82222px;fill:#004280;fill-opacity:0.501961;stroke-width:0.451095">4308</tspan></text>
    <text
       xml:space="preserve"
       style="font-style:normal;font-variant:normal;font-weight:400;font-size:2.82222px;line-height:125%;font-family:Arial;text-align:start;letter-spacing:0px;word-spacing:0px;text-anchor:start;fill:#800026;fill-opacity:0.501961;stroke:none;stroke-width:0.451095"
       x="118.77415"
       y="91.291664"
       id="text4-8-6-3"><tspan
         sodipodi:role="line"
         x="118.77415"
         y="91.291664"
         id="tspan4-5-01-9"
         style="font-weight:bold;font-size:2.82222px;fill:#800026;fill-opacity:0.501961;stroke-width:0.451095">4309</tspan></text>
    <text
       xml:space="preserve"
       style="font-style:normal;font-variant:normal;font-weight:400;font-size:2.82222px;line-height:125%;font-family:Arial;text-align:start;letter-spacing:0px;word-spacing:0px;text-anchor:start;fill:#800026;fill-opacity:0.501961;stroke:none;stroke-width:0.451095"
       x="137.82401"
       y="91.314995"
       id="text4-8-6-3-8"><tspan
         sodipodi:role="line"
         x="137.82401"
         y="91.314995"
         id="tspan4-5-01-9-2"
         style="font-weight:bold;font-size:2.82222px;fill:#800026;fill-opacity:0.501961;stroke-width:0.451095">5243</tspan></text>
    <text
       xml:space="preserve"
       style="font-style:normal;font-variant:normal;font-weight:400;font-size:2.82222px;line-height:125%;font-family:Arial;text-align:start;letter-spacing:0px;word-spacing:0px;text-anchor:start;fill:#008056;fill-opacity:0.501961;stroke:none;stroke-width:0.451095"
       x="74.742531"
       y="91.402573"
       id="text4-8-3"><tspan
         sodipodi:role="line"
         x="74.742531"
         y="91.402573"
         id="tspan4-5-0"
         style="font-weight:bold;font-size:2.82222px;fill:#008056;fill-opacity:0.501961;stroke-width:0.451095">2760</tspan></text>
  </g>
</svg>
