<?xml version="1.0" encoding="UTF-8" standalone="no"?>
<!-- Created with Inkscape (http://www.inkscape.org/) -->

<svg
   width="180mm"
   height="105mm"
   viewBox="0 0 180 105"
   version="1.1"
   id="svg1"
   inkscape:version="1.3.2 (091e20e, 2023-11-25, custom)"
   sodipodi:docname="brkpnt_stp_8.svg"
   xmlns:inkscape="http://www.inkscape.org/namespaces/inkscape"
   xmlns:sodipodi="http://sodipodi.sourceforge.net/DTD/sodipodi-0.dtd"
   xmlns="http://www.w3.org/2000/svg"
   xmlns:svg="http://www.w3.org/2000/svg">
  <sodipodi:namedview
     id="namedview1"
     pagecolor="#ffffff"
     bordercolor="#000000"
     borderopacity="0.25"
     inkscape:showpageshadow="2"
     inkscape:pageopacity="0.0"
     inkscape:pagecheckerboard="0"
     inkscape:deskcolor="#d1d1d1"
     inkscape:document-units="mm"
     inkscape:zoom="2.7586042"
     inkscape:cx="398.57114"
     inkscape:cy="255.38278"
     inkscape:window-width="1920"
     inkscape:window-height="991"
     inkscape:window-x="-9"
     inkscape:window-y="-9"
     inkscape:window-maximized="1"
     inkscape:current-layer="layer1" />
  <defs
     id="defs1">
    <pattern
       id="EMFhbasepattern"
       patternUnits="userSpaceOnUse"
       width="6"
       height="6"
       x="0"
       y="0" />
    <pattern
       id="EMFhbasepattern-9"
       patternUnits="userSpaceOnUse"
       width="6"
       height="6"
       x="0"
       y="0" />
    <pattern
       id="EMFhbasepattern-2"
       patternUnits="userSpaceOnUse"
       width="6"
       height="6"
       x="0"
       y="0" />
  </defs>
  <g
     inkscape:label="Слой 1"
     inkscape:groupmode="layer"
     id="layer1">
    <path
       style="fill:none;stroke:#000000;stroke-width:0.305117px;stroke-linecap:round;stroke-linejoin:round;stroke-miterlimit:4;stroke-dasharray:none;stroke-opacity:1"
       d="m 15.899784,21.186873 v 3.051173 h 1.525587 -1.525587 V 39.49391 h 1.525587 -1.525587 v 15.255866 h 1.525587 -1.525587 v 15.255861 h 1.525587 -1.525587 v 15.255867 h 1.525587 -1.525587 v 3.051173 h 3.051173 v -1.525589 1.525589 h 38.139661 v -1.525589 1.525589 h 38.13966 v -1.525589 1.525589 h 38.139662 v -1.525589 1.525589 h 38.13965 v -1.525589 1.525589 h 3.05117"
       id="path1" />
    <text
       xml:space="preserve"
       style="font-style:normal;font-variant:normal;font-weight:400;font-size:3.80837px;line-height:125%;font-family:Arial;text-align:start;letter-spacing:0px;word-spacing:0px;text-anchor:start;fill:#000000;fill-opacity:1;stroke:none;stroke-width:0.450999"
       x="17.81155"
       y="93.187737"
       id="text2"><tspan
         sodipodi:role="line"
         x="17.81155"
         y="93.187737"
         id="tspan2"
         style="font-size:3.80837px;stroke-width:0.450999"><tspan
           dx="0"
           dy="0"
           style="font-style:normal;font-variant:normal;font-weight:400;font-size:3.80837px;font-family:Arial;fill:#000000;stroke-width:0.450999"
           id="tspan1">1</tspan></tspan></text>
    <text
       xml:space="preserve"
       style="font-style:normal;font-variant:normal;font-weight:400;font-size:3.80837px;line-height:125%;font-family:Arial;text-align:start;letter-spacing:0px;word-spacing:0px;text-anchor:start;fill:#000000;fill-opacity:1;stroke:none;stroke-width:0.450999"
       x="52.900047"
       y="93.187737"
       id="text4"><tspan
         sodipodi:role="line"
         x="52.900047"
         y="93.187737"
         id="tspan4"
         style="font-size:3.80837px;stroke-width:0.450999"><tspan
           dx="0"
           dy="0"
           style="font-style:normal;font-variant:normal;font-weight:400;font-size:3.80837px;font-family:Arial;fill:#000000;stroke-width:0.450999"
           id="tspan3">1670</tspan></tspan></text>
    <text
       xml:space="preserve"
       style="font-style:normal;font-variant:normal;font-weight:400;font-size:3.80837px;line-height:125%;font-family:Arial;text-align:start;letter-spacing:0px;word-spacing:0px;text-anchor:start;fill:#000000;fill-opacity:1;stroke:none;stroke-width:0.450999"
       x="91.03968"
       y="93.187737"
       id="text6"><tspan
         sodipodi:role="line"
         x="91.03968"
         y="93.187737"
         id="tspan6"
         style="font-size:3.80837px;stroke-width:0.450999"><tspan
           dx="0"
           dy="0"
           style="font-style:normal;font-variant:normal;font-weight:400;font-size:3.80837px;font-family:Arial;fill:#000000;stroke-width:0.450999"
           id="tspan5">3339</tspan></tspan></text>
    <text
       xml:space="preserve"
       style="font-style:normal;font-variant:normal;font-weight:400;font-size:3.80837px;line-height:125%;font-family:Arial;text-align:start;letter-spacing:0px;word-spacing:0px;text-anchor:start;fill:#000000;fill-opacity:1;stroke:none;stroke-width:0.450999"
       x="129.17941"
       y="93.187737"
       id="text8"><tspan
         sodipodi:role="line"
         x="129.17941"
         y="93.187737"
         id="tspan8"
         style="font-size:3.80837px;stroke-width:0.450999"><tspan
           dx="0"
           dy="0"
           style="font-style:normal;font-variant:normal;font-weight:400;font-size:3.80837px;font-family:Arial;fill:#000000;stroke-width:0.450999"
           id="tspan7">5010</tspan></tspan></text>
    <text
       xml:space="preserve"
       style="font-style:normal;font-variant:normal;font-weight:400;font-size:3.80837px;line-height:125%;font-family:Arial;text-align:start;letter-spacing:0px;word-spacing:0px;text-anchor:start;fill:#000000;fill-opacity:1;stroke:none;stroke-width:0.450999"
       x="167.31909"
       y="93.187737"
       id="text10"><tspan
         sodipodi:role="line"
         x="167.31909"
         y="93.187737"
         id="tspan10"
         style="font-size:3.80837px;stroke-width:0.450999"><tspan
           dx="0"
           dy="0"
           style="font-style:normal;font-variant:normal;font-weight:400;font-size:3.80837px;font-family:Arial;fill:#000000;stroke-width:0.450999"
           id="tspan9">6678</tspan></tspan></text>
    <text
       xml:space="preserve"
       style="font-style:normal;font-variant:normal;font-weight:400;font-size:3.80837px;line-height:125%;font-family:Arial;text-align:start;letter-spacing:0px;word-spacing:0px;text-anchor:start;fill:#000000;fill-opacity:1;stroke:none;stroke-width:0.450999"
       x="14.994669"
       y="99.819275"
       id="text12"><tspan
         sodipodi:role="line"
         x="14.994669"
         y="99.819275"
         id="tspan12"
         style="font-size:3.80837px;stroke-width:0.450999"><tspan
           style="font-style:normal;font-variant:normal;font-weight:400;font-size:3.80837px;font-family:Arial;fill:#000000;stroke-width:0.450999"
           id="tspan11"
           dy="0"
           dx="0">Nucleotide position in relation to KP862744_human_KOR_2014_NA_kor85_human-stool_serot</tspan></tspan></text>
    <text
       xml:space="preserve"
       style="font-style:normal;font-variant:normal;font-weight:400;font-size:4.2845px;line-height:356.071%;font-family:Arial;text-align:start;letter-spacing:0px;word-spacing:0px;text-anchor:start;fill:#000000;fill-opacity:1;stroke:none;stroke-width:0.450999"
       x="5.9034615"
       y="25.756811"
       id="text22"><tspan
         sodipodi:role="line"
         x="5.9034615"
         y="25.756811"
         id="tspan14"
         style="stroke-width:0.450999"><tspan
           dx="0"
           dy="0"
           style="font-style:normal;font-variant:normal;font-weight:400;font-size:4.2845px;font-family:Arial;fill:#000000;stroke-width:0.450999"
           id="tspan13">1</tspan></tspan><tspan
         sodipodi:role="line"
         x="5.9034615"
         y="41.012676"
         id="tspan16"
         style="stroke-width:0.450999"><tspan
           dx="0"
           dy="0"
           style="font-style:normal;font-variant:normal;font-weight:400;font-size:4.2845px;font-family:Arial;fill:#000000;stroke-width:0.450999"
           id="tspan15">0,75</tspan></tspan><tspan
         sodipodi:role="line"
         x="5.9034615"
         y="56.268539"
         id="tspan18"
         style="stroke-width:0.450999"><tspan
           dx="0"
           dy="0"
           style="font-style:normal;font-variant:normal;font-weight:400;font-size:4.2845px;font-family:Arial;fill:#000000;stroke-width:0.450999"
           id="tspan17">0,5</tspan></tspan><tspan
         sodipodi:role="line"
         x="5.9034615"
         y="71.524399"
         id="tspan20"
         style="stroke-width:0.450999"><tspan
           dx="0"
           dy="0"
           style="font-style:normal;font-variant:normal;font-weight:400;font-size:4.2845px;font-family:Arial;fill:#000000;stroke-width:0.450999"
           id="tspan19">0,25</tspan></tspan><tspan
         sodipodi:role="line"
         x="5.9034615"
         y="86.780266"
         id="tspan22"
         style="stroke-width:0.450999"><tspan
           dx="0"
           dy="0"
           style="font-style:normal;font-variant:normal;font-weight:400;font-size:4.2845px;font-family:Arial;fill:#000000;stroke-width:0.450999"
           id="tspan21">0</tspan></tspan></text>
    <path
       style="fill:none;stroke:#000000;stroke-width:0.305117px;stroke-linecap:round;stroke-linejoin:round;stroke-miterlimit:4;stroke-dasharray:none;stroke-opacity:1"
       d="m 157.4742,18.1357 v 1.525586"
       id="path22" />
    <path
       style="fill:none;stroke:#000000;stroke-width:0.305117px;stroke-linecap:round;stroke-linejoin:round;stroke-miterlimit:4;stroke-dasharray:0.450999, 0.450999;stroke-dashoffset:0;stroke-opacity:1"
       d="M 15.899784,24.238046 H 174.56076"
       id="path34" />
    <path
       style="fill:#c6c6c6;fill-opacity:1;fill-rule:evenodd;stroke:#c6c6c6;stroke-width:0.305117px;stroke-linecap:round;stroke-linejoin:round;stroke-miterlimit:4;stroke-dasharray:none;stroke-opacity:1"
       d="m 19.256075,85.261504 h 0.305118 0.305117 0.305117 0.305118 0.305117 0.305117 0.305119 0.305115 0.305119 0.305117 0.305117 0.305118 0.305117 0.305116 0.305118 0.305117 0.305119 V 24.238046 h 0.305116 0.305118 0.305116 0.305119 0.305115 0.305119 0.305117 0.305118 0.305117 0.305116 0.305117 0.305117 0.305117 0.305119 0.305116 0.305119 0.305115 0.305118 0.305117 0.305118 0.305117 0.305118 0.305117 0.305116 0.305118 0.305118 0.305117 0.305118 0.305116 0.305119 0.305115 0.305118 0.305118 0.305117 0.305118 0.305117 0.305117 0.305117 0.305117 0.305118 0.305117 0.305118 0.305116 0.305119 0.305115 0.305119 0.305116 0.305117 0.305118 0.305117 0.305116 0.305118 0.305117 0.305119 0.305116 0.305118 0.305118 0.305117 0.305116 0.305117 0.305118 0.305116 0.30512 0.305118 0.305117 0.305118 0.305114 0.30512 0.305115 0.305118 0.305116 0.305119 0.305115 0.305119 0.30512 0.305115 0.305119 0.305113 0.305122 0.305113 0.305119 0.305116 0.305118 0.305115 0.305121 0.305118 0.305117 0.305118 0.305115 0.305119 0.305115 0.30512 0.305114 0.305118 0.305117 0.305118 0.305119 0.305116 0.305119 0.305114 0.305121 0.305113 0.305121 0.305113 0.30512 0.305115 0.305119 0.305115 0.30512 0.305118 0.305117 0.305119 0.305113 0.305122 0.305113 0.305118 0.305117 0.305119 0.305115 0.30512 0.305119 0.305115 0.30512 0.305114 0.30512 0.305115 0.305118 0.305116 0.305118 0.305117 0.305118 0.305118 0.305117 0.305118 0.305115 0.305119 0.305115 0.30512 0.305114 0.30512 0.305115 0.305119 0.305119 0.305116 0.305119 0.305116 0.305119 0.305113 0.305126 0.305115 0.305118 0.305117 0.305118 0.305117 0.305118 0.305115 0.305118 0.305117 0.305117 0.305118 0.305118 0.305115 0.30512 0.305115 0.305119 0.305117 0.305117 0.305118 0.305117 0.305116 0.305118 0.305117 0.305119 0.305116 0.305118 0.305116 0.305118 0.305116 0.305119 0.305117 0.305117 0.305118 0.305116 0.305118 0.305117 0.305117 0.305118 0.305117 0.305117 0.305118 0.305116 0.305119 0.305116 0.305118 0.305117 0.305118 0.305115 0.305119 0.305117 0.305117 0.305118 0.305117 0.305118 0.305116 0.305117 0.305119 0.305116 0.305118 0.305117 0.305118 0.305115 0.305119 0.305117 0.305118 0.305117 0.305117 0.305118 0.305116 0.305116 0.305115 0.305126 0.305115 0.305113 0.305115 0.305126 0.305115 0.305113 0.305115 0.305125 0.305115 0.305113 0.305114 0.305127 0.305114 0.305115 0.305114 0.305125 0.305115 0.305115 0.305124 0.305116 0.305114 0.305114 0.305124 0.305115 0.305112 0.305116 0.305122 0.30512 0.30511 0.30511 0.30512 0.30512 0.3051 0.30511 0.30514 0.30511 0.30511 0.30512 0.30513 0.30511 0.30511 0.30512 0.30512 0.30511 0.30513 0.30511 0.30513 0.30511 0.30511 0.30512 0.30511 0.30512 0.30511 0.30513 0.30513 0.30511 0.30511 0.30512 0.30512 0.30511 0.30512 0.30513 0.30511 0.30511 0.30512 0.30512 0.30511 0.30511 0.30513 0.30512 0.30511 0.30512 0.30511 0.30512 0.30513 0.30512 0.30511 0.30512 0.30512 0.30511 0.30511 0.30513 v 61.023458 h 0.30512 l 0.30511,-61.023458 v 61.023458 h 0.30514 V 24.238046 h 0.3051 0.30511 0.30511 0.30513 0.30512 0.30511 0.30512 0.30512 0.30511 0.30513 0.30511 0.30512 0.30512 0.30512 0.30511 0.30512 0.30512 v 61.023458 h 0.3051 0.30511 0.30515 0.30511 0.30511 0.30511 0.30513 0.30511 V 24.238046 h 0.30511 0.30512 0.30513 0.30511 0.30513 0.30511 0.30512 0.30511 0.30512 0.30512 0.30511 0.30512 0.30512 0.30511 0.30512 0.30512 0.30512 0.30512 0.30512 0.30511 0.30511 0.30512 0.30511 v 61.023458 h 0.30513 0.30512 V 24.238046 h 0.30512 v 61.023458 h 0.30511 V 24.238046 h 0.30511 0.30513 0.30511 0.30512 0.30512 0.30511 0.30511 0.30513 0.30512 0.30511 0.30511 0.30513 0.30512 0.30511 0.30512 0.30511 0.30511 0.30513 0.30513 0.30511 0.30511 0.30512 0.30511 0.30512 0.30512 0.30512 0.30511 0.30512 0.30513 0.30511 0.30511 0.30512 0.30511 0.30514 0.30511 0.30511 0.30511 0.30512 0.30512 0.30512 0.30512 0.30513 0.3051 0.30511 0.30512 0.30513 0.3051 0.30512 0.30513 0.30513 0.3051 0.30512 0.30511 0.30512 0.3051 0.30513 0.30512 0.30512 0.30512 0.30511 0.30511 0.30514 0.30511 0.30511 0.30512 0.30513 0.30509 0.30512 0.30514 0.30512 0.3051 0.30512 0.30513 0.30511 0.3051 0.30512 0.30514 0.30511 0.30512 0.30511 0.30512 0.30513 0.30509 0.30512 0.30513 0.30512 0.3051 0.30511 0.30515 0.30511 v 61.023458 h 0.3051 0.30513 0.30513 0.30511 0.3051 0.30512 0.30512 0.30511 0.30512 0.30514 0.30511 0.30512 0.3051 0.30513 0.30511 0.30512 0.30511 0.30512 0.30513 0.30512 0.3051 0.30513 0.30511 0.30512 0.3051 0.30514 0.30511 0.30511 0.30512 0.30512 0.30513 0.30512 0.3051 0.30512 v 0 h -0.30512 -0.3051 -0.30512 -0.30513 -0.30512 -0.30512 -0.30511 -0.30511 -0.30514 -0.3051 -0.30512 -0.30511 -0.30513 -0.3051 -0.30512 -0.30513 -0.30512 -0.30511 -0.30512 -0.30511 -0.30513 -0.3051 -0.30512 -0.30511 -0.30514 -0.30512 -0.30511 -0.30512 -0.30512 -0.3051 -0.30511 -0.30513 -0.30513 -0.3051 -0.30511 -0.30515 -0.30511 -0.3051 -0.30512 -0.30513 -0.30512 -0.30509 -0.30513 -0.30512 -0.30511 -0.30512 -0.30511 -0.30514 -0.30512 -0.3051 -0.30511 -0.30513 -0.30512 -0.3051 -0.30512 -0.30514 -0.30512 -0.30509 -0.30513 -0.30512 -0.30511 -0.30511 -0.30514 -0.30511 -0.30511 -0.30512 -0.30512 -0.30512 -0.30513 -0.3051 -0.30512 -0.30511 -0.30512 -0.3051 -0.30513 -0.30513 -0.30512 -0.3051 -0.30513 -0.30512 -0.30511 -0.3051 -0.30513 -0.30512 -0.30512 -0.30512 -0.30512 -0.30511 -0.30511 -0.30511 -0.30514 -0.30511 -0.30512 -0.30511 -0.30511 -0.30513 -0.30512 -0.30511 -0.30512 -0.30512 -0.30512 -0.30511 -0.30512 -0.30511 -0.30511 -0.30513 -0.30513 -0.30511 -0.30511 -0.30512 -0.30511 -0.30512 -0.30513 -0.30511 -0.30511 -0.30512 -0.30513 -0.30511 -0.30511 -0.30512 -0.30512 -0.30511 -0.30513 -0.30511 -0.30511 -0.30512 -0.30512 -0.30513 -0.30511 -0.30512 -0.30511 -0.30511 -0.30512 -0.30512 -0.30512 -0.30512 -0.30512 -0.30511 -0.30512 -0.30512 -0.30511 -0.30512 -0.30512 -0.30511 -0.30512 -0.30511 -0.30513 -0.30511 -0.30513 -0.30512 -0.30511 -0.30511 -0.30513 -0.30511 -0.30511 -0.30511 -0.30515 -0.30511 -0.3051 -0.30512 -0.30512 -0.30511 -0.30512 -0.30512 -0.30512 -0.30511 -0.30513 -0.30511 -0.30512 -0.30512 -0.30511 -0.30512 -0.30513 -0.30511 -0.30511 -0.3051 -0.30514 -0.30511 -0.30512 -0.30513 -0.30511 -0.30511 -0.30512 -0.30512 -0.30511 -0.30512 -0.30513 -0.30512 -0.30511 -0.30512 -0.30511 -0.30512 -0.30513 -0.30511 -0.30511 -0.30512 -0.30512 -0.30511 -0.30511 -0.30513 -0.30512 -0.30511 -0.30512 -0.30512 -0.30511 -0.30511 -0.30513 -0.30513 -0.30511 -0.30512 -0.30511 -0.30512 -0.30511 -0.30511 -0.30513 -0.30511 -0.30513 -0.30511 -0.30512 -0.30512 -0.30511 -0.30511 -0.30513 -0.30512 -0.30511 -0.30511 -0.30514 -0.30511 -0.3051 -0.30512 -0.30512 -0.30511 -0.30511 -0.30512 H 99.807038 99.501922 99.19681 98.891695 98.586571 98.281457 97.976343 97.671227 97.366103 97.060988 96.755873 96.450748 96.145634 95.840519 95.535405 95.230278 94.925164 94.620051 94.314936 94.009811 93.704696 93.399583 93.094468 92.789342 92.484227 92.179114 91.873999 91.568873 91.263758 90.958642 90.653526 90.348408 90.043291 89.738174 89.433056 89.127939 88.82282 88.517705 88.212587 87.90747 87.602352 87.297236 86.992117 86.687 86.381884 86.076766 85.771649 85.466531 85.161414 84.856297 84.551178 84.246063 83.940945 83.635828 83.33071 83.025594 82.720475 82.415359 82.110241 81.805124 81.500007 81.194889 80.889772 80.584655 80.279537 79.974421 79.669303 79.364186 79.059069 78.75395 78.448834 78.143716 77.8386 77.533482 77.228366 76.923247 76.61813 76.313012 76.007896 75.702779 75.397661 75.092544 74.787427 74.482308 74.177193 73.872073 73.566958 73.26184 72.956722 72.651605 72.346488 72.04137 71.736255 71.431137 71.12602 70.820902 70.515785 70.210667 69.905552 69.600426 69.295313 68.990194 68.685078 68.379959 68.074843 67.769724 67.464605 67.15949 h -0.30512 -0.305114 -0.30512 -0.305115 -0.305119 -0.305115 -0.305118 -0.305117 -0.305118 -0.305118 -0.305117 -0.305118 -0.305116 -0.305118 -0.305115 -0.30512 -0.305114 -0.30512 -0.305115 -0.305119 -0.30512 -0.305115 -0.305119 -0.305117 -0.305118 -0.305113 -0.305122 -0.305113 -0.305119 -0.305117 -0.305118 -0.30512 -0.305115 -0.305119 -0.305115 -0.30512 -0.305113 -0.305121 -0.305113 -0.305121 -0.305114 -0.305119 -0.305116 -0.305119 -0.305118 -0.305117 -0.305118 -0.305114 -0.30512 -0.305115 -0.305119 -0.305115 -0.305118 -0.305117 -0.305118 -0.305121 -0.305115 -0.305118 -0.305116 -0.305119 -0.305113 -0.305122 -0.305113 -0.305119 -0.305115 -0.30512 -0.305119 -0.305115 -0.305119 -0.305116 -0.305118 -0.305115 -0.30512 -0.305114 -0.305118 -0.305117 -0.305118 -0.30512 H 43.055223 42.750105 42.444988 42.139872 41.834755 41.529637 41.224519 40.919403 40.614284 40.309167 40.004049 39.698933 39.393816 39.088698 38.783581 38.478465 38.173346 37.868231 37.563112 37.257996 36.952878 36.647761 36.342643 36.037526 35.732409 35.427292 35.122175 34.817057 34.51194 34.206822 33.901704 33.596589 33.29147 32.986354 32.681236 32.376119 32.071001 31.765883 31.460767 31.15565 30.850532 30.545415 30.240297 29.93518 29.630062 29.324947 29.019828 28.714712 28.409593 28.104476 27.799359 27.494242 27.189126 26.884009 26.578891 26.273774 25.968655 25.66354 25.358421 25.053305 24.748187 24.443071 24.137952 23.832835 23.527717 23.222601 22.917484 22.612366 22.307249 22.002132 21.697013 21.391898 21.086779 20.781662 20.476545 20.171427 19.86631 19.561193 Z"
       id="path36" />
    <path
       style="fill:#808080;fill-opacity:1;fill-rule:evenodd;stroke:#808080;stroke-width:0.305117px;stroke-linecap:round;stroke-linejoin:round;stroke-miterlimit:4;stroke-dasharray:none;stroke-opacity:1"
       d="m 19.256075,85.261504 h 0.305118 0.305117 0.305117 0.305118 0.305117 0.305117 0.305119 0.305115 0.305119 0.305117 0.305117 0.305118 0.305117 0.305116 0.305118 0.305117 0.305119 0.305116 0.305118 0.305116 0.305119 0.305115 0.305119 0.305117 0.305118 0.305117 0.305116 0.305117 0.305117 0.305117 0.305119 0.305116 0.305119 0.305115 0.305118 0.305117 0.305118 0.305117 0.305118 0.305117 0.305116 0.305118 0.305118 0.305117 0.305118 0.305116 0.305119 0.305115 0.305118 0.305118 0.305117 0.305118 0.305117 0.305117 0.305117 0.305117 0.305118 0.305117 0.305118 0.305116 0.305119 0.305115 0.305119 0.305116 0.305117 0.305118 0.305117 0.305116 0.305118 0.305117 0.305119 0.305116 0.305118 0.305118 0.305117 0.305116 0.305117 0.305118 0.305116 0.30512 0.305118 0.305117 0.305118 0.305114 0.30512 0.305115 0.305118 0.305116 0.305119 0.305115 0.305119 0.30512 0.305115 0.305119 0.305113 0.305122 0.305113 0.305119 0.305116 0.305118 0.305115 0.305121 0.305118 0.305117 0.305118 0.305115 0.305119 0.305115 0.30512 0.305114 0.305118 0.305117 0.305118 0.305119 0.305116 0.305119 0.305114 0.305121 0.305113 0.305121 0.305113 0.30512 0.305115 0.305119 0.305115 0.30512 0.305118 0.305117 0.305119 0.305113 0.305122 0.305113 V 24.238046 h 0.305118 0.305117 0.305119 0.305115 0.30512 0.305119 0.305115 V 85.261504 24.238046 h 0.30512 0.305114 v 61.023458 h 0.30512 0.305115 0.305118 0.305116 0.305118 0.305117 0.305118 0.305118 0.305117 0.305118 0.305115 0.305119 0.305115 0.30512 0.305114 0.30512 0.305115 0.305119 0.305119 0.305116 0.305119 0.305116 0.305119 0.305113 0.305126 0.305115 0.305118 0.305117 V 24.238046 h 0.305118 0.305117 0.305118 0.305115 0.305118 0.305117 0.305117 0.305118 0.305118 0.305115 0.30512 0.305115 0.305119 0.305117 0.305117 0.305118 0.305117 0.305116 v 61.023458 h 0.305118 0.305117 0.305119 0.305116 V 24.238046 H 77.8386 V 85.261504 24.238046 h 0.305116 0.305118 0.305116 0.305119 0.305117 0.305117 0.305118 0.305116 0.305118 v 61.023458 h 0.305117 0.305117 V 24.238046 l 0.305118,61.023458 h 0.305117 V 24.238046 l 0.305117,61.023458 V 24.238046 h 0.305118 v 61.023458 h 0.305116 0.305119 0.305116 0.305118 0.305117 0.305118 0.305115 0.305119 0.305117 0.305117 0.305118 0.305117 0.305118 0.305116 0.305117 0.305119 0.305116 0.305118 0.305117 0.305118 0.305115 0.305119 0.305117 0.305118 0.305117 0.305117 0.305118 0.305116 0.305116 0.305115 0.305126 0.305115 0.305113 0.305115 0.305126 0.305115 0.305113 0.305115 0.305125 0.305115 0.305113 0.305114 0.305127 0.305114 0.305115 0.305114 0.305125 0.305115 0.305115 0.305124 0.305116 0.305114 0.305114 0.305124 0.305115 0.305112 0.305116 0.305122 0.30512 0.30511 0.30511 0.30512 0.30512 0.3051 0.30511 0.30514 0.30511 0.30511 0.30512 0.30513 0.30511 0.30511 0.30512 0.30512 0.30511 0.30513 0.30511 0.30513 0.30511 0.30511 0.30512 0.30511 0.30512 0.30511 0.30513 0.30513 0.30511 V 24.238046 h 0.30511 0.30512 0.30512 0.30511 V 85.261504 24.238046 l 0.30512,61.023458 V 24.238046 h 0.30513 v 61.023458 h 0.30511 0.30511 0.30512 0.30512 0.30511 0.30511 0.30513 0.30512 0.30511 0.30512 0.30511 0.30512 0.30513 0.30512 0.30511 0.30512 0.30512 0.30511 0.30511 0.30513 0.30512 0.30511 0.30514 0.3051 0.30511 0.30511 0.30513 0.30512 0.30511 0.30512 0.30512 0.30511 0.30513 0.30511 0.30512 0.30512 0.30512 0.30511 0.30512 0.30512 0.3051 0.30511 0.30515 0.30511 0.30511 0.30511 0.30513 0.30511 0.30511 0.30512 0.30513 0.30511 0.30513 0.30511 0.30512 0.30511 0.30512 0.30512 0.30511 0.30512 0.30512 0.30511 0.30512 0.30512 0.30512 0.30512 0.30512 0.30511 0.30511 0.30512 0.30511 0.30513 0.30512 0.30512 0.30511 0.30511 0.30513 0.30511 0.30512 0.30512 0.30511 0.30511 0.30513 0.30512 0.30511 0.30511 0.30513 0.30512 0.30511 0.30512 0.30511 0.30511 0.30513 0.30513 0.30511 0.30511 0.30512 0.30511 0.30512 0.30512 0.30512 0.30511 0.30512 0.30513 0.30511 0.30511 0.30512 0.30511 0.30514 0.30511 0.30511 0.30511 0.30512 0.30512 0.30512 0.30512 0.30513 0.3051 0.30511 0.30512 0.30513 0.3051 0.30512 0.30513 0.30513 0.3051 0.30512 0.30511 0.30512 0.3051 0.30513 0.30512 0.30512 0.30512 0.30511 0.30511 0.30514 0.30511 0.30511 0.30512 0.30513 0.30509 0.30512 0.30514 0.30512 0.3051 0.30512 0.30513 0.30511 0.3051 0.30512 0.30514 0.30511 0.30512 0.30511 0.30512 0.30513 0.30509 0.30512 0.30513 0.30512 0.3051 0.30511 0.30515 0.30511 0.3051 0.30513 0.30513 0.30511 0.3051 0.30512 0.30512 0.30511 0.30512 0.30514 0.30511 0.30512 0.3051 0.30513 0.30511 0.30512 0.30511 0.30512 0.30513 0.30512 0.3051 0.30513 0.30511 0.30512 0.3051 0.30514 0.30511 0.30511 0.30512 0.30512 0.30513 0.30512 0.3051 0.30512 v 0 h -0.30512 -0.3051 -0.30512 -0.30513 -0.30512 -0.30512 -0.30511 -0.30511 -0.30514 -0.3051 -0.30512 -0.30511 -0.30513 -0.3051 -0.30512 -0.30513 -0.30512 -0.30511 -0.30512 -0.30511 -0.30513 -0.3051 -0.30512 -0.30511 -0.30514 -0.30512 -0.30511 -0.30512 -0.30512 -0.3051 -0.30511 -0.30513 -0.30513 -0.3051 -0.30511 -0.30515 -0.30511 -0.3051 -0.30512 -0.30513 -0.30512 -0.30509 -0.30513 -0.30512 -0.30511 -0.30512 -0.30511 -0.30514 -0.30512 -0.3051 -0.30511 -0.30513 -0.30512 -0.3051 -0.30512 -0.30514 -0.30512 -0.30509 -0.30513 -0.30512 -0.30511 -0.30511 -0.30514 -0.30511 -0.30511 -0.30512 -0.30512 -0.30512 -0.30513 -0.3051 -0.30512 -0.30511 -0.30512 -0.3051 -0.30513 -0.30513 -0.30512 -0.3051 -0.30513 -0.30512 -0.30511 -0.3051 -0.30513 -0.30512 -0.30512 -0.30512 -0.30512 -0.30511 -0.30511 -0.30511 -0.30514 -0.30511 -0.30512 -0.30511 -0.30511 -0.30513 -0.30512 -0.30511 -0.30512 -0.30512 -0.30512 -0.30511 -0.30512 -0.30511 -0.30511 -0.30513 -0.30513 -0.30511 -0.30511 -0.30512 -0.30511 -0.30512 -0.30513 -0.30511 -0.30511 -0.30512 -0.30513 -0.30511 -0.30511 -0.30512 -0.30512 -0.30511 -0.30513 -0.30511 -0.30511 -0.30512 -0.30512 -0.30513 -0.30511 -0.30512 -0.30511 -0.30511 -0.30512 -0.30512 -0.30512 -0.30512 -0.30512 -0.30511 -0.30512 -0.30512 -0.30511 -0.30512 -0.30512 -0.30511 -0.30512 -0.30511 -0.30513 -0.30511 -0.30513 -0.30512 -0.30511 -0.30511 -0.30513 -0.30511 -0.30511 -0.30511 -0.30515 -0.30511 -0.3051 -0.30512 -0.30512 -0.30511 -0.30512 -0.30512 -0.30512 -0.30511 -0.30513 -0.30511 -0.30512 -0.30512 -0.30511 -0.30512 -0.30513 -0.30511 -0.30511 -0.3051 -0.30514 -0.30511 -0.30512 -0.30513 -0.30511 -0.30511 -0.30512 -0.30512 -0.30511 -0.30512 -0.30513 -0.30512 -0.30511 -0.30512 -0.30511 -0.30512 -0.30513 -0.30511 -0.30511 -0.30512 -0.30512 -0.30511 -0.30511 -0.30513 -0.30512 -0.30511 -0.30512 -0.30512 -0.30511 -0.30511 -0.30513 -0.30513 -0.30511 -0.30512 -0.30511 -0.30512 -0.30511 -0.30511 -0.30513 -0.30511 -0.30513 -0.30511 -0.30512 -0.30512 -0.30511 -0.30511 -0.30513 -0.30512 -0.30511 -0.30511 -0.30514 -0.30511 -0.3051 -0.30512 -0.30512 -0.30511 -0.30511 -0.30512 H 99.807038 99.501922 99.19681 98.891695 98.586571 98.281457 97.976343 97.671227 97.366103 97.060988 96.755873 96.450748 96.145634 95.840519 95.535405 95.230278 94.925164 94.620051 94.314936 94.009811 93.704696 93.399583 93.094468 92.789342 92.484227 92.179114 91.873999 91.568873 91.263758 90.958642 90.653526 90.348408 90.043291 89.738174 89.433056 89.127939 88.82282 88.517705 88.212587 87.90747 87.602352 87.297236 86.992117 86.687 86.381884 86.076766 85.771649 85.466531 85.161414 84.856297 84.551178 84.246063 83.940945 83.635828 83.33071 83.025594 82.720475 82.415359 82.110241 81.805124 81.500007 81.194889 80.889772 80.584655 80.279537 79.974421 79.669303 79.364186 79.059069 78.75395 78.448834 78.143716 77.8386 77.533482 77.228366 76.923247 76.61813 76.313012 76.007896 75.702779 75.397661 75.092544 74.787427 74.482308 74.177193 73.872073 73.566958 73.26184 72.956722 72.651605 72.346488 72.04137 71.736255 71.431137 71.12602 70.820902 70.515785 70.210667 69.905552 69.600426 69.295313 68.990194 68.685078 68.379959 68.074843 67.769724 67.464605 67.15949 h -0.30512 -0.305114 -0.30512 -0.305115 -0.305119 -0.305115 -0.305118 -0.305117 -0.305118 -0.305118 -0.305117 -0.305118 -0.305116 -0.305118 -0.305115 -0.30512 -0.305114 -0.30512 -0.305115 -0.305119 -0.30512 -0.305115 -0.305119 -0.305117 -0.305118 -0.305113 -0.305122 -0.305113 -0.305119 -0.305117 -0.305118 -0.30512 -0.305115 -0.305119 -0.305115 -0.30512 -0.305113 -0.305121 -0.305113 -0.305121 -0.305114 -0.305119 -0.305116 -0.305119 -0.305118 -0.305117 -0.305118 -0.305114 -0.30512 -0.305115 -0.305119 -0.305115 -0.305118 -0.305117 -0.305118 -0.305121 -0.305115 -0.305118 -0.305116 -0.305119 -0.305113 -0.305122 -0.305113 -0.305119 -0.305115 -0.30512 -0.305119 -0.305115 -0.305119 -0.305116 -0.305118 -0.305115 -0.30512 -0.305114 -0.305118 -0.305117 -0.305118 -0.30512 H 43.055223 42.750105 42.444988 42.139872 41.834755 41.529637 41.224519 40.919403 40.614284 40.309167 40.004049 39.698933 39.393816 39.088698 38.783581 38.478465 38.173346 37.868231 37.563112 37.257996 36.952878 36.647761 36.342643 36.037526 35.732409 35.427292 35.122175 34.817057 34.51194 34.206822 33.901704 33.596589 33.29147 32.986354 32.681236 32.376119 32.071001 31.765883 31.460767 31.15565 30.850532 30.545415 30.240297 29.93518 29.630062 29.324947 29.019828 28.714712 28.409593 28.104476 27.799359 27.494242 27.189126 26.884009 26.578891 26.273774 25.968655 25.66354 25.358421 25.053305 24.748187 24.443071 24.137952 23.832835 23.527717 23.222601 22.917484 22.612366 22.307249 22.002132 21.697013 21.391898 21.086779 20.781662 20.476545 20.171427 19.86631 19.561193 Z"
       id="path37" />
    <path
       style="fill:none;stroke:#000000;stroke-width:0.305117px;stroke-linecap:round;stroke-linejoin:round;stroke-miterlimit:4;stroke-dasharray:none;stroke-opacity:1"
       d="m 18.950957,85.261504 v 0 0 0 0 0 h 0.305118 v 0 0 0 0 0 0 0 0 0 0 0 0 0 h 0.305118 v 0 0 0 0 0 0 0 0 0 0 0 0 h 0.305117 v 0 0 0 0 0 0 0 0 0 0 0 0 h 0.305117 v 0 0 0 0 0 0 0 0 0 0 0 0 0 h 0.305118 v 0 0 0 0 0 0 0 0 0 0 0 0 h 0.305117 v 0 0 0 0 0 0 0 0 0 0 0 0 h 0.305117 v 0 0 0 0 0 0 0 0 0 0 0 0 0 h 0.305119 v 0 0 0 0 0 0 0 0 0 0 0 0 h 0.305115 v 0 0 0 0 0 0 0 0 0 0 0 0 h 0.305119 v 0 0 0 0 0 0 0 0 0 0 0 0 0 h 0.305117 v 0 0 0 0 0 0 0 0 0 0 0 0 h 0.305117 v 0 0 0 0 0 0 0 0 0 0 0 0 h 0.305118 v 0 0 0 0 0 0 0 0 0 0 0 0 0 h 0.305117 v 0 0 0 0 0 0 0 0 0 0 0 0 h 0.305116 v 0 0 0 0 0 0 0 0 0 0 0 0 0 h 0.305118 v 0 0 0 0 0 0 0 0 0 0 0 0 h 0.305117 v 0 0 0 0 0 0 0 0 0 0 0 0 h 0.305119 v 0 0 0 0 0 0 0 0 0 0 0 0 0 h 0.305116 v 0 0 0 0 0 0 0 0 0 0 0 0 h 0.305118 v 0 0 0 0 0 0 0 0 0 0 0 0 h 0.305116 v 0 0 0 0 0 0 0 0 0 0 0 0 0 h 0.305119 v 0 0 0 0 0 0 0 0 0 0 0 0 h 0.305115 v 0 0 0 0 0 0 0 0 0 0 0 0 h 0.305119 v 0 0 0 0 0 0 0 0 0 0 0 0 0 h 0.305117 v 0 0 0 0 0 0 0 0 0 0 0 0 h 0.305118 v 0 0 0 0 0 0 0 0 0 0 0 0 h 0.305117 v 0 0 0 0 0 0 0 0 0 0 0 0 0 h 0.305116 v 0 0 0 0 0 0 0 0 0 0 0 0 h 0.305117 v 0 0 0 0 0 0 0 0 0 0 0 0 0 h 0.305117 v 0 0 0 0 0 0 0 0 0 0 0 0 h 0.305117 v 0 0 0 0 0 0 0 0 0 0 0 0 h 0.305119 v 0 0 0 0 0 0 0 0 0 0 0 0 0 h 0.305116 v 0 0 0 0 0 0 0 0 0 0 0 0 h 0.305119 v 0 0 0 0 0 0 0 0 0 0 0 0 h 0.305115 v 0 0 0 0 0 0 0 0 0 0 0 0 0 h 0.305118 v 0 0 0 0 0 0 0 0 0 0 0 0 h 0.305117 v 0 0 0 0 0 0 0 0 0 0 0 0 h 0.305118 v 0 0 0 0 0 0 0 0 0 0 0 0 0 h 0.305117 v 0 0 0 0 0 0 0 0 0 0 0 0 h 0.305118 v 0 0 0 0 0 0 0 0 0 0 0 0 h 0.305117 v 0 0 0 0 0 0 0 0 0 0 0 0 0 h 0.305116 v 0 0 0 0 0 0 0 0 0 0 0 0 h 0.305118 v 0 0 0 0 0 0 0 0 0 0 0 0 h 0.305118 v 0 0 0 0 0 0 0 0 0 0 0 0 0 h 0.305117 v 0 0 0 0 0 0 0 0 0 0 0 0 h 0.305118 v 0 0 0 0 0 0 0 0 0 0 0 0 0 h 0.305116 v 0 0 0 0 0 0 0 0 0 0 0 0 h 0.305119 v 0 0 0 0 0 0 0 0 0 0 0 0 h 0.305115 v 0 0 0 0 0 0 0 0 0 0 0 0 0 h 0.305118 v 0 0 0 0 0 0 0 0 0 0 0 0 h 0.305118 v 0 0 0 0 0 0 0 0 0 0 0 0 h 0.305117 v 0 0 0 0 0 0 0 0 0 0 0 0 0 h 0.305118 v 0 0 0 0 0 0 0 0 0 0 0 0 h 0.305117 v 0 0 0 0 0 0 0 0 0 0 0 0 h 0.305117 v 0 0 0 0 0 0 0 0 0 0 0 0 0 h 0.305117 v 0 0 0 0 0 0 0 0 0 0 0 0 h 0.305117 v 0 0 0 0 0 0 0 0 0 0 0 0 h 0.305118 v 0 0 0 0 0 0 0 0 0 0 0 0 0 h 0.305117 v 0 0 0 0 0 0 0 0 0 0 0 0 h 0.305118 v 0 0 0 0 0 0 0 0 0 0 0 0 0 h 0.305116 v 0 0 0 0 0 0 0 0 0 0 0 0 h 0.305119 v 0 0 0 0 0 0 0 0 0 0 0 0 h 0.305115 v 0 0 0 0 0 0 0 0 0 0 0 0 0 h 0.305119 v 0 0 0 0 0 0 0 0 0 0 0 0 h 0.305116 v 0 0 0 0 0 0 0 0 0 0 0 0 h 0.305117 v 0 0 0 0 0 0 0 0 0 0 0 0 0 h 0.305118 v 0 0 0 0 0 0 0 0 0 0 0 0 h 0.305117 v 0 0 0 0 0 0 0 0 0 0 0 0 h 0.305116 v 0 0 0 0 0 0 0 0 0 0 0 0 0 h 0.305118 v 0 0 0 0 0 0 0 0 0 0 0 0 h 0.305117 v 0 0 0 0 0 0 0 0 0 0 0 0 h 0.305119 v 0 0 0 0 0 0 0 0 0 0 0 0 0 h 0.305116 v 0 0 0 0 0 0 0 0 0 0 0 0 h 0.305118 v 0 0 0 0 0 0 0 0 0 0 0 0 0 h 0.305118 v 0 0 0 0 0 0 0 0 0 0 0 0 h 0.305117 v 0 0 0 0 0 0 0 0 0 0 0 0 h 0.305116 v 0 0 0 0 0 0 0 0 0 0 0 0 0 h 0.305117 v 0 0 0 0 0 0 0 0 0 0 0 0 h 0.305118 v 0 0 0 0 0 0 0 0 0 0 0 0 h 0.305116 v 0 0 0 0 0 0 0 0 0 0 0 0 0 h 0.30512 v 0 0 0 0 0 0 0 0 0 0 0 0 h 0.305118 v 0 0 0 0 0 0 0 0 0 0 0 0 h 0.305117 v 0 0 0 0 0 0 0 0 0 0 0 0 0 h 0.305118 v 0 0 0 0 0 0 0 0 0 0 0 0 h 0.305114 v 0 0 0 0 0 0 0 0 0 0 0 0 h 0.30512 v 0 0 0 0 0 0 0 0 0 0 0 0 0 h 0.305115 v 0 0 0 0 0 0 0 0 0 0 0 0 h 0.305118 v 0 0 0 0 0 0 0 0 0 0 0 0 0 h 0.305116 v 0 0 0 0 0 0 0 0 0 0 0 0 h 0.305119 v 0 0 0 0 0 0 0 0 0 0 0 0 h 0.305115 v 0 0 0 0 0 0 0 0 0 0 0 0 0 h 0.305119 v 0 0 0 0 0 0 0 0 0 0 0 0 h 0.30512 v 0 0 0 0 0 0 0 0 0 0 0 0 h 0.305115 v 0 0 0 0 0 0 0 0 0 0 0 0 0 h 0.305119 v 0 0 0 0 0 0 0 0 0 0 0 0 h 0.305113 v 0 0 0 0 0 0 0 0 0 0 0 0 h 0.305122 v 0 0 0 0 0 0 0 0 0 0 0 0 0 h 0.305113 v 0 0 0 0 0 0 0 0 0 0 0 0 h 0.305119 v 0 0 0 0 0 0 0 0 0 0 0 0 h 0.305116 v 0 0 0 0 0 0 0 0 0 0 0 0 0 h 0.305118 v 0 0 0 0 0 0 0 0 0 0 0 0 h 0.305115 v 0 0 0 0 0 0 0 0 0 0 0 0 h 0.305121 v 0 0 0 0 0 0 0 0 0 0 0 0 0 h 0.305118 v 0 0 0 0 0 0 0 0 0 0 0 0 h 0.305117 v 0 0 0 0 0 0 0 0 0 0 0 0 0 h 0.305118 v 0 0 0 0 0 0 0 0 0 0 0 0 h 0.305115 v 0 0 0 0 0 0 0 0 0 0 0 0 h 0.305119 v 0 0 0 0 0 0 0 0 0 0 0 0 0 h 0.305115 v 0 0 0 0 0 0 0 0 0 0 0 0 h 0.30512 v 0 0 0 0 0 0 0 0 0 0 0 0 h 0.305114 v 0 0 0 0 0 0 0 0 0 0 0 0 0 h 0.305118 v 0 0 0 0 0 0 0 0 0 0 0 0 h 0.305117 v 0 0 0 0 0 0 0 0 0 0 0 0 h 0.305118 v 0 0 0 0 0 0 0 0 0 0 0 0 0 h 0.305119 v 0 0 0 0 0 0 0 0 0 0 0 0 h 0.305116 v 0 0 0 0 0 0 0 0 0 0 0 0 h 0.305119 v 0 0 0 0 0 0 0 0 0 0 0 0 0 h 0.305114 v 0 0 0 0 0 0 0 0 0 0 0 0 h 0.305121 v 0 0 0 0 0 0 0 0 0 0 0 0 0 h 0.305113 v 0 0 0 0 0 0 0 0 0 0 0 0 h 0.305121 v 0 0 0 0 0 0 0 0 0 0 0 0 h 0.305113 v 0 0 0 0 0 0 0 0 0 0 0 0 0 h 0.30512 v 0 0 0 0 0 0 0 0 0 0 0 0 h 0.305115 v 0 0 0 0 0 0 0 0 0 0 0 0 h 0.305119 v 0 0 0 0 0 0 0 0 0 0 0 0 0 h 0.305115 v 0 0 0 0 0 0 0 0 0 0 0 0 h 0.30512 v 0 0 0 0 0 0 0 0 0 0 0 0 h 0.305118 v 0 0 0 0 0 0 0 0 0 0 0 0 0 h 0.305117 v 0 0 0 0 0 0 0 0 0 0 0 0 h 0.305119 v 0 0 0 0 0 0 0 0 0 0 0 0 h 0.305113 v 0 0 0 0 0 0 0 0 0 0 0 0 0 h 0.305122 v 0 0 0 0 0 0 0 0 0 0 0 0 h 0.305113 v 0 0 0 0 0 0 0 0 0 0 0 0 0 h 0.305118 v 0 0 0 0 0 0 0 0 0 0 0 0 h 0.305117 v 0 0 0 0 0 0 0 0 0 0 0 0 h 0.305119 v 0 0 0 0 0 0 0 0 0 0 0 0 0 h 0.305115 v 0 0 0 0 0 0 0 0 0 0 0 0 h 0.30512 v 0 0 0 0 0 0 0 0 0 0 0 0 h 0.305119 v 0 0 0 0 0 0 0 0 0 0 0 0 0 h 0.305115 v 0 0 0 0 0 0 0 0 0 0 0 0 h 0.30512 v 0 0 0 0 0 0 0 0 0 0 0 0 h 0.305114 v 0 0 0 0 0 0 0 0 0 0 0 0 0 h 0.30512 v 0 0 0 0 0 0 0 0 0 0 0 0 h 0.305115 v 0 0 0 0 0 0 0 0 0 0 0 0 h 0.305118 v 0 0 0 0 0 0 0 0 0 0 0 0 0 h 0.305116 v 0 0 0 0 0 0 0 0 0 0 0 0 h 0.305118 v 0 0 0 0 0 0 0 0 0 0 0 0 0 h 0.305117 v 0 0 0 0 0 0 0 0 0 0 0 0 h 0.305118 v 0 0 0 0 0 0 0 0 0 0 0 0 h 0.305118 v 0 0 0 0 0 0 0 0 0 0 0 0 0 h 0.305117 v 0 0 0 0 0 0 0 0 0 0 0 0 h 0.305118 v 0 0 0 0 0 0 0 0 0 0 0 0 h 0.305115 v 0 0 0 0 0 0 0 0 0 0 0 0 0 h 0.305119 v 0 0 0 0 0 0 0 0 0 0 0 0 h 0.305115 v 0 0 0 0 0 0 0 0 0 0 0 0 h 0.30512 v 0 0 0 0 0 0 0 0 0 0 0 0 0 h 0.305114 v 0 0 0 0 0 0 0 0 0 0 0 0 h 0.30512 v 0 0 0 0 0 0 0 0 0 0 0 0 h 0.305115 v 0 0 0 0 0 0 0 0 0 0 0 0 0 h 0.305119 v 0 0 0 0 0 0 0 0 0 0 0 0 h 0.305119 v 0 0 0 0 0 0 0 0 0 0 0 0 h 0.305116 v 0 0 0 0 0 0 0 0 0 0 0 0 0 h 0.305119 v 0 0 0 0 0 0 0 0 0 0 0 0 h 0.305116 v 0 0 0 0 0 0 0 0 0 0 0 0 0 h 0.305119 v 0 0 0 0 0 0 0 0 0 0 0 0 h 0.305113 v 0 0 0 0 0 0 0 0 0 0 0 0 h 0.305126 v 0 0 0 0 0 0 0 0 0 0 0 0 0 h 0.305115 v 0 0 0 0 0 0 0 0 0 0 0 0 h 0.305118 v 0 0 0 0 0 0 0 0 0 0 0 0 h 0.305117 v 0 0 0 0 0 0 0 0 0 0 0 0 0 h 0.305118 v 0 0 0 0 0 0 0 0 0 0 0 0 h 0.305117 v 0 0 0 0 0 0 0 0 0 0 0 0 h 0.305118 v 0 0 0 0 0 0 0 0 0 0 0 0 0 h 0.305115 v 0 0 0 0 0 0 0 0 0 0 0 0 h 0.305118 v 0 0 0 0 0 0 0 0 0 0 0 0 h 0.305117 v 0 0 0 0 0 0 0 0 0 0 0 0 0 h 0.305117 v 0 0 0 0 0 0 0 0 0 0 0 0 h 0.305118 v 0 0 0 0 0 0 0 0 0 0 0 0 0 h 0.305118 v 0 0 0 0 0 0 0 0 0 0 0 0 h 0.305115 v 0 0 0 0 0 0 0 0 0 0 0 0 h 0.30512 v 0 0 0 0 0 0 0 0 0 0 0 0 0 h 0.305115 v 0 0 0 0 0 0 0 0 0 0 0 0 h 0.305119 v 0 0 0 0 0 0 0 0 0 0 0 0 h 0.305117 v 0 0 0 0 0 0 0 0 0 0 0 0 0 h 0.305117 v 0 0 0 0 0 0 0 0 0 0 0 0 h 0.305118 v 0 0 0 0 0 0 0 0 0 0 0 0 h 0.305117 v 0 0 0 0 0 0 0 0 0 0 0 0 0 h 0.305116 v 0 0 0 0 0 0 0 0 0 0 0 0 h 0.305118 v 0 0 0 0 0 0 0 0 0 0 0 0 h 0.305117 v 0 0 0 0 0 0 0 0 0 0 0 0 0 h 0.305119 v 0 0 0 0 0 0 0 0 0 0 0 0 h 0.305116 v 0 0 0 0 0 0 0 0 0 0 0 0 0 H 77.8386 v 0 0 0 0 0 0 0 0 0 0 0 0 h 0.305116 v 0 0 0 0 0 0 0 0 0 0 0 0 h 0.305118 v 0 0 0 0 0 0 0 0 0 0 0 0 0 h 0.305116 v 0 0 0 0 0 0 0 0 0 0 0 0 h 0.305119 v 0 0 0 0 0 0 0 0 0 0 0 0 h 0.305117 v 0 0 0 0 0 0 0 0 0 0 0 0 0 h 0.305117 v 0 0 0 0 0 0 0 0 0 0 0 0 h 0.305118 v 0 0 0 0 0 0 0 0 0 0 0 0 h 0.305116 v 0 0 0 0 0 0 0 0 0 0 0 0 0 h 0.305118 v 0 0 0 0 0 0 0 0 0 0 0 0 h 0.305117 v 0 0 0 0 0 0 0 0 0 0 0 0 h 0.305117 v 0 0 0 0 0 0 0 0 0 0 0 0 0 h 0.305118 v 0 0 0 0 0 0 0 0 0 0 0 0 h 0.305117 v 0 0 0 0 0 0 0 0 0 0 0 0 0 h 0.305117 v 0 0 0 0 0 0 0 0 0 0 0 0 h 0.305118 v 0 0 0 0 0 0 0 0 0 0 0 0 h 0.305116 v 0 0 0 0 0 0 0 0 0 0 0 0 0 h 0.305119 v 0 0 0 0 0 0 0 0 0 0 0 0 h 0.305116 v 0 0 0 0 0 0 0 0 0 0 0 0 h 0.305118 v 0 0 0 0 0 0 0 0 0 0 0 0 0 h 0.305117 v 0 0 0 0 0 0 0 0 0 0 0 0 h 0.305118 v 0 0 0 0 0 0 0 0 0 0 0 0 h 0.305115 v 0 0 0 0 0 0 0 0 0 0 0 0 0 h 0.305119 v 0 0 0 0 0 0 0 0 0 0 0 0 h 0.305117 v 0 0 0 0 0 0 0 0 0 0 0 0 h 0.305117 v 0 0 0 0 0 0 0 0 0 0 0 0 0 h 0.305118 v 0 0 0 0 0 0 0 0 0 0 0 0 h 0.305117 v 0 0 0 0 0 0 0 0 0 0 0 0 h 0.305118 v 0 0 0 0 0 0 0 0 0 0 0 0 0 H 86.687 v 0 0 0 0 0 0 0 0 0 0 0 0 h 0.305117 v 0 0 0 0 0 0 0 0 0 0 0 0 0 h 0.305119 v 0 0 0 0 0 0 0 0 0 0 0 0 h 0.305116 v 0 0 0 0 0 0 0 0 0 0 0 0 h 0.305118 v 0 0 0 0 0 0 0 0 0 0 0 0 0 h 0.305117 v 0 0 0 0 0 0 0 0 0 0 0 0 h 0.305118 v 0 0 0 0 0 0 0 0 0 0 0 0 h 0.305115 v 0 0 0 0 0 0 0 0 0 0 0 0 0 h 0.305119 v 0 0 0 0 0 0 0 0 0 0 0 0 h 0.305117 v 0 0 0 0 0 0 0 0 0 0 0 0 h 0.305118 v 0 0 0 0 0 0 0 0 0 0 0 0 0 h 0.305117 v 0 0 0 0 0 0 0 0 0 0 0 0 h 0.305117 v 0 0 0 0 0 0 0 0 0 0 0 0 h 0.305118 v 0 0 0 0 0 0 0 0 0 0 0 0 0 h 0.305116 v 0 0 0 0 0 0 0 0 0 0 0 0 h 0.305116 v 0 0 0 0 0 0 0 0 0 0 0 0 0 h 0.305115 v 0 0 0 0 0 0 0 0 0 0 0 0 h 0.305126 v 0 0 0 0 0 0 0 0 0 0 0 0 h 0.305115 v 0 0 0 0 0 0 0 0 0 0 0 0 0 h 0.305113 v 0 0 0 0 0 0 0 0 0 0 0 0 h 0.305115 v 0 0 0 0 0 0 0 0 0 0 0 0 h 0.305126 v 0 0 0 0 0 0 0 0 0 0 0 0 0 h 0.305115 v 0 0 0 0 0 0 0 0 0 0 0 0 h 0.305113 v 0 0 0 0 0 0 0 0 0 0 0 0 h 0.305115 v 0 0 0 0 0 0 0 0 0 0 0 0 0 h 0.305125 v 0 0 0 0 0 0 0 0 0 0 0 0 h 0.305115 v 0 0 0 0 0 0 0 0 0 0 0 0 h 0.305113 v 0 0 0 0 0 0 0 0 0 0 0 0 0 h 0.305114 v 0 0 0 0 0 0 0 0 0 0 0 0 h 0.305127 v 0 0 0 0 0 0 0 0 0 0 0 0 0 h 0.305114 v 0 0 0 0 0 0 0 0 0 0 0 0 h 0.305115 v 0 0 0 0 0 0 0 0 0 0 0 0 h 0.305114 v 0 0 0 0 0 0 0 0 0 0 0 0 0 h 0.305125 v 0 0 0 0 0 0 0 0 0 0 0 0 h 0.305115 v 0 0 0 0 0 0 0 0 0 0 0 0 h 0.305115 v 0 0 0 0 0 0 0 0 0 0 0 0 0 h 0.305124 v 0 0 0 0 0 0 0 0 0 0 0 0 h 0.305116 v 0 0 0 0 0 0 0 0 0 0 0 0 h 0.305114 v 0 0 0 0 0 0 0 0 0 0 0 0 0 h 0.305114 v 0 0 0 0 0 0 0 0 0 0 0 0 h 0.305124 v 0 0 0 0 0 0 0 0 0 0 0 0 h 0.305115 v 0 0 0 0 0 0 0 0 0 0 0 0 0 h 0.305112 v 0 0 0 0 0 0 0 0 0 0 0 0 h 0.305116 v 0 0 0 0 0 0 0 0 0 0 0 0 0 h 0.305122 v 0 0 0 0 0 0 0 0 0 0 0 0 h 0.30512 v 0 0 0 0 0 0 0 0 0 0 0 0 h 0.30511 v 0 0 0 0 0 0 0 0 0 0 0 0 0 h 0.30511 v 0 0 0 0 0 0 0 0 0 0 0 0 h 0.30512 v 0 0 0 0 0 0 0 0 0 0 0 0 h 0.30512 v 0 0 0 0 0 0 0 0 0 0 0 0 0 h 0.3051 v 0 0 0 0 0 0 0 0 0 0 0 0 h 0.30511 v 0 0 0 0 0 0 0 0 0 0 0 0 h 0.30514 v 0 0 0 0 0 0 0 0 0 0 0 0 0 h 0.30511 v 0 0 0 0 0 0 0 0 0 0 0 0 h 0.30511 v 0 0 0 0 0 0 0 0 0 0 0 0 h 0.30512 v 0 0 0 0 0 0 0 0 0 0 0 0 0 h 0.30513 v 0 0 0 0 0 0 0 0 0 0 0 0 h 0.30511 v 0 0 0 0 0 0 0 0 0 0 0 0 0 h 0.30511 v 0 0 0 0 0 0 0 0 0 0 0 0 h 0.30512 v 0 0 0 0 0 0 0 0 0 0 0 0 h 0.30512 v 0 0 0 0 0 0 0 0 0 0 0 0 0 h 0.30511 v 0 0 0 0 0 0 0 0 0 0 0 0 h 0.30513 v 0 0 0 0 0 0 0 0 0 0 0 0 h 0.30511 v 0 0 0 0 0 0 0 0 0 0 0 0 0 h 0.30513 v 0 0 0 0 0 0 0 0 0 0 0 0 h 0.30511 v 0 0 0 0 0 0 0 0 0 0 0 0 h 0.30511 v 0 0 0 0 0 0 0 0 0 0 0 0 0 h 0.30512 v 0 0 0 0 0 0 0 0 0 0 0 0 h 0.30511 v 0 0 0 0 0 0 0 0 0 0 0 0 h 0.30512 v 0 0 0 0 0 0 0 0 0 0 0 0 0 h 0.30511 v 0 0 0 0 0 0 0 0 0 0 0 0 h 0.30513 v 0 0 0 0 0 0 0 0 0 0 0 0 h 0.30513 v 0 0 0 0 0 0 0 0 0 0 0 0 0 h 0.30511 v 0 0 0 0 0 0 0 0 0 0 0 0 h 0.30511 v 0 0 0 0 0 0 0 0 0 0 0 0 0 h 0.30512 v 0 0 0 0 0 0 0 0 0 0 0 0 h 0.30512 v 0 0 0 0 0 0 0 0 0 0 0 0 h 0.30511 v 0 0 0 0 0 0 0 0 0 0 0 0 0 h 0.30512 v 0 0 0 0 0 0 0 0 0 0 0 0 h 0.30513 v 0 0 0 0 0 0 0 0 0 0 0 0 h 0.30511 v 0 0 0 0 0 0 0 0 0 0 0 0 0 h 0.30511 v 0 0 0 0 0 0 0 0 0 0 0 0 h 0.30512 v 0 0 0 0 0 0 0 0 0 0 0 0 h 0.30512 v 0 0 0 0 0 0 0 0 0 0 0 0 0 h 0.30511 v 0 0 0 0 0 0 0 0 0 0 0 0 h 0.30511 v 0 0 0 0 0 0 0 0 0 0 0 0 h 0.30513 v 0 0 0 0 0 0 0 0 0 0 0 0 0 h 0.30512 v 0 0 0 0 0 0 0 0 0 0 0 0 h 0.30511 v 0 0 0 0 0 0 0 0 0 0 0 0 0 h 0.30512 v 0 0 0 0 0 0 0 0 0 0 0 0 h 0.30511 v 0 0 0 0 0 0 0 0 0 0 0 0 h 0.30512 v 0 0 0 0 0 0 0 0 0 0 0 0 0 h 0.30513 v 0 0 0 0 0 0 0 0 0 0 0 0 h 0.30512 v 0 0 0 0 0 0 0 0 0 0 0 0 h 0.30511 v 0 0 0 0 0 0 0 0 0 0 0 0 0 h 0.30512 v 0 0 0 0 0 0 0 0 0 0 0 0 h 0.30512 v 0 0 0 0 0 0 0 0 0 0 0 0 h 0.30511 v 0 0 0 0 0 0 0 0 0 0 0 0 0 h 0.30511 v 0 0 0 0 0 0 0 0 0 0 0 0 h 0.30513 v 0 0 0 0 0 0 0 0 0 0 0 0 h 0.30512 v 0 0 0 0 0 0 0 0 0 0 0 0 0 h 0.30511 v 0 0 0 0 0 0 0 0 0 0 0 0 h 0.30514 v 0 0 0 0 0 0 0 0 0 0 0 0 0 h 0.3051 v 0 0 0 0 0 0 0 0 0 0 0 0 h 0.30511 v 0 0 0 0 0 0 0 0 0 0 0 0 h 0.30511 v 0 0 0 0 0 0 0 0 0 0 0 0 0 h 0.30513 v 0 0 0 0 0 0 0 0 0 0 0 0 h 0.30512 v 0 0 0 0 0 0 0 0 0 0 0 0 h 0.30511 v 0 0 0 0 0 0 0 0 0 0 0 0 0 h 0.30512 v 0 0 0 0 0 0 0 0 0 0 0 0 h 0.30512 v 0 0 0 0 0 0 0 0 0 0 0 0 h 0.30511 v 0 0 0 0 0 0 0 0 0 0 0 0 0 h 0.30513 v 0 0 0 0 0 0 0 0 0 0 0 0 h 0.30511 v 0 0 0 0 0 0 0 0 0 0 0 0 h 0.30512 v 0 0 0 0 0 0 0 0 0 0 0 0 0 h 0.30512 v 0 0 0 0 0 0 0 0 0 0 0 0 h 0.30512 v 0 0 0 0 0 0 0 0 0 0 0 0 0 h 0.30511 v 0 0 0 0 0 0 0 0 0 0 0 0 h 0.30512 v 0 0 0 0 0 0 0 0 0 0 0 0 h 0.30512 v 0 0 0 0 0 0 0 0 0 0 0 0 0 h 0.3051 v 0 0 0 0 0 0 0 0 0 0 0 0 h 0.30511 v 0 0 0 0 0 0 0 0 0 0 0 0 h 0.30515 v 0 0 0 0 0 0 0 0 0 0 0 0 0 h 0.30511 v 0 0 0 0 0 0 0 0 0 0 0 0 h 0.30511 v 0 0 0 0 0 0 0 0 0 0 0 0 h 0.30511 v 0 0 0 0 0 0 0 0 0 0 0 0 0 h 0.30513 v 0 0 0 0 0 0 0 0 0 0 0 0 h 0.30511 v 0 0 0 0 0 0 0 0 0 0 0 0 h 0.30511 v 0 0 0 0 0 0 0 0 0 0 0 0 0 h 0.30512 v 0 0 0 0 0 0 0 0 0 0 0 0 h 0.30513 v 0 0 0 0 0 0 0 0 0 0 0 0 h 0.30511 v 0 0 0 0 0 0 0 0 0 0 0 0 0 h 0.30513 v 0 0 0 0 0 0 0 0 0 0 0 0 h 0.30511 v 0 0 0 0 0 0 0 0 0 0 0 0 0 h 0.30512 v 0 0 0 0 0 0 0 0 0 0 0 0 h 0.30511 v 0 0 0 0 0 0 0 0 0 0 0 0 h 0.30512 v 0 0 0 0 0 0 0 0 0 0 0 0 0 h 0.30512 v 0 0 0 0 0 0 0 0 0 0 0 0 h 0.30511 v 0 0 0 0 0 0 0 0 0 0 0 0 h 0.30512 v 0 0 0 0 0 0 0 0 0 0 0 0 0 h 0.30512 v 0 0 0 0 0 0 0 0 0 0 0 0 h 0.30511 v 0 0 0 0 0 0 0 0 0 0 0 0 h 0.30512 v 0 0 0 0 0 0 0 0 0 0 0 0 0 h 0.30512 v 0 0 0 0 0 0 0 0 0 0 0 0 h 0.30512 v 0 0 0 0 0 0 0 0 0 0 0 0 h 0.30512 v 0 0 0 0 0 0 0 0 0 0 0 0 0 h 0.30512 v 0 0 0 0 0 0 0 0 0 0 0 0 h 0.30511 v 0 0 0 0 0 0 0 0 0 0 0 0 0 h 0.30511 v 0 0 0 0 0 0 0 0 0 0 0 0 h 0.30512 v 0 0 0 0 0 0 0 0 0 0 0 0 h 0.30511 v 0 0 0 0 0 0 0 0 0 0 0 0 0 h 0.30513 v 0 0 0 0 0 0 0 0 0 0 0 0 h 0.30512 v 0 0 0 0 0 0 0 0 0 0 0 0 h 0.30512 v 0 0 0 0 0 0 0 0 0 0 0 0 0 h 0.30511 v 0 0 0 0 0 0 0 0 0 0 0 0 h 0.30511 v 0 0 0 0 0 0 0 0 0 0 0 0 h 0.30513 v 0 0 0 0 0 0 0 0 0 0 0 0 0 h 0.30511 v 0 0 0 0 0 0 0 0 0 0 0 0 h 0.30512 v 0 0 0 0 0 0 0 0 0 0 0 0 h 0.30512 v 0 0 0 0 0 0 0 0 0 0 0 0 0 h 0.30511 v 0 0 0 0 0 0 0 0 0 0 0 0 h 0.30511 v 0 0 0 0 0 0 0 0 0 0 0 0 0 h 0.30513 v 0 0 0 0 0 0 0 0 0 0 0 0 h 0.30512 v 0 0 0 0 0 0 0 0 0 0 0 0 h 0.30511 v 0 0 0 0 0 0 0 0 0 0 0 0 0 h 0.30511 v 0 0 0 0 0 0 0 0 0 0 0 0 h 0.30513 v 0 0 0 0 0 0 0 0 0 0 0 0 h 0.30512 v 0 0 0 0 0 0 0 0 0 0 0 0 0 h 0.30511 v 0 0 0 0 0 0 0 0 0 0 0 0 h 0.30512 v 0 0 0 0 0 0 0 0 0 0 0 0 h 0.30511 v 0 0 0 0 0 0 0 0 0 0 0 0 0 h 0.30511 v 0 0 0 0 0 0 0 0 0 0 0 0 h 0.30513 v 0 0 0 0 0 0 0 0 0 0 0 0 h 0.30513 v 0 0 0 0 0 0 0 0 0 0 0 0 0 h 0.30511 v 0 0 0 0 0 0 0 0 0 0 0 0 h 0.30511 v 0 0 0 0 0 0 0 0 0 0 0 0 0 h 0.30512 v 0 0 0 0 0 0 0 0 0 0 0 0 h 0.30511 v 0 0 0 0 0 0 0 0 0 0 0 0 h 0.30512 v 0 0 0 0 0 0 0 0 0 0 0 0 0 h 0.30512 v 0 0 0 0 0 0 0 0 0 0 0 0 h 0.30512 v 0 0 0 0 0 0 0 0 0 0 0 0 h 0.30511 v 0 0 0 0 0 0 0 0 0 0 0 0 0 h 0.30512 v 0 0 0 0 0 0 0 0 0 0 0 0 h 0.30513 v 0 0 0 0 0 0 0 0 0 0 0 0 h 0.30511 v 0 0 0 0 0 0 0 0 0 0 0 0 0 h 0.30511 v 0 0 0 0 0 0 0 0 0 0 0 0 h 0.30512 v 0 0 0 0 0 0 0 0 0 0 0 0 h 0.30511 v 0 0 0 0 0 0 0 0 0 0 0 0 0 h 0.30514 v 0 0 0 0 0 0 0 0 0 0 0 0 h 0.30511 v 0 0 0 0 0 0 0 0 0 0 0 0 h 0.30511 v 0 0 0 0 0 0 0 0 0 0 0 0 0 h 0.30511 v 0 0 0 0 0 0 0 0 0 0 0 0 h 0.30512 v 0 0 0 0 0 0 0 0 0 0 0 0 0 h 0.30512 v 0 0 0 0 0 0 0 0 0 0 0 0 h 0.30512 v 0 0 0 0 0 0 0 0 0 0 0 0 h 0.30512 v 0 0 0 0 0 0 0 0 0 0 0 0 0 h 0.30513 v 0 0 0 0 0 0 0 0 0 0 0 0 h 0.3051 v 0 0 0 0 0 0 0 0 0 0 0 0 h 0.30511 v 0 0 0 0 0 0 0 0 0 0 0 0 0 h 0.30512 v 0 0 0 0 0 0 0 0 0 0 0 0 h 0.30513 v 0 0 0 0 0 0 0 0 0 0 0 0 h 0.3051 v 0 0 0 0 0 0 0 0 0 0 0 0 0 h 0.30512 v 0 0 0 0 0 0 0 0 0 0 0 0 h 0.30513 v 0 0 0 0 0 0 0 0 0 0 0 0 h 0.30513 v 0 0 0 0 0 0 0 0 0 0 0 0 0 h 0.3051 v 0 0 0 0 0 0 0 0 0 0 0 0 h 0.30512 v 0 0 0 0 0 0 0 0 0 0 0 0 0 h 0.30511 v 0 0 0 0 0 0 0 0 0 0 0 0 h 0.30512 v 0 0 0 0 0 0 0 0 0 0 0 0 h 0.3051 v 0 0 0 0 0 0 0 0 0 0 0 0 0 h 0.30513 v 0 0 0 0 0 0 0 0 0 0 0 0 h 0.30512 v 0 0 0 0 0 0 0 0 0 0 0 0 h 0.30512 v 0 0 0 0 0 0 0 0 0 0 0 0 0 h 0.30512 v 0 0 0 0 0 0 0 0 0 0 0 0 h 0.30511 v 0 0 0 0 0 0 0 0 0 0 0 0 h 0.30511 v 0 0 0 0 0 0 0 0 0 0 0 0 0 h 0.30514 v 0 0 0 0 0 0 0 0 0 0 0 0 h 0.30511 v 0 0 0 0 0 0 0 0 0 0 0 0 h 0.30511 v 0 0 0 0 0 0 0 0 0 0 0 0 0 h 0.30512 v 0 0 0 0 0 0 0 0 0 0 0 0 h 0.30513 v 0 0 0 0 0 0 0 0 0 0 0 0 0 h 0.30509 v 0 0 0 0 0 0 0 0 0 0 0 0 h 0.30512 v 0 0 0 0 0 0 0 0 0 0 0 0 h 0.30514 v 0 0 0 0 0 0 0 0 0 0 0 0 0 h 0.30512 v 0 0 0 0 0 0 0 0 0 0 0 -61.023458 h 0.3051 v 0 0 0 0 0 0 0 0 0 0 0 0 h 0.30512 v 0 0 0 0 0 0 0 0 0 0 0 0 0 h 0.30513 v 0 0 0 0 0 0 0 0 0 0 0 0 h 0.30511 v 0 0 0 0 0 0 0 0 0 0 0 0 h 0.3051 v 0 0 0 0 0 0 0 0 0 0 0 0 0 h 0.30512 v 0 0 0 0 0 0 0 0 0 0 0 0 h 0.30514 v 0 0 0 0 0 0 0 0 0 0 0 0 h 0.30511 v 0 0 0 0 0 0 0 0 0 0 0 0 0 h 0.30512 v 0 0 0 0 0 0 0 0 0 0 0 0 h 0.30511 v 0 0 0 0 0 0 0 0 0 0 0 0 0 h 0.30512 v 0 0 0 0 0 0 0 0 0 0 0 0 h 0.30513 v 0 0 0 0 0 0 0 0 0 0 0 0 h 0.30509 v 0 0 0 0 0 0 0 0 0 0 0 0 0 h 0.30512 v 0 0 0 0 0 0 0 0 0 0 0 0 h 0.30513 v 0 0 0 0 0 0 0 0 0 0 0 61.023458 h 0.30512 v 0 0 0 0 0 0 0 0 0 0 0 0 0 h 0.3051 v 0 0 0 0 0 0 0 0 0 0 0 0 h 0.30511 v 0 0 0 0 0 0 0 0 0 0 0 0 h 0.30515 v 0 0 0 0 0 0 0 0 0 0 0 0 0 h 0.30511 v 0 0 0 0 0 0 0 0 0 0 0 0 h 0.3051 v 0 0 0 0 0 0 0 0 0 0 0 0 h 0.30513 v 0 0 0 0 0 0 0 0 0 0 0 0 0 h 0.30513 v 0 0 0 0 0 0 0 0 0 0 0 0 h 0.30511 v 0 0 0 0 0 0 0 0 0 0 0 0 h 0.3051 v 0 0 0 0 0 0 0 0 0 0 0 0 0 h 0.30512 v 0 0 0 0 0 0 0 0 0 0 0 0 h 0.30512 v 0 0 0 0 0 0 0 0 0 0 0 0 0 h 0.30511 v 0 0 0 0 0 0 0 0 0 0 0 0 h 0.30512 v 0 0 0 0 0 0 0 0 0 0 0 0 h 0.30514 v 0 0 0 0 0 0 0 0 0 0 0 0 0 h 0.30511 v 0 0 0 0 0 0 0 0 0 0 0 0 h 0.30512 v 0 0 0 0 0 0 0 0 0 0 0 0 h 0.3051 v 0 0 0 0 0 0 0 0 0 0 0 0 0 h 0.30513 v 0 0 0 0 0 0 0 0 0 0 0 0 h 0.30511 v 0 0 0 0 0 0 0 0 0 0 0 0 h 0.30512 v 0 0 0 0 0 0 0 0 0 0 0 0 0 h 0.30511 v 0 0 0 0 0 0 0 0 0 0 0 0 h 0.30512 v 0 0 0 0 0 0 0 0 0 0 0 0 h 0.30513 v 0 0 0 0 0 0 0 0 0 0 0 0 0 h 0.30512 v 0 0 0 0 0 0 0 0 0 0 0 0 h 0.3051 v 0 0 0 0 0 0 0 0 0 0 0 0 0 h 0.30513 v 0 0 0 0 0 0 0 0 0 0 0 0 h 0.30511 v 0 0 0 0 0 0 0 0 0 0 0 0 h 0.30512 v 0 0 0 0 0 0 0 0 0 0 0 0 0 h 0.3051 v 0 0 0 0 0 0 0 0 0 0 0 0 h 0.30514 v 0 0 0 0 0 0 0 0 0 0 0 0 h 0.30511 v 0 0 0 0 0 0 0 0 0 0 0 0 0 h 0.30511 v 0 0 0 0 0 0 0 0 0 0 0 0 h 0.30512 v 0 0 0 0 0 0 0 0 0 0 0 0 h 0.30512 v 0 0 0 0 0 0 0 0 0 0 0 0 0 h 0.30513 v 0 0 0 0 0 0 0 0 0 0 0 0 h 0.30512 v 0 0 0 0 0 0 0 0 0 0 0 0 h 0.3051 v 0 0 0 0 0 0 0 0 0 0 0 0 0 h 0.30512 v 0 0 0 0 0 0"
       id="path38" />
    <text
       xml:space="preserve"
       style="font-style:normal;font-variant:normal;font-weight:400;font-size:3.80837px;line-height:125%;font-family:Arial;text-align:start;letter-spacing:0px;word-spacing:0px;text-anchor:start;fill:#000000;fill-opacity:1;stroke:none;stroke-width:0.450999"
       transform="rotate(-90)"
       x="-80.074516"
       y="4.1172214"
       id="text39"><tspan
         sodipodi:role="line"
         x="-80.074516"
         y="4.1172214"
         id="tspan39"
         style="font-size:3.80837px;stroke-width:0.450999"><tspan
           dx="0"
           dy="0"
           style="font-style:normal;font-variant:normal;font-weight:400;font-size:3.80837px;font-family:Arial;fill:#000000;stroke-width:0.450999"
           id="tspan38">Breakpoints per 200 nt window</tspan></tspan></text>
    <path
       style="fill:none;stroke:#c6c6c6;stroke-width:0.295714px;stroke-linecap:round;stroke-linejoin:round;stroke-miterlimit:4;stroke-dasharray:none;stroke-opacity:1"
       d="m 179.52553,26.304424 h 3.0543"
       id="path23" />
    <text
       xml:space="preserve"
       style="font-size:6.08352px;display:inline;opacity:0.5;fill:#666666;fill-opacity:1;stroke:#7fbfaa;stroke-width:0.354872;stroke-linecap:butt;stroke-linejoin:round;stroke-dasharray:none;stroke-opacity:0;paint-order:normal"
       x="148.04993"
       y="11.771424"
       id="text429-9-0-0"
       inkscape:label="text_orf2"
       transform="scale(0.98917251,1.010946)"><tspan
         sodipodi:role="line"
         id="tspan429-6-8-1"
         style="font-style:normal;font-variant:normal;font-weight:normal;font-stretch:normal;font-size:6.08352px;font-family:Tahoma;-inkscape-font-specification:Tahoma;fill:#666666;fill-opacity:1;stroke:#7fbfaa;stroke-width:0.354872"
         x="148.04993"
         y="11.771424">ORF2</tspan></text>
    <rect
       style="display:inline;fill:#008056;fill-opacity:0.501961;stroke-width:0.603375;stroke-linecap:butt;stroke-linejoin:round;image-rendering:auto"
       id="rect318-1-0-9-2-8-3-9-0-1"
       width="0.21560034"
       height="84.899055"
       x="18.829561"
       y="3.5384262"
       inkscape:label="orf1a_beg" />
    <rect
       style="display:inline;fill:#008056;fill-opacity:0.501961;stroke-width:0.603529;stroke-linecap:butt;stroke-linejoin:round;image-rendering:auto"
       id="rect318-1-0-9-2-8-3-9-0-1-4"
       width="0.21560034"
       height="84.94223"
       x="81.772125"
       y="3.5345101"
       inkscape:label="orf1a_beg" />
    <rect
       style="display:inline;fill:#004280;fill-opacity:0.501961;stroke-width:0.603437;stroke-linecap:butt;stroke-linejoin:round;image-rendering:auto"
       id="rect318-1-0-9-2-8-3-9-0-1-4-5"
       width="0.21560034"
       height="84.916519"
       x="81.999092"
       y="3.5424123"
       inkscape:label="orf1a_beg" />
    <rect
       style="display:inline;fill:#004280;fill-opacity:0.501961;stroke-width:0.603437;stroke-linecap:butt;stroke-linejoin:round;image-rendering:auto"
       id="rect318-1-0-9-2-8-3-9-0-1-4-5-9"
       width="0.21560034"
       height="84.916519"
       x="117.75922"
       y="3.5496638"
       inkscape:label="orf1a_beg" />
    <rect
       style="display:inline;fill:#800026;fill-opacity:0.501961;stroke-width:0.60329;stroke-linecap:butt;stroke-linejoin:round;image-rendering:auto"
       id="rect318-1-0-9-2-8-3-9-0-1-4-5-9-9"
       width="0.21560034"
       height="84.875191"
       x="117.97611"
       y="3.5645046"
       inkscape:label="orf1a_beg" />
    <rect
       style="display:inline;fill:#800026;fill-opacity:0.501961;stroke-width:0.60329;stroke-linecap:butt;stroke-linejoin:round;image-rendering:auto"
       id="rect318-1-0-9-2-8-3-9-0-1-4-5-9-9-3"
       width="0.21560034"
       height="84.875191"
       x="135.85168"
       y="3.5539882"
       inkscape:label="orf1a_beg" />
    <path
       style="fill:none;stroke:#000000;stroke-width:0.305117px;stroke-linecap:round;stroke-linejoin:round;stroke-miterlimit:4;stroke-dasharray:1.353, 0.450999, 0.450999, 0.450999, 0.450999, 0.450999;stroke-dashoffset:0;stroke-opacity:1"
       d="M 15.899784,24.238046 H 174.56076"
       id="path35" />
    <rect
       style="display:inline;fill:#800026;fill-opacity:0.501961;stroke-width:0.60329;stroke-linecap:butt;stroke-linejoin:round;image-rendering:auto"
       id="rect318-1-0-9-2-8-3-9-0-1-4-5-9-9-3-7"
       width="0.21560034"
       height="84.875191"
       x="171.41856"
       y="3.5589488"
       inkscape:label="orf1a_beg" />
    <text
       xml:space="preserve"
       style="font-size:3.71774px;display:inline;opacity:0.89;fill:#000000;fill-opacity:1;stroke:#7fbfaa;stroke-width:0.354872;stroke-linecap:butt;stroke-linejoin:round;stroke-dasharray:none;stroke-opacity:0;paint-order:normal"
       x="124.30235"
       y="10.854009"
       id="text429-9-0-8-0"
       inkscape:label="text_vp34"
       transform="scale(0.98917251,1.010946)"><tspan
         sodipodi:role="line"
         id="tspan429-6-8-3-6"
         style="font-style:normal;font-variant:normal;font-weight:normal;font-stretch:normal;font-size:3.71774px;font-family:Tahoma;-inkscape-font-specification:Tahoma;fill:#000000;fill-opacity:1;stroke:#7fbfaa;stroke-width:0.354872"
         x="124.30235"
         y="10.854009">VP34</tspan></text>
    <rect
       style="display:inline;opacity:0.649533;fill:#8f485e;fill-opacity:1;stroke:#008000;stroke-width:0.179797;stroke-linecap:butt;stroke-linejoin:round;stroke-dasharray:none;stroke-opacity:0;paint-order:normal"
       id="rect428-8-8-1"
       width="18.158274"
       height="12.181646"
       x="117.91278"
       y="3.5485673"
       inkscape:label="orf2_мз34" />
    <text
       xml:space="preserve"
       style="font-size:6.08352px;display:inline;opacity:0.5;fill:#666666;fill-opacity:1;stroke:#7fbfaa;stroke-width:0.354872;stroke-linecap:butt;stroke-linejoin:round;stroke-dasharray:none;stroke-opacity:0;paint-order:normal"
       x="42.143322"
       y="11.610711"
       id="text429-9"
       inkscape:label="text_orf1b"
       transform="scale(0.98917251,1.010946)"><tspan
         sodipodi:role="line"
         id="tspan429-6"
         style="font-style:normal;font-variant:normal;font-weight:normal;font-stretch:normal;font-size:6.08352px;font-family:Tahoma;-inkscape-font-specification:Tahoma;fill:#666666;fill-opacity:1;stroke:#7fbfaa;stroke-width:0.354872"
         x="42.143322"
         y="11.610711">ORF1a</tspan></text>
    <rect
       style="display:inline;opacity:0.5;fill:#008055;fill-opacity:1;stroke:#008000;stroke-width:0.336264;stroke-linecap:butt;stroke-linejoin:round;stroke-dasharray:none;stroke-opacity:0;paint-order:normal"
       id="rect428"
       width="63.379654"
       height="12.208055"
       x="18.819626"
       y="3.5250998"
       inkscape:label="orf1a" />
    <text
       xml:space="preserve"
       style="font-size:6.08352px;display:inline;opacity:0.5;fill:#666666;fill-opacity:1;stroke:#7fbfaa;stroke-width:0.354872;stroke-linecap:butt;stroke-linejoin:round;stroke-dasharray:none;stroke-opacity:0;paint-order:normal"
       x="91.939041"
       y="11.738992"
       id="text429-9-0"
       inkscape:label="text_orf1b"
       transform="scale(0.98917251,1.010946)"><tspan
         sodipodi:role="line"
         id="tspan429-6-8"
         style="font-style:normal;font-variant:normal;font-weight:normal;font-stretch:normal;font-size:6.08352px;font-family:Tahoma;-inkscape-font-specification:Tahoma;fill:#666666;fill-opacity:1;stroke:#7fbfaa;stroke-width:0.354872"
         x="91.939041"
         y="11.738992">ORF1b</tspan></text>
    <rect
       style="display:inline;opacity:0.5;fill:#004180;fill-opacity:1;stroke:#008000;stroke-width:0.254942;stroke-linecap:butt;stroke-linejoin:round;stroke-dasharray:none;stroke-opacity:0;paint-order:normal"
       id="rect428-8"
       width="36.515842"
       height="12.180059"
       x="81.774925"
       y="3.5380023"
       inkscape:label="orf1b" />
    <rect
       style="display:inline;opacity:0.5;fill:#800025;fill-opacity:1;stroke:#008000;stroke-width:0.309924;stroke-linecap:butt;stroke-linejoin:round;stroke-dasharray:none;stroke-opacity:0;paint-order:normal"
       id="rect428-8-8"
       width="53.883095"
       height="12.198605"
       x="117.75111"
       y="3.5441892"
       inkscape:label="orf2" />
    <text
       xml:space="preserve"
       style="font-style:normal;font-variant:normal;font-weight:400;font-size:2.82222px;line-height:125%;font-family:Arial;text-align:start;letter-spacing:0px;word-spacing:0px;text-anchor:start;fill:#004280;fill-opacity:0.501961;stroke:none;stroke-width:0.451095"
       x="83.086777"
       y="91.407822"
       id="text4-8"><tspan
         sodipodi:role="line"
         x="83.086777"
         y="91.407822"
         id="tspan4-5"
         style="font-weight:bold;font-size:2.82222px;fill:#004280;fill-opacity:0.501961;stroke-width:0.451095">2782</tspan></text>
    <text
       xml:space="preserve"
       style="font-style:normal;font-variant:normal;font-weight:400;font-size:2.82222px;line-height:125%;font-family:Arial;text-align:start;letter-spacing:0px;word-spacing:0px;text-anchor:start;fill:#004280;fill-opacity:0.501961;stroke:none;stroke-width:0.451095"
       x="111.04501"
       y="91.330414"
       id="text4-8-6"><tspan
         sodipodi:role="line"
         x="111.04501"
         y="91.330414"
         id="tspan4-5-01"
         style="font-weight:bold;font-size:2.82222px;fill:#004280;fill-opacity:0.501961;stroke-width:0.451095">4329</tspan></text>
    <text
       xml:space="preserve"
       style="font-style:normal;font-variant:normal;font-weight:400;font-size:2.82222px;line-height:125%;font-family:Arial;text-align:start;letter-spacing:0px;word-spacing:0px;text-anchor:start;fill:#800026;fill-opacity:0.501961;stroke:none;stroke-width:0.451095"
       x="118.77415"
       y="91.291664"
       id="text4-8-6-3"><tspan
         sodipodi:role="line"
         x="118.77415"
         y="91.291664"
         id="tspan4-5-01-9"
         style="font-weight:bold;font-size:2.82222px;fill:#800026;fill-opacity:0.501961;stroke-width:0.451095">4330</tspan></text>
    <text
       xml:space="preserve"
       style="font-style:normal;font-variant:normal;font-weight:400;font-size:2.82222px;line-height:125%;font-family:Arial;text-align:start;letter-spacing:0px;word-spacing:0px;text-anchor:start;fill:#800026;fill-opacity:0.501961;stroke:none;stroke-width:0.451095"
       x="138.35316"
       y="91.314995"
       id="text4-8-6-3-8"><tspan
         sodipodi:role="line"
         x="138.35316"
         y="91.314995"
         id="tspan4-5-01-9-2"
         style="font-weight:bold;font-size:2.82222px;fill:#800026;fill-opacity:0.501961;stroke-width:0.451095">5258</tspan></text>
    <text
       xml:space="preserve"
       style="font-style:normal;font-variant:normal;font-weight:400;font-size:2.82222px;line-height:125%;font-family:Arial;text-align:start;letter-spacing:0px;word-spacing:0px;text-anchor:start;fill:#008056;fill-opacity:0.501961;stroke:none;stroke-width:0.451095"
       x="75.271698"
       y="91.402573"
       id="text4-8-3"><tspan
         sodipodi:role="line"
         x="75.271698"
         y="91.402573"
         id="tspan4-5-0"
         style="font-weight:bold;font-size:2.82222px;fill:#008056;fill-opacity:0.501961;stroke-width:0.451095">2781</tspan></text>
  </g>
</svg>
