<?xml version="1.0" encoding="UTF-8" standalone="no"?>
<!-- Created with Inkscape (http://www.inkscape.org/) -->

<svg
   width="180mm"
   height="105mm"
   viewBox="0 0 180 105"
   version="1.1"
   id="svg1"
   inkscape:version="1.3.2 (091e20e, 2023-11-25, custom)"
   sodipodi:docname="brkpnt_stp_4.svg"
   xmlns:inkscape="http://www.inkscape.org/namespaces/inkscape"
   xmlns:sodipodi="http://sodipodi.sourceforge.net/DTD/sodipodi-0.dtd"
   xmlns="http://www.w3.org/2000/svg"
   xmlns:svg="http://www.w3.org/2000/svg">
  <sodipodi:namedview
     id="namedview1"
     pagecolor="#ffffff"
     bordercolor="#000000"
     borderopacity="0.25"
     inkscape:showpageshadow="2"
     inkscape:pageopacity="0.0"
     inkscape:pagecheckerboard="0"
     inkscape:deskcolor="#d1d1d1"
     inkscape:document-units="mm"
     inkscape:zoom="2.1086546"
     inkscape:cx="359.70804"
     inkscape:cy="100.77516"
     inkscape:window-width="1920"
     inkscape:window-height="991"
     inkscape:window-x="-9"
     inkscape:window-y="-9"
     inkscape:window-maximized="1"
     inkscape:current-layer="layer1" />
  <defs
     id="defs1">
    <pattern
       id="EMFhbasepattern"
       patternUnits="userSpaceOnUse"
       width="6"
       height="6"
       x="0"
       y="0" />
    <pattern
       id="EMFhbasepattern-9"
       patternUnits="userSpaceOnUse"
       width="6"
       height="6"
       x="0"
       y="0" />
    <pattern
       id="EMFhbasepattern-5"
       patternUnits="userSpaceOnUse"
       width="6"
       height="6"
       x="0"
       y="0" />
  </defs>
  <g
     inkscape:label="Слой 1"
     inkscape:groupmode="layer"
     id="layer1">
    <path
       style="fill:none;stroke:#000000;stroke-width:0.305152px;stroke-linecap:round;stroke-linejoin:round;stroke-miterlimit:4;stroke-dasharray:none;stroke-opacity:1"
       d="m 15.884409,21.189943 v 3.051523 h 1.525762 -1.525762 v 15.257612 h 1.525762 -1.525762 v 15.257614 h 1.525762 -1.525762 v 15.25761 h 1.525762 -1.525762 v 15.257616 h 1.525762 -1.525762 v 3.051521 h 3.051523 v -1.525761 1.525761 h 38.144033 v -1.525761 1.525761 h 38.144032 v -1.525761 1.525761 h 38.144043 v -1.525761 1.525761 h 38.14403 v -1.525761 1.525761 h 3.05152"
       id="path1" />
    <text
       xml:space="preserve"
       style="font-style:normal;font-variant:normal;font-weight:400;font-size:3.80837px;line-height:125%;font-family:Arial;text-align:start;letter-spacing:0px;word-spacing:0px;text-anchor:start;fill:#000000;fill-opacity:1;stroke:none;stroke-width:0.45105"
       x="17.796457"
       y="93.728279"
       id="text2"><tspan
         sodipodi:role="line"
         x="17.796457"
         y="93.728279"
         id="tspan2"
         style="font-size:3.80837px;stroke-width:0.45105"><tspan
           dx="0"
           dy="0"
           style="font-style:normal;font-variant:normal;font-weight:400;font-size:3.80837px;font-family:Arial;fill:#000000;stroke-width:0.45105"
           id="tspan1">1</tspan></tspan></text>
    <text
       xml:space="preserve"
       style="font-style:normal;font-variant:normal;font-weight:400;font-size:3.80837px;line-height:125%;font-family:Arial;text-align:start;letter-spacing:0px;word-spacing:0px;text-anchor:start;fill:#000000;fill-opacity:1;stroke:none;stroke-width:0.45105"
       x="52.888966"
       y="93.728279"
       id="text4"><tspan
         sodipodi:role="line"
         x="52.888966"
         y="93.728279"
         id="tspan4"
         style="font-size:3.80837px;stroke-width:0.45105"><tspan
           dx="0"
           dy="0"
           style="font-style:normal;font-variant:normal;font-weight:400;font-size:3.80837px;font-family:Arial;fill:#000000;stroke-width:0.45105"
           id="tspan3">1661</tspan></tspan></text>
    <text
       xml:space="preserve"
       style="font-style:normal;font-variant:normal;font-weight:400;font-size:3.80837px;line-height:125%;font-family:Arial;text-align:start;letter-spacing:0px;word-spacing:0px;text-anchor:start;fill:#000000;fill-opacity:1;stroke:none;stroke-width:0.45105"
       x="91.033012"
       y="93.728279"
       id="text6"><tspan
         sodipodi:role="line"
         x="91.033012"
         y="93.728279"
         id="tspan6"
         style="font-size:3.80837px;stroke-width:0.45105"><tspan
           dx="0"
           dy="0"
           style="font-style:normal;font-variant:normal;font-weight:400;font-size:3.80837px;font-family:Arial;fill:#000000;stroke-width:0.45105"
           id="tspan5">3322</tspan></tspan></text>
    <text
       xml:space="preserve"
       style="font-style:normal;font-variant:normal;font-weight:400;font-size:3.80837px;line-height:125%;font-family:Arial;text-align:start;letter-spacing:0px;word-spacing:0px;text-anchor:start;fill:#000000;fill-opacity:1;stroke:none;stroke-width:0.45105"
       x="129.17708"
       y="93.728279"
       id="text8"><tspan
         sodipodi:role="line"
         x="129.17708"
         y="93.728279"
         id="tspan8"
         style="font-size:3.80837px;stroke-width:0.45105"><tspan
           dx="0"
           dy="0"
           style="font-style:normal;font-variant:normal;font-weight:400;font-size:3.80837px;font-family:Arial;fill:#000000;stroke-width:0.45105"
           id="tspan7">4985</tspan></tspan></text>
    <text
       xml:space="preserve"
       style="font-style:normal;font-variant:normal;font-weight:400;font-size:3.80837px;line-height:125%;font-family:Arial;text-align:start;letter-spacing:0px;word-spacing:0px;text-anchor:start;fill:#000000;fill-opacity:1;stroke:none;stroke-width:0.45105"
       x="167.32109"
       y="93.728279"
       id="text10"><tspan
         sodipodi:role="line"
         x="167.32109"
         y="93.728279"
         id="tspan10"
         style="font-size:3.80837px;stroke-width:0.45105"><tspan
           dx="0"
           dy="0"
           style="font-style:normal;font-variant:normal;font-weight:400;font-size:3.80837px;font-family:Arial;fill:#000000;stroke-width:0.45105"
           id="tspan9">6645</tspan></tspan></text>
    <text
       xml:space="preserve"
       style="font-style:normal;font-variant:normal;font-weight:400;font-size:3.80837px;line-height:125%;font-family:Arial;text-align:start;letter-spacing:0px;word-spacing:0px;text-anchor:start;fill:#000000;fill-opacity:1;stroke:none;stroke-width:0.45105"
       x="14.981256"
       y="99.831322"
       id="text12"><tspan
         sodipodi:role="line"
         x="14.981256"
         y="99.831322"
         id="tspan12"
         style="font-size:3.80837px;stroke-width:0.45105"><tspan
           dx="0"
           dy="0"
           style="font-style:normal;font-variant:normal;font-weight:400;font-size:3.80837px;font-family:Arial;fill:#000000;stroke-width:0.45105"
           id="tspan11">Nucleotide position in relation to OR371570_human_CHN_2022_HAstV-4-Fuzhou-2022-10_NA_</tspan></tspan></text>
    <text
       xml:space="preserve"
       style="font-style:normal;font-variant:normal;font-weight:400;font-size:4.28499px;line-height:356.071%;font-family:Arial;text-align:start;letter-spacing:0px;word-spacing:0px;text-anchor:start;fill:#000000;fill-opacity:1;stroke:none;stroke-width:0.45105"
       x="6.3241444"
       y="25.760466"
       id="text22"><tspan
         sodipodi:role="line"
         x="6.3241444"
         y="25.760466"
         id="tspan14"
         style="stroke-width:0.45105"><tspan
           dx="0"
           dy="0"
           style="font-style:normal;font-variant:normal;font-weight:400;font-size:4.28499px;font-family:Arial;fill:#000000;stroke-width:0.45105"
           id="tspan13">3</tspan></tspan><tspan
         sodipodi:role="line"
         x="6.3241444"
         y="41.018074"
         id="tspan16"
         style="stroke-width:0.45105"><tspan
           dx="0"
           dy="0"
           style="font-style:normal;font-variant:normal;font-weight:400;font-size:4.28499px;font-family:Arial;fill:#000000;stroke-width:0.45105"
           id="tspan15">2,25</tspan></tspan><tspan
         sodipodi:role="line"
         x="6.3241444"
         y="56.275681"
         id="tspan18"
         style="stroke-width:0.45105"><tspan
           dx="0"
           dy="0"
           style="font-style:normal;font-variant:normal;font-weight:400;font-size:4.28499px;font-family:Arial;fill:#000000;stroke-width:0.45105"
           id="tspan17">1,5</tspan></tspan><tspan
         sodipodi:role="line"
         x="6.3241444"
         y="71.533287"
         id="tspan20"
         style="stroke-width:0.45105"><tspan
           dx="0"
           dy="0"
           style="font-style:normal;font-variant:normal;font-weight:400;font-size:4.28499px;font-family:Arial;fill:#000000;stroke-width:0.45105"
           id="tspan19">0,75</tspan></tspan><tspan
         sodipodi:role="line"
         x="6.3241444"
         y="86.790894"
         id="tspan22"
         style="stroke-width:0.45105"><tspan
           dx="0"
           dy="0"
           style="font-style:normal;font-variant:normal;font-weight:400;font-size:4.28499px;font-family:Arial;fill:#000000;stroke-width:0.45105"
           id="tspan21">0.</tspan></tspan></text>
    <path
       style="fill:none;stroke:#000000;stroke-width:0.305152px;stroke-linecap:round;stroke-linejoin:round;stroke-miterlimit:4;stroke-dasharray:none;stroke-opacity:1"
       d="m 52.807833,18.138421 v 1.525761 m 19.529744,-1.525761 v 1.525761 m 32.651293,-1.525761 v 1.525761 m 7.0185,-1.525761 v 1.525761 m 22.88642,-1.525761 v 1.525761 m 5.49274,-1.525761 v 1.525761 m 7.32366,-1.525761 v 1.525761"
       id="path22" />
    <path
       style="fill:none;stroke:#000000;stroke-width:0.305152px;stroke-linecap:round;stroke-linejoin:round;stroke-miterlimit:4;stroke-dasharray:0.45105, 0.45105;stroke-dashoffset:0;stroke-opacity:1"
       d="M 15.884409,24.241466 H 174.56359"
       id="path34" />
    <path
       style="fill:none;stroke:#000000;stroke-width:0.305152px;stroke-linecap:round;stroke-linejoin:round;stroke-miterlimit:4;stroke-dasharray:1.35316, 0.45105, 0.45105, 0.45105, 0.45105, 0.45105;stroke-dashoffset:0;stroke-opacity:1"
       d="M 15.884409,24.241466 H 174.56359"
       id="path35" />
    <path
       style="fill:#c6c6c6;fill-opacity:1;fill-rule:evenodd;stroke:#c6c6c6;stroke-width:0.305152px;stroke-linecap:round;stroke-linejoin:round;stroke-miterlimit:4;stroke-dasharray:none;stroke-opacity:1"
       d="m 19.241084,85.271918 h 0.305152 0.305153 0.305152 0.305152 0.305153 0.305152 0.305152 0.305152 0.305153 0.305152 V 64.826715 h 0.305152 0.305152 0.305153 0.305152 0.305152 0.305152 0.305153 0.305152 0.305152 0.305152 0.305153 0.305152 0.305152 0.305153 V 44.686666 h 0.305153 0.305152 0.305152 0.305152 0.305153 0.305152 0.305152 0.305153 0.305152 0.305152 0.305152 0.305153 0.305152 0.305152 0.305152 0.305153 0.305152 0.305151 0.305152 0.305153 0.305152 0.305152 0.305152 0.305153 v 20.140049 h 0.305152 0.305152 0.305152 0.305153 V 44.686666 h 0.305152 v 20.140049 h 0.305152 V 44.686666 64.826715 h 0.305152 0.305153 0.305152 0.305152 0.305153 0.305152 V 44.686666 64.826715 h 0.305152 V 44.686666 h 0.305152 0.305153 0.305152 0.305152 0.305152 0.305153 0.305152 0.305152 0.305152 0.305153 0.305152 0.305152 0.305152 0.305153 0.305152 0.305152 0.305152 0.305153 0.305152 0.305152 0.305152 v 20.140049 h 0.305153 0.305152 L 45.179026,44.686666 V 64.826715 44.686666 h 0.305152 0.305153 0.305152 0.305152 0.305153 V 64.826715 44.686666 h 0.305152 0.305152 0.305152 0.305153 0.305152 0.305152 0.305152 0.305153 0.305152 0.305152 0.305152 0.305153 0.305152 0.305152 0.305152 0.305153 0.305152 0.305152 0.305152 v 20.140049 h 0.305153 0.305152 0.305153 0.305152 0.305153 0.305152 0.305152 0.305153 0.305152 0.305152 0.305152 0.305153 0.305152 0.305152 0.305152 0.305153 0.305152 V 44.686666 h 0.305152 0.305152 0.305153 0.305152 0.305152 0.305151 0.305154 0.305151 0.305152 0.305152 0.305153 0.305152 0.305152 0.305152 0.305153 0.305152 0.305152 0.305153 0.305152 0.305152 0.305152 0.305153 0.305152 0.305152 0.305152 0.305153 0.305152 0.305152 0.305152 0.305153 0.305152 0.305152 0.305152 v 20.140049 h 0.305153 0.305152 0.305152 0.305152 V 44.686666 64.826715 44.686666 h 0.305153 V 64.826715 44.686666 h 0.305152 0.305152 0.305152 0.305153 0.305152 0.305152 0.305152 0.305153 0.305152 0.305152 0.305153 0.305152 0.305152 0.305152 0.305153 0.305152 0.305152 0.305152 0.305153 0.305152 0.305152 0.305152 0.305153 0.305152 0.305152 0.305152 0.305153 0.305152 0.305152 0.305152 0.305153 0.305152 0.305152 0.305152 0.305153 0.305152 l 0.305153,20.140049 V 44.686666 h 0.305153 v 20.140049 h 0.305152 V 44.686666 h 0.305152 0.305152 0.305153 0.305152 V 64.826715 44.686666 h 0.305152 0.305152 0.305153 0.305152 0.305152 0.305152 0.305153 0.305152 0.305152 0.305152 0.305153 0.305152 0.305152 0.305151 0.305154 0.305152 0.305151 0.305152 0.305153 0.305152 0.305152 0.305153 0.305152 v 20.140049 h 0.305152 0.305152 0.305153 0.305152 V 44.686666 64.826715 h 0.305152 V 44.686666 h 0.305152 0.305153 0.305152 0.305152 0.305152 0.305153 v 20.140049 h 0.305152 0.305152 0.305152 0.305153 0.305152 0.305152 0.305152 0.305153 0.305148 0.305155 0.305155 0.305155 V 44.686666 h 0.305145 0.305155 v 20.140049 h 0.305155 0.305145 V 44.686666 h 0.305155 0.305155 0.305155 0.305145 0.305155 0.305159 0.305155 0.305151 0.30515 0.30515 0.30515 0.30515 0.30515 0.30516 0.30514 0.30516 v 20.140049 h 0.30515 V 44.686666 h 0.30516 0.30515 0.30515 0.30516 0.30514 0.30515 0.30516 0.30515 0.30515 0.30515 0.30516 0.30516 0.30514 0.30516 0.30515 0.30514 V 64.826715 44.686666 h 0.30516 V 64.826715 44.686666 h 0.30515 v 20.140049 h 0.30516 0.30514 0.30516 0.30516 0.30515 0.30515 0.30515 0.30515 0.30515 V 44.686666 h 0.30515 0.30516 0.30515 0.30515 0.30516 0.30515 0.30515 0.30515 0.30515 0.30516 0.30514 0.30516 0.30515 v 20.140049 h 0.30516 0.30515 0.30515 V 44.686666 h 0.30516 0.30514 0.30516 0.30515 0.30515 0.30516 0.30514 0.30516 0.30516 0.30515 0.30515 0.30515 0.30515 0.30516 0.30514 0.30516 0.30516 0.30514 0.30516 0.30515 0.30516 0.30514 0.30515 0.30516 0.30514 0.30516 0.30516 0.30515 V 64.826715 44.686666 h 0.30515 0.30515 0.30516 0.30515 0.30514 0.30516 0.30515 0.30515 0.30516 0.30515 0.30516 0.30514 0.30516 0.30515 0.30515 0.30515 0.30515 0.30516 0.30515 0.30515 0.30516 0.30515 0.30515 0.30515 0.30515 0.30516 0.30514 0.30516 0.30516 0.30514 0.30516 0.30515 0.30516 0.30514 0.30515 0.30516 0.30515 0.30515 0.30516 0.30515 V 64.826715 44.686666 h 0.30515 v 20.140049 h 0.30515 0.30516 0.30515 0.30514 0.30516 0.30515 V 44.686666 64.826715 h 0.30516 V 44.686666 h 0.30515 0.30515 0.30516 0.30514 0.30516 0.30515 0.30515 0.30515 0.30515 0.30516 0.30516 0.30514 0.30516 0.30515 0.30515 0.30515 0.30515 0.30516 0.30514 0.30516 0.30516 0.30514 0.30516 0.30515 0.30516 0.30514 0.30515 0.30516 0.30515 0.30516 0.30515 0.30515 0.30515 0.30515 0.30516 0.30515 0.30514 0.30516 0.30515 0.30517 0.30514 0.30515 0.30516 0.30514 0.30516 0.30515 0.30515 0.30515 0.30515 0.30517 0.30515 0.30515 0.30515 0.30515 v 20.140049 h 0.30516 V 44.686666 h 0.30514 0.30515 0.30516 V 64.826715 44.686666 h 0.30515 0.30516 V 64.826715 44.686666 h 0.30515 0.30515 0.30516 0.30514 0.30516 0.30515 0.30514 0.30516 0.30515 0.30517 0.30514 0.30515 0.30516 0.30515 0.30515 0.30515 0.30515 0.30515 0.30515 0.30517 0.30515 0.30514 0.30516 0.30515 0.30516 0.30514 0.30515 V 64.826715 44.686666 64.826715 h 0.30516 0.30514 0.30517 0.30515 0.30515 0.30515 0.30515 0.30516 0.30515 0.30514 0.30516 0.30515 0.30516 0.30515 0.30515 0.30516 0.30514 v 20.445203 h 0.30516 0.30515 v 0 h -0.30515 -0.30516 -0.30514 -0.30516 -0.30515 -0.30515 -0.30516 -0.30515 -0.30516 -0.30514 -0.30515 -0.30516 -0.30515 -0.30515 -0.30515 -0.30515 -0.30517 -0.30514 -0.30516 -0.30515 -0.30514 -0.30516 -0.30515 -0.30516 -0.30514 -0.30515 -0.30517 -0.30515 -0.30515 -0.30515 -0.30515 -0.30515 -0.30515 -0.30516 -0.30515 -0.30514 -0.30517 -0.30515 -0.30516 -0.30514 -0.30515 -0.30516 -0.30514 -0.30516 -0.30515 -0.30515 -0.30516 -0.30515 -0.30516 -0.30515 -0.30514 -0.30516 -0.30515 -0.30515 -0.30515 -0.30515 -0.30517 -0.30515 -0.30515 -0.30515 -0.30515 -0.30516 -0.30514 -0.30516 -0.30515 -0.30514 -0.30517 -0.30515 -0.30516 -0.30514 -0.30515 -0.30516 -0.30515 -0.30515 -0.30515 -0.30515 -0.30516 -0.30515 -0.30516 -0.30515 -0.30514 -0.30516 -0.30515 -0.30516 -0.30514 -0.30516 -0.30516 -0.30514 -0.30516 -0.30515 -0.30515 -0.30515 -0.30515 -0.30516 -0.30514 -0.30516 -0.30516 -0.30515 -0.30515 -0.30515 -0.30515 -0.30516 -0.30514 -0.30516 -0.30515 -0.30515 -0.30516 -0.30515 -0.30516 -0.30514 -0.30515 -0.30516 -0.30515 -0.30515 -0.30515 -0.30516 -0.30515 -0.30515 -0.30516 -0.30515 -0.30514 -0.30516 -0.30515 -0.30516 -0.30514 -0.30516 -0.30516 -0.30514 -0.30516 -0.30515 -0.30515 -0.30515 -0.30515 -0.30516 -0.30515 -0.30515 -0.30516 -0.30515 -0.30515 -0.30515 -0.30515 -0.30516 -0.30514 -0.30516 -0.30515 -0.30516 -0.30515 -0.30515 -0.30516 -0.30514 -0.30515 -0.30516 -0.30515 -0.30515 -0.30515 -0.30516 -0.30516 -0.30514 -0.30516 -0.30515 -0.30514 -0.30516 -0.30515 -0.30516 -0.30514 -0.30516 -0.30516 -0.30514 -0.30516 -0.30515 -0.30515 -0.30515 -0.30515 -0.30516 -0.30516 -0.30514 -0.30516 -0.30515 -0.30515 -0.30516 -0.30514 -0.30516 -0.30515 -0.30515 -0.30516 -0.30515 -0.30516 -0.30514 -0.30516 -0.30515 -0.30515 -0.30515 -0.30515 -0.30516 -0.30515 -0.30515 -0.30516 -0.30515 -0.30515 -0.30515 -0.30515 -0.30515 -0.30515 -0.30516 -0.30516 -0.30514 -0.30516 -0.30515 -0.30516 -0.30514 -0.30515 -0.30516 -0.30514 -0.30516 -0.30516 -0.30515 -0.30515 -0.30515 -0.30516 -0.30515 -0.30514 -0.30516 -0.30515 -0.30515 -0.30516 -0.30515 -0.30516 -0.30514 -0.30516 -0.30515 -0.30515 -0.30515 -0.30515 -0.30515 H 99.801289 99.496134 99.190975 98.88582 98.580675 98.27552 97.970365 97.66521 97.360065 97.05491 96.749755 96.44461 96.139455 95.8343 95.529145 95.223997 94.918844 94.613692 94.30854 94.003388 93.698235 93.393083 93.087931 92.782779 92.477626 92.172474 91.867322 91.56217 91.257017 90.951865 90.646713 90.341561 90.036408 89.731256 89.426104 89.120952 88.815799 88.510647 88.205495 87.900342 87.59519 87.290039 86.984887 86.679733 86.374582 86.06943 85.764278 85.459125 85.153973 84.848821 84.543669 84.238516 83.933364 83.628212 83.32306 83.017907 82.712755 82.407603 82.102451 81.797298 81.492146 81.186994 80.881842 80.576689 80.271536 79.966384 79.661231 79.356079 79.050927 78.745775 78.440622 78.13547 77.830318 77.525166 77.220013 76.914861 76.609709 76.304557 75.999404 75.694252 75.3891 75.083948 74.778795 74.473643 74.168491 73.863339 73.558186 73.253034 72.947882 72.64273 72.337577 72.032425 71.727273 71.42212 71.116968 70.811816 70.506664 70.201511 69.896359 69.591207 69.286055 68.980902 68.67575 68.370598 68.065446 67.760293 67.455141 67.149989 66.844837 66.539684 66.234532 65.92938 65.624228 65.319075 65.013923 64.708771 64.403619 64.098466 63.793314 63.488162 63.18301 62.877857 62.572705 62.267553 61.9624 61.657248 61.352096 61.046944 60.741791 60.436639 60.131487 59.826336 59.521182 59.216031 58.910879 58.605727 58.300574 57.995422 57.69027 57.385118 57.079965 56.774813 56.469661 56.164509 55.859356 55.554204 55.249052 54.9439 54.638747 54.333595 54.028443 53.72329 53.418138 53.112985 52.807833 52.50268 52.197528 51.892376 51.587224 51.282071 50.976919 50.671767 50.366615 50.061462 49.75631 49.451158 49.146006 48.840853 48.535701 48.230549 47.925397 47.620244 47.315092 47.00994 46.704788 46.399635 46.094483 45.789331 45.484178 45.179026 44.873874 44.568722 44.263569 43.958417 43.653265 43.348113 43.04296 42.737808 42.432656 42.127504 41.822351 41.517199 41.212047 40.906895 40.601742 40.29659 39.991438 39.686286 39.381133 39.075981 38.770829 38.465677 38.160524 37.855372 37.55022 37.245068 36.939915 36.634763 36.329611 36.024458 35.719306 35.414154 35.109002 34.803849 34.498697 34.193545 33.888393 33.58324 33.278088 32.972936 32.667784 32.362631 32.057479 31.752328 31.447176 31.142023 30.836871 30.531719 30.226567 29.921414 29.616262 29.31111 29.005958 28.700805 28.395653 28.090501 27.785348 27.480196 27.175044 26.869892 26.564739 26.259586 25.954434 25.649282 25.344129 25.038977 24.733825 24.428673 24.12352 23.818368 23.513216 23.208064 22.902911 22.597759 22.292607 21.987455 21.682302 21.37715 21.071998 20.766846 20.461693 20.156541 19.851389 19.546236 Z"
       id="path36" />
    <path
       style="fill:#808080;fill-opacity:1;fill-rule:evenodd;stroke:#808080;stroke-width:0.305152px;stroke-linecap:round;stroke-linejoin:round;stroke-miterlimit:4;stroke-dasharray:none;stroke-opacity:1"
       d="m 19.241084,85.271918 h 0.305152 0.305153 0.305152 0.305152 0.305153 0.305152 0.305152 0.305152 0.305153 0.305152 0.305152 0.305152 0.305153 0.305152 0.305152 V 64.826715 h 0.305152 0.305153 0.305152 0.305152 0.305152 0.305153 0.305152 0.305152 0.305153 0.305153 0.305152 0.305152 0.305152 0.305153 0.305152 0.305152 0.305153 0.305152 0.305152 0.305152 0.305153 0.305152 0.305152 0.305152 0.305153 0.305152 0.305151 0.305152 0.305153 0.305152 0.305152 0.305152 0.305153 0.305152 0.305152 0.305152 0.305153 0.305152 0.305152 0.305152 0.305153 0.305152 0.305152 0.305153 0.305152 0.305152 0.305152 0.305153 0.305152 0.305152 0.305152 0.305153 0.305152 0.305152 0.305152 0.305153 0.305152 0.305152 0.305152 0.305153 0.305152 0.305152 0.305152 0.305153 0.305152 0.305152 0.305152 0.305153 0.305152 0.305152 0.305152 0.305153 0.305152 0.305152 0.305153 0.305152 0.305152 0.305152 0.305153 0.305152 0.305152 0.305152 0.305153 0.305152 0.305152 0.305152 0.305153 0.305152 0.305152 0.305152 0.305153 0.305152 0.305152 0.305152 0.305153 0.305152 0.305153 0.305152 0.305153 0.305152 0.305152 0.305153 0.305152 0.305152 0.305152 0.305153 0.305152 0.305152 0.305152 0.305153 0.305152 0.305152 0.305152 0.305153 0.305152 0.305152 0.305151 0.305154 0.305151 0.305152 0.305152 0.305153 0.305152 0.305152 0.305152 0.305153 0.305152 0.305152 0.305153 0.305152 0.305152 0.305152 0.305153 0.305152 0.305152 0.305152 0.305153 0.305152 0.305152 0.305152 0.305153 0.305152 0.305152 0.305152 0.305153 0.305152 0.305152 0.305152 0.305153 0.305152 0.305152 0.305152 0.305153 0.305152 0.305152 0.305152 0.305153 0.305152 0.305152 0.305153 0.305152 0.305152 0.305152 0.305153 0.305152 0.305152 0.305152 0.305153 0.305152 0.305152 0.305152 0.305153 0.305152 0.305152 0.305152 0.305153 0.305152 0.305152 0.305152 0.305153 0.305152 0.305152 0.305152 0.305153 0.305152 0.305153 0.305153 0.305152 0.305152 0.305152 0.305153 0.305152 0.305152 0.305152 0.305153 0.305152 0.305152 0.305152 0.305153 0.305152 0.305152 0.305152 0.305153 0.305152 0.305152 0.305151 0.305154 0.305152 0.305151 0.305152 0.305153 0.305152 0.305152 0.305153 0.305152 0.305152 0.305152 0.305153 0.305152 0.305152 0.305152 0.305153 0.305152 0.305152 0.305152 0.305153 0.305152 0.305152 0.305152 0.305153 0.305152 0.305152 0.305152 0.305153 0.305148 0.305155 0.305155 0.305155 0.305145 0.305155 0.305155 0.305145 0.305155 0.305155 0.305155 0.305145 0.305155 0.305159 0.305155 0.305151 0.30515 0.30515 0.30515 0.30515 0.30515 0.30516 0.30514 0.30516 0.30515 0.30516 0.30515 0.30515 0.30516 0.30514 0.30515 0.30516 0.30515 0.30515 0.30515 0.30516 0.30516 0.30514 0.30516 0.30515 0.30514 0.30516 0.30515 0.30516 0.30514 0.30516 0.30516 0.30515 0.30515 0.30515 0.30515 0.30515 0.30515 0.30516 0.30515 0.30515 0.30516 0.30515 0.30515 0.30515 0.30515 0.30516 0.30514 0.30516 0.30515 0.30516 0.30515 0.30515 0.30516 0.30514 0.30516 0.30515 0.30515 0.30516 0.30514 0.30516 0.30516 0.30515 0.30515 0.30515 0.30515 0.30516 0.30514 0.30516 0.30516 0.30514 0.30516 0.30515 0.30516 0.30514 0.30515 0.30516 0.30514 0.30516 0.30516 0.30515 0.30515 0.30515 0.30516 0.30515 0.30514 0.30516 0.30515 0.30515 0.30516 0.30515 0.30516 0.30514 0.30516 0.30515 0.30515 0.30515 0.30515 0.30516 0.30515 0.30515 0.30516 0.30515 0.30515 0.30515 0.30515 0.30516 0.30514 0.30516 0.30516 0.30514 0.30516 0.30515 0.30516 0.30514 0.30515 0.30516 0.30515 0.30515 0.30516 0.30515 0.30515 0.30515 0.30516 0.30515 0.30514 0.30516 0.30515 0.30516 0.30515 0.30515 0.30516 0.30514 0.30516 0.30515 0.30515 0.30515 0.30515 0.30516 0.30516 0.30514 0.30516 0.30515 0.30515 0.30515 0.30515 0.30516 0.30514 0.30516 0.30516 0.30514 0.30516 0.30515 0.30516 0.30514 0.30515 0.30516 0.30515 0.30516 0.30515 0.30515 0.30515 0.30515 0.30516 0.30515 0.30514 0.30516 0.30515 0.30517 0.30514 0.30515 0.30516 0.30514 0.30516 0.30515 0.30515 0.30515 0.30515 0.30517 0.30515 0.30515 0.30515 0.30515 0.30516 0.30514 0.30515 0.30516 0.30515 0.30516 0.30515 0.30515 0.30516 0.30514 0.30516 0.30515 0.30514 0.30516 0.30515 0.30517 0.30514 0.30515 0.30516 0.30515 0.30515 0.30515 0.30515 0.30515 0.30515 0.30517 0.30515 0.30514 0.30516 0.30515 0.30516 0.30514 0.30515 0.30516 0.30514 0.30517 0.30515 0.30515 0.30515 0.30515 0.30516 0.30515 v 20.445203 h 0.30514 0.30516 0.30515 0.30516 0.30515 0.30515 0.30516 0.30514 0.30516 0.30515 v 0 h -0.30515 -0.30516 -0.30514 -0.30516 -0.30515 -0.30515 -0.30516 -0.30515 -0.30516 -0.30514 -0.30515 -0.30516 -0.30515 -0.30515 -0.30515 -0.30515 -0.30517 -0.30514 -0.30516 -0.30515 -0.30514 -0.30516 -0.30515 -0.30516 -0.30514 -0.30515 -0.30517 -0.30515 -0.30515 -0.30515 -0.30515 -0.30515 -0.30515 -0.30516 -0.30515 -0.30514 -0.30517 -0.30515 -0.30516 -0.30514 -0.30515 -0.30516 -0.30514 -0.30516 -0.30515 -0.30515 -0.30516 -0.30515 -0.30516 -0.30515 -0.30514 -0.30516 -0.30515 -0.30515 -0.30515 -0.30515 -0.30517 -0.30515 -0.30515 -0.30515 -0.30515 -0.30516 -0.30514 -0.30516 -0.30515 -0.30514 -0.30517 -0.30515 -0.30516 -0.30514 -0.30515 -0.30516 -0.30515 -0.30515 -0.30515 -0.30515 -0.30516 -0.30515 -0.30516 -0.30515 -0.30514 -0.30516 -0.30515 -0.30516 -0.30514 -0.30516 -0.30516 -0.30514 -0.30516 -0.30515 -0.30515 -0.30515 -0.30515 -0.30516 -0.30514 -0.30516 -0.30516 -0.30515 -0.30515 -0.30515 -0.30515 -0.30516 -0.30514 -0.30516 -0.30515 -0.30515 -0.30516 -0.30515 -0.30516 -0.30514 -0.30515 -0.30516 -0.30515 -0.30515 -0.30515 -0.30516 -0.30515 -0.30515 -0.30516 -0.30515 -0.30514 -0.30516 -0.30515 -0.30516 -0.30514 -0.30516 -0.30516 -0.30514 -0.30516 -0.30515 -0.30515 -0.30515 -0.30515 -0.30516 -0.30515 -0.30515 -0.30516 -0.30515 -0.30515 -0.30515 -0.30515 -0.30516 -0.30514 -0.30516 -0.30515 -0.30516 -0.30515 -0.30515 -0.30516 -0.30514 -0.30515 -0.30516 -0.30515 -0.30515 -0.30515 -0.30516 -0.30516 -0.30514 -0.30516 -0.30515 -0.30514 -0.30516 -0.30515 -0.30516 -0.30514 -0.30516 -0.30516 -0.30514 -0.30516 -0.30515 -0.30515 -0.30515 -0.30515 -0.30516 -0.30516 -0.30514 -0.30516 -0.30515 -0.30515 -0.30516 -0.30514 -0.30516 -0.30515 -0.30515 -0.30516 -0.30515 -0.30516 -0.30514 -0.30516 -0.30515 -0.30515 -0.30515 -0.30515 -0.30516 -0.30515 -0.30515 -0.30516 -0.30515 -0.30515 -0.30515 -0.30515 -0.30515 -0.30515 -0.30516 -0.30516 -0.30514 -0.30516 -0.30515 -0.30516 -0.30514 -0.30515 -0.30516 -0.30514 -0.30516 -0.30516 -0.30515 -0.30515 -0.30515 -0.30516 -0.30515 -0.30514 -0.30516 -0.30515 -0.30515 -0.30516 -0.30515 -0.30516 -0.30514 -0.30516 -0.30515 -0.30515 -0.30515 -0.30515 -0.30515 H 99.801289 99.496134 99.190975 98.88582 98.580675 98.27552 97.970365 97.66521 97.360065 97.05491 96.749755 96.44461 96.139455 95.8343 95.529145 95.223997 94.918844 94.613692 94.30854 94.003388 93.698235 93.393083 93.087931 92.782779 92.477626 92.172474 91.867322 91.56217 91.257017 90.951865 90.646713 90.341561 90.036408 89.731256 89.426104 89.120952 88.815799 88.510647 88.205495 87.900342 87.59519 87.290039 86.984887 86.679733 86.374582 86.06943 85.764278 85.459125 85.153973 84.848821 84.543669 84.238516 83.933364 83.628212 83.32306 83.017907 82.712755 82.407603 82.102451 81.797298 81.492146 81.186994 80.881842 80.576689 80.271536 79.966384 79.661231 79.356079 79.050927 78.745775 78.440622 78.13547 77.830318 77.525166 77.220013 76.914861 76.609709 76.304557 75.999404 75.694252 75.3891 75.083948 74.778795 74.473643 74.168491 73.863339 73.558186 73.253034 72.947882 72.64273 72.337577 72.032425 71.727273 71.42212 71.116968 70.811816 70.506664 70.201511 69.896359 69.591207 69.286055 68.980902 68.67575 68.370598 68.065446 67.760293 67.455141 67.149989 66.844837 66.539684 66.234532 65.92938 65.624228 65.319075 65.013923 64.708771 64.403619 64.098466 63.793314 63.488162 63.18301 62.877857 62.572705 62.267553 61.9624 61.657248 61.352096 61.046944 60.741791 60.436639 60.131487 59.826336 59.521182 59.216031 58.910879 58.605727 58.300574 57.995422 57.69027 57.385118 57.079965 56.774813 56.469661 56.164509 55.859356 55.554204 55.249052 54.9439 54.638747 54.333595 54.028443 53.72329 53.418138 53.112985 52.807833 52.50268 52.197528 51.892376 51.587224 51.282071 50.976919 50.671767 50.366615 50.061462 49.75631 49.451158 49.146006 48.840853 48.535701 48.230549 47.925397 47.620244 47.315092 47.00994 46.704788 46.399635 46.094483 45.789331 45.484178 45.179026 44.873874 44.568722 44.263569 43.958417 43.653265 43.348113 43.04296 42.737808 42.432656 42.127504 41.822351 41.517199 41.212047 40.906895 40.601742 40.29659 39.991438 39.686286 39.381133 39.075981 38.770829 38.465677 38.160524 37.855372 37.55022 37.245068 36.939915 36.634763 36.329611 36.024458 35.719306 35.414154 35.109002 34.803849 34.498697 34.193545 33.888393 33.58324 33.278088 32.972936 32.667784 32.362631 32.057479 31.752328 31.447176 31.142023 30.836871 30.531719 30.226567 29.921414 29.616262 29.31111 29.005958 28.700805 28.395653 28.090501 27.785348 27.480196 27.175044 26.869892 26.564739 26.259586 25.954434 25.649282 25.344129 25.038977 24.733825 24.428673 24.12352 23.818368 23.513216 23.208064 22.902911 22.597759 22.292607 21.987455 21.682302 21.37715 21.071998 20.766846 20.461693 20.156541 19.851389 19.546236 Z"
       id="path37" />
    <path
       style="fill:none;stroke:#000000;stroke-width:0.305152px;stroke-linecap:round;stroke-linejoin:round;stroke-miterlimit:4;stroke-dasharray:none;stroke-opacity:1"
       d="m 18.935932,85.271918 v 0 0 0 0 0 h 0.305152 v 0 0 0 0 0 0 0 0 0 0 0 0 h 0.305152 v 0 0 0 0 0 0 0 0 0 0 0 0 0 h 0.305153 v 0 0 0 0 0 0 0 0 0 0 0 0 h 0.305152 v 0 0 0 0 0 0 0 0 0 0 0 0 h 0.305152 v 0 0 0 0 0 0 0 0 0 0 0 0 0 h 0.305153 v 0 0 0 0 0 0 0 0 0 0 0 0 h 0.305152 v 0 0 0 0 0 0 0 0 0 0 0 0 h 0.305152 v 0 0 0 0 0 0 0 0 0 0 0 0 h 0.305152 v 0 0 0 0 0 0 0 0 0 0 0 0 0 h 0.305153 v 0 0 0 0 0 0 0 0 0 0 0 0 h 0.305152 v 0 0 0 0 0 0 0 0 0 0 0 0 h 0.305152 v 0 0 0 0 0 0 0 0 0 0 0 0 0 h 0.305152 v 0 0 0 0 0 0 0 0 0 0 0 0 h 0.305153 v 0 0 0 0 0 0 0 0 0 0 0 0 h 0.305152 v 0 0 0 0 0 0 0 0 0 0 0 0 h 0.305152 v 0 0 0 0 0 0 0 0 0 0 0 0 0 h 0.305152 v 0 0 0 0 0 0 0 0 0 0 0 0 h 0.305153 v 0 0 0 0 0 0 0 0 0 0 0 0 h 0.305152 v 0 0 0 0 0 0 0 0 0 0 0 0 0 h 0.305152 v 0 0 0 0 0 0 0 0 0 0 0 0 h 0.305152 v 0 0 0 0 0 0 0 0 0 0 0 0 h 0.305153 v 0 0 0 0 0 0 0 0 0 0 0 0 0 h 0.305152 v 0 0 0 0 0 0 0 0 0 0 0 0 h 0.305152 v 0 0 0 0 0 0 0 0 0 0 0 0 h 0.305153 v 0 0 0 0 0 0 0 0 0 0 0 0 h 0.305153 v 0 0 0 0 0 0 0 0 0 0 0 0 0 h 0.305152 v 0 0 0 0 0 0 0 0 0 0 0 0 h 0.305152 v 0 0 0 0 0 0 0 0 0 0 0 0 h 0.305152 v 0 0 0 0 0 0 0 0 0 0 0 0 0 h 0.305153 v 0 0 0 0 0 0 0 0 0 0 0 0 h 0.305152 v 0 0 0 0 0 0 0 0 0 0 0 0 h 0.305152 v 0 0 0 0 0 0 0 0 0 0 0 0 h 0.305153 v 0 0 0 0 0 0 0 0 0 0 0 0 0 h 0.305152 v 0 0 0 0 0 0 0 0 0 0 0 0 h 0.305152 v 0 0 0 0 0 0 0 0 0 0 0 0 h 0.305152 v 0 0 0 0 0 0 0 0 0 0 0 0 0 h 0.305153 v 0 0 0 0 0 0 0 0 0 0 0 0 h 0.305152 v 0 0 0 0 0 0 0 0 0 0 0 0 h 0.305152 v 0 0 0 0 0 0 0 0 0 0 0 0 h 0.305152 v 0 0 0 0 0 0 0 0 0 0 0 0 0 h 0.305153 v 0 0 0 0 0 0 0 0 0 0 0 0 h 0.305152 v 0 0 0 0 0 0 0 0 0 0 0 0 h 0.305151 v 0 0 0 0 0 0 0 0 0 0 0 0 0 h 0.305152 v 0 0 0 0 0 0 0 0 0 0 0 0 h 0.305153 v 0 0 0 0 0 0 0 0 0 0 0 0 h 0.305152 v 0 0 0 0 0 0 0 0 0 0 0 0 h 0.305152 v 0 0 0 0 0 0 0 0 0 0 0 0 0 h 0.305152 v 0 0 0 0 0 0 0 0 0 0 0 0 h 0.305153 v 0 0 0 0 0 0 0 0 0 0 0 0 h 0.305152 v 0 0 0 0 0 0 0 0 0 0 0 0 0 h 0.305152 v 0 0 0 0 0 0 0 0 0 0 0 0 h 0.305152 v 0 0 0 0 0 0 0 0 0 0 0 0 h 0.305153 v 0 0 0 0 0 0 0 0 0 0 0 0 0 h 0.305152 v 0 0 0 0 0 0 0 0 0 0 0 0 h 0.305152 v 0 0 0 0 0 0 0 0 0 0 0 0 h 0.305152 v 0 0 0 0 0 0 0 0 0 0 0 0 h 0.305153 v 0 0 0 0 0 0 0 0 0 0 0 0 0 h 0.305152 v 0 0 0 0 0 0 0 0 0 0 0 0 h 0.305152 v 0 0 0 0 0 0 0 0 0 0 0 0 h 0.305153 v 0 0 0 0 0 0 0 0 0 0 0 0 0 h 0.305152 v 0 0 0 0 0 0 0 0 0 0 0 0 h 0.305152 v 0 0 0 0 0 0 0 0 0 0 0 0 h 0.305152 v 0 0 0 0 0 0 0 0 0 0 0 0 h 0.305153 v 0 0 0 0 0 0 0 0 0 0 0 0 0 h 0.305152 v 0 0 0 0 0 0 0 0 0 0 0 0 h 0.305152 v 0 0 0 0 0 0 0 0 0 0 0 0 h 0.305152 v 0 0 0 0 0 0 0 0 0 0 0 0 0 h 0.305153 v 0 0 0 0 0 0 0 0 0 0 0 0 h 0.305152 v 0 0 0 0 0 0 0 0 0 0 0 0 h 0.305152 v 0 0 0 0 0 0 0 0 0 0 0 0 h 0.305152 v 0 0 0 0 0 0 0 0 0 0 0 0 0 h 0.305153 v 0 0 0 0 0 0 0 0 0 0 0 0 h 0.305152 v 0 0 0 0 0 0 0 0 0 0 0 0 h 0.305152 v 0 0 0 0 0 0 0 0 0 0 0 0 0 h 0.305152 v 0 0 0 0 0 0 0 0 0 0 0 0 h 0.305153 v 0 0 0 0 0 0 0 0 0 0 0 0 h 0.305152 v 0 0 0 0 0 0 0 0 0 0 0 0 h 0.305152 v 0 0 0 0 0 0 0 0 0 0 0 0 0 h 0.305152 v 0 0 0 0 0 0 0 0 0 0 0 0 h 0.305153 v 0 0 0 0 0 0 0 0 0 0 0 0 h 0.305152 v 0 0 0 0 0 0 0 0 0 0 0 0 0 h 0.305152 v 0 0 0 0 0 0 0 0 0 0 0 0 h 0.305152 v 0 0 0 0 0 0 0 0 0 0 0 0 h 0.305153 v 0 0 0 0 0 0 0 0 0 0 0 0 0 h 0.305152 v 0 0 0 0 0 0 0 0 0 0 0 0 h 0.305152 v 0 0 0 0 0 0 0 0 0 0 0 0 h 0.305152 v 0 0 0 0 0 0 0 0 0 0 0 0 h 0.305153 v 0 0 0 0 0 0 0 0 0 0 0 0 0 h 0.305152 v 0 0 0 0 0 0 0 0 0 0 0 0 h 0.305152 v 0 0 0 0 0 0 0 0 0 0 0 0 h 0.305153 v 0 0 0 0 0 0 0 0 0 0 0 0 0 h 0.305152 v 0 0 0 0 0 0 0 0 0 0 0 0 h 0.305152 v 0 0 0 0 0 0 0 0 0 0 0 0 h 0.305152 v 0 0 0 0 0 0 0 0 0 0 0 0 h 0.305153 v 0 0 0 0 0 0 0 0 0 0 0 0 0 h 0.305152 v 0 0 0 0 0 0 0 0 0 0 0 0 h 0.305152 v 0 0 0 0 0 0 0 0 0 0 0 0 h 0.305152 v 0 0 0 0 0 0 0 0 0 0 0 0 0 h 0.305153 v 0 0 0 0 0 0 0 0 0 0 0 0 h 0.305152 v 0 0 0 0 0 0 0 0 0 0 0 0 h 0.305152 v 0 0 0 0 0 0 0 0 0 0 0 0 h 0.305152 v 0 0 0 0 0 0 0 0 0 0 0 0 0 h 0.305153 v 0 0 0 0 0 0 0 0 0 0 0 -20.445203 h 0.305152 v 0 0 0 0 0 0 0 0 0 0 0 0 h 0.305152 v 0 0 0 0 0 0 0 0 0 0 0 0 0 h 0.305152 v 0 0 0 0 0 0 0 0 0 0 0 0 h 0.305153 v 0 0 0 0 0 0 0 0 0 0 0 0 h 0.305152 v 0 0 0 0 0 0 0 0 0 0 0 0 h 0.305152 v 0 0 0 0 0 0 0 0 0 0 0 0 0 h 0.305152 v 0 0 0 0 0 0 0 0 0 0 0 0 h 0.305153 v 0 0 0 0 0 0 0 0 0 0 0 0 h 0.305152 v 0 0 0 0 0 0 0 0 0 0 0 0 0 h 0.305153 v 0 0 0 0 0 0 0 0 0 0 0 0 h 0.305152 v 0 0 0 0 0 0 0 0 0 0 0 0 h 0.305153 v 0 0 0 0 0 0 0 0 0 0 0 0 h 0.305152 v 0 0 0 0 0 0 0 0 0 0 0 0 0 h 0.305152 v 0 0 0 0 0 0 0 0 0 0 0 0 H 54.9439 v 0 0 0 0 0 0 0 0 0 0 0 0 l 0.305152,20.445203 v 0 0 0 0 0 0 0 0 0 0 0 0 0 h 0.305152 v 0 0 0 0 0 0 0 0 0 0 0 0 h 0.305152 v 0 0 0 0 0 0 0 0 0 0 0 0 h 0.305153 v 0 0 0 0 0 0 0 0 0 0 0 0 0 h 0.305152 v 0 0 0 0 0 0 0 0 0 0 0 0 h 0.305152 v 0 0 0 0 0 0 0 0 0 0 0 0 h 0.305152 v 0 0 0 0 0 0 0 0 0 0 0 0 h 0.305153 v 0 0 0 0 0 0 0 0 0 0 0 0 0 h 0.305152 v 0 0 0 0 0 0 0 0 0 0 0 0 h 0.305152 v 0 0 0 0 0 0 0 0 0 0 0 0 h 0.305152 v 0 0 0 0 0 0 0 0 0 0 0 0 0 h 0.305153 v 0 0 0 0 0 0 0 0 0 0 0 0 h 0.305152 v 0 0 0 0 0 0 0 0 0 0 0 0 h 0.305152 v 0 0 0 0 0 0 0 0 0 0 0 0 h 0.305151 v 0 0 0 0 0 0 0 0 0 0 0 0 0 h 0.305154 v 0 0 0 0 0 0 0 0 0 0 0 0 h 0.305151 v 0 0 0 0 0 0 0 0 0 0 0 0 h 0.305152 v 0 0 0 0 0 0 0 0 0 0 0 0 0 h 0.305152 v 0 0 0 0 0 0 0 0 0 0 0 0 h 0.305153 v 0 0 0 0 0 0 0 0 0 0 0 0 h 0.305152 v 0 0 0 0 0 0 0 0 0 0 0 0 h 0.305152 v 0 0 0 0 0 0 0 0 0 0 0 0 0 H 61.9624 v 0 0 0 0 0 0 0 0 0 0 0 0 h 0.305153 v 0 0 0 0 0 0 0 0 0 0 0 0 h 0.305152 v 0 0 0 0 0 0 0 0 0 0 0 0 0 h 0.305152 v 0 0 0 0 0 0 0 0 0 0 0 0 h 0.305153 v 0 0 0 0 0 0 0 0 0 0 0 0 h 0.305152 v 0 0 0 0 0 0 0 0 0 0 0 0 h 0.305152 v 0 0 0 0 0 0 0 0 0 0 0 0 0 h 0.305152 v 0 0 0 0 0 0 0 0 0 0 0 0 h 0.305153 v 0 0 0 0 0 0 0 0 0 0 0 0 h 0.305152 v 0 0 0 0 0 0 0 0 0 0 0 0 0 h 0.305152 v 0 0 0 0 0 0 0 0 0 0 0 0 h 0.305152 v 0 0 0 0 0 0 0 0 0 0 0 0 h 0.305153 v 0 0 0 0 0 0 0 0 0 0 0 0 0 h 0.305152 v 0 0 0 0 0 0 0 0 0 0 0 0 h 0.305152 v 0 0 0 0 0 0 0 0 0 0 0 0 h 0.305152 v 0 0 0 0 0 0 0 0 0 0 0 0 h 0.305153 v 0 0 0 0 0 0 0 0 0 0 0 0 0 h 0.305152 v 0 0 0 0 0 0 0 0 0 0 0 0 h 0.305152 v 0 0 0 0 0 0 0 0 0 0 0 0 h 0.305152 v 0 0 0 0 0 0 0 0 0 0 0 0 0 h 0.305153 v 0 0 0 0 0 0 0 0 0 0 0 0 h 0.305152 v 0 0 0 0 0 0 0 0 0 0 0 0 h 0.305152 v 0 0 0 0 0 0 0 0 0 0 0 0 h 0.305152 v 0 0 0 0 0 0 0 0 0 0 0 0 0 h 0.305153 v 0 0 0 0 0 0 0 0 0 0 0 0 h 0.305152 v 0 0 0 0 0 0 0 0 0 0 0 0 h 0.305152 v 0 0 0 0 0 0 0 0 0 0 0 0 0 h 0.305152 v 0 -20.445203 0 0 0 0 0 0 0 0 0 0 h 0.305153 v 0 0 0 0 0 0 0 0 0 0 0 0 h 0.305152 v 0 0 0 0 0 0 0 0 0 0 0 0 h 0.305152 v 0 0 0 0 0 0 0 0 0 0 0 0 0 h 0.305152 v 0 0 0 0 0 0 0 0 0 0 0 0 h 0.305153 v 0 0 0 0 0 0 0 0 0 0 0 0 h 0.305152 v 0 0 0 0 0 0 0 0 0 0 0 0 0 h 0.305152 v 0 0 0 0 0 0 0 0 0 0 0 0 h 0.305153 v 0 0 0 0 0 0 0 0 0 0 0 0 h 0.305152 v 0 0 0 0 0 0 0 0 0 0 0 0 h 0.305152 v 0 0 0 0 0 0 0 0 0 0 0 0 0 h 0.305152 v 0 0 0 0 0 0 0 0 0 0 0 0 h 0.305153 v 0 0 0 0 0 0 0 0 0 0 0 0 h 0.305152 v 0 0 0 0 0 0 0 0 0 0 0 0 0 h 0.305152 v 0 0 0 0 0 0 0 0 0 0 0 0 h 0.305152 v 0 0 20.445203 0 0 0 0 0 0 0 0 0 h 0.305153 v 0 0 0 0 0 0 0 0 0 0 0 0 0 H 75.3891 v 0 0 0 0 0 0 0 0 0 0 0 0 h 0.305152 v 0 0 0 0 0 0 0 0 0 0 0 0 h 0.305152 v 0 0 0 0 0 0 0 0 0 0 0 0 h 0.305153 v 0 0 0 0 0 0 0 0 0 0 0 0 0 h 0.305152 v 0 0 0 0 0 0 0 0 0 0 0 0 h 0.305152 v 0 0 0 0 0 0 0 0 0 0 0 0 h 0.305152 v 0 0 0 0 0 0 0 0 0 0 0 0 0 h 0.305153 v 0 0 0 0 0 0 0 0 0 0 0 0 h 0.305152 v 0 0 0 0 0 0 0 0 0 0 0 0 h 0.305152 v 0 0 0 0 0 0 0 0 0 0 0 0 h 0.305152 v 0 0 0 0 0 0 0 0 0 0 0 0 0 h 0.305153 v 0 0 0 0 0 0 0 0 0 0 0 0 h 0.305152 v 0 0 0 0 0 0 0 0 0 0 0 0 h 0.305152 v 0 0 0 0 0 0 0 0 0 0 0 0 0 h 0.305152 v 0 0 0 0 0 0 0 0 0 0 0 0 h 0.305153 v 0 0 0 0 0 0 0 0 0 0 0 0 h 0.305152 v 0 0 0 0 0 0 0 0 0 0 0 0 h 0.305153 v 0 0 0 0 0 0 0 0 0 0 0 0 0 h 0.305153 v 0 0 0 0 0 0 0 0 0 0 0 0 h 0.305152 v 0 0 0 0 0 0 0 0 0 0 0 0 h 0.305152 v 0 0 0 0 0 0 0 0 0 0 0 0 0 h 0.305152 v 0 0 0 0 0 0 0 0 0 0 0 0 h 0.305153 v 0 0 0 0 0 0 0 0 0 0 0 0 h 0.305152 v 0 0 0 0 0 0 0 0 0 0 0 0 h 0.305152 v 0 0 0 0 0 0 0 0 0 0 0 0 0 h 0.305152 v 0 0 0 0 0 0 0 0 0 0 0 0 h 0.305153 v 0 0 0 0 0 0 0 0 0 0 0 0 h 0.305152 v 0 0 0 0 0 0 0 0 0 0 0 0 0 h 0.305152 v 0 0 0 0 0 0 0 0 0 0 0 0 h 0.305152 v 0 0 0 0 0 0 0 0 0 0 0 0 h 0.305153 v 0 0 0 0 0 0 0 0 0 0 0 0 h 0.305152 v 0 0 0 0 0 0 0 0 0 0 0 0 0 h 0.305152 v 0 0 0 0 0 0 0 0 0 0 0 0 h 0.305152 v 0 0 0 0 0 0 0 0 0 0 0 0 h 0.305153 v 0 0 0 0 0 0 0 0 0 0 0 0 0 h 0.305152 v 0 0 0 0 0 0 0 0 0 0 0 0 h 0.305152 v 0 0 0 0 0 0 0 0 0 0 0 0 h 0.305151 v 0 0 0 0 0 0 0 0 0 0 0 0 0 h 0.305154 v 0 0 0 0 0 0 0 0 0 0 0 0 h 0.305152 v 0 0 0 0 0 0 0 0 0 0 0 0 h 0.305151 v 0 0 0 0 0 0 0 0 0 0 0 0 h 0.305152 v 0 0 0 0 0 0 0 0 0 0 0 0 0 h 0.305153 v 0 0 0 0 0 0 0 0 0 0 0 0 h 0.305152 v 0 0 0 0 0 0 0 0 0 0 0 0 h 0.305152 v 0 0 0 0 0 0 0 0 0 0 0 0 0 h 0.305153 v 0 0 0 0 0 0 0 0 0 0 0 0 h 0.305152 v 0 0 0 0 0 0 0 0 0 0 0 0 h 0.305152 v 0 0 0 0 0 0 0 0 0 0 0 0 h 0.305152 v 0 0 0 0 0 0 0 0 0 0 0 0 0 h 0.305153 v 0 0 0 0 0 0 0 0 0 0 0 0 h 0.305152 v 0 0 0 0 0 0 0 0 0 0 0 0 h 0.305152 v 0 0 0 0 0 0 0 0 0 0 0 0 0 h 0.305152 v 0 0 0 0 0 0 0 0 0 0 0 0 h 0.305153 v 0 0 0 0 0 0 0 0 0 0 0 0 h 0.305152 v 0 0 0 0 0 0 0 0 0 0 0 0 h 0.305152 v 0 0 0 0 0 0 0 0 0 0 0 0 0 h 0.305152 v 0 0 0 0 0 0 0 0 0 0 0 0 h 0.305153 v 0 0 0 0 0 0 0 0 0 0 0 0 h 0.305152 v 0 0 0 0 0 0 0 0 0 0 0 0 0 h 0.305152 v 0 0 0 0 0 0 0 0 0 0 0 0 h 0.305152 v 0 0 0 0 0 0 0 0 0 0 0 0 h 0.305153 v 0 0 0 0 0 0 0 0 0 0 0 0 h 0.305152 v 0 0 0 0 0 0 0 0 0 0 0 0 0 h 0.305152 v 0 0 0 0 0 0 0 0 0 0 0 0 h 0.305152 v 0 0 0 0 0 0 0 0 0 0 0 0 h 0.305153 v 0 0 0 0 0 0 0 0 0 0 0 0 0 h 0.305148 v 0 0 0 0 0 0 0 0 0 0 0 0 H 95.8343 v 0 0 0 0 0 0 0 0 0 0 0 0 h 0.305155 v 0 0 0 0 0 0 0 0 0 0 0 0 0 h 0.305155 v 0 0 0 0 0 0 0 0 0 0 0 0 h 0.305145 v 0 0 0 0 0 0 0 0 0 0 0 0 h 0.305155 v 0 0 0 0 0 0 0 0 0 0 0 0 h 0.305155 v 0 0 0 0 0 0 0 0 0 0 0 0 0 h 0.305145 v 0 0 0 0 0 0 0 0 0 0 0 0 h 0.305155 v 0 0 0 0 0 0 0 0 0 0 0 0 h 0.305155 v 0 0 0 0 0 0 0 0 0 0 0 0 0 h 0.305155 v 0 0 0 0 0 0 0 0 0 0 0 0 h 0.305145 v 0 0 0 0 0 0 0 0 0 0 0 0 h 0.305155 v 0 0 0 0 0 0 0 0 0 0 0 0 h 0.305159 v 0 0 0 0 0 0 0 0 0 0 0 0 0 h 0.305155 v 0 0 0 0 0 0 0 0 0 0 0 0 h 0.305151 v 0 0 0 0 0 0 0 0 0 0 0 0 h 0.30515 v 0 0 0 0 0 0 0 0 0 0 0 0 0 h 0.30515 v 0 0 0 0 0 0 0 0 0 0 0 0 h 0.30515 v 0 0 0 0 0 0 0 0 0 0 0 0 h 0.30515 v 0 0 0 0 0 0 0 0 0 0 0 0 h 0.30515 v 0 0 0 0 0 0 0 0 0 0 0 0 0 h 0.30516 v 0 0 0 0 0 0 0 0 0 0 0 0 h 0.30514 v 0 0 0 0 0 0 0 0 0 0 0 0 h 0.30516 v 0 0 0 0 0 0 0 0 0 0 0 0 0 h 0.30515 v 0 -20.445203 0 0 0 0 0 0 0 0 0 0 h 0.30516 v 0 0 0 0 0 0 0 0 0 0 0 0 h 0.30515 v 0 0 0 0 0 0 0 0 0 0 0 0 h 0.30515 v 0 0 0 0 0 0 0 0 0 0 0 0 0 h 0.30516 v 0 0 0 0 0 0 0 0 0 0 0 0 h 0.30514 v 0 0 0 0 0 0 0 0 0 0 0 0 h 0.30515 v 0 0 0 0 0 0 0 0 0 0 0 0 0 h 0.30516 v 0 0 0 0 0 0 0 0 0 0 0 0 h 0.30515 v 0 0 0 0 0 0 0 0 0 0 0 0 h 0.30515 v 0 0 0 0 0 0 0 0 0 0 0 0 0 h 0.30515 v 0 0 0 0 0 0 0 0 0 0 0 0 h 0.30516 v 0 0 0 0 0 0 0 0 0 0 0 0 h 0.30516 v 0 0 0 0 0 0 0 0 0 0 0 0 h 0.30514 v 0 0 0 0 0 0 0 0 0 0 0 0 0 h 0.30516 v 0 0 0 0 0 0 0 0 0 0 0 0 h 0.30515 v 0 0 20.445203 0 0 0 0 0 0 0 0 0 h 0.30514 v 0 0 0 0 0 0 0 0 0 0 0 0 0 h 0.30516 v 0 0 0 0 0 0 0 0 0 0 0 0 h 0.30515 v 0 0 0 0 0 0 0 0 0 0 0 0 h 0.30516 v 0 0 0 0 0 0 0 0 0 0 0 0 h 0.30514 v 0 0 0 0 0 0 0 0 0 0 0 0 0 h 0.30516 v 0 0 0 0 0 0 0 0 0 0 0 0 h 0.30516 v 0 0 0 0 0 0 0 0 0 0 0 0 h 0.30515 v 0 0 0 0 0 -20.445203 0 0 0 0 0 0 0 h 0.30515 v 0 0 0 0 0 0 0 0 0 0 0 0 h 0.30515 v 0 0 0 0 0 0 0 0 0 0 0 0 h 0.30515 v 0 0 0 0 0 0 0 0 0 0 0 0 h 0.30515 v 0 0 0 0 0 0 0 0 0 0 0 0 0 h 0.30515 v 0 0 0 0 0 0 0 0 0 0 0 0 h 0.30516 v 0 0 0 0 0 0 0 0 0 0 0 0 h 0.30515 v 0 0 0 0 0 0 0 0 0 0 0 0 0 h 0.30515 v 0 0 0 0 0 0 0 0 0 0 0 0 h 0.30516 v 0 0 0 0 0 0 0 0 0 0 0 0 h 0.30515 v 0 0 0 0 0 0 0 0 0 0 0 0 h 0.30515 v 0 0 0 0 0 0 0 0 0 0 0 0 0 h 0.30515 v 0 0 0 0 0 0 0 0 0 0 0 0 h 0.30515 v 0 0 0 0 0 0 0 0 0 0 0 0 h 0.30516 v 0 0 0 0 0 0 0 0 0 0 0 0 0 h 0.30514 v 0 0 0 0 0 20.445203 0 0 0 0 0 0 h 0.30516 v 0 0 0 0 0 0 0 0 0 0 0 0 h 0.30515 v 0 0 0 0 0 0 0 0 0 0 0 0 h 0.30516 v 0 0 0 0 0 0 0 0 0 0 0 0 0 h 0.30515 v 0 0 0 0 0 0 0 0 0 0 0 0 h 0.30515 v 0 0 0 0 0 0 0 0 0 0 0 0 h 0.30516 v 0 0 0 0 0 0 0 0 0 0 0 0 0 h 0.30514 v 0 0 0 0 0 0 0 0 0 0 0 0 h 0.30516 v 0 0 0 0 0 0 0 0 0 0 0 0 h 0.30515 v 0 0 0 0 0 0 0 0 0 0 0 0 0 h 0.30515 v 0 0 0 0 0 0 0 0 0 0 0 0 h 0.30516 v 0 0 0 0 0 0 0 0 0 0 0 0 h 0.30514 v 0 0 0 0 0 0 0 0 0 0 0 0 h 0.30516 v 0 0 0 0 0 0 0 0 0 0 0 0 0 h 0.30516 v 0 0 0 0 0 0 0 0 0 0 0 0 h 0.30515 v 0 0 0 0 0 0 0 0 0 0 0 0 h 0.30515 v 0 0 0 0 0 0 0 0 0 0 0 0 0 h 0.30515 v 0 0 0 0 0 0 0 0 0 0 0 0 h 0.30515 v 0 0 0 0 0 0 0 0 0 0 0 0 h 0.30516 v 0 0 0 0 0 0 0 0 0 0 0 0 h 0.30514 v 0 0 0 0 0 0 0 0 0 0 0 0 0 h 0.30516 v 0 0 0 0 0 0 0 0 0 0 0 0 h 0.30516 v 0 0 0 0 0 0 0 0 0 0 0 0 h 0.30514 v 0 0 0 0 0 0 0 0 0 0 0 0 0 h 0.30516 v 0 0 0 0 0 0 0 0 0 0 0 0 h 0.30515 v 0 0 0 0 0 0 0 0 0 0 0 0 h 0.30516 v 0 0 0 0 0 0 0 0 0 0 0 0 h 0.30514 v 0 0 0 0 0 0 0 0 0 0 0 0 0 h 0.30515 v 0 0 0 0 0 0 0 0 0 0 0 0 h 0.30516 v 0 0 0 0 0 0 0 0 0 0 0 0 h 0.30514 v 0 0 0 0 0 0 0 0 0 0 0 0 0 h 0.30516 v 0 0 0 0 0 0 0 0 0 0 0 0 h 0.30516 v 0 0 0 0 0 0 0 0 0 0 0 0 h 0.30515 v 0 0 0 0 0 0 0 0 0 0 0 0 h 0.30515 v 0 0 0 0 0 0 0 0 0 0 0 0 0 h 0.30515 v 0 0 0 0 0 0 0 0 0 0 0 0 h 0.30516 v 0 0 0 0 0 0 0 0 0 0 0 0 h 0.30515 v 0 0 0 0 0 0 0 0 0 0 0 0 0 h 0.30514 v 0 0 0 0 0 0 0 0 0 0 0 0 h 0.30516 v 0 0 0 0 0 0 0 0 0 0 0 0 h 0.30515 v 0 0 0 0 0 0 0 0 0 0 0 0 0 h 0.30515 v 0 0 0 0 0 0 0 0 0 0 0 0 h 0.30516 v 0 0 0 0 0 0 0 0 0 0 0 0 h 0.30515 v 0 0 0 0 0 0 0 0 0 0 0 0 h 0.30516 v 0 0 0 0 0 0 0 0 0 0 0 0 0 h 0.30514 v 0 0 0 0 0 0 0 0 0 0 0 0 h 0.30516 v 0 0 0 0 0 0 0 0 0 0 0 0 h 0.30515 v 0 0 0 0 0 0 0 0 0 0 0 0 0 h 0.30515 v 0 0 0 0 0 0 0 0 0 0 0 0 h 0.30515 v 0 0 0 0 0 0 0 0 0 0 0 0 h 0.30515 v 0 0 0 0 0 0 0 0 0 0 0 0 h 0.30516 v 0 0 0 0 0 0 0 0 0 0 0 0 0 h 0.30515 v 0 0 0 0 0 0 0 0 0 0 0 0 h 0.30515 v 0 0 0 0 0 0 0 0 0 0 0 0 h 0.30516 v 0 0 0 0 0 0 0 0 0 0 0 0 0 h 0.30515 v 0 0 0 0 0 0 0 0 0 0 0 0 h 0.30515 v 0 0 0 0 0 0 0 0 0 0 0 0 h 0.30515 v 0 0 0 0 0 0 0 0 0 0 0 0 h 0.30515 v 0 0 0 0 0 0 0 0 0 0 0 0 0 h 0.30516 v 0 0 0 0 0 0 0 0 0 0 -20.445203 0 h 0.30514 v 0 0 0 0 0 0 0 0 0 0 0 0 h 0.30516 v 0 0 0 0 0 0 0 0 0 0 0 0 0 h 0.30516 v 0 0 0 0 0 0 0 0 0 0 0 0 h 0.30514 v 0 0 0 0 0 0 0 0 0 0 0 0 h 0.30516 v 0 0 0 0 0 0 0 0 0 0 0 0 h 0.30515 v 0 0 0 0 0 0 0 0 0 0 0 0 0 h 0.30516 v 0 0 0 0 0 0 0 0 0 0 0 0 h 0.30514 v 0 0 0 0 0 0 0 0 0 0 0 0 h 0.30515 v 0 0 0 0 0 0 0 0 0 0 0 0 0 h 0.30516 v 0 0 0 0 0 0 0 0 0 0 0 0 h 0.30515 v 0 0 0 0 0 0 0 0 0 0 0 0 h 0.30515 v 0 0 0 0 0 0 0 0 0 0 0 0 0 h 0.30516 v 0 0 0 0 0 0 0 0 0 0 0 0 h 0.30515 v 0 0 0 0 0 0 0 0 0 0 0 0 h 0.30515 v 0 0 0 0 0 0 0 0 0 0 0 20.445203 h 0.30515 v 0 0 0 0 0 0 0 0 0 0 0 0 0 h 0.30516 v 0 0 0 0 0 0 0 0 0 0 0 0 h 0.30515 v 0 0 0 0 0 0 0 0 0 -20.445203 0 0 h 0.30514 v 0 0 0 0 0 0 0 0 0 0 0 0 0 h 0.30516 v 0 0 0 0 0 0 0 0 0 0 0 0 h 0.30515 v 0 0 0 0 0 0 0 0 0 0 0 0 h 0.30516 v 0 0 0 0 0 0 0 0 0 0 0 0 h 0.30515 v 0 0 0 0 0 0 0 0 0 0 0 0 0 h 0.30515 v 0 0 0 0 0 0 0 0 0 0 0 0 h 0.30516 v 0 0 0 0 0 0 0 0 0 0 0 0 h 0.30514 v 0 0 0 0 0 0 0 0 0 0 0 0 0 h 0.30516 v 0 0 0 0 0 0 0 0 0 0 0 0 h 0.30515 v 0 0 0 0 0 0 0 0 0 0 0 0 h 0.30515 v 0 0 0 0 0 0 0 0 0 0 0 0 h 0.30515 v 0 0 0 0 0 0 0 0 0 0 0 0 0 h 0.30515 v 0 0 0 0 0 0 0 0 0 0 0 0 h 0.30516 v 0 0 0 0 0 0 0 0 0 0 0 0 h 0.30516 v 0 0 0 0 0 0 0 0 0 0 20.445203 0 0 h 0.30514 v 0 0 0 0 0 0 0 0 0 0 0 0 h 0.30516 v 0 0 0 0 0 0 0 0 0 0 0 0 h 0.30515 v 0 0 0 0 0 0 0 0 0 0 0 0 h 0.30515 v 0 0 0 0 0 0 0 0 0 0 0 0 0 h 0.30515 v 0 0 0 0 0 0 0 0 0 0 0 0 h 0.30515 v 0 0 0 0 0 0 0 0 0 0 0 0 h 0.30516 v 0 0 0 0 0 0 0 0 0 0 0 0 0 h 0.30514 v 0 0 0 0 0 0 0 0 0 0 0 0 h 0.30516 v 0 0 0 0 0 0 0 0 0 0 0 -20.445203 h 0.30516 v 0 0 0 0 0 0 0 0 0 0 0 0 h 0.30514 v 0 0 0 0 0 0 0 0 0 0 0 0 0 h 0.30516 v 0 0 0 0 0 0 0 0 0 0 0 0 h 0.30515 v 0 0 0 0 0 0 0 0 0 0 0 0 h 0.30516 v 0 0 0 0 0 0 0 0 0 0 0 0 0 h 0.30514 v 0 0 0 0 0 0 0 0 0 0 0 0 h 0.30515 v 0 0 0 0 0 0 0 0 0 0 0 0 h 0.30516 v 0 0 0 0 0 0 0 0 0 0 0 0 0 h 0.30515 v 0 0 0 0 0 0 0 0 0 0 0 0 h 0.30516 v 0 0 0 0 0 0 0 0 0 0 0 0 h 0.30515 v 0 0 0 0 0 0 0 0 0 0 0 0 h 0.30515 v 0 0 0 0 0 0 0 0 0 0 0 0 0 h 0.30515 v 0 0 0 0 0 0 0 0 0 0 0 0 h 0.30515 v 0 0 0 0 0 0 0 0 0 0 0 0 h 0.30516 v 0 0 0 0 0 0 0 0 0 0 0 0 20.445203 h 0.30515 v 0 0 0 0 0 0 0 0 0 0 0 0 h 0.30514 v 0 0 0 0 0 0 0 0 0 0 0 0 h 0.30516 v 0 0 0 0 0 0 0 0 0 0 0 0 h 0.30515 v 0 0 0 0 0 0 0 0 0 0 0 0 0 h 0.30517 v 0 0 0 0 0 0 0 0 0 0 0 0 h 0.30514 v 0 0 0 0 0 0 0 0 0 0 0 0 h 0.30515 v 0 0 0 0 0 0 0 0 0 0 0 0 0 h 0.30516 v 0 0 0 0 0 0 0 0 0 0 0 0 h 0.30514 v 0 0 0 0 0 0 0 0 0 0 0 0 h 0.30516 v 0 0 0 0 0 0 0 0 0 0 0 0 h 0.30515 v 0 0 0 0 0 0 0 0 0 0 0 0 0 h 0.30515 v 0 0 0 0 0 0 0 0 0 0 0 0 h 0.30515 v 0 0 0 0 0 0 0 0 0 0 0 0 h 0.30515 v 0 0 0 0 0 0 0 0 0 0 0 0 0 h 0.30517 v 0 0 0 0 0 0 0 0 0 0 0 0 h 0.30515 v 0 0 0 0 0 0 0 0 0 0 0 0 h 0.30515 v 0 0 0 0 0 0 0 0 0 0 0 0 h 0.30515 v 0 0 0 0 0 0 0 0 0 0 0 0 0 h 0.30515 v 0 0 0 0 0 0 0 0 0 0 0 0 h 0.30516 v 0 0 0 0 0 0 0 0 0 0 0 0 h 0.30514 v 0 0 0 0 0 0 0 0 0 0 0 0 0 h 0.30515 v 0 0 0 0 0 0 0 0 0 0 0 0 h 0.30516 v 0 0 0 0 0 0 0 0 0 0 0 0 h 0.30515 v 0 0 0 0 0 0 0 0 0 0 0 0 0 h 0.30516 v 0 0 0 0 0 0 0 0 0 0 0 0 h 0.30515 v 0 0 0 0 0 0 0 0 0 0 0 0 h 0.30515 v 0 0 0 0 0 0 0 0 0 0 0 0 h 0.30516 v 0 0 0 0 0 0 0 0 0 0 0 0 0 h 0.30514 v 0 0 0 0 0 0 0 0 0 0 0 0 h 0.30516 v 0 0 0 0 0 0 0 0 0 0 0 0 h 0.30515 v 0 0 0 0 0 0 0 0 0 0 0 0 0 h 0.30514 v 0 0 0 0 0 0 0 0 0 0 0 0 h 0.30516 v 0 0 0 0 0 0 0 0 0 0 0 0 h 0.30515 v 0 0 0 0 0 0 0 0 0 0 0 0 h 0.30517 v 0 0 0 0 0 0 0 0 0 0 0 0 0 h 0.30514 v 0 0 0 0 0 0 0 0 0 0 0 0 h 0.30515 v 0 0 0 0 0 0 0 0 0 0 0 0 h 0.30516 v 0 0 0 0 0 0 0 0 0 0 0 0 0 h 0.30515 v 0 0 0 0 0 0 0 0 0 0 0 0 h 0.30515 v 0 0 0 0 0 0 0 0 0 0 0 0 h 0.30515 v 0 0 0 0 0 0 0 0 0 0 0 0 h 0.30515 v 0 0 0 0 0 0 0 0 0 0 0 0 0 h 0.30515 v 0 0 0 0 0 0 0 0 0 0 0 0 h 0.30515 v 0 0 0 0 0 0 0 0 0 0 0 0 h 0.30517 v 0 0 0 0 0 0 0 0 0 0 0 0 0 h 0.30515 v 0 0 0 0 0 0 0 0 0 0 0 0 h 0.30514 v 0 0 0 0 0 0 0 0 0 0 0 0 h 0.30516 v 0 0 0 0 0 0 0 0 0 0 0 0 h 0.30515 v 0 0 0 0 0 0 0 0 0 0 0 0 0 h 0.30516 v 0 0 0 0 0 0 0 0 0 0 0 0 h 0.30514 v 0 0 0 0 0 0 0 0 0 0 0 0 h 0.30515 v 0 0 0 0 0 0 0 0 0 0 0 0 0 h 0.30516 v 0 0 0 0 0 0 0 0 0 0 0 0 h 0.30514 v 0 0 0 0 0 0 0 0 0 0 0 0 h 0.30517 v 0 0 0 0 0 0 0 0 0 0 0 0 0 h 0.30515 v 0 0 0 0 0 0 0 0 0 0 0 0 h 0.30515 v 0 0 0 0 0 0 0 0 0 0 0 0 h 0.30515 v 0 0 0 0 0 0 0 0 0 0 0 0 h 0.30515 v 0 0 0 0 0 0 0 0 0 0 0 0 0 h 0.30516 v 0 0 0 0 0 0 0 0 0 0 0 0 h 0.30515 v 0 0 0 0 0 0 0 0 0 0 0 0 h 0.30514 v 0 0 0 0 0 0 0 0 0 0 0 0 0 h 0.30516 v 0 0 0 0 0 0 0 0 0 0 0 0 h 0.30515 v 0 0 0 0 0 0 0 0 0 0 0 0 h 0.30516 v 0 0 0 0 0 0 0 0 0 0 0 0 h 0.30515 v 0 0 0 0 0 0 0 0 0 0 0 0 0 h 0.30515 v 0 0 0 0 0 0 0 0 0 0 0 0 h 0.30516 v 0 0 0 0 0 0 0 0 0 0 0 0 h 0.30514 v 0 0 0 0 0 0 0 0 0 0 0 0 0 h 0.30516 v 0 0 0 0 0 0 0 0 0 0 0 0 h 0.30515 v 0 0 0 0 0 0"
       id="path38" />
    <text
       xml:space="preserve"
       style="font-style:normal;font-variant:normal;font-weight:400;font-size:3.80837px;line-height:125%;font-family:Arial;text-align:start;letter-spacing:0px;word-spacing:0px;text-anchor:start;fill:#000000;fill-opacity:1;stroke:none;stroke-width:0.45105"
       transform="rotate(-90)"
       x="-80.08432"
       y="4.100184"
       id="text39"><tspan
         sodipodi:role="line"
         x="-80.08432"
         y="4.100184"
         id="tspan39"
         style="font-size:3.80837px;stroke-width:0.45105"><tspan
           dx="0"
           dy="0"
           style="font-style:normal;font-variant:normal;font-weight:400;font-size:3.80837px;font-family:Arial;fill:#000000;stroke-width:0.45105"
           id="tspan38">Breakpoints per 200 nt window</tspan></tspan></text>
    <text
       xml:space="preserve"
       style="font-size:6.08352px;display:inline;opacity:0.5;fill:#666666;fill-opacity:1;stroke:#7fbfaa;stroke-width:0.354872;stroke-linecap:butt;stroke-linejoin:round;stroke-dasharray:none;stroke-opacity:0;paint-order:normal"
       x="148.04993"
       y="11.771424"
       id="text429-9-0-0"
       inkscape:label="text_orf2"
       transform="scale(0.98917251,1.010946)"><tspan
         sodipodi:role="line"
         id="tspan429-6-8-1"
         style="font-style:normal;font-variant:normal;font-weight:normal;font-stretch:normal;font-size:6.08352px;font-family:Tahoma;-inkscape-font-specification:Tahoma;fill:#666666;fill-opacity:1;stroke:#7fbfaa;stroke-width:0.354872"
         x="148.04993"
         y="11.771424">ORF2</tspan></text>
    <rect
       style="display:inline;fill:#008056;fill-opacity:0.501961;stroke-width:0.603375;stroke-linecap:butt;stroke-linejoin:round;image-rendering:auto"
       id="rect318-1-0-9-2-8-3-9-0-1"
       width="0.21560034"
       height="84.899055"
       x="18.829561"
       y="3.5384262"
       inkscape:label="orf1a_beg" />
    <rect
       style="display:inline;fill:#008056;fill-opacity:0.501961;stroke-width:0.603529;stroke-linecap:butt;stroke-linejoin:round;image-rendering:auto"
       id="rect318-1-0-9-2-8-3-9-0-1-4"
       width="0.21560034"
       height="84.94223"
       x="81.75631"
       y="3.5345101"
       inkscape:label="orf1a_beg" />
    <rect
       style="display:inline;fill:#004280;fill-opacity:0.501961;stroke-width:0.603437;stroke-linecap:butt;stroke-linejoin:round;image-rendering:auto"
       id="rect318-1-0-9-2-8-3-9-0-1-4-5"
       width="0.21560034"
       height="84.916519"
       x="81.974998"
       y="3.5424123"
       inkscape:label="orf1a_beg" />
    <rect
       style="display:inline;fill:#004280;fill-opacity:0.501961;stroke-width:0.603437;stroke-linecap:butt;stroke-linejoin:round;image-rendering:auto"
       id="rect318-1-0-9-2-8-3-9-0-1-4-5-9"
       width="0.21560034"
       height="84.916519"
       x="117.7604"
       y="3.5587475"
       inkscape:label="orf1a_beg" />
    <rect
       style="display:inline;fill:#800026;fill-opacity:0.501961;stroke-width:0.60329;stroke-linecap:butt;stroke-linejoin:round;image-rendering:auto"
       id="rect318-1-0-9-2-8-3-9-0-1-4-5-9-9"
       width="0.21560034"
       height="84.875191"
       x="117.98123"
       y="3.5645046"
       inkscape:label="orf1a_beg" />
    <rect
       style="display:inline;fill:#800026;fill-opacity:0.501961;stroke-width:0.60329;stroke-linecap:butt;stroke-linejoin:round;image-rendering:auto"
       id="rect318-1-0-9-2-8-3-9-0-1-4-5-9-9-3"
       width="0.21560034"
       height="84.875191"
       x="135.85168"
       y="3.5539882"
       inkscape:label="orf1a_beg" />
    <rect
       style="display:inline;fill:#800026;fill-opacity:0.501961;stroke-width:0.60329;stroke-linecap:butt;stroke-linejoin:round;image-rendering:auto"
       id="rect318-1-0-9-2-8-3-9-0-1-4-5-9-9-3-7"
       width="0.21560034"
       height="84.875191"
       x="171.41856"
       y="3.5589488"
       inkscape:label="orf1a_beg" />
    <text
       xml:space="preserve"
       style="font-size:3.71774px;display:inline;opacity:0.89;fill:#000000;fill-opacity:1;stroke:#7fbfaa;stroke-width:0.354872;stroke-linecap:butt;stroke-linejoin:round;stroke-dasharray:none;stroke-opacity:0;paint-order:normal"
       x="124.30235"
       y="10.854009"
       id="text429-9-0-8-0"
       inkscape:label="text_vp34"
       transform="scale(0.98917251,1.010946)"><tspan
         sodipodi:role="line"
         id="tspan429-6-8-3-6"
         style="font-style:normal;font-variant:normal;font-weight:normal;font-stretch:normal;font-size:3.71774px;font-family:Tahoma;-inkscape-font-specification:Tahoma;fill:#000000;fill-opacity:1;stroke:#7fbfaa;stroke-width:0.354872"
         x="124.30235"
         y="10.854009">VP34</tspan></text>
    <rect
       style="display:inline;opacity:0.649533;fill:#8f485e;fill-opacity:1;stroke:#008000;stroke-width:0.179797;stroke-linecap:butt;stroke-linejoin:round;stroke-dasharray:none;stroke-opacity:0;paint-order:normal"
       id="rect428-8-8-1"
       width="18.158274"
       height="12.181646"
       x="117.91278"
       y="3.5485673"
       inkscape:label="orf2_мз34" />
    <text
       xml:space="preserve"
       style="font-size:6.08352px;display:inline;opacity:0.5;fill:#666666;fill-opacity:1;stroke:#7fbfaa;stroke-width:0.354872;stroke-linecap:butt;stroke-linejoin:round;stroke-dasharray:none;stroke-opacity:0;paint-order:normal"
       x="42.143322"
       y="11.610711"
       id="text429-9"
       inkscape:label="text_orf1b"
       transform="scale(0.98917251,1.010946)"><tspan
         sodipodi:role="line"
         id="tspan429-6"
         style="font-style:normal;font-variant:normal;font-weight:normal;font-stretch:normal;font-size:6.08352px;font-family:Tahoma;-inkscape-font-specification:Tahoma;fill:#666666;fill-opacity:1;stroke:#7fbfaa;stroke-width:0.354872"
         x="42.143322"
         y="11.610711">ORF1a</tspan></text>
    <rect
       style="display:inline;opacity:0.5;fill:#008055;fill-opacity:1;stroke:#008000;stroke-width:0.336281;stroke-linecap:butt;stroke-linejoin:round;stroke-dasharray:none;stroke-opacity:0;paint-order:normal"
       id="rect428"
       width="63.386166"
       height="12.208037"
       x="18.819635"
       y="3.5251083"
       inkscape:label="orf1a" />
    <text
       xml:space="preserve"
       style="font-size:6.08352px;display:inline;opacity:0.5;fill:#666666;fill-opacity:1;stroke:#7fbfaa;stroke-width:0.354872;stroke-linecap:butt;stroke-linejoin:round;stroke-dasharray:none;stroke-opacity:0;paint-order:normal"
       x="91.939041"
       y="11.738992"
       id="text429-9-0"
       inkscape:label="text_orf1b"
       transform="scale(0.98917251,1.010946)"><tspan
         sodipodi:role="line"
         id="tspan429-6-8"
         style="font-style:normal;font-variant:normal;font-weight:normal;font-stretch:normal;font-size:6.08352px;font-family:Tahoma;-inkscape-font-specification:Tahoma;fill:#666666;fill-opacity:1;stroke:#7fbfaa;stroke-width:0.354872"
         x="91.939041"
         y="11.738992">ORF1b</tspan></text>
    <rect
       style="display:inline;opacity:0.5;fill:#004180;fill-opacity:1;stroke:#008000;stroke-width:0.254678;stroke-linecap:butt;stroke-linejoin:round;stroke-dasharray:none;stroke-opacity:0;paint-order:normal"
       id="rect428-8"
       width="36.439186"
       height="12.180324"
       x="81.756332"
       y="3.5378697"
       inkscape:label="orf1b" />
    <rect
       style="display:inline;opacity:0.5;fill:#800025;fill-opacity:1;stroke:#008000;stroke-width:0.30989;stroke-linecap:butt;stroke-linejoin:round;stroke-dasharray:none;stroke-opacity:0;paint-order:normal"
       id="rect428-8-8"
       width="53.871208"
       height="12.198638"
       x="117.76301"
       y="3.5441723"
       inkscape:label="orf2" />
    <text
       xml:space="preserve"
       style="font-style:normal;font-variant:normal;font-weight:400;font-size:2.82222px;line-height:125%;font-family:Arial;text-align:start;letter-spacing:0px;word-spacing:0px;text-anchor:start;fill:#004280;fill-opacity:0.501961;stroke:none;stroke-width:0.451095"
       x="83.086777"
       y="91.407822"
       id="text4-8"><tspan
         sodipodi:role="line"
         x="83.086777"
         y="91.407822"
         id="tspan4-5"
         style="font-weight:bold;font-size:2.82222px;fill:#004280;fill-opacity:0.501961;stroke-width:0.451095">2782</tspan></text>
    <text
       xml:space="preserve"
       style="font-style:normal;font-variant:normal;font-weight:400;font-size:2.82222px;line-height:125%;font-family:Arial;text-align:start;letter-spacing:0px;word-spacing:0px;text-anchor:start;fill:#004280;fill-opacity:0.501961;stroke:none;stroke-width:0.451095"
       x="111.04501"
       y="91.330414"
       id="text4-8-6"><tspan
         sodipodi:role="line"
         x="111.04501"
         y="91.330414"
         id="tspan4-5-01"
         style="font-weight:bold;font-size:2.82222px;fill:#004280;fill-opacity:0.501961;stroke-width:0.451095">4329</tspan></text>
    <text
       xml:space="preserve"
       style="font-style:normal;font-variant:normal;font-weight:400;font-size:2.82222px;line-height:125%;font-family:Arial;text-align:start;letter-spacing:0px;word-spacing:0px;text-anchor:start;fill:#800026;fill-opacity:0.501961;stroke:none;stroke-width:0.451095"
       x="118.77415"
       y="91.291664"
       id="text4-8-6-3"><tspan
         sodipodi:role="line"
         x="118.77415"
         y="91.291664"
         id="tspan4-5-01-9"
         style="font-weight:bold;font-size:2.82222px;fill:#800026;fill-opacity:0.501961;stroke-width:0.451095">4330</tspan></text>
    <text
       xml:space="preserve"
       style="font-style:normal;font-variant:normal;font-weight:400;font-size:2.82222px;line-height:125%;font-family:Arial;text-align:start;letter-spacing:0px;word-spacing:0px;text-anchor:start;fill:#800026;fill-opacity:0.501961;stroke:none;stroke-width:0.451095"
       x="137.82401"
       y="91.314995"
       id="text4-8-6-3-8"><tspan
         sodipodi:role="line"
         x="137.82401"
         y="91.314995"
         id="tspan4-5-01-9-2"
         style="font-weight:bold;font-size:2.82222px;fill:#800026;fill-opacity:0.501961;stroke-width:0.451095">5258</tspan></text>
    <text
       xml:space="preserve"
       style="font-style:normal;font-variant:normal;font-weight:400;font-size:2.82222px;line-height:125%;font-family:Arial;text-align:start;letter-spacing:0px;word-spacing:0px;text-anchor:start;fill:#008056;fill-opacity:0.501961;stroke:none;stroke-width:0.451095"
       x="75.271698"
       y="91.402573"
       id="text4-8-3"><tspan
         sodipodi:role="line"
         x="75.271698"
         y="91.402573"
         id="tspan4-5-0"
         style="font-weight:bold;font-size:2.82222px;fill:#008056;fill-opacity:0.501961;stroke-width:0.451095">2781</tspan></text>
  </g>
</svg>
