<?xml version="1.0" encoding="UTF-8" standalone="no"?>
<!-- Created with Inkscape (http://www.inkscape.org/) -->

<svg
   width="180mm"
   height="105mm"
   viewBox="0 0 180 105"
   version="1.1"
   id="svg1"
   inkscape:version="1.3.2 (091e20e, 2023-11-25, custom)"
   sodipodi:docname="brkpnt_stp_1.svg"
   xmlns:inkscape="http://www.inkscape.org/namespaces/inkscape"
   xmlns:sodipodi="http://sodipodi.sourceforge.net/DTD/sodipodi-0.dtd"
   xmlns="http://www.w3.org/2000/svg"
   xmlns:svg="http://www.w3.org/2000/svg">
  <sodipodi:namedview
     id="namedview1"
     pagecolor="#ffffff"
     bordercolor="#000000"
     borderopacity="0.25"
     inkscape:showpageshadow="2"
     inkscape:pageopacity="0.0"
     inkscape:pagecheckerboard="0"
     inkscape:deskcolor="#d1d1d1"
     inkscape:document-units="mm"
     inkscape:zoom="2.5918753"
     inkscape:cx="321.58183"
     inkscape:cy="326.21168"
     inkscape:window-width="1920"
     inkscape:window-height="991"
     inkscape:window-x="-9"
     inkscape:window-y="-9"
     inkscape:window-maximized="1"
     inkscape:current-layer="layer1" />
  <defs
     id="defs1">
    <pattern
       id="EMFhbasepattern"
       patternUnits="userSpaceOnUse"
       width="6"
       height="6"
       x="0"
       y="0" />
    <pattern
       id="EMFhbasepattern-9"
       patternUnits="userSpaceOnUse"
       width="6"
       height="6"
       x="0"
       y="0" />
    <pattern
       id="EMFhbasepattern-0"
       patternUnits="userSpaceOnUse"
       width="6"
       height="6"
       x="0"
       y="0" />
  </defs>
  <g
     inkscape:label="Слой 1"
     inkscape:groupmode="layer"
     id="layer1">
    <path
       style="fill:none;stroke:#000000;stroke-width:0.305227px;stroke-linecap:round;stroke-linejoin:round;stroke-miterlimit:4;stroke-dasharray:none;stroke-opacity:1"
       d="m 15.897278,21.200635 v 3.052274 h 1.526138 -1.526138 v 15.261376 h 1.526138 -1.526138 v 15.261378 h 1.526138 -1.526138 v 15.261372 h 1.526138 -1.526138 v 15.261381 h 1.526138 -1.526138 v 3.052274 h 3.052276 v -1.52614 1.52614 h 38.15344 v -1.52614 1.52614 h 38.153437 v -1.52614 1.52614 H 133.4099 v -1.52614 1.52614 h 38.15345 v -1.52614 1.52614 h 3.05227"
       id="path1" />
    <text
       xml:space="preserve"
       style="font-style:normal;font-variant:normal;font-weight:400;font-size:3.80837px;line-height:125%;font-family:Arial;text-align:start;letter-spacing:0px;word-spacing:0px;text-anchor:start;fill:#000000;fill-opacity:1;stroke:none;stroke-width:0.451163"
       x="17.809935"
       y="93.756874"
       id="text2"><tspan
         sodipodi:role="line"
         x="17.809935"
         y="93.756874"
         id="tspan2"
         style="font-size:3.80837px;stroke-width:0.451163"><tspan
           dx="0"
           dy="0"
           style="font-style:normal;font-variant:normal;font-weight:400;font-size:3.80837px;font-family:Arial;fill:#000000;stroke-width:0.451163"
           id="tspan1">1</tspan></tspan></text>
    <text
       xml:space="preserve"
       style="font-style:normal;font-variant:normal;font-weight:400;font-size:3.80837px;line-height:125%;font-family:Arial;text-align:start;letter-spacing:0px;word-spacing:0px;text-anchor:start;fill:#000000;fill-opacity:1;stroke:none;stroke-width:0.451163"
       x="52.911095"
       y="93.756874"
       id="text4"><tspan
         sodipodi:role="line"
         x="52.911095"
         y="93.756874"
         id="tspan4"
         style="font-size:3.80837px;stroke-width:0.451163"><tspan
           dx="0"
           dy="0"
           style="font-style:normal;font-variant:normal;font-weight:400;font-size:3.80837px;font-family:Arial;fill:#000000;stroke-width:0.451163"
           id="tspan3">1616</tspan></tspan></text>
    <text
       xml:space="preserve"
       style="font-style:normal;font-variant:normal;font-weight:400;font-size:3.80837px;line-height:125%;font-family:Arial;text-align:start;letter-spacing:0px;word-spacing:0px;text-anchor:start;fill:#000000;fill-opacity:1;stroke:none;stroke-width:0.451163"
       x="91.064529"
       y="93.756874"
       id="text6"><tspan
         sodipodi:role="line"
         x="91.064529"
         y="93.756874"
         id="tspan6"
         style="font-size:3.80837px;stroke-width:0.451163"><tspan
           dx="0"
           dy="0"
           style="font-style:normal;font-variant:normal;font-weight:400;font-size:3.80837px;font-family:Arial;fill:#000000;stroke-width:0.451163"
           id="tspan5">3232</tspan></tspan></text>
    <text
       xml:space="preserve"
       style="font-style:normal;font-variant:normal;font-weight:400;font-size:3.80837px;line-height:125%;font-family:Arial;text-align:start;letter-spacing:0px;word-spacing:0px;text-anchor:start;fill:#000000;fill-opacity:1;stroke:none;stroke-width:0.451163"
       x="129.13533"
       y="93.756874"
       id="text8"><tspan
         sodipodi:role="line"
         x="129.13533"
         y="93.756874"
         id="tspan8"
         style="font-size:3.80837px;stroke-width:0.451163"><tspan
           dx="0"
           dy="0"
           style="font-style:normal;font-variant:normal;font-weight:400;font-size:3.80837px;font-family:Arial;fill:#000000;stroke-width:0.451163"
           id="tspan7">4848</tspan></tspan></text>
    <text
       xml:space="preserve"
       style="font-style:normal;font-variant:normal;font-weight:400;font-size:3.80837px;line-height:125%;font-family:Arial;text-align:start;letter-spacing:0px;word-spacing:0px;text-anchor:start;fill:#000000;fill-opacity:1;stroke:none;stroke-width:0.451163"
       x="167.3714"
       y="93.756874"
       id="text10"><tspan
         sodipodi:role="line"
         x="167.3714"
         y="93.756874"
         id="tspan10"
         style="font-size:3.80837px;stroke-width:0.451163"><tspan
           dx="0"
           dy="0"
           style="font-style:normal;font-variant:normal;font-weight:400;font-size:3.80837px;font-family:Arial;fill:#000000;stroke-width:0.451163"
           id="tspan9">6463</tspan></tspan></text>
    <text
       xml:space="preserve"
       style="font-style:normal;font-variant:normal;font-weight:400;font-size:3.80837px;line-height:125%;font-family:Arial;text-align:start;letter-spacing:0px;word-spacing:0px;text-anchor:start;fill:#000000;fill-opacity:1;stroke:none;stroke-width:0.451163"
       x="14.4421"
       y="100.52089"
       id="text12"><tspan
         sodipodi:role="line"
         x="14.4421"
         y="100.52089"
         id="tspan12"
         style="font-size:3.80837px;stroke-width:0.451163"><tspan
           dx="0"
           dy="0"
           style="font-style:normal;font-variant:normal;font-weight:400;font-size:3.80837px;font-family:Arial;fill:#000000;stroke-width:0.451163"
           id="tspan11">Nucleotide position in relation to OQ630461_human_GIN_2021_NA_SEN-21-286-S1_Stool-Sam</tspan></tspan></text>
    <text
       xml:space="preserve"
       style="font-style:normal;font-variant:normal;font-weight:400;font-size:4.28604px;line-height:356.071%;font-family:Arial;text-align:start;letter-spacing:0px;word-spacing:0px;text-anchor:start;fill:#000000;fill-opacity:1;stroke:none;stroke-width:0.451163"
       x="5.9963365"
       y="25.971849"
       id="text22"><tspan
         sodipodi:role="line"
         x="5.9963365"
         y="25.971849"
         id="tspan14"
         style="stroke-width:0.451163"><tspan
           dx="0"
           dy="0"
           style="font-style:normal;font-variant:normal;font-weight:400;font-size:4.28604px;font-family:Arial;fill:#000000;stroke-width:0.451163"
           id="tspan13">3</tspan></tspan><tspan
         sodipodi:role="line"
         x="5.9963365"
         y="41.233196"
         id="tspan16"
         style="stroke-width:0.451163"><tspan
           dx="0"
           dy="0"
           style="font-style:normal;font-variant:normal;font-weight:400;font-size:4.28604px;font-family:Arial;fill:#000000;stroke-width:0.451163"
           id="tspan15">2,25</tspan></tspan><tspan
         sodipodi:role="line"
         x="5.9963365"
         y="56.494541"
         id="tspan18"
         style="stroke-width:0.451163"><tspan
           dx="0"
           dy="0"
           style="font-style:normal;font-variant:normal;font-weight:400;font-size:4.28604px;font-family:Arial;fill:#000000;stroke-width:0.451163"
           id="tspan17">1,5</tspan></tspan><tspan
         sodipodi:role="line"
         x="5.9963365"
         y="71.75589"
         id="tspan20"
         style="stroke-width:0.451163"><tspan
           dx="0"
           dy="0"
           style="font-style:normal;font-variant:normal;font-weight:400;font-size:4.28604px;font-family:Arial;fill:#000000;stroke-width:0.451163"
           id="tspan19">0,75</tspan></tspan><tspan
         sodipodi:role="line"
         x="5.9963365"
         y="87.017235"
         id="tspan22"
         style="stroke-width:0.451163"><tspan
           dx="0"
           dy="0"
           style="font-style:normal;font-variant:normal;font-weight:400;font-size:4.28604px;font-family:Arial;fill:#000000;stroke-width:0.451163"
           id="tspan21">0</tspan></tspan></text>
    <path
       style="fill:#c6c6c6;fill-opacity:1;fill-rule:evenodd;stroke:#c6c6c6;stroke-width:0.305227px;stroke-linecap:round;stroke-linejoin:round;stroke-miterlimit:4;stroke-dasharray:none;stroke-opacity:1"
       d="m 19.254783,64.848171 h 0.305226 0.305226 0.30523 0.305227 0.305227 0.305228 0.305227 0.305227 0.305228 0.305229 0.305227 0.305227 0.305228 0.305227 0.305227 0.305228 0.305228 0.305226 0.305229 0.305227 0.305226 0.30523 0.305227 0.305228 0.305227 0.305228 0.305226 0.305227 0.30523 0.305227 0.305226 0.305228 0.305228 0.305228 0.305227 0.305228 0.305227 0.305228 0.305227 0.305227 0.305227 0.305229 0.305227 0.305227 0.305228 0.305228 0.305228 0.305228 0.305226 0.305228 0.305227 0.305228 0.305227 0.305226 0.30523 0.305226 0.305228 0.305229 0.305227 V 44.703154 h 0.305227 0.305228 0.305228 0.305227 0.305227 V 64.848171 H 39.09457 V 44.703154 h 0.305228 v 20.145017 h 0.305227 0.305228 0.305227 0.305227 0.30523 0.305227 0.305226 0.305229 0.305227 0.305228 0.305226 0.305228 0.305225 V 44.703154 h 0.305229 0.305232 0.305223 0.30523 0.305226 0.30523 0.305223 0.30523 0.305226 0.305229 0.305226 0.305229 0.305228 0.305226 0.305232 0.305223 0.305231 0.305224 0.305229 0.305225 0.305231 0.305225 0.305229 0.305229 0.305226 0.305229 0.305225 0.305231 0.305224 0.30523 0.305226 0.305227 0.305225 0.305231 0.30523 0.305224 0.305229 0.305226 0.305229 0.305225 0.305231 0.305224 0.305229 0.305227 0.305228 0.305225 0.305231 0.305229 0.305225 0.30523 0.305223 0.305232 0.305224 0.30523 0.305225 0.305229 0.305227 0.305228 0.305229 0.305226 0.30523 0.305224 0.30523 0.305226 0.305228 0.305226 0.305229 0.305226 v 20.145017 h 0.305228 0.30523 0.305225 0.305229 0.305228 V 44.703154 h 0.305228 V 64.848171 44.703154 h 0.305223 v 20.145017 h 0.305233 0.305224 0.305229 0.305226 0.305229 0.305229 0.305226 0.30523 0.305224 0.305229 0.305226 0.305231 0.305222 0.305231 V 44.703154 h 0.305226 0.305229 0.305226 0.305228 0.30523 0.305225 0.305229 0.305225 0.305229 0.305226 0.305228 0.305227 0.30523 0.305225 0.305229 0.30523 0.305226 0.305228 V 64.848171 44.703154 h 0.305226 0.305229 0.305224 0.305231 v 20.145017 h 0.305225 0.305229 0.305226 V 44.703154 h 0.30523 0.305229 0.305224 0.305231 0.305226 0.305229 0.305223 0.30523 0.305225 0.305229 0.305228 0.305227 0.305226 0.30523 0.305229 0.305225 0.30523 0.305224 0.305231 0.305224 0.305229 0.305225 0.30523 0.305228 0.305228 0.305228 0.305227 0.305229 0.305223 0.305233 0.305223 0.305229 0.305226 0.305229 0.305227 0.305228 0.30523 l 0.305225,20.145017 h 0.30523 0.305225 0.305229 0.305224 0.305232 0.305224 0.305228 0.305226 V 44.703154 h 0.30523 v 20.145017 h 0.305231 0.305224 V 44.703154 l 0.305234,20.145017 h 0.305224 0.305224 0.305225 0.305233 0.305223 0.305226 0.305234 0.305224 0.305223 0.305235 0.305224 0.305224 0.305235 0.305223 0.305234 0.305225 0.305226 0.305221 0.305233 0.305231 0.305229 0.305238 0.30522 0.30523 0.30523 0.30522 0.30522 0.30523 0.30524 0.30524 0.30522 0.30522 0.30523 0.30523 0.30524 0.30521 0.30523 0.30523 0.30523 0.30523 0.30521 0.30524 0.30522 0.30525 0.30522 0.30521 0.30524 0.30523 0.30522 0.30523 0.30524 0.30521 0.30522 0.30523 0.30524 0.30523 0.30522 0.30523 0.30523 0.30523 0.30522 0.30522 0.30524 V 44.703154 h 0.30523 0.30523 0.30522 0.30521 0.30525 0.30523 0.30522 0.30523 0.30522 0.30524 v 20.145017 h 0.30523 0.30521 0.30523 0.30524 0.30522 0.30523 0.30522 0.30523 0.30522 0.30525 0.30522 0.30522 0.30523 0.30524 0.30521 0.30523 V 44.703154 h 0.30524 0.30522 V 64.848171 44.703154 h 0.30523 0.30521 0.30525 0.30522 0.30522 0.30523 0.30523 0.30523 0.30523 0.30522 0.30523 0.30524 0.30521 0.30523 v 20.145017 h 0.30521 0.30525 0.30523 0.30523 0.30523 0.30522 0.30524 0.30523 0.30521 0.30523 0.30525 V 44.703154 h 0.30521 0.30522 0.30523 0.30523 0.30523 0.30523 0.30523 0.30521 0.30524 0.30524 0.30521 0.30523 0.30523 0.30522 0.30524 0.30521 0.30524 0.30523 0.30523 0.30522 0.30523 0.30523 0.30522 0.30523 V 24.252909 h 0.30523 0.30523 0.30522 0.30523 0.30522 0.30524 0.30522 0.30524 0.30522 V 44.703154 24.252909 h 0.30522 0.30525 0.30522 0.30521 0.30523 0.30525 0.30521 0.30523 0.30522 0.30524 0.30523 0.30522 0.30523 0.30522 0.30524 0.30522 0.30523 0.30522 0.30523 V 44.703154 24.252909 h 0.30523 v 20.450245 h 0.30522 0.30522 0.30523 0.30523 0.30523 0.30523 0.30522 0.30524 0.30522 0.30522 0.30524 0.30523 0.30522 0.30523 0.30522 0.30524 0.30522 0.30522 0.30525 0.30521 0.30523 0.30524 0.30521 0.30523 0.30525 0.30521 0.30522 0.30522 0.30525 0.30523 0.30521 0.30524 v 20.145017 h 0.30522 0.30525 0.30522 0.30522 0.30523 0.30524 0.30521 V 44.703154 64.848171 h 0.30524 V 44.703154 h 0.30521 0.30523 l 0.30525,20.145017 V 44.703154 h 0.30521 v 20.145017 h 0.30523 V 44.703154 h 0.30522 v 20.145017 h 0.30524 V 44.703154 h 0.30523 0.30522 V 64.848171 44.703154 h 0.30523 0.30523 0.30522 0.30523 0.30522 v 20.145017 h 0.30524 0.30522 V 44.703154 h 0.30521 0.30526 0.30521 v 20.145017 h 0.30523 0.30524 l 0.30522,-20.145017 h 0.30522 0.30524 l 0.30522,20.145017 V 44.703154 h 0.30522 0.30523 0.30524 0.30523 0.30521 0.30523 0.30524 v 20.145017 h 0.30523 0.30522 0.30522 0.30523 0.30524 0.30522 0.30523 0.30521 0.30524 0.30523 0.30522 0.30524 0.30521 0.30525 0.30523 v 20.450245 h -0.30523 -0.30525 -0.30521 -0.30524 -0.30522 -0.30523 -0.30524 -0.30521 -0.30523 -0.30522 -0.30524 -0.30523 -0.30522 -0.30522 -0.30523 -0.30524 -0.30523 -0.30521 -0.30523 -0.30524 -0.30523 -0.30522 -0.30522 -0.30524 -0.30522 -0.30522 -0.30524 -0.30523 -0.30521 -0.30526 -0.30521 -0.30522 -0.30524 -0.30522 -0.30523 -0.30522 -0.30523 -0.30523 -0.30522 -0.30523 -0.30524 -0.30522 -0.30523 -0.30521 -0.30525 -0.30523 -0.30521 -0.30524 -0.30521 -0.30524 -0.30523 -0.30522 -0.30522 -0.30525 -0.30522 -0.30524 -0.30521 -0.30523 -0.30525 -0.30522 -0.30522 -0.30521 -0.30525 -0.30523 -0.30521 -0.30524 -0.30523 -0.30521 -0.30525 -0.30522 -0.30522 -0.30524 -0.30522 -0.30523 -0.30522 -0.30523 -0.30524 -0.30522 -0.30522 -0.30524 -0.30522 -0.30523 -0.30523 -0.30523 -0.30523 -0.30522 -0.30522 -0.30523 -0.30523 -0.30522 -0.30523 -0.30522 -0.30524 -0.30522 -0.30523 -0.30522 -0.30523 -0.30524 -0.30522 -0.30523 -0.30521 -0.30525 -0.30523 -0.30521 -0.30522 -0.30525 -0.30522 -0.30522 -0.30524 -0.30522 -0.30524 -0.30522 -0.30523 -0.30522 -0.30523 -0.30523 -0.30523 -0.30522 -0.30523 -0.30523 -0.30522 -0.30523 -0.30523 -0.30524 -0.30521 -0.30524 -0.30522 -0.30523 -0.30523 -0.30521 -0.30524 -0.30524 -0.30521 -0.30523 -0.30523 -0.30523 -0.30523 -0.30523 -0.30522 -0.30521 -0.30525 -0.30523 -0.30521 -0.30523 -0.30524 -0.30522 -0.30523 -0.30523 -0.30523 -0.30525 -0.30521 -0.30523 -0.30521 -0.30524 -0.30523 -0.30522 -0.30523 -0.30523 -0.30523 -0.30523 -0.30522 -0.30522 -0.30525 -0.30521 -0.30523 -0.30522 -0.30524 -0.30523 -0.30521 -0.30524 -0.30523 -0.30522 -0.30522 -0.30525 -0.30522 -0.30523 -0.30522 -0.30523 -0.30522 -0.30524 -0.30523 -0.30521 -0.30523 -0.30524 -0.30522 -0.30523 -0.30522 -0.30523 -0.30525 -0.30521 -0.30522 -0.30523 -0.30523 -0.30524 -0.30522 -0.30522 -0.30523 -0.30523 -0.30523 -0.30522 -0.30523 -0.30524 -0.30523 -0.30522 -0.30521 -0.30524 -0.30523 -0.30522 -0.30523 -0.30524 -0.30521 -0.30522 -0.30525 -0.30522 -0.30524 -0.30521 -0.30523 -0.30523 -0.30523 -0.30523 -0.30521 -0.30524 -0.30523 -0.30523 -0.30522 -0.30522 -0.30524 -0.30524 -0.30523 -0.30522 -0.30522 -0.30523 -0.30523 -0.30522 -0.305238 -0.305229 -0.305231 -0.305233 -0.305221 -0.305226 -0.305225 -0.305234 -0.305223 -0.305235 -0.305224 -0.305224 -0.305235 -0.305223 -0.305224 -0.305234 -0.305226 -0.305223 -0.305233 -0.305225 -0.305224 -0.305224 -0.305234 -0.305224 -0.305231 -0.30523 -0.305226 -0.305228 -0.305224 -0.305232 -0.305224 -0.305229 -0.305225 -0.30523 -0.305225 -0.30523 -0.305228 -0.305227 -0.305229 -0.305226 -0.305229 -0.305223 -0.305233 -0.305223 -0.305229 -0.305227 -0.305228 -0.305228 -0.305228 -0.30523 -0.305225 -0.305229 -0.305224 -0.305231 -0.305224 -0.30523 -0.305225 -0.305229 -0.30523 -0.305226 -0.305227 -0.305228 -0.305229 -0.305225 -0.30523 -0.305223 -0.305229 -0.305226 -0.305231 -0.305224 -0.305229 -0.30523 -0.305226 -0.305229 -0.305225 -0.305231 -0.305224 -0.305229 -0.305226 -0.305228 -0.305226 -0.30523 -0.305229 -0.305225 -0.30523 -0.305227 -0.305228 -0.305226 -0.305229 -0.305225 -0.305229 -0.305225 -0.30523 -0.305228 -0.305226 -0.305229 -0.305226 -0.305231 -0.305222 -0.305231 -0.305226 -0.305229 -0.305224 -0.30523 -0.305226 -0.305229 -0.305229 -0.305226 -0.305229 -0.305224 -0.305233 -0.305223 -0.305228 -0.305228 -0.305229 -0.305225 -0.30523 -0.305228 -0.305226 -0.305229 -0.305226 -0.305228 -0.305226 -0.30523 -0.305224 -0.30523 -0.305226 -0.305229 -0.305228 -0.305227 -0.305229 -0.305225 -0.30523 -0.305224 -0.305232 -0.305223 -0.30523 H 58.018679 57.71345 57.408219 57.102994 56.797766 56.492539 56.18731 55.882086 55.576855 55.27163 54.966401 54.661175 54.355946 54.050722 53.745492 53.440261 53.135036 52.829809 52.524583 52.219353 51.914129 51.608898 51.303673 50.998444 50.693218 50.387989 50.08276 49.777535 49.472304 49.167079 48.86185 48.556626 48.251395 47.946172 47.64094 47.335714 47.030486 46.725257 46.420031 46.114802 45.809576 45.504346 45.199123 44.893893 44.588667 44.283437 43.978214 43.672982 43.367753 43.062528 42.7573 42.452074 42.146846 41.841619 41.53639 41.231164 40.925937 40.620707 40.31548 40.010253 39.705025 39.399798 39.09457 38.789343 38.484116 38.178889 37.873661 37.568433 37.263206 36.957979 36.65275 36.347522 36.042296 35.737066 35.43184 35.126613 34.821385 34.516158 34.21093 33.905704 33.600476 33.295248 32.99002 32.684792 32.379565 32.074338 31.769109 31.463882 31.158655 30.853428 30.5482 30.242973 29.937745 29.632518 29.32729 29.022062 28.716834 28.411608 28.106381 27.801151 27.495924 27.190698 26.88547 26.580243 26.275015 25.969788 25.664558 25.359332 25.054105 24.748876 24.44365 24.138422 23.833194 23.527967 23.22274 22.917512 22.612285 22.307058 22.001829 21.696601 21.391374 21.086147 20.780919 20.475692 20.170465 19.865235 19.560009 19.254783 18.949554 Z"
       id="path36" />
    <path
       style="fill:#808080;fill-opacity:1;fill-rule:evenodd;stroke:#808080;stroke-width:0.305227px;stroke-linecap:round;stroke-linejoin:round;stroke-miterlimit:4;stroke-dasharray:none;stroke-opacity:1"
       d="m 19.254783,64.848171 h 0.305226 0.305226 0.30523 0.305227 0.305227 0.305228 0.305227 v 20.450245 h 0.305227 0.305228 0.305229 0.305227 V 64.848171 h 0.305227 0.305228 0.305227 0.305227 0.305228 0.305228 0.305226 0.305229 0.305227 0.305226 0.30523 0.305227 0.305228 0.305227 0.305228 0.305226 0.305227 0.30523 0.305227 0.305226 0.305228 0.305228 0.305228 0.305227 0.305228 0.305227 0.305228 0.305227 0.305227 0.305227 0.305229 0.305227 0.305227 0.305228 0.305228 0.305228 0.305228 0.305226 0.305228 0.305227 0.305228 0.305227 0.305226 0.30523 0.305226 0.305228 0.305229 0.305227 0.305227 0.305228 0.305228 0.305227 0.305227 0.305227 0.305228 0.305227 0.305228 0.305227 0.305227 0.30523 0.305227 0.305226 0.305229 0.305227 0.305228 0.305226 0.305228 0.305225 0.305229 0.305232 0.305223 0.30523 0.305226 0.30523 0.305223 0.30523 0.305226 0.305229 0.305226 0.305229 0.305228 0.305226 0.305232 0.305223 0.305231 0.305224 0.305229 0.305225 0.305231 0.305225 0.305229 0.305229 0.305226 0.305229 0.305225 0.305231 0.305224 0.30523 0.305226 0.305227 0.305225 0.305231 0.30523 0.305224 0.305229 0.305226 0.305229 0.305225 V 44.703154 64.848171 44.703154 h 0.305231 V 64.848171 44.703154 64.848171 44.703154 64.848171 L 56.18731,44.703154 h 0.305229 0.305227 0.305228 0.305225 0.305231 V 64.848171 L 58.018679,44.703154 V 64.848171 44.703154 64.848171 h 0.305225 V 44.703154 64.848171 44.703154 h 0.30523 V 64.848171 44.703154 h 0.305223 0.305232 0.305224 0.30523 0.305225 0.305229 0.305227 0.305228 v 20.145017 h 0.305229 0.305226 0.30523 0.305224 0.30523 0.305226 0.305228 0.305226 0.305229 0.305226 0.305228 0.30523 0.305225 0.305229 0.305228 0.305228 0.305223 0.305233 0.305224 0.305229 0.305226 0.305229 0.305229 0.305226 0.30523 0.305224 0.305229 0.305226 0.305231 0.305222 0.305231 0.305226 0.305229 0.305226 0.305228 0.30523 0.305225 0.305229 0.305225 0.305229 0.305226 0.305228 0.305227 0.30523 0.305225 0.305229 0.30523 0.305226 0.305228 0.305226 0.305229 0.305224 0.305231 0.305225 0.305229 0.305226 0.30523 0.305229 0.305224 0.305231 0.305226 0.305229 0.305223 0.30523 0.305225 0.305229 0.305228 0.305227 0.305226 0.30523 0.305229 0.305225 0.30523 0.305224 0.305231 0.305224 V 44.703154 h 0.305229 v 20.145017 h 0.305225 0.30523 0.305228 0.305228 0.305228 0.305227 0.305229 0.305223 0.305233 0.305223 0.305229 0.305226 0.305229 0.305227 0.305228 0.30523 0.305225 0.30523 0.305225 0.305229 0.305224 0.305232 0.305224 0.305228 0.305226 0.30523 0.305231 0.305224 0.305234 0.305224 0.305224 0.305225 0.305233 0.305223 0.305226 0.305234 0.305224 0.305223 0.305235 0.305224 0.305224 0.305235 0.305223 0.305234 0.305225 0.305226 0.305221 0.305233 0.305231 0.305229 0.305238 0.30522 0.30523 0.30523 0.30522 0.30522 0.30523 0.30524 0.30524 0.30522 0.30522 0.30523 0.30523 0.30524 0.30521 0.30523 0.30523 0.30523 0.30523 0.30521 0.30524 0.30522 0.30525 0.30522 0.30521 0.30524 0.30523 0.30522 0.30523 0.30524 0.30521 0.30522 0.30523 0.30524 0.30523 0.30522 0.30523 0.30523 0.30523 0.30522 0.30522 0.30524 0.30523 0.30523 0.30522 0.30521 0.30525 0.30523 0.30522 0.30523 0.30522 0.30524 0.30523 0.30521 0.30523 0.30524 0.30522 0.30523 0.30522 0.30523 0.30522 0.30525 0.30522 0.30522 0.30523 0.30524 0.30521 0.30523 0.30524 0.30522 0.30523 0.30521 0.30525 0.30522 0.30522 0.30523 0.30523 0.30523 0.30523 0.30522 0.30523 0.30524 0.30521 0.30523 0.30521 0.30525 0.30523 0.30523 0.30523 0.30522 0.30524 0.30523 0.30521 0.30523 0.30525 0.30521 0.30522 0.30523 0.30523 0.30523 0.30523 0.30523 0.30521 0.30524 0.30524 0.30521 0.30523 0.30523 0.30522 0.30524 0.30521 0.30524 0.30523 0.30523 V 44.703154 h 0.30522 0.30523 0.30523 0.30522 0.30523 0.30523 0.30523 0.30522 0.30523 0.30522 0.30524 0.30522 0.30524 0.30522 0.30522 0.30525 0.30522 0.30521 0.30523 0.30525 0.30521 0.30523 0.30522 0.30524 0.30523 0.30522 0.30523 0.30522 0.30524 0.30522 0.30523 0.30522 0.30523 0.30523 0.30522 0.30522 v 20.145017 h 0.30523 0.30523 0.30523 0.30523 0.30522 0.30524 0.30522 0.30522 0.30524 0.30523 0.30522 0.30523 0.30522 0.30524 0.30522 0.30522 0.30525 0.30521 0.30523 0.30524 0.30521 0.30523 0.30525 0.30521 0.30522 0.30522 0.30525 0.30523 0.30521 0.30524 0.30522 0.30525 0.30522 0.30522 0.30523 0.30524 0.30521 0.30524 0.30521 0.30523 0.30525 0.30521 0.30523 0.30522 0.30524 0.30523 0.30522 0.30523 0.30523 0.30522 0.30523 0.30522 0.30524 0.30522 0.30521 0.30526 0.30521 0.30523 0.30524 0.30522 0.30522 0.30524 0.30522 0.30522 0.30523 0.30524 0.30523 0.30521 0.30523 0.30524 0.30523 0.30522 0.30522 0.30523 0.30524 0.30522 0.30523 0.30521 0.30524 0.30523 0.30522 0.30524 0.30521 0.30525 0.30523 v 20.450245 h -0.30523 -0.30525 -0.30521 -0.30524 -0.30522 -0.30523 -0.30524 -0.30521 -0.30523 -0.30522 -0.30524 -0.30523 -0.30522 -0.30522 -0.30523 -0.30524 -0.30523 -0.30521 -0.30523 -0.30524 -0.30523 -0.30522 -0.30522 -0.30524 -0.30522 -0.30522 -0.30524 -0.30523 -0.30521 -0.30526 -0.30521 -0.30522 -0.30524 -0.30522 -0.30523 -0.30522 -0.30523 -0.30523 -0.30522 -0.30523 -0.30524 -0.30522 -0.30523 -0.30521 -0.30525 -0.30523 -0.30521 -0.30524 -0.30521 -0.30524 -0.30523 -0.30522 -0.30522 -0.30525 -0.30522 -0.30524 -0.30521 -0.30523 -0.30525 -0.30522 -0.30522 -0.30521 -0.30525 -0.30523 -0.30521 -0.30524 -0.30523 -0.30521 -0.30525 -0.30522 -0.30522 -0.30524 -0.30522 -0.30523 -0.30522 -0.30523 -0.30524 -0.30522 -0.30522 -0.30524 -0.30522 -0.30523 -0.30523 -0.30523 -0.30523 -0.30522 -0.30522 -0.30523 -0.30523 -0.30522 -0.30523 -0.30522 -0.30524 -0.30522 -0.30523 -0.30522 -0.30523 -0.30524 -0.30522 -0.30523 -0.30521 -0.30525 -0.30523 -0.30521 -0.30522 -0.30525 -0.30522 -0.30522 -0.30524 -0.30522 -0.30524 -0.30522 -0.30523 -0.30522 -0.30523 -0.30523 -0.30523 -0.30522 -0.30523 -0.30523 -0.30522 -0.30523 -0.30523 -0.30524 -0.30521 -0.30524 -0.30522 -0.30523 -0.30523 -0.30521 -0.30524 -0.30524 -0.30521 -0.30523 -0.30523 -0.30523 -0.30523 -0.30523 -0.30522 -0.30521 -0.30525 -0.30523 -0.30521 -0.30523 -0.30524 -0.30522 -0.30523 -0.30523 -0.30523 -0.30525 -0.30521 -0.30523 -0.30521 -0.30524 -0.30523 -0.30522 -0.30523 -0.30523 -0.30523 -0.30523 -0.30522 -0.30522 -0.30525 -0.30521 -0.30523 -0.30522 -0.30524 -0.30523 -0.30521 -0.30524 -0.30523 -0.30522 -0.30522 -0.30525 -0.30522 -0.30523 -0.30522 -0.30523 -0.30522 -0.30524 -0.30523 -0.30521 -0.30523 -0.30524 -0.30522 -0.30523 -0.30522 -0.30523 -0.30525 -0.30521 -0.30522 -0.30523 -0.30523 -0.30524 -0.30522 -0.30522 -0.30523 -0.30523 -0.30523 -0.30522 -0.30523 -0.30524 -0.30523 -0.30522 -0.30521 -0.30524 -0.30523 -0.30522 -0.30523 -0.30524 -0.30521 -0.30522 -0.30525 -0.30522 -0.30524 -0.30521 -0.30523 -0.30523 -0.30523 -0.30523 -0.30521 -0.30524 -0.30523 -0.30523 -0.30522 -0.30522 -0.30524 -0.30524 -0.30523 -0.30522 -0.30522 -0.30523 -0.30523 -0.30522 -0.305238 -0.305229 -0.305231 -0.305233 -0.305221 -0.305226 -0.305225 -0.305234 -0.305223 -0.305235 -0.305224 -0.305224 -0.305235 -0.305223 -0.305224 -0.305234 -0.305226 -0.305223 -0.305233 -0.305225 -0.305224 -0.305224 -0.305234 -0.305224 -0.305231 -0.30523 -0.305226 -0.305228 -0.305224 -0.305232 -0.305224 -0.305229 -0.305225 -0.30523 -0.305225 -0.30523 -0.305228 -0.305227 -0.305229 -0.305226 -0.305229 -0.305223 -0.305233 -0.305223 -0.305229 -0.305227 -0.305228 -0.305228 -0.305228 -0.30523 -0.305225 -0.305229 -0.305224 -0.305231 -0.305224 -0.30523 -0.305225 -0.305229 -0.30523 -0.305226 -0.305227 -0.305228 -0.305229 -0.305225 -0.30523 -0.305223 -0.305229 -0.305226 -0.305231 -0.305224 -0.305229 -0.30523 -0.305226 -0.305229 -0.305225 -0.305231 -0.305224 -0.305229 -0.305226 -0.305228 -0.305226 -0.30523 -0.305229 -0.305225 -0.30523 -0.305227 -0.305228 -0.305226 -0.305229 -0.305225 -0.305229 -0.305225 -0.30523 -0.305228 -0.305226 -0.305229 -0.305226 -0.305231 -0.305222 -0.305231 -0.305226 -0.305229 -0.305224 -0.30523 -0.305226 -0.305229 -0.305229 -0.305226 -0.305229 -0.305224 -0.305233 -0.305223 -0.305228 -0.305228 -0.305229 -0.305225 -0.30523 -0.305228 -0.305226 -0.305229 -0.305226 -0.305228 -0.305226 -0.30523 -0.305224 -0.30523 -0.305226 -0.305229 -0.305228 -0.305227 -0.305229 -0.305225 -0.30523 -0.305224 -0.305232 -0.305223 -0.30523 H 58.018679 57.71345 57.408219 57.102994 56.797766 56.492539 56.18731 55.882086 55.576855 55.27163 54.966401 54.661175 54.355946 54.050722 53.745492 53.440261 53.135036 52.829809 52.524583 52.219353 51.914129 51.608898 51.303673 50.998444 50.693218 50.387989 50.08276 49.777535 49.472304 49.167079 48.86185 48.556626 48.251395 47.946172 47.64094 47.335714 47.030486 46.725257 46.420031 46.114802 45.809576 45.504346 45.199123 44.893893 44.588667 44.283437 43.978214 43.672982 43.367753 43.062528 42.7573 42.452074 42.146846 41.841619 41.53639 41.231164 40.925937 40.620707 40.31548 40.010253 39.705025 39.399798 39.09457 38.789343 38.484116 38.178889 37.873661 37.568433 37.263206 36.957979 36.65275 36.347522 36.042296 35.737066 35.43184 35.126613 34.821385 34.516158 34.21093 33.905704 33.600476 33.295248 32.99002 32.684792 32.379565 32.074338 31.769109 31.463882 31.158655 30.853428 30.5482 30.242973 29.937745 29.632518 29.32729 29.022062 28.716834 28.411608 28.106381 27.801151 27.495924 27.190698 26.88547 26.580243 26.275015 25.969788 25.664558 25.359332 25.054105 24.748876 24.44365 24.138422 23.833194 23.527967 23.22274 22.917512 22.612285 22.307058 22.001829 21.696601 21.391374 21.086147 20.780919 20.475692 20.170465 19.865235 19.560009 19.254783 Z"
       id="path37" />
    <path
       style="fill:none;stroke:#000000;stroke-width:0.305227px;stroke-linecap:round;stroke-linejoin:round;stroke-miterlimit:4;stroke-dasharray:none;stroke-opacity:1"
       d="m 36.957979,18.148359 v 1.526137 m 11.598647,-1.526137 v 1.526137 m 6.715004,-1.526137 v 1.526137 m 16.177057,-1.526137 v 1.526137 m 58.908933,-1.526137 v 1.526137 m 2.74704,-1.526137 v 1.526137 m 13.12478,-1.526137 v 1.526137"
       id="path22" />
    <path
       style="fill:none;stroke:#000000;stroke-width:0.305227px;stroke-linecap:round;stroke-linejoin:round;stroke-miterlimit:4;stroke-dasharray:0.451163, 0.451163;stroke-dashoffset:0;stroke-opacity:1"
       d="M 15.897278,24.252909 H 174.61562"
       id="path34" />
    <path
       style="fill:none;stroke:#000000;stroke-width:0.305227px;stroke-linecap:round;stroke-linejoin:round;stroke-miterlimit:4;stroke-dasharray:1.35349, 0.451163, 0.451163, 0.451163, 0.451163, 0.451163;stroke-dashoffset:0;stroke-opacity:1"
       d="M 15.897278,24.252909 H 174.61562"
       id="path35" />
    <path
       style="fill:none;stroke:#000000;stroke-width:0.305227px;stroke-linecap:round;stroke-linejoin:round;stroke-miterlimit:4;stroke-dasharray:none;stroke-opacity:1"
       d="m 18.949554,85.298416 v 0 0 0 0 0 h 0.305229 v 0 0 0 0 0 0 0 0 0 0 0 0 h 0.305226 v 0 0 0 0 0 0 0 0 0 0 0 0 h 0.305226 v 0 0 0 0 0 0 0 0 0 0 0 0 h 0.30523 v 0 0 0 0 0 0 0 0 0 0 0 0 h 0.305227 v 0 0 0 0 0 0 0 0 0 0 0 0 h 0.305227 v 0 0 0 0 0 0 0 0 0 0 0 0 h 0.305228 v 0 0 0 0 0 0 0 0 0 0 0 h 0.305227 v 0 0 0 0 0 0 0 0 0 0 0 0 h 0.305227 v 0 0 0 0 0 0 0 0 0 0 0 0 h 0.305228 v 0 0 0 0 0 0 0 0 0 0 0 0 h 0.305229 v 0 0 0 0 0 0 0 0 0 0 0 0 h 0.305227 v 0 0 0 0 0 0 0 0 0 0 0 0 h 0.305227 v 0 0 0 0 0 0 0 0 0 0 0 0 h 0.305228 v 0 0 0 0 0 0 0 0 0 0 0 0 h 0.305227 v 0 0 0 0 0 0 0 0 0 0 0 0 h 0.305227 v 0 0 0 0 0 0 0 0 0 0 0 0 h 0.305228 v 0 0 0 0 0 0 0 0 0 0 0 0 h 0.305228 v 0 0 0 0 0 0 0 0 0 0 0 0 h 0.305226 v 0 0 0 0 0 0 0 0 0 0 0 0 h 0.305229 v 0 0 0 0 0 0 0 0 0 0 0 h 0.305227 v 0 0 0 0 0 0 0 0 0 0 0 0 h 0.305226 v 0 0 0 0 0 0 0 0 0 0 0 0 h 0.30523 v 0 0 0 0 0 0 0 0 0 0 0 0 h 0.305227 v 0 0 0 0 0 0 0 0 0 0 0 0 h 0.305228 v 0 0 0 0 0 0 0 0 0 0 0 0 h 0.305227 v 0 0 0 0 0 0 0 0 0 0 0 0 h 0.305228 v 0 0 0 0 0 0 0 0 0 0 0 0 h 0.305226 v 0 0 0 0 0 0 0 0 0 0 0 0 h 0.305227 v 0 0 0 0 0 0 0 0 0 0 0 0 h 0.30523 v 0 0 0 0 0 0 0 0 0 0 0 0 h 0.305227 v 0 0 0 0 0 0 0 0 0 0 0 0 h 0.305226 v 0 0 0 0 0 0 0 0 0 0 0 0 h 0.305228 v 0 0 0 0 0 0 0 0 0 0 0 0 h 0.305228 v 0 0 0 0 0 0 0 0 0 0 0 h 0.305228 v 0 0 0 0 0 0 0 0 0 0 0 0 h 0.305227 v 0 0 0 0 0 0 0 0 0 0 0 0 h 0.305228 v 0 0 0 0 0 0 0 0 0 0 0 0 H 30.5482 v 0 0 0 0 0 0 0 0 0 0 0 0 h 0.305228 v 0 0 0 0 0 0 0 0 0 0 0 0 h 0.305227 v 0 0 0 0 0 0 0 0 0 0 0 0 h 0.305227 v 0 0 0 0 0 0 0 0 0 0 0 0 h 0.305227 v 0 0 0 0 0 0 0 0 0 0 0 0 h 0.305229 v 0 0 0 0 0 0 0 0 0 0 0 0 h 0.305227 v 0 0 0 0 0 0 0 0 0 0 0 0 h 0.305227 v 0 0 0 0 0 0 0 0 0 0 0 0 h 0.305228 v 0 0 0 0 0 0 0 0 0 0 0 0 h 0.305228 v 0 0 0 0 0 0 0 0 0 0 0 h 0.305228 v 0 0 0 0 0 0 0 0 0 0 0 0 h 0.305228 v 0 0 0 0 0 0 0 0 0 0 0 0 h 0.305226 v 0 0 0 0 0 0 0 0 0 0 0 0 h 0.305228 v 0 0 0 0 0 0 0 0 0 0 0 0 h 0.305227 v 0 0 -20.450245 0 0 0 0 0 0 0 0 0 h 0.305228 v 0 0 0 0 0 0 0 0 0 0 0 0 h 0.305227 v 0 0 0 0 0 0 0 0 0 0 0 0 h 0.305226 v 0 0 0 0 0 0 0 0 0 0 0 0 h 0.30523 v 0 0 0 0 0 0 0 0 0 0 0 0 h 0.305226 v 0 0 0 0 0 0 0 0 0 0 0 0 h 0.305228 v 0 0 0 0 0 0 0 0 0 0 0 0 h 0.305229 v 0 0 0 0 0 0 0 0 0 0 0 0 h 0.305227 v 0 0 0 0 0 0 0 0 0 0 0 0 h 0.305227 v 0 0 0 0 0 0 0 0 0 0 0 h 0.305228 v 0 0 0 0 0 0 0 0 0 0 0 0 h 0.305228 v 0 0 0 0 0 0 0 0 0 0 0 0 h 0.305227 v 0 0 0 0 0 0 0 0 0 0 0 0 h 0.305227 v 0 0 0 0 0 0 0 0 0 0 0 0 h 0.305227 v 0 0 0 0 0 0 0 0 0 0 0 0 h 0.305228 v 0 0 0 0 0 0 0 0 20.450245 0 0 0 h 0.305227 v 0 0 0 0 0 0 0 0 0 0 0 0 h 0.305228 v 0 0 0 0 0 0 0 0 0 0 0 0 h 0.305227 v 0 0 0 0 0 0 0 0 0 0 0 0 h 0.305227 v 0 0 0 0 0 0 0 0 0 0 0 0 h 0.30523 v 0 0 0 0 0 0 0 0 0 0 0 0 h 0.305227 v 0 0 0 0 0 0 0 0 0 0 0 0 h 0.305226 v 0 0 0 0 0 0 0 0 0 0 0 h 0.305229 v 0 0 0 0 0 0 0 0 0 0 0 0 h 0.305227 v 0 0 0 0 0 0 0 0 0 0 0 0 h 0.305228 v 0 0 0 0 0 0 0 0 0 0 0 0 H 42.7573 v 0 0 0 0 0 0 0 0 0 0 0 0 h 0.305228 v 0 0 0 0 0 0 0 0 0 0 0 0 h 0.305225 v 0 0 0 0 0 0 0 0 0 0 0 0 h 0.305229 v 0 0 0 0 0 0 0 0 0 0 0 0 h 0.305232 v 0 0 0 0 0 0 0 0 0 0 0 0 h 0.305223 v 0 0 0 0 0 0 0 0 0 0 0 0 h 0.30523 v 0 0 0 0 0 0 0 0 0 0 0 0 h 0.305226 v 0 0 0 0 0 0 0 0 0 0 0 0 h 0.30523 v 0 0 0 0 0 0 0 0 0 0 0 0 h 0.305223 v 0 0 0 0 0 0 0 0 0 0 0 0 h 0.30523 v 0 0 0 0 0 0 0 0 0 0 0 h 0.305226 v 0 0 0 0 0 0 0 0 -20.450245 0 0 0 h 0.305229 v 0 0 0 0 0 0 0 0 0 0 0 0 h 0.305226 v 0 0 0 0 0 0 0 0 0 0 0 0 h 0.305229 v 0 0 0 0 0 0 0 0 0 0 0 0 h 0.305228 v 0 0 0 0 0 0 0 0 0 0 0 0 h 0.305226 v 0 0 0 0 0 0 0 0 0 0 0 0 h 0.305232 v 0 0 0 0 0 0 0 0 0 0 0 0 h 0.305223 v 0 0 0 0 0 0 0 0 0 0 0 0 h 0.305231 v 0 0 0 0 0 0 0 0 0 0 0 0 h 0.305224 v 0 0 0 0 0 0 0 0 0 0 0 0 h 0.305229 v 0 0 0 0 0 0 0 0 0 0 0 0 h 0.305225 v 0 0 0 0 0 0 0 0 0 0 0 0 h 0.305231 v 0 0 0 0 0 0 0 0 0 0 0 h 0.305225 v 0 0 0 0 0 0 0 0 0 0 0 0 h 0.305229 v 0 0 0 0 0 0 0 0 0 0 0 0 h 0.305229 v 0 0 0 0 0 0 0 0 0 0 0 0 h 0.305226 v 0 20.450245 0 0 0 0 0 0 0 0 0 0 h 0.305229 v 0 0 0 0 0 0 0 0 0 0 0 0 h 0.305225 v 0 0 0 0 0 0 0 0 0 0 0 0 h 0.305231 v 0 0 0 0 0 0 0 0 0 0 0 0 h 0.305224 v 0 0 0 0 0 0 0 0 0 0 0 0 h 0.30523 v 0 0 0 0 0 0 0 0 0 0 0 0 h 0.305226 v 0 0 0 0 0 0 0 0 0 0 0 -20.450245 h 0.305227 v 0 0 0 0 0 0 0 0 0 0 0 0 h 0.305225 v 0 0 0 0 0 0 0 0 0 0 0 0 h 0.305231 v 0 0 0 0 0 0 0 0 0 0 0 0 h 0.30523 v 0 0 0 0 0 0 0 0 0 0 0 h 0.305224 v 0 0 0 0 0 0 0 0 0 0 0 0 h 0.305229 v 0 0 0 0 0 0 0 0 0 0 0 0 h 0.305226 v 0 0 0 0 0 0 0 0 0 0 0 0 h 0.305229 v 0 0 0 0 0 0 0 0 0 0 0 0 h 0.305225 v 0 0 0 0 0 0 0 0 0 0 0 0 h 0.305231 v 0 0 0 0 0 0 0 0 0 0 0 0 h 0.305224 v 0 0 0 0 0 0 0 0 0 0 0 0 h 0.305229 v 0 0 0 0 0 0 0 0 0 0 0 0 h 0.305227 v 0 0 0 0 0 0 0 0 0 0 0 0 h 0.305228 v 0 0 0 0 0 0 0 0 0 0 0 0 h 0.305225 v 0 0 0 0 0 0 0 0 0 0 0 0 h 0.305231 v 0 0 0 0 20.450245 0 0 0 0 0 0 0 h 0.305229 v 0 0 0 0 0 0 0 0 0 0 0 h 0.305225 v 0 0 0 0 0 0 0 0 0 0 0 0 h 0.30523 v 0 0 0 0 0 0 0 0 0 0 0 0 h 0.305223 v 0 0 0 0 0 0 0 0 0 0 0 0 h 0.305232 v 0 0 0 0 0 0 0 0 0 0 0 0 h 0.305224 v 0 0 0 0 0 0 0 0 0 0 0 0 h 0.30523 v 0 0 0 0 0 0 0 0 0 0 0 0 h 0.305225 v 0 0 0 0 0 0 0 0 0 0 0 0 h 0.305229 v 0 0 0 0 0 0 0 0 0 0 0 0 h 0.305227 v 0 0 0 0 0 0 0 0 0 0 0 0 h 0.305228 v 0 0 0 0 0 0 0 0 0 0 0 0 h 0.305229 v 0 0 0 0 0 0 0 0 0 0 0 0 h 0.305226 v 0 0 0 0 0 0 0 0 0 0 0 0 h 0.30523 v 0 0 0 0 0 0 0 0 0 0 0 0 h 0.305224 v 0 0 0 0 0 0 0 0 0 0 0 h 0.30523 v 0 0 0 0 0 0 0 0 0 0 0 0 h 0.305226 v 0 0 0 0 0 0 0 0 0 0 0 0 h 0.305228 v 0 0 0 0 0 0 0 0 0 0 0 0 h 0.305226 v 0 0 0 0 0 0 0 0 0 0 0 0 H 63.818 v 0 0 0 0 0 0 0 0 0 0 0 0 h 0.305226 v 0 0 0 0 0 0 0 0 0 0 0 0 h 0.305228 v 0 0 0 0 0 0 0 0 0 0 0 0 h 0.30523 v 0 0 0 0 0 0 0 0 0 0 0 0 h 0.305225 v 0 0 0 0 0 0 0 0 0 0 0 0 h 0.305229 v 0 0 0 0 0 0 0 0 0 0 0 0 h 0.305228 v 0 0 0 0 0 0 0 0 0 0 0 0 h 0.305228 v 0 0 0 0 0 0 0 0 0 0 0 0 h 0.305223 v 0 0 0 0 0 0 0 0 0 0 0 h 0.305233 v 0 0 0 0 0 0 0 0 0 0 0 0 h 0.305224 v 0 0 0 0 0 0 0 0 0 0 0 0 h 0.305229 v 0 0 0 0 0 0 0 0 0 0 0 0 h 0.305226 v 0 0 0 0 0 0 0 0 0 0 0 0 h 0.305229 v 0 0 0 0 0 0 0 0 0 0 0 0 h 0.305229 v 0 0 0 0 0 0 0 0 0 0 0 0 h 0.305226 v 0 0 0 0 0 0 0 0 0 0 0 0 h 0.30523 v 0 0 0 0 0 0 0 0 0 0 0 0 h 0.305224 v 0 0 0 0 0 0 0 0 0 0 0 0 h 0.305229 v 0 -20.450245 0 0 0 0 0 0 0 0 0 0 h 0.305226 v 0 0 0 0 0 0 0 0 0 0 0 0 h 0.305231 v 0 0 0 0 0 0 0 0 0 0 0 0 h 0.305222 v 0 0 0 0 0 0 0 0 0 0 0 0 h 0.305231 v 0 0 0 0 0 0 0 0 0 0 0 h 0.305226 v 0 0 0 0 0 0 0 0 0 0 0 0 h 0.305229 v 0 0 0 0 0 0 0 0 0 0 0 0 h 0.305226 v 0 0 0 0 0 0 0 0 0 0 0 0 h 0.305228 v 0 0 0 0 0 0 0 0 0 0 0 0 h 0.30523 v 0 0 0 0 0 0 0 0 0 0 0 0 h 0.305225 v 0 0 0 0 0 0 0 0 0 0 0 0 h 0.305229 v 0 0 0 0 0 0 0 0 0 0 0 0 h 0.305225 v 0 0 0 0 0 0 0 0 0 0 0 0 h 0.305229 v 0 0 0 0 0 0 0 0 0 0 0 0 h 0.305226 v 0 0 0 0 0 0 0 0 0 0 0 0 h 0.305228 v 0 0 0 0 0 0 0 20.450245 0 0 0 0 h 0.305227 v 0 0 0 0 0 0 0 0 0 0 0 0 h 0.30523 v 0 0 0 0 0 0 0 0 0 0 0 h 0.305225 v 0 0 0 0 0 0 0 0 0 0 0 0 h 0.305229 v 0 0 0 0 0 0 0 0 0 0 0 0 h 0.30523 v 0 0 0 0 0 0 0 0 0 0 0 0 h 0.305226 v 0 0 0 0 0 0 0 0 0 0 0 0 h 0.305228 v 0 0 0 0 0 0 0 0 0 0 0 0 h 0.305226 v 0 0 0 0 0 0 0 0 0 0 0 0 h 0.305229 v 0 0 0 0 0 0 0 0 0 0 0 0 h 0.305224 v 0 0 0 0 0 0 0 0 0 0 0 0 h 0.305231 v 0 0 0 0 0 0 0 0 0 0 0 0 h 0.305225 v 0 0 0 0 0 0 0 0 0 0 0 0 h 0.305229 v 0 0 0 0 0 0 0 0 0 0 0 0 h 0.305226 v 0 0 0 0 0 0 0 0 0 0 0 0 h 0.30523 v 0 0 0 0 0 0 0 0 0 0 0 0 h 0.305229 v 0 0 0 0 0 0 0 0 0 0 0 h 0.305224 v 0 0 0 0 0 0 0 0 0 0 0 0 h 0.305231 v 0 0 0 0 0 0 0 0 0 0 0 0 h 0.305226 v 0 0 0 0 0 0 0 0 0 0 0 0 h 0.305229 v 0 0 0 0 0 0 0 0 0 0 0 0 h 0.305223 v 0 0 0 0 0 0 0 0 0 0 0 0 h 0.30523 v 0 0 0 0 0 0 0 0 0 0 0 0 h 0.305225 v 0 0 0 0 0 0 0 0 0 0 0 0 h 0.305229 v 0 0 0 0 0 0 0 0 0 0 0 0 h 0.305228 v 0 0 0 0 0 0 0 0 0 0 0 0 h 0.305227 v 0 0 0 0 0 0 0 0 0 0 0 0 h 0.305226 v 0 0 0 0 0 0 0 0 0 0 0 0 h 0.30523 v 0 0 0 0 0 0 0 0 0 0 0 0 h 0.305229 v 0 0 0 0 0 0 0 0 0 0 0 h 0.305225 v 0 0 0 0 0 0 0 0 0 0 0 0 h 0.30523 v 0 0 0 0 0 0 0 0 0 0 0 0 h 0.305224 v 0 0 0 0 0 0 0 0 0 0 0 0 h 0.305231 v 0 0 0 0 0 0 0 0 0 0 0 0 h 0.305224 v 0 0 0 0 0 0 0 0 0 0 0 0 h 0.305229 v 0 0 0 0 0 0 0 0 0 0 0 0 h 0.305225 v 0 0 0 0 0 0 0 0 0 0 0 0 h 0.30523 v 0 0 0 0 0 0 0 0 0 0 0 0 h 0.305228 v 0 0 0 0 0 0 0 0 0 0 0 0 h 0.305228 v 0 0 0 0 0 0 0 0 0 0 0 0 h 0.305228 v 0 0 0 0 0 0 0 0 0 0 0 0 h 0.305227 v 0 0 0 0 0 0 0 0 0 0 0 0 h 0.305229 v 0 0 0 0 0 0 0 0 0 0 0 0 h 0.305223 v 0 0 0 0 0 0 0 0 0 0 0 h 0.305233 v 0 0 0 0 0 0 0 0 0 0 0 0 h 0.305223 v 0 0 0 0 0 0 0 0 0 0 0 0 h 0.305229 v 0 0 0 0 0 0 0 0 0 0 0 0 H 88.2362 v 0 0 0 0 0 0 0 0 0 0 0 0 h 0.305229 v 0 0 0 0 0 0 0 0 0 0 0 0 h 0.305227 v 0 0 0 0 0 0 0 0 0 0 0 0 h 0.305228 v 0 0 0 0 0 0 0 0 0 0 0 0 h 0.30523 v 0 0 0 0 0 0 0 0 0 0 0 0 h 0.305225 v 0 0 0 0 0 0 0 0 0 0 0 0 h 0.30523 v 0 0 0 0 0 0 0 0 0 0 0 0 h 0.305225 v 0 0 0 0 0 0 0 0 0 0 0 0 h 0.305229 v 0 0 0 0 0 0 0 0 0 0 0 0 h 0.305224 v 0 0 0 0 0 0 0 0 0 0 0 h 0.305232 v 0 0 0 0 0 0 0 0 0 0 0 0 h 0.305224 v 0 0 0 0 0 0 0 0 0 0 0 0 h 0.305228 v 0 0 0 0 0 0 0 0 0 0 0 0 h 0.305226 v 0 0 0 0 0 0 0 0 0 0 0 0 h 0.30523 v 0 0 0 0 0 0 0 0 0 0 0 0 h 0.305231 v 0 0 0 0 0 0 0 0 0 0 0 0 h 0.305224 v 0 0 0 0 0 0 0 0 0 0 0 0 h 0.305234 v 0 0 0 0 0 0 0 0 0 0 0 0 H 93.7303 v 0 0 0 0 0 0 0 0 0 0 0 0 h 0.305224 v 0 0 0 0 0 0 0 0 0 0 0 0 h 0.305225 v 0 0 0 0 0 0 0 0 0 0 0 0 h 0.305233 v 0 0 0 0 0 0 0 0 0 0 0 0 h 0.305223 v 0 0 0 0 0 0 0 0 0 0 0 0 h 0.305226 v 0 0 0 0 0 0 0 0 0 0 0 h 0.305234 v 0 0 0 0 0 0 0 0 0 0 0 0 h 0.305224 v 0 0 0 0 0 0 0 0 0 0 0 0 h 0.305223 v 0 0 0 0 0 0 0 0 0 0 0 0 h 0.305235 v 0 0 0 0 0 0 0 0 0 0 0 0 h 0.305224 v 0 0 0 0 0 0 0 0 0 0 0 0 h 0.305224 v 0 0 0 0 0 0 0 0 0 0 0 0 h 0.305235 v 0 0 0 0 0 0 0 0 0 0 0 0 h 0.305223 v 0 0 0 0 0 0 0 0 0 0 0 0 h 0.305234 v 0 0 0 0 0 0 0 0 0 0 0 0 h 0.305225 v 0 0 0 0 0 0 0 0 0 0 0 0 h 0.305226 v 0 0 0 0 0 0 0 0 0 0 0 0 h 0.305221 v 0 0 0 0 0 0 0 0 0 0 0 0 h 0.305233 v 0 0 0 0 0 0 0 0 0 0 0 0 h 0.305231 v 0 0 0 0 0 0 0 0 0 0 0 h 0.305229 v 0 0 0 0 0 0 0 0 0 0 0 0 h 0.305238 v 0 0 0 0 0 0 0 0 0 0 0 0 h 0.30522 v 0 0 0 0 0 0 0 0 0 0 0 0 h 0.30523 v 0 0 0 0 0 0 0 0 0 0 0 0 h 0.30523 v 0 0 0 0 0 0 0 0 0 0 0 0 h 0.30522 v 0 0 0 0 0 0 0 0 0 0 0 0 h 0.30522 v 0 0 0 0 0 0 0 0 0 0 0 0 h 0.30523 v 0 0 0 0 0 0 0 0 0 0 0 0 h 0.30524 v 0 0 0 0 0 0 0 0 0 0 0 0 h 0.30524 v 0 0 0 0 0 0 0 0 0 0 0 0 h 0.30522 v 0 0 0 0 0 0 0 0 0 0 0 0 h 0.30522 v 0 0 0 0 0 0 0 0 0 0 0 0 h 0.30523 v 0 0 0 0 0 0 0 0 0 0 0 h 0.30523 v 0 0 0 0 0 0 0 0 0 0 0 0 h 0.30524 v 0 0 0 0 0 0 0 0 0 0 0 0 h 0.30521 v 0 0 0 0 0 0 0 0 0 0 0 0 h 0.30523 v 0 0 0 0 0 0 0 0 0 0 0 0 h 0.30523 v 0 0 0 0 0 0 0 0 0 0 0 0 h 0.30523 v 0 0 0 0 0 0 0 0 0 0 0 0 h 0.30523 v 0 0 0 0 0 0 0 0 0 0 0 0 h 0.30521 v 0 0 0 0 0 0 0 0 0 0 0 0 h 0.30524 v 0 0 0 0 0 0 0 0 0 0 0 0 h 0.30522 v 0 0 0 0 0 0 0 0 0 0 0 0 h 0.30525 v 0 0 0 0 0 0 0 0 0 0 0 0 h 0.30522 v 0 0 0 0 0 0 0 0 0 0 0 0 h 0.30521 v 0 0 0 0 0 0 0 0 0 0 0 0 h 0.30524 v 0 0 0 0 0 0 0 0 0 0 0 h 0.30523 v 0 0 0 0 0 0 0 0 0 0 0 0 h 0.30522 v 0 0 0 0 0 0 0 0 0 0 0 0 h 0.30523 v 0 0 0 0 0 0 0 0 0 0 0 0 h 0.30524 v 0 0 0 0 0 0 0 0 0 0 0 0 h 0.30521 v 0 0 0 0 0 0 0 0 0 0 0 0 h 0.30522 v 0 0 0 0 0 0 0 0 0 0 0 0 h 0.30523 v 0 0 0 0 0 0 0 0 0 0 0 0 h 0.30524 v 0 0 0 0 0 0 0 0 0 0 0 0 h 0.30523 v 0 0 0 0 0 0 0 0 0 0 0 0 h 0.30522 v 0 0 0 0 0 0 0 0 0 0 0 0 h 0.30523 v 0 0 0 0 0 0 0 0 0 0 0 0 h 0.30523 v 0 0 0 0 0 0 0 0 0 0 0 0 h 0.30523 v 0 0 0 0 0 0 0 0 0 0 0 h 0.30522 v 0 0 0 0 0 0 0 0 0 0 0 0 h 0.30522 v 0 0 0 0 0 0 0 0 0 0 0 0 h 0.30524 v 0 0 0 0 0 0 0 0 0 0 0 0 h 0.30523 v 0 0 0 0 0 0 0 0 0 0 0 0 h 0.30523 v 0 0 0 0 0 0 0 0 0 0 0 0 h 0.30522 v 0 0 0 0 0 0 0 0 0 0 0 0 h 0.30521 v 0 0 0 0 0 0 0 0 0 0 0 0 h 0.30525 v 0 0 0 0 0 0 0 0 0 0 0 0 h 0.30523 v 0 0 0 0 0 0 0 0 0 0 0 0 h 0.30522 v 0 0 0 0 0 0 0 0 0 0 0 0 h 0.30523 v 0 0 0 0 0 0 0 0 0 0 0 0 h 0.30522 v 0 0 0 0 0 0 0 0 0 0 0 0 h 0.30524 v 0 0 0 0 0 0 0 0 0 0 0 0 h 0.30523 v 0 0 0 0 0 0 0 0 0 0 0 h 0.30521 v 0 0 0 0 0 0 0 0 0 0 0 0 h 0.30523 v 0 0 0 0 0 0 0 0 0 0 0 0 h 0.30524 v 0 0 0 0 0 0 0 0 0 0 0 0 h 0.30522 v 0 0 0 0 0 0 0 0 0 0 0 0 h 0.30523 v 0 0 0 0 0 0 0 0 0 0 0 0 h 0.30522 v 0 0 0 0 0 0 0 0 0 0 0 0 h 0.30523 v 0 0 0 0 0 0 0 0 0 0 0 0 h 0.30522 v 0 0 0 0 0 0 0 0 0 0 0 0 h 0.30525 v 0 0 0 0 0 0 0 0 0 0 0 0 h 0.30522 v 0 0 0 0 0 0 0 0 0 0 0 0 h 0.30522 v 0 0 0 0 0 0 0 0 0 0 0 0 h 0.30523 v 0 0 0 0 0 0 0 0 0 0 0 0 h 0.30524 v 0 0 0 0 0 0 0 0 0 0 0 h 0.30521 v 0 0 0 0 0 0 0 0 0 0 0 0 h 0.30523 v 0 0 0 0 0 0 0 0 0 0 0 0 h 0.30524 v 0 0 0 0 0 0 0 0 0 0 0 0 h 0.30522 v 0 0 0 0 0 0 0 0 0 0 0 0 h 0.30523 v 0 0 0 0 0 0 0 0 0 0 0 0 h 0.30521 v 0 0 0 0 0 0 0 0 0 0 0 0 h 0.30525 v 0 0 0 0 0 0 0 0 0 0 0 0 h 0.30522 v 0 0 0 0 0 0 0 0 0 0 0 0 h 0.30522 v 0 0 0 0 0 0 0 0 0 0 0 0 h 0.30523 v 0 0 0 0 0 0 0 0 0 0 0 0 h 0.30523 v 0 0 0 0 0 0 0 0 0 0 0 0 h 0.30523 v 0 0 0 0 0 0 0 0 0 0 0 0 h 0.30523 v 0 0 0 0 0 0 0 0 0 0 0 0 h 0.30522 v 0 0 0 0 0 0 0 0 0 0 0 h 0.30523 v 0 0 0 0 0 0 0 0 0 0 0 0 h 0.30524 v 0 0 0 0 0 0 0 0 0 0 0 0 h 0.30521 v 0 0 0 0 0 0 0 0 0 0 0 0 h 0.30523 v 0 0 0 0 0 0 0 0 0 0 0 0 h 0.30521 v 0 0 0 0 0 0 0 0 0 0 0 0 h 0.30525 v 0 0 0 0 0 0 0 0 0 0 0 0 h 0.30523 v 0 0 0 0 0 0 0 0 0 0 0 0 h 0.30523 v 0 0 0 0 0 0 0 0 0 0 0 0 h 0.30523 v 0 0 0 0 0 0 0 0 0 0 0 0 h 0.30522 v 0 0 0 0 0 0 0 0 0 0 0 0 h 0.30524 v 0 0 0 0 0 0 0 0 0 0 0 0 h 0.30523 v 0 0 0 0 0 -20.450245 0 0 0 0 0 0 h 0.30521 v 0 0 0 0 0 0 0 0 0 0 0 h 0.30523 v 0 0 0 0 0 0 0 0 0 0 0 0 h 0.30525 v 0 0 0 0 0 0 0 0 0 0 0 0 h 0.30521 v 0 0 0 0 0 0 0 0 0 0 0 0 h 0.30522 v 0 0 0 0 0 0 0 0 0 0 0 0 h 0.30523 v 0 0 0 0 0 0 0 0 0 0 0 0 h 0.30523 v 0 0 0 0 0 0 0 0 0 0 0 0 h 0.30523 v 0 0 0 0 0 0 0 0 0 0 0 0 h 0.30523 v 0 0 0 0 0 0 0 0 0 0 0 -20.145017 h 0.30523 v 0 0 0 0 0 0 0 0 0 0 0 0 h 0.30521 v 0 0 0 0 0 0 0 0 0 0 0 0 h 0.30524 v 0 0 0 0 0 0 0 0 0 0 0 0 h 0.30524 v 0 0 0 0 0 0 0 0 0 0 0 0 h 0.30521 v 0 0 0 0 0 0 0 0 0 0 0 0 h 0.30523 v 0 0 0 0 0 0 0 0 0 0 0 l 0.30523,20.145017 v 0 0 0 0 0 0 0 0 0 0 0 0 h 0.30522 v 0 0 0 0 0 0 0 0 0 0 0 0 h 0.30524 v 0 0 0 0 0 0 0 0 0 0 0 0 h 0.30521 v 0 0 0 0 0 0 0 0 0 0 0 0 h 0.30524 v 0 0 0 0 0 0 0 0 0 0 0 0 h 0.30523 v 0 0 0 0 0 0 0 0 0 0 0 0 h 0.30523 v 0 0 0 0 0 0 0 0 0 0 0 0 h 0.30522 v 0 0 0 0 0 0 0 0 0 0 0 0 h 0.30523 v 0 0 0 0 0 0 0 0 0 0 0 0 h 0.30523 v 0 0 0 0 20.450245 0 0 0 0 0 0 0 h 0.30522 v 0 0 0 0 0 0 0 0 0 0 0 0 h 0.30523 v 0 0 0 0 0 0 0 0 0 0 0 0 h 0.30523 v 0 0 0 0 0 0 0 0 0 0 0 h 0.30523 v 0 0 0 0 0 0 0 0 0 0 0 0 h 0.30522 v 0 0 0 0 0 0 0 0 0 0 0 0 h 0.30523 v 0 0 0 0 0 0 0 0 0 0 0 0 h 0.30522 v 0 0 0 0 0 0 0 0 0 0 0 0 h 0.30524 v 0 0 0 0 0 0 0 0 0 0 0 0 h 0.30522 v 0 0 0 0 0 0 0 0 0 0 0 0 h 0.30524 v 0 0 0 0 0 0 0 0 0 0 0 0 h 0.30522 v 0 0 0 0 0 0 0 0 0 0 0 0 h 0.30522 v 0 0 0 0 0 0 0 0 0 0 0 0 h 0.30525 v 0 0 0 0 0 0 0 0 0 0 0 0 h 0.30522 v 0 0 0 0 0 0 0 0 0 0 0 0 h 0.30521 v 0 0 0 0 0 0 0 0 0 0 0 0 h 0.30523 v 0 0 0 0 0 0 0 0 0 0 0 0 h 0.30525 v 0 0 0 0 0 0 0 0 0 0 0 h 0.30521 v 0 0 0 0 0 0 0 0 0 0 0 0 h 0.30523 v 0 0 0 0 0 0 0 0 0 0 0 0 h 0.30522 v 0 0 0 0 0 0 0 0 0 0 0 0 h 0.30524 v 0 0 0 0 0 0 0 0 0 0 0 0 h 0.30523 v 0 0 0 0 0 0 0 0 0 0 0 0 h 0.30522 v 0 0 0 0 0 0 0 0 0 0 0 0 h 0.30523 v 0 0 0 0 0 0 0 0 0 0 0 0 h 0.30522 v 0 0 0 0 0 0 0 0 0 0 0 0 h 0.30524 v 0 0 0 0 0 0 0 0 0 0 0 0 h 0.30522 v 0 0 0 0 0 0 0 0 0 0 0 0 h 0.30523 v -20.450245 0 0 0 0 0 0 0 0 0 0 0 h 0.30522 v 0 0 0 0 0 0 0 0 0 0 0 0 h 0.30523 v 0 0 0 0 0 0 0 0 0 0 0 h 0.30523 v 0 0 0 0 0 0 0 0 0 0 0 0 h 0.30522 v 0 0 0 0 0 0 0 0 0 0 0 0 h 0.30522 v 0 0 0 0 0 0 0 0 0 0 0 0 h 0.30523 v 0 0 0 0 0 0 0 0 0 0 0 0 h 0.30523 v 0 0 0 0 0 0 0 0 0 0 0 0 h 0.30523 v 0 0 0 0 0 0 0 0 0 0 0 0 h 0.30523 v 0 0 0 0 0 0 0 0 0 0 0 0 h 0.30522 v 0 0 0 0 0 0 0 0 0 0 0 0 h 0.30524 v 0 0 0 0 0 0 0 0 0 0 0 0 h 0.30522 v 0 0 0 0 0 0 0 0 0 0 0 0 h 0.30522 v 0 0 0 0 0 0 0 0 0 0 0 0 h 0.30524 v 0 0 0 0 0 0 0 0 0 0 0 0 h 0.30523 v 0 0 0 0 0 0 20.450245 0 0 0 0 0 h 0.30522 v 0 0 0 0 0 0 0 0 0 0 0 h 0.30523 v 0 0 0 0 0 0 0 0 0 0 0 0 h 0.30522 v 0 0 0 0 0 0 0 0 0 0 0 0 h 0.30524 v 0 0 0 0 0 0 0 0 0 0 0 0 h 0.30522 v 0 0 0 0 0 0 0 0 0 0 0 0 h 0.30522 v 0 0 0 0 0 0 0 0 0 0 0 0 h 0.30525 v 0 0 0 0 0 0 0 0 0 0 0 0 h 0.30521 v 0 0 0 0 0 0 0 0 0 0 0 0 h 0.30523 v 0 0 0 0 0 0 0 0 0 0 0 0 h 0.30524 v 0 0 0 0 0 0 0 0 0 0 0 0 h 0.30521 v 0 0 0 0 0 0 0 0 0 0 0 0 h 0.30523 v 0 0 0 0 0 0 0 0 0 0 0 0 h 0.30525 v 0 0 0 0 0 0 0 0 0 0 0 0 h 0.30521 v 0 0 0 0 0 0 0 0 0 0 0 h 0.30522 v 0 0 0 0 0 0 0 0 0 0 0 0 h 0.30522 v 0 0 0 0 0 0 0 0 0 0 0 0 h 0.30525 v 0 0 0 0 0 0 0 0 0 0 0 0 h 0.30523 v 0 0 0 0 0 0 0 0 0 0 0 0 h 0.30521 v 0 0 0 0 0 0 0 0 0 0 0 0 h 0.30524 v 0 0 0 0 0 0 0 0 0 0 0 0 h 0.30522 v 0 0 0 0 0 0 0 0 0 0 0 0 h 0.30525 v 0 0 0 0 0 0 0 0 0 0 0 0 h 0.30522 v 0 0 0 0 0 0 0 0 0 0 0 0 h 0.30522 v 0 0 0 0 0 0 0 0 0 0 0 0 h 0.30523 v 0 0 0 0 0 0 0 0 0 0 0 0 h 0.30524 v 0 0 0 0 0 0 0 0 0 0 0 0 h 0.30521 v 0 0 0 0 0 0 0 0 0 0 0 0 h 0.30524 v 0 0 0 0 0 0 0 0 0 0 0 h 0.30521 v 0 0 0 0 0 0 0 0 0 0 0 0 h 0.30523 v 0 0 0 0 0 0 0 0 0 0 0 0 h 0.30525 v 0 0 0 0 0 0 0 0 0 0 0 0 h 0.30521 v 0 0 0 0 0 0 0 0 0 0 0 0 h 0.30523 v 0 0 0 0 0 0 0 0 0 0 0 0 h 0.30522 v 0 0 0 0 0 0 0 0 0 0 0 0 h 0.30524 v 0 0 0 0 0 0 0 0 0 0 0 0 h 0.30523 v 0 0 0 0 0 0 0 0 0 0 0 0 h 0.30522 v 0 0 0 0 0 0 0 0 0 0 0 0 h 0.30523 v 0 0 0 0 0 0 0 0 0 0 0 0 h 0.30523 v 0 0 0 0 0 0 0 0 0 0 0 0 h 0.30522 v 0 0 0 0 0 0 0 0 0 0 0 0 h 0.30523 v 0 0 0 0 0 0 0 0 0 0 0 h 0.30522 v 0 0 0 0 0 0 0 0 0 0 0 0 h 0.30524 v 0 0 0 0 0 0 0 0 0 0 0 0 h 0.30522 v 0 0 0 0 0 0 0 0 0 0 0 0 h 0.30521 v 0 0 0 0 0 0 0 0 0 0 0 0 h 0.30526 v 0 0 0 0 0 0 0 0 0 0 0 0 h 0.30521 v 0 0 0 0 0 0 0 0 0 0 0 0 h 0.30523 v 0 0 0 0 0 0 0 0 0 0 0 0 h 0.30524 v 0 0 0 0 0 0 0 0 0 0 0 0 h 0.30522 v 0 0 0 0 0 0 0 0 0 0 0 0 h 0.30522 v 0 0 0 0 0 0 0 0 0 0 0 0 h 0.30524 v 0 0 0 0 0 0 0 0 0 0 0 0 h 0.30522 v 0 0 0 0 0 0 0 0 0 0 0 0 h 0.30522 v 0 0 0 0 0 0 0 0 0 0 0 0 h 0.30523 v 0 0 0 0 0 0 0 0 0 0 0 h 0.30524 v 0 0 0 0 0 0 0 0 0 0 0 0 h 0.30523 v 0 0 0 0 0 0 0 0 0 0 0 0 h 0.30521 v 0 0 0 0 0 0 0 0 0 0 0 0 h 0.30523 v 0 0 0 0 0 0 0 0 0 0 0 0 h 0.30524 v 0 0 0 0 0 0 0 0 0 0 0 0 h 0.30523 v 0 0 0 0 0 0 0 0 0 0 0 0 h 0.30522 v 0 0 0 0 0 0 0 0 0 0 0 0 h 0.30522 v 0 0 0 0 0 0 0 0 0 0 0 0 h 0.30523 v 0 0 0 0 0 0 0 0 0 0 0 0 h 0.30524 v 0 0 0 0 0 0 0 0 0 0 0 0 h 0.30522 v 0 0 0 0 0 0 0 0 0 0 0 0 h 0.30523 v 0 0 0 0 0 0 0 0 0 0 0 0 h 0.30521 v 0 0 0 0 0 0 0 0 0 0 0 h 0.30524 v 0 0 0 0 0 0 0 0 0 0 0 0 h 0.30523 v 0 0 0 0 0 0 0 0 0 0 0 0 h 0.30522 v 0 0 0 0 0 0 0 0 0 0 0 0 h 0.30524 v 0 0 0 0 0 0 0 0 0 0 0 0 h 0.30521 v 0 0 0 0 0 0 0 0 0 0 0 0 h 0.30525 v 0 0 0 0 0 0 0 0 0 0 0 0 h 0.30523 v 0 0 0 0 0 0"
       id="path38" />
    <text
       xml:space="preserve"
       style="font-style:normal;font-variant:normal;font-weight:400;font-size:3.80837px;line-height:125%;font-family:Arial;text-align:start;letter-spacing:0px;word-spacing:0px;text-anchor:start;fill:#000000;fill-opacity:1;stroke:none;stroke-width:0.451163"
       transform="rotate(-90)"
       x="-80.10955"
       y="4.1015644"
       id="text39"><tspan
         sodipodi:role="line"
         x="-80.10955"
         y="4.1015644"
         id="tspan39"
         style="font-size:3.80837px;stroke-width:0.451163"><tspan
           style="font-style:normal;font-variant:normal;font-weight:400;font-size:3.80837px;font-family:Arial;fill:#000000;stroke-width:0.451163"
           id="tspan38"
           dy="0"
           dx="0">Breakpoints per 200 nt window</tspan></tspan></text>
    <path
       style="fill:none;stroke:#c6c6c6;stroke-width:0.295714px;stroke-linecap:round;stroke-linejoin:round;stroke-miterlimit:4;stroke-dasharray:none;stroke-opacity:1"
       d="m 179.52553,26.304424 h 3.0543"
       id="path23" />
    <text
       xml:space="preserve"
       style="font-size:6.08352px;display:inline;opacity:0.5;fill:#666666;fill-opacity:1;stroke:#7fbfaa;stroke-width:0.354872;stroke-linecap:butt;stroke-linejoin:round;stroke-dasharray:none;stroke-opacity:0;paint-order:normal"
       x="148.04993"
       y="11.771424"
       id="text429-9-0-0"
       inkscape:label="text_orf2"
       transform="scale(0.98917252,1.010946)"><tspan
         sodipodi:role="line"
         id="tspan429-6-8-1"
         style="font-style:normal;font-variant:normal;font-weight:normal;font-stretch:normal;font-size:6.08352px;font-family:Tahoma;-inkscape-font-specification:Tahoma;fill:#666666;fill-opacity:1;stroke:#7fbfaa;stroke-width:0.354872"
         x="148.04993"
         y="11.771424">ORF2</tspan></text>
    <rect
       style="display:inline;fill:#008056;fill-opacity:0.501961;stroke-width:0.603375;stroke-linecap:butt;stroke-linejoin:round;image-rendering:auto"
       id="rect318-1-0-9-2-8-3-9-0-1"
       width="0.21560034"
       height="84.899055"
       x="18.829561"
       y="3.5384262"
       inkscape:label="orf1a_beg" />
    <rect
       style="display:inline;fill:#008056;fill-opacity:0.501961;stroke-width:0.603529;stroke-linecap:butt;stroke-linejoin:round;image-rendering:auto"
       id="rect318-1-0-9-2-8-3-9-0-1-4"
       width="0.21560034"
       height="84.94223"
       x="81.881897"
       y="3.5345101"
       inkscape:label="orf1a_beg" />
    <rect
       style="display:inline;fill:#004280;fill-opacity:0.501961;stroke-width:0.603437;stroke-linecap:butt;stroke-linejoin:round;image-rendering:auto"
       id="rect318-1-0-9-2-8-3-9-0-1-4-5"
       width="0.21560034"
       height="84.916519"
       x="82.096985"
       y="3.5592282"
       inkscape:label="orf1a_beg" />
    <rect
       style="display:inline;fill:#004280;fill-opacity:0.501961;stroke-width:0.603437;stroke-linecap:butt;stroke-linejoin:round;image-rendering:auto"
       id="rect318-1-0-9-2-8-3-9-0-1-4-5-9"
       width="0.21560034"
       height="84.916519"
       x="117.90814"
       y="3.5587475"
       inkscape:label="orf1a_beg" />
    <rect
       style="display:inline;fill:#800026;fill-opacity:0.501961;stroke-width:0.60329;stroke-linecap:butt;stroke-linejoin:round;image-rendering:auto"
       id="rect318-1-0-9-2-8-3-9-0-1-4-5-9-9"
       width="0.21560034"
       height="84.875191"
       x="118.11894"
       y="3.5825286"
       inkscape:label="orf1a_beg" />
    <rect
       style="display:inline;fill:#800026;fill-opacity:0.501961;stroke-width:0.60329;stroke-linecap:butt;stroke-linejoin:round;image-rendering:auto"
       id="rect318-1-0-9-2-8-3-9-0-1-4-5-9-9-3"
       width="0.21560034"
       height="84.875191"
       x="135.85168"
       y="3.5539882"
       inkscape:label="orf1a_beg" />
    <rect
       style="display:inline;fill:#800026;fill-opacity:0.501961;stroke-width:0.60329;stroke-linecap:butt;stroke-linejoin:round;image-rendering:auto"
       id="rect318-1-0-9-2-8-3-9-0-1-4-5-9-9-3-7"
       width="0.21560034"
       height="84.875191"
       x="171.41856"
       y="3.5589488"
       inkscape:label="orf1a_beg" />
    <text
       xml:space="preserve"
       style="font-size:3.71774px;display:inline;opacity:0.89;fill:#000000;fill-opacity:1;stroke:#7fbfaa;stroke-width:0.354872;stroke-linecap:butt;stroke-linejoin:round;stroke-dasharray:none;stroke-opacity:0;paint-order:normal"
       x="124.30235"
       y="10.854009"
       id="text429-9-0-8-0"
       inkscape:label="text_vp34"
       transform="scale(0.98917252,1.010946)"><tspan
         sodipodi:role="line"
         id="tspan429-6-8-3-6"
         style="font-style:normal;font-variant:normal;font-weight:normal;font-stretch:normal;font-size:3.71774px;font-family:Tahoma;-inkscape-font-specification:Tahoma;fill:#000000;fill-opacity:1;stroke:#7fbfaa;stroke-width:0.354872"
         x="124.30235"
         y="10.854009">VP34</tspan></text>
    <rect
       style="display:inline;opacity:0.649533;fill:#8f485e;fill-opacity:1;stroke:#008000;stroke-width:0.179797;stroke-linecap:butt;stroke-linejoin:round;stroke-dasharray:none;stroke-opacity:0;paint-order:normal"
       id="rect428-8-8-1"
       width="18.158274"
       height="12.181646"
       x="117.91278"
       y="3.5485673"
       inkscape:label="orf2_мз34" />
    <text
       xml:space="preserve"
       style="font-size:6.08352px;display:inline;opacity:0.5;fill:#666666;fill-opacity:1;stroke:#7fbfaa;stroke-width:0.354872;stroke-linecap:butt;stroke-linejoin:round;stroke-dasharray:none;stroke-opacity:0;paint-order:normal"
       x="42.143322"
       y="11.610711"
       id="text429-9"
       inkscape:label="text_orf1b"
       transform="scale(0.98917252,1.010946)"><tspan
         sodipodi:role="line"
         id="tspan429-6"
         style="font-style:normal;font-variant:normal;font-weight:normal;font-stretch:normal;font-size:6.08352px;font-family:Tahoma;-inkscape-font-specification:Tahoma;fill:#666666;fill-opacity:1;stroke:#7fbfaa;stroke-width:0.354872"
         x="42.143322"
         y="11.610711">ORF1a</tspan></text>
    <rect
       style="display:inline;opacity:0.5;fill:#008055;fill-opacity:1;stroke:#008000;stroke-width:0.336044;stroke-linecap:butt;stroke-linejoin:round;stroke-dasharray:none;stroke-opacity:0;paint-order:normal"
       id="rect428"
       width="63.295551"
       height="12.208275"
       x="18.819517"
       y="3.5249896"
       inkscape:label="orf1a" />
    <text
       xml:space="preserve"
       style="font-size:6.08352px;display:inline;opacity:0.5;fill:#666666;fill-opacity:1;stroke:#7fbfaa;stroke-width:0.354872;stroke-linecap:butt;stroke-linejoin:round;stroke-dasharray:none;stroke-opacity:0;paint-order:normal"
       x="91.939041"
       y="11.738992"
       id="text429-9-0"
       inkscape:label="text_orf1b"
       transform="scale(0.98917252,1.010946)"><tspan
         sodipodi:role="line"
         id="tspan429-6-8"
         style="font-style:normal;font-variant:normal;font-weight:normal;font-stretch:normal;font-size:6.08352px;font-family:Tahoma;-inkscape-font-specification:Tahoma;fill:#666666;fill-opacity:1;stroke:#7fbfaa;stroke-width:0.354872"
         x="91.939041"
         y="11.738992">ORF1b</tspan></text>
    <rect
       style="display:inline;opacity:0.5;fill:#004180;fill-opacity:1;stroke:#008000;stroke-width:0.252836;stroke-linecap:butt;stroke-linejoin:round;stroke-dasharray:none;stroke-opacity:0;paint-order:normal"
       id="rect428-8"
       width="35.802887"
       height="12.218213"
       x="82.11042"
       y="3.5189252"
       inkscape:label="orf1b" />
    <rect
       style="display:inline;opacity:0.5;fill:#800025;fill-opacity:1;stroke:#008000;stroke-width:0.309515;stroke-linecap:butt;stroke-linejoin:round;stroke-dasharray:none;stroke-opacity:0;paint-order:normal"
       id="rect428-8-8"
       width="53.739311"
       height="12.199013"
       x="117.8951"
       y="3.5439849"
       inkscape:label="orf2" />
    <text
       xml:space="preserve"
       style="font-style:normal;font-variant:normal;font-weight:400;font-size:2.82222px;line-height:125%;font-family:Arial;text-align:start;letter-spacing:0px;word-spacing:0px;text-anchor:start;fill:#004280;fill-opacity:0.501961;stroke:none;stroke-width:0.451095"
       x="83.086777"
       y="91.407822"
       id="text4-8"><tspan
         sodipodi:role="line"
         x="83.086777"
         y="91.407822"
         id="tspan4-5"
         style="font-weight:bold;font-size:2.82222px;fill:#004280;fill-opacity:0.501961;stroke-width:0.451095">2740</tspan></text>
    <text
       xml:space="preserve"
       style="font-style:normal;font-variant:normal;font-weight:400;font-size:2.82222px;line-height:125%;font-family:Arial;text-align:start;letter-spacing:0px;word-spacing:0px;text-anchor:start;fill:#004280;fill-opacity:0.501961;stroke:none;stroke-width:0.451095"
       x="111.04501"
       y="91.330414"
       id="text4-8-6"><tspan
         sodipodi:role="line"
         x="111.04501"
         y="91.330414"
         id="tspan4-5-01"
         style="font-weight:bold;font-size:2.82222px;fill:#004280;fill-opacity:0.501961;stroke-width:0.451095">4296</tspan></text>
    <text
       xml:space="preserve"
       style="font-style:normal;font-variant:normal;font-weight:400;font-size:2.82222px;line-height:125%;font-family:Arial;text-align:start;letter-spacing:0px;word-spacing:0px;text-anchor:start;fill:#800026;fill-opacity:0.501961;stroke:none;stroke-width:0"
       x="118.77415"
       y="91.291664"
       id="text4-8-6-3"><tspan
         sodipodi:role="line"
         x="118.77415"
         y="91.291664"
         id="tspan4-5-01-9"
         style="font-weight:bold;font-size:2.82222px;fill:#800026;fill-opacity:0.501961;stroke:none;stroke-width:0">4297</tspan></text>
    <text
       xml:space="preserve"
       style="font-style:normal;font-variant:normal;font-weight:400;font-size:2.82222px;line-height:125%;font-family:Arial;text-align:start;letter-spacing:0px;word-spacing:0px;text-anchor:start;fill:#800026;fill-opacity:0.501961;stroke:none;stroke-width:0.451095"
       x="137.98935"
       y="91.314995"
       id="text4-8-6-3-8"><tspan
         sodipodi:role="line"
         x="137.98935"
         y="91.314995"
         id="tspan4-5-01-9-2"
         style="font-weight:bold;font-size:2.82222px;fill:#800026;fill-opacity:0.501961;stroke-width:0.451095">5225</tspan></text>
    <text
       xml:space="preserve"
       style="font-style:normal;font-variant:normal;font-weight:400;font-size:2.82222px;line-height:125%;font-family:Arial;text-align:start;letter-spacing:0px;word-spacing:0px;text-anchor:start;fill:#008056;fill-opacity:0.501961;stroke:none;stroke-width:0.451095"
       x="75.271698"
       y="91.402573"
       id="text4-8-3"><tspan
         sodipodi:role="line"
         x="75.271698"
         y="91.402573"
         id="tspan4-5-0"
         style="font-weight:bold;font-size:2.82222px;fill:#008056;fill-opacity:0.501961;stroke-width:0.451095">2739</tspan></text>
  </g>
</svg>
