<?xml version="1.0" encoding="UTF-8" standalone="no"?>
<!-- Created with Inkscape (http://www.inkscape.org/) -->

<svg
   width="180mm"
   height="105mm"
   viewBox="0 0 180 105"
   version="1.1"
   id="svg1"
   inkscape:version="1.3.2 (091e20e, 2023-11-25, custom)"
   sodipodi:docname="brkpnt_stp_2.svg"
   xmlns:inkscape="http://www.inkscape.org/namespaces/inkscape"
   xmlns:sodipodi="http://sodipodi.sourceforge.net/DTD/sodipodi-0.dtd"
   xmlns="http://www.w3.org/2000/svg"
   xmlns:svg="http://www.w3.org/2000/svg">
  <sodipodi:namedview
     id="namedview1"
     pagecolor="#ffffff"
     bordercolor="#000000"
     borderopacity="0.25"
     inkscape:showpageshadow="2"
     inkscape:pageopacity="0.0"
     inkscape:pagecheckerboard="0"
     inkscape:deskcolor="#d1d1d1"
     inkscape:document-units="mm"
     inkscape:zoom="1.4703339"
     inkscape:cx="383.24628"
     inkscape:cy="217.29758"
     inkscape:window-width="1920"
     inkscape:window-height="991"
     inkscape:window-x="-9"
     inkscape:window-y="-9"
     inkscape:window-maximized="1"
     inkscape:current-layer="layer1" />
  <defs
     id="defs1">
    <pattern
       id="EMFhbasepattern"
       patternUnits="userSpaceOnUse"
       width="6"
       height="6"
       x="0"
       y="0" />
    <pattern
       id="EMFhbasepattern-9"
       patternUnits="userSpaceOnUse"
       width="6"
       height="6"
       x="0"
       y="0" />
    <pattern
       id="EMFhbasepattern-6"
       patternUnits="userSpaceOnUse"
       width="6"
       height="6"
       x="0"
       y="0" />
  </defs>
  <g
     inkscape:label="Слой 1"
     inkscape:groupmode="layer"
     id="layer1">
    <path
       style="fill:none;stroke:#000000;stroke-width:0.305149px;stroke-linecap:round;stroke-linejoin:round;stroke-miterlimit:4;stroke-dasharray:none;stroke-opacity:1"
       d="m 15.88315,21.16423 v 3.051485 H 17.408893 15.88315 V 39.473142 H 17.408893 15.88315 V 54.730567 H 17.408893 15.88315 V 69.987992 H 17.408893 15.88315 V 85.24542 h 1.525743 -1.525743 v 3.051484 h 3.051486 v -1.525744 1.525744 h 38.143565 v -1.525744 1.525744 h 38.143564 v -1.525744 1.525744 h 38.143565 v -1.525744 1.525744 h 38.14356 v -1.525744 1.525744 h 3.05149"
       id="path1" />
    <text
       xml:space="preserve"
       style="font-style:normal;font-variant:normal;font-weight:400;font-size:3.80837px;line-height:125%;font-family:Arial;text-align:start;letter-spacing:0px;word-spacing:0px;text-anchor:start;fill:#000000;fill-opacity:1;stroke:none;stroke-width:0.451044"
       x="17.795172"
       y="93.701691"
       id="text2"><tspan
         sodipodi:role="line"
         x="17.795172"
         y="93.701691"
         id="tspan2"
         style="font-size:3.80837px;stroke-width:0.451044"><tspan
           dx="0"
           dy="0"
           style="font-style:normal;font-variant:normal;font-weight:400;font-size:3.80837px;font-family:Arial;fill:#000000;stroke-width:0.451044"
           id="tspan1">1</tspan></tspan></text>
    <text
       xml:space="preserve"
       style="font-style:normal;font-variant:normal;font-weight:400;font-size:3.80837px;line-height:125%;font-family:Arial;text-align:start;letter-spacing:0px;word-spacing:0px;text-anchor:start;fill:#000000;fill-opacity:1;stroke:none;stroke-width:0.451044"
       x="52.887253"
       y="93.701691"
       id="text4"><tspan
         sodipodi:role="line"
         x="52.887253"
         y="93.701691"
         id="tspan4"
         style="font-size:3.80837px;stroke-width:0.451044"><tspan
           dx="0"
           dy="0"
           style="font-style:normal;font-variant:normal;font-weight:400;font-size:3.80837px;font-family:Arial;fill:#000000;stroke-width:0.451044"
           id="tspan3">1678</tspan></tspan></text>
    <text
       xml:space="preserve"
       style="font-style:normal;font-variant:normal;font-weight:400;font-size:3.80837px;line-height:125%;font-family:Arial;text-align:start;letter-spacing:0px;word-spacing:0px;text-anchor:start;fill:#000000;fill-opacity:1;stroke:none;stroke-width:0.451044"
       x="91.03083"
       y="93.701691"
       id="text6"><tspan
         sodipodi:role="line"
         x="91.03083"
         y="93.701691"
         id="tspan6"
         style="font-size:3.80837px;stroke-width:0.451044"><tspan
           dx="0"
           dy="0"
           style="font-style:normal;font-variant:normal;font-weight:400;font-size:3.80837px;font-family:Arial;fill:#000000;stroke-width:0.451044"
           id="tspan5">3357</tspan></tspan></text>
    <text
       xml:space="preserve"
       style="font-style:normal;font-variant:normal;font-weight:400;font-size:3.80837px;line-height:125%;font-family:Arial;text-align:start;letter-spacing:0px;word-spacing:0px;text-anchor:start;fill:#000000;fill-opacity:1;stroke:none;stroke-width:0.451044"
       x="129.17439"
       y="93.701691"
       id="text8"><tspan
         sodipodi:role="line"
         x="129.17439"
         y="93.701691"
         id="tspan8"
         style="font-size:3.80837px;stroke-width:0.451044"><tspan
           dx="0"
           dy="0"
           style="font-style:normal;font-variant:normal;font-weight:400;font-size:3.80837px;font-family:Arial;fill:#000000;stroke-width:0.451044"
           id="tspan7">5037</tspan></tspan></text>
    <text
       xml:space="preserve"
       style="font-style:normal;font-variant:normal;font-weight:400;font-size:3.80837px;line-height:125%;font-family:Arial;text-align:start;letter-spacing:0px;word-spacing:0px;text-anchor:start;fill:#000000;fill-opacity:1;stroke:none;stroke-width:0.451044"
       x="167.31793"
       y="93.701691"
       id="text10"><tspan
         sodipodi:role="line"
         x="167.31793"
         y="93.701691"
         id="tspan10"
         style="font-size:3.80837px;stroke-width:0.451044"><tspan
           dx="0"
           dy="0"
           style="font-style:normal;font-variant:normal;font-weight:400;font-size:3.80837px;font-family:Arial;fill:#000000;stroke-width:0.451044"
           id="tspan9">6714</tspan></tspan></text>
    <text
       xml:space="preserve"
       style="font-style:normal;font-variant:normal;font-weight:400;font-size:3.80837px;line-height:125%;font-family:Arial;text-align:start;letter-spacing:0px;word-spacing:0px;text-anchor:start;fill:#000000;fill-opacity:1;stroke:none;stroke-width:0.451044"
       x="11.275623"
       y="100.33382"
       id="text12"><tspan
         sodipodi:role="line"
         x="11.275623"
         y="100.33382"
         id="tspan12"
         style="font-size:3.80837px;stroke-width:0.451044"><tspan
           dx="0"
           dy="0"
           style="font-style:normal;font-variant:normal;font-weight:400;font-size:3.80837px;font-family:Arial;fill:#000000;stroke-width:0.451044"
           id="tspan11">Nucleotide position in relation to MW485042_human_KEN_2019_KLF-HAstV2-005-2019_NA_NA_</tspan></tspan></text>
    <text
       xml:space="preserve"
       style="font-style:normal;font-variant:normal;font-weight:400;font-size:4.28493px;line-height:356.071%;font-family:Arial;text-align:start;letter-spacing:0px;word-spacing:0px;text-anchor:start;fill:#000000;fill-opacity:1;stroke:none;stroke-width:0.451044"
       x="6.323041"
       y="25.734699"
       id="text22"><tspan
         sodipodi:role="line"
         x="6.323041"
         y="25.734699"
         id="tspan14"
         style="stroke-width:0.451044"><tspan
           dx="0"
           dy="0"
           style="font-style:normal;font-variant:normal;font-weight:400;font-size:4.28493px;font-family:Arial;fill:#000000;stroke-width:0.451044"
           id="tspan13">3</tspan></tspan><tspan
         sodipodi:role="line"
         x="6.323041"
         y="40.992092"
         id="tspan16"
         style="stroke-width:0.451044"><tspan
           dx="0"
           dy="0"
           style="font-style:normal;font-variant:normal;font-weight:400;font-size:4.28493px;font-family:Arial;fill:#000000;stroke-width:0.451044"
           id="tspan15">2,25</tspan></tspan><tspan
         sodipodi:role="line"
         x="6.323041"
         y="56.249489"
         id="tspan18"
         style="stroke-width:0.451044"><tspan
           dx="0"
           dy="0"
           style="font-style:normal;font-variant:normal;font-weight:400;font-size:4.28493px;font-family:Arial;fill:#000000;stroke-width:0.451044"
           id="tspan17">1,5</tspan></tspan><tspan
         sodipodi:role="line"
         x="6.323041"
         y="71.506882"
         id="tspan20"
         style="stroke-width:0.451044"><tspan
           dx="0"
           dy="0"
           style="font-style:normal;font-variant:normal;font-weight:400;font-size:4.28493px;font-family:Arial;fill:#000000;stroke-width:0.451044"
           id="tspan19">0,75</tspan></tspan><tspan
         sodipodi:role="line"
         x="6.323041"
         y="86.764275"
         id="tspan22"
         style="stroke-width:0.451044"><tspan
           dx="0"
           dy="0"
           style="font-style:normal;font-variant:normal;font-weight:400;font-size:4.28493px;font-family:Arial;fill:#000000;stroke-width:0.451044"
           id="tspan21">0</tspan></tspan></text>
    <path
       style="fill:none;stroke:#000000;stroke-width:0.305149px;stroke-linecap:round;stroke-linejoin:round;stroke-miterlimit:4;stroke-dasharray:none;stroke-opacity:1"
       d="m 63.791468,18.112745 v 1.525744 m 7.323565,-1.525744 v 1.525744 m 1.525743,-1.525744 v 1.525744 m 66.827534,-1.525744 v 1.525744 m 8.23901,-1.525744 v 1.525744 m 18.00376,-1.525744 v 1.525744"
       id="path22" />
    <path
       style="fill:none;stroke:#000000;stroke-width:0.305149px;stroke-linecap:round;stroke-linejoin:round;stroke-miterlimit:4;stroke-dasharray:0.451044, 0.451044;stroke-dashoffset:0;stroke-opacity:1"
       d="M 15.88315,24.215715 H 174.56038"
       id="path34" />
    <path
       style="fill:none;stroke:#000000;stroke-width:0.305149px;stroke-linecap:round;stroke-linejoin:round;stroke-miterlimit:4;stroke-dasharray:1.35313, 0.451044, 0.451044, 0.451044, 0.451044, 0.451044;stroke-dashoffset:0;stroke-opacity:1"
       d="M 15.88315,24.215715 H 174.56038"
       id="path35" />
    <path
       style="fill:#c6c6c6;fill-opacity:1;fill-rule:evenodd;stroke:#c6c6c6;stroke-width:0.305149px;stroke-linecap:round;stroke-linejoin:round;stroke-miterlimit:4;stroke-dasharray:none;stroke-opacity:1"
       d="m 18.934636,64.800469 h 0.305147 0.30515 0.305149 0.305149 0.305148 0.305147 0.30515 0.305149 0.305146 0.30515 0.305149 0.305147 0.305149 0.305149 V 44.660665 h 0.30515 0.305147 0.30515 0.305148 0.305148 0.305149 0.305147 0.305149 0.30515 0.305146 0.30515 0.305149 0.305146 0.305151 0.305149 0.305148 0.305148 V 64.800469 44.660665 h 0.305149 0.305149 0.305148 0.305148 0.305148 0.305149 0.305148 0.305148 0.305149 0.305151 0.305146 0.305149 0.30515 0.305148 0.305148 0.305149 0.305148 0.305148 0.305149 0.305147 0.30515 0.305149 0.305148 0.305149 0.305149 0.305147 0.305149 0.305149 0.305149 0.305147 0.30515 0.305148 0.305147 0.30515 0.305148 0.305149 0.305149 0.305147 0.30515 0.305149 0.305146 0.30515 0.305149 0.305147 0.305149 0.305149 0.305147 0.30515 0.305147 0.30515 0.305151 0.305146 0.30515 0.305146 0.305152 0.305144 0.30515 0.305148 0.305148 0.305148 0.305152 0.305149 0.305147 0.30515 0.305145 0.305153 0.305144 0.30515 0.305148 0.305148 0.305148 0.305151 0.305151 0.305145 0.30515 0.305149 0.305149 0.305144 0.305153 0.305145 0.30515 0.305147 0.305149 0.305153 0.305144 0.305151 0.305148 0.30515 0.305144 0.305152 0.305146 0.305149 0.305147 0.305151 0.305147 0.305149 0.305152 0.305146 0.305151 0.305145 0.305151 0.305146 0.30515 0.305145 0.305152 0.305146 0.305149 0.305151 0.305147 0.305152 0.305146 0.305149 0.305147 0.30515 0.305145 0.305151 0.305147 0.305149 0.305151 0.305147 0.305151 0.305145 0.305152 0.305145 0.305152 0.305145 v 20.139804 h 0.305149 0.305148 V 44.660665 h 0.305149 v 20.139804 h 0.30515 0.305148 0.30515 V 44.660665 h 0.305145 0.305153 0.305144 0.305152 0.305145 0.305151 0.305147 0.30515 v -20.44495 h 0.305146 v 20.44495 l 0.30515,-20.44495 v 20.44495 h 0.305151 v -20.44495 h 0.305145 0.305151 0.305146 0.305153 v 20.44495 h 0.305143 0.305151 0.305148 0.30515 0.305145 0.305152 0.305149 0.305147 0.30515 0.305146 0.305152 0.305144 0.305153 0.305146 0.30515 0.305146 0.30515 0.30515 V 64.800469 44.660665 h 0.305146 v 20.139804 l 0.30515,-20.139804 h 0.305149 v 20.139804 h 0.305149 0.305144 0.305153 0.305145 0.305151 0.305147 V 44.660665 h 0.305149 0.305149 0.30515 0.305148 0.305148 0.30515 0.305143 0.305153 0.305146 0.30515 0.305146 0.305152 0.305147 0.30515 0.30515 0.305146 0.305151 0.305145 0.305151 0.305145 0.305152 0.305144 0.305152 v 20.139804 h 0.305147 0.30515 0.30515 0.305148 V 44.660665 h 0.305149 v 20.139804 h 0.305147 V 44.660665 h 0.30515 V 64.800469 44.660665 h 0.305146 0.305152 v 20.139804 h 0.305144 V 44.660665 h 0.30515 V 64.800469 44.660665 h 0.305147 0.305153 0.305148 0.305147 0.305151 0.305146 0.305149 0.305147 0.305151 0.305145 v 20.139804 h 0.30515 0.305147 0.305152 0.30514 0.30516 0.305151 0.30514 0.30515 0.30515 0.30515 0.30514 0.30515 0.30515 0.30515 0.305154 0.305152 0.305149 0.30514 0.30514 V 44.660665 h 0.30516 0.30515 0.30515 0.30515 0.30515 0.30515 v 20.139804 h 0.30514 V 44.660665 64.800469 h 0.30515 0.30515 0.30515 0.30515 0.30515 0.30514 0.30515 0.30515 0.30516 0.30515 0.30514 0.30514 0.30515 0.30515 0.30515 0.30515 V 44.660665 h 0.30516 0.30513 0.30515 0.30516 0.30515 0.30514 0.30514 0.30515 0.30515 0.30515 0.30515 0.30516 0.30514 0.30514 0.30515 0.30516 l 0.30515,20.139804 V 44.660665 64.800469 h 0.30515 0.30515 0.30515 0.30513 0.30515 0.30516 0.30515 0.30515 0.30515 0.30514 0.30515 0.30514 0.30515 0.30516 0.30515 0.30513 0.30516 0.30515 0.30515 0.30515 0.30516 0.30514 0.30513 0.30515 0.30516 0.30515 0.30515 0.30514 0.30515 0.30515 0.30515 0.30516 0.30515 0.30512 0.30515 0.30516 0.30515 0.30515 0.30515 0.30516 0.30513 0.30515 0.30515 0.30516 0.30514 0.30515 0.30514 V 44.660665 h 0.30515 V 64.800469 44.660665 h 0.30515 v 20.139804 h 0.30515 0.30516 V 44.660665 h 0.30515 0.30513 0.30515 0.30516 0.30514 0.30515 0.30515 0.30515 0.30514 0.30515 0.30516 0.30515 0.30515 0.30514 0.30514 v 20.139804 h 0.30515 0.30515 0.30515 0.30516 0.30514 0.30514 0.30515 0.30516 0.30515 0.30515 0.30516 0.30512 0.30515 V 44.660665 h 0.30515 v 20.139804 h 0.30516 0.30515 0.30515 0.30514 0.30515 0.30515 0.30515 0.30515 0.30515 0.30514 0.30514 0.30516 0.30515 V 44.660665 h 0.30515 v 20.139804 h 0.30515 V 44.660665 h 0.30515 V 64.800469 44.660665 h 0.30514 v 20.139804 h 0.30515 V 44.660665 h 0.30514 0.30516 0.30515 V 64.800469 44.660665 64.800469 h 0.30514 V 44.660665 h 0.30515 0.30515 0.30515 0.30515 0.30516 0.30514 v 20.139804 h 0.30514 V 44.660665 h 0.30514 0.30516 0.30515 0.30515 0.30515 0.30514 0.30515 0.30515 0.30515 0.30516 0.30515 0.30513 0.30516 0.30515 0.30515 v 20.139804 h 0.30514 0.30516 0.30514 0.30515 0.30515 0.30516 0.30515 0.30512 0.30514 0.30516 0.30515 0.30515 0.30515 V 44.660665 h 0.30515 0.30514 V 64.800469 44.660665 h 0.30515 v 20.139804 l 0.30516,-20.139804 h 0.30515 0.30514 0.30515 0.30515 0.30514 0.30515 0.30515 0.30516 0.30515 0.30515 0.30515 0.30515 0.30512 0.30515 0.30516 0.30515 0.30513 0.30515 0.30516 0.30515 0.30515 0.30515 0.30514 0.30515 0.30514 0.30516 v 20.139804 h 0.30515 0.30515 0.30514 0.30516 0.30515 0.30515 0.30515 0.30514 0.30514 0.30515 0.30515 0.30516 0.30515 0.30515 0.30515 0.30514 0.30515 0.30515 0.30515 0.30515 V 85.24542 h 0.30515 0.30514 0.30516 0.30513 0.30515 v 0 h -0.30515 -0.30513 -0.30516 -0.30514 -0.30515 -0.30515 -0.30515 -0.30515 -0.30515 -0.30514 -0.30515 -0.30515 -0.30515 -0.30516 -0.30515 -0.30515 -0.30514 -0.30514 -0.30515 -0.30515 -0.30515 -0.30516 -0.30514 -0.30515 -0.30515 -0.30516 -0.30514 -0.30515 -0.30514 -0.30515 -0.30515 -0.30515 -0.30516 -0.30515 -0.30513 -0.30515 -0.30516 -0.30515 -0.30512 -0.30515 -0.30515 -0.30515 -0.30515 -0.30516 -0.30515 -0.30515 -0.30514 -0.30515 -0.30515 -0.30514 -0.30515 -0.30516 -0.30515 -0.30514 -0.30515 -0.30515 -0.30515 -0.30515 -0.30516 -0.30514 -0.30512 -0.30515 -0.30516 -0.30515 -0.30515 -0.30514 -0.30516 -0.30514 -0.30515 -0.30515 -0.30516 -0.30513 -0.30515 -0.30516 -0.30515 -0.30515 -0.30515 -0.30514 -0.30515 -0.30515 -0.30515 -0.30516 -0.30514 -0.30514 -0.30514 -0.30516 -0.30515 -0.30515 -0.30515 -0.30515 -0.30514 -0.30515 -0.30516 -0.30514 -0.30515 -0.30514 -0.30515 -0.30515 -0.30515 -0.30515 -0.30516 -0.30514 -0.30514 -0.30515 -0.30515 -0.30515 -0.30515 -0.30515 -0.30514 -0.30515 -0.30515 -0.30516 -0.30515 -0.30515 -0.30512 -0.30516 -0.30515 -0.30515 -0.30516 -0.30515 -0.30514 -0.30514 -0.30516 -0.30515 -0.30515 -0.30515 -0.30514 -0.30514 -0.30515 -0.30515 -0.30516 -0.30515 -0.30514 -0.30515 -0.30515 -0.30515 -0.30514 -0.30516 -0.30515 -0.30513 -0.30515 -0.30516 -0.30515 -0.30515 -0.30515 -0.30514 -0.30515 -0.30514 -0.30516 -0.30515 -0.30515 -0.30513 -0.30516 -0.30515 -0.30515 -0.30515 -0.30516 -0.30515 -0.30512 -0.30515 -0.30516 -0.30515 -0.30515 -0.30515 -0.30514 -0.30515 -0.30515 -0.30516 -0.30515 -0.30513 -0.30514 -0.30516 -0.30515 -0.30515 -0.30515 -0.30516 -0.30513 -0.30515 -0.30516 -0.30515 -0.30514 -0.30515 -0.30514 -0.30515 -0.30515 -0.30515 -0.30516 -0.30515 -0.30513 -0.30515 -0.30515 -0.30515 -0.30515 -0.30516 -0.30515 -0.30514 -0.30514 -0.30516 -0.30515 -0.30515 -0.30515 -0.30515 -0.30514 -0.30514 -0.30515 -0.30516 -0.30515 -0.30513 -0.30516 -0.30515 -0.30515 -0.30515 -0.30515 -0.30514 -0.30514 -0.30515 -0.30516 -0.30515 -0.30515 -0.30514 -0.30515 -0.30515 -0.30515 -0.30515 -0.30515 -0.30514 -0.30515 -0.30515 -0.30515 -0.30515 -0.30515 -0.30516 -0.30514 -0.30514 -0.305149 -0.305152 -0.305154 -0.30515 -0.30515 -0.30515 -0.30514 -0.30515 -0.30515 -0.30515 -0.30514 -0.305151 -0.30516 -0.30514 -0.305152 -0.305147 -0.30515 -0.305145 -0.305151 -0.305147 -0.305149 -0.305146 -0.305151 -0.305147 -0.305148 -0.305153 -0.305147 -0.30515 -0.305144 -0.305152 -0.305146 -0.30515 -0.305147 -0.305149 -0.305148 -0.30515 -0.30515 -0.305147 -0.305152 -0.305144 -0.305152 -0.305145 -0.305151 -0.305145 -0.305151 -0.305146 -0.30515 -0.30515 -0.305147 -0.305152 -0.305146 -0.30515 -0.305146 -0.305153 -0.305143 -0.30515 -0.305148 -0.305148 -0.30515 -0.305149 -0.305149 -0.305147 -0.305151 -0.305145 -0.305153 -0.305144 -0.305149 -0.305149 -0.30515 -0.305146 -0.30515 -0.30515 -0.305146 -0.30515 -0.305146 -0.305153 -0.305144 -0.305152 -0.305146 -0.30515 -0.305147 -0.305149 -0.305152 -0.305145 -0.30515 -0.305148 -0.305151 -0.305143 -0.305153 -0.305146 -0.305151 -0.305145 -0.305151 -0.30515 -0.305146 -0.30515 -0.305147 -0.305151 -0.305145 -0.305152 -0.305144 -0.305153 -0.305145 -0.30515 -0.305148 -0.30515 -0.305149 -0.305148 -0.305149 -0.305145 -0.305152 -0.305145 -0.305152 -0.305145 -0.305151 -0.305147 -0.305151 -0.305149 -0.305147 -0.305151 -0.305145 -0.30515 -0.305147 -0.305149 -0.305146 -0.305152 -0.305147 -0.305151 -0.305149 -0.305146 -0.305152 -0.305145 -0.30515 -0.305146 -0.305151 -0.305145 -0.305151 -0.305146 -0.305152 -0.305149 -0.305147 -0.305151 -0.305147 -0.305149 -0.305146 -0.305152 -0.305144 -0.30515 -0.305148 -0.305151 -0.305144 -0.305153 -0.305149 -0.305147 -0.30515 -0.305145 -0.305153 -0.305144 -0.305149 -0.305149 -0.30515 -0.305145 -0.305151 -0.305151 -0.305148 -0.305148 -0.305148 -0.30515 -0.305144 -0.305153 -0.305145 -0.30515 -0.305147 -0.305149 -0.305152 -0.305148 -0.305148 -0.305148 -0.30515 -0.305144 -0.305152 -0.305146 -0.30515 -0.305146 -0.305151 -0.30515 -0.305147 -0.30515 -0.305147 -0.305149 -0.305149 -0.305147 -0.305149 -0.30515 -0.305146 -0.305149 -0.30515 -0.305147 -0.305149 -0.305149 -0.305148 -0.30515 -0.305147 -0.305148 -0.30515 -0.305147 -0.305149 -0.305149 -0.305149 -0.305147 -0.305149 -0.305149 -0.305148 -0.305149 -0.30515 -0.305147 -0.305149 -0.305148 -0.305148 -0.305149 -0.305148 -0.305148 -0.30515 -0.305149 -0.305146 -0.305151 -0.305149 -0.305148 -0.305148 -0.305149 -0.305148 -0.305148 -0.305148 -0.305149 -0.305149 -0.305148 -0.305148 -0.305149 -0.305151 -0.305146 -0.305149 -0.30515 -0.305146 -0.30515 -0.305149 -0.305147 -0.305149 -0.305148 -0.305148 -0.30515 -0.305147 -0.30515 -0.305149 -0.305149 -0.305147 -0.305149 -0.30515 -0.305146 -0.305149 -0.30515 -0.305147 -0.305148 -0.305149 -0.305149 -0.30515 z"
       id="path36" />
    <path
       style="fill:#808080;fill-opacity:1;fill-rule:evenodd;stroke:#808080;stroke-width:0.305149px;stroke-linecap:round;stroke-linejoin:round;stroke-miterlimit:4;stroke-dasharray:none;stroke-opacity:1"
       d="m 19.239783,85.24542 h 0.30515 0.305149 0.305149 0.305148 0.305147 V 64.800469 h 0.30515 0.305149 0.305146 0.30515 0.305149 0.305147 0.305149 0.305149 0.30515 0.305147 0.30515 0.305148 0.305148 0.305149 0.305147 0.305149 0.30515 0.305146 0.30515 0.305149 0.305146 0.305151 0.305149 0.305148 0.305148 0.305149 0.305149 0.305148 0.305148 0.305148 0.305149 0.305148 0.305148 0.305149 0.305151 0.305146 0.305149 0.30515 0.305148 0.305148 0.305149 0.305148 0.305148 0.305149 0.305147 0.30515 0.305149 0.305148 0.305149 0.305149 0.305147 0.305149 0.305149 0.305149 0.305147 0.30515 0.305148 0.305147 0.30515 0.305148 0.305149 0.305149 0.305147 0.30515 0.305149 0.305146 0.30515 0.305149 0.305147 0.305149 0.305149 0.305147 0.30515 0.305147 0.30515 0.305151 0.305146 0.30515 0.305146 0.305152 0.305144 0.30515 0.305148 0.305148 0.305148 0.305152 0.305149 0.305147 0.30515 0.305145 0.305153 0.305144 0.30515 0.305148 0.305148 0.305148 0.305151 0.305151 0.305145 0.30515 0.305149 0.305149 0.305144 0.305153 0.305145 0.30515 0.305147 0.305149 0.305153 0.305144 0.305151 0.305148 0.30515 0.305144 0.305152 0.305146 0.305149 0.305147 0.305151 0.305147 0.305149 0.305152 0.305146 0.305151 0.305145 0.305151 0.305146 V 44.660665 h 0.30515 V 64.800469 44.660665 64.800469 h 0.305145 0.305152 V 44.660665 64.800469 h 0.305146 0.305149 0.305151 0.305147 0.305152 V 44.660665 64.800469 h 0.305146 V 44.660665 64.800469 h 0.305149 0.305147 0.30515 0.305145 0.305151 0.305147 0.305149 0.305151 0.305147 0.305151 0.305145 0.305152 0.305145 0.305152 0.305145 0.305149 0.305148 0.305149 0.30515 0.305148 0.30515 0.305145 0.305153 0.305144 0.305152 0.305145 0.305151 V 44.660665 h 0.305147 0.30515 0.305146 0.30515 0.305151 0.305145 0.305151 0.305146 0.305153 0.305143 0.305151 V 64.800469 44.660665 64.800469 h 0.305148 0.30515 0.305145 0.305152 0.305149 0.305147 0.30515 0.305146 0.305152 0.305144 0.305153 0.305146 0.30515 0.305146 0.30515 0.30515 0.305146 0.30515 0.305149 0.305149 0.305144 0.305153 0.305145 0.305151 0.305147 0.305149 0.305149 0.30515 0.305148 0.305148 0.30515 0.305143 0.305153 0.305146 0.30515 0.305146 0.305152 0.305147 0.30515 0.30515 0.305146 0.305151 0.305145 0.305151 0.305145 0.305152 0.305144 0.305152 0.305147 0.30515 0.30515 0.305148 0.305149 0.305147 0.30515 0.305146 0.305152 0.305144 0.30515 0.305147 0.305153 0.305148 0.305147 0.305151 0.305146 0.305149 0.305147 0.305151 0.305145 0.30515 0.305147 0.305152 0.30514 0.30516 0.305151 0.30514 0.30515 0.30515 0.30515 0.30514 0.30515 0.30515 0.30515 0.305154 0.305152 0.305149 0.30514 0.30514 0.30516 0.30515 0.30515 0.30515 0.30515 0.30515 0.30514 0.30515 0.30515 0.30515 0.30515 0.30515 0.30514 0.30515 0.30515 0.30516 0.30515 0.30514 0.30514 0.30515 0.30515 0.30515 0.30515 0.30516 0.30513 0.30515 0.30516 0.30515 0.30514 0.30514 0.30515 0.30515 0.30515 0.30515 0.30516 0.30514 0.30514 0.30515 0.30516 0.30515 0.30515 0.30515 0.30515 0.30513 0.30515 0.30516 0.30515 0.30515 0.30515 0.30514 0.30515 0.30514 0.30515 0.30516 0.30515 0.30513 0.30516 0.30515 0.30515 0.30515 0.30516 0.30514 0.30513 0.30515 0.30516 0.30515 0.30515 0.30514 0.30515 0.30515 0.30515 0.30516 0.30515 0.30512 0.30515 0.30516 0.30515 0.30515 0.30515 0.30516 0.30513 0.30515 0.30515 0.30516 0.30514 0.30515 0.30514 0.30515 0.30515 0.30515 0.30516 0.30515 0.30513 0.30515 0.30516 0.30514 0.30515 0.30515 0.30515 0.30514 0.30515 0.30516 0.30515 0.30515 0.30514 0.30514 0.30515 0.30515 0.30515 0.30516 0.30514 0.30514 0.30515 0.30516 0.30515 0.30515 0.30516 0.30512 0.30515 0.30515 0.30516 0.30515 0.30515 0.30514 0.30515 0.30515 0.30515 0.30515 0.30515 0.30514 0.30514 0.30516 0.30515 0.30515 0.30515 0.30515 0.30514 0.30515 0.30514 0.30516 0.30515 0.30514 0.30515 0.30515 0.30515 0.30515 0.30516 0.30514 0.30514 0.30514 0.30516 0.30515 0.30515 0.30515 0.30514 0.30515 0.30515 0.30515 0.30516 0.30515 0.30513 0.30516 0.30515 0.30515 0.30514 0.30516 0.30514 0.30515 0.30515 0.30516 0.30515 0.30512 0.30514 0.30516 0.30515 0.30515 0.30515 0.30515 0.30514 0.30515 0.30516 0.30515 0.30514 0.30515 0.30515 0.30514 0.30515 0.30515 0.30516 0.30515 0.30515 0.30515 0.30515 0.30512 0.30515 0.30516 0.30515 0.30513 0.30515 0.30516 0.30515 0.30515 0.30515 0.30514 0.30515 0.30514 0.30516 0.30515 0.30515 0.30514 V 85.24542 h 0.30516 0.30515 0.30515 0.30515 0.30514 0.30514 0.30515 0.30515 0.30516 0.30515 0.30515 0.30515 0.30514 0.30515 0.30515 0.30515 0.30515 0.30515 0.30514 0.30516 0.30513 0.30515 v 0 h -0.30515 -0.30513 -0.30516 -0.30514 -0.30515 -0.30515 -0.30515 -0.30515 -0.30515 -0.30514 -0.30515 -0.30515 -0.30515 -0.30516 -0.30515 -0.30515 -0.30514 -0.30514 -0.30515 -0.30515 -0.30515 -0.30516 -0.30514 -0.30515 -0.30515 -0.30516 -0.30514 -0.30515 -0.30514 -0.30515 -0.30515 -0.30515 -0.30516 -0.30515 -0.30513 -0.30515 -0.30516 -0.30515 -0.30512 -0.30515 -0.30515 -0.30515 -0.30515 -0.30516 -0.30515 -0.30515 -0.30514 -0.30515 -0.30515 -0.30514 -0.30515 -0.30516 -0.30515 -0.30514 -0.30515 -0.30515 -0.30515 -0.30515 -0.30516 -0.30514 -0.30512 -0.30515 -0.30516 -0.30515 -0.30515 -0.30514 -0.30516 -0.30514 -0.30515 -0.30515 -0.30516 -0.30513 -0.30515 -0.30516 -0.30515 -0.30515 -0.30515 -0.30514 -0.30515 -0.30515 -0.30515 -0.30516 -0.30514 -0.30514 -0.30514 -0.30516 -0.30515 -0.30515 -0.30515 -0.30515 -0.30514 -0.30515 -0.30516 -0.30514 -0.30515 -0.30514 -0.30515 -0.30515 -0.30515 -0.30515 -0.30516 -0.30514 -0.30514 -0.30515 -0.30515 -0.30515 -0.30515 -0.30515 -0.30514 -0.30515 -0.30515 -0.30516 -0.30515 -0.30515 -0.30512 -0.30516 -0.30515 -0.30515 -0.30516 -0.30515 -0.30514 -0.30514 -0.30516 -0.30515 -0.30515 -0.30515 -0.30514 -0.30514 -0.30515 -0.30515 -0.30516 -0.30515 -0.30514 -0.30515 -0.30515 -0.30515 -0.30514 -0.30516 -0.30515 -0.30513 -0.30515 -0.30516 -0.30515 -0.30515 -0.30515 -0.30514 -0.30515 -0.30514 -0.30516 -0.30515 -0.30515 -0.30513 -0.30516 -0.30515 -0.30515 -0.30515 -0.30516 -0.30515 -0.30512 -0.30515 -0.30516 -0.30515 -0.30515 -0.30515 -0.30514 -0.30515 -0.30515 -0.30516 -0.30515 -0.30513 -0.30514 -0.30516 -0.30515 -0.30515 -0.30515 -0.30516 -0.30513 -0.30515 -0.30516 -0.30515 -0.30514 -0.30515 -0.30514 -0.30515 -0.30515 -0.30515 -0.30516 -0.30515 -0.30513 -0.30515 -0.30515 -0.30515 -0.30515 -0.30516 -0.30515 -0.30514 -0.30514 -0.30516 -0.30515 -0.30515 -0.30515 -0.30515 -0.30514 -0.30514 -0.30515 -0.30516 -0.30515 -0.30513 -0.30516 -0.30515 -0.30515 -0.30515 -0.30515 -0.30514 -0.30514 -0.30515 -0.30516 -0.30515 -0.30515 -0.30514 -0.30515 -0.30515 -0.30515 -0.30515 -0.30515 -0.30514 -0.30515 -0.30515 -0.30515 -0.30515 -0.30515 -0.30516 -0.30514 -0.30514 -0.305149 -0.305152 -0.305154 -0.30515 -0.30515 -0.30515 -0.30514 -0.30515 -0.30515 -0.30515 -0.30514 -0.305151 -0.30516 -0.30514 -0.305152 -0.305147 -0.30515 -0.305145 -0.305151 -0.305147 -0.305149 -0.305146 -0.305151 -0.305147 -0.305148 -0.305153 -0.305147 -0.30515 -0.305144 -0.305152 -0.305146 -0.30515 -0.305147 -0.305149 -0.305148 -0.30515 -0.30515 -0.305147 -0.305152 -0.305144 -0.305152 -0.305145 -0.305151 -0.305145 -0.305151 -0.305146 -0.30515 -0.30515 -0.305147 -0.305152 -0.305146 -0.30515 -0.305146 -0.305153 -0.305143 -0.30515 -0.305148 -0.305148 -0.30515 -0.305149 -0.305149 -0.305147 -0.305151 -0.305145 -0.305153 -0.305144 -0.305149 -0.305149 -0.30515 -0.305146 -0.30515 -0.30515 -0.305146 -0.30515 -0.305146 -0.305153 -0.305144 -0.305152 -0.305146 -0.30515 -0.305147 -0.305149 -0.305152 -0.305145 -0.30515 -0.305148 -0.305151 -0.305143 -0.305153 -0.305146 -0.305151 -0.305145 -0.305151 -0.30515 -0.305146 -0.30515 -0.305147 -0.305151 -0.305145 -0.305152 -0.305144 -0.305153 -0.305145 -0.30515 -0.305148 -0.30515 -0.305149 -0.305148 -0.305149 -0.305145 -0.305152 -0.305145 -0.305152 -0.305145 -0.305151 -0.305147 -0.305151 -0.305149 -0.305147 -0.305151 -0.305145 -0.30515 -0.305147 -0.305149 -0.305146 -0.305152 -0.305147 -0.305151 -0.305149 -0.305146 -0.305152 -0.305145 -0.30515 -0.305146 -0.305151 -0.305145 -0.305151 -0.305146 -0.305152 -0.305149 -0.305147 -0.305151 -0.305147 -0.305149 -0.305146 -0.305152 -0.305144 -0.30515 -0.305148 -0.305151 -0.305144 -0.305153 -0.305149 -0.305147 -0.30515 -0.305145 -0.305153 -0.305144 -0.305149 -0.305149 -0.30515 -0.305145 -0.305151 -0.305151 -0.305148 -0.305148 -0.305148 -0.30515 -0.305144 -0.305153 -0.305145 -0.30515 -0.305147 -0.305149 -0.305152 -0.305148 -0.305148 -0.305148 -0.30515 -0.305144 -0.305152 -0.305146 -0.30515 -0.305146 -0.305151 -0.30515 -0.305147 -0.30515 -0.305147 -0.305149 -0.305149 -0.305147 -0.305149 -0.30515 -0.305146 -0.305149 -0.30515 -0.305147 -0.305149 -0.305149 -0.305148 -0.30515 -0.305147 -0.305148 -0.30515 -0.305147 -0.305149 -0.305149 -0.305149 -0.305147 -0.305149 -0.305149 -0.305148 -0.305149 -0.30515 -0.305147 -0.305149 -0.305148 -0.305148 -0.305149 -0.305148 -0.305148 -0.30515 -0.305149 -0.305146 -0.305151 -0.305149 -0.305148 -0.305148 -0.305149 -0.305148 -0.305148 -0.305148 -0.305149 -0.305149 -0.305148 -0.305148 -0.305149 -0.305151 -0.305146 -0.305149 -0.30515 -0.305146 -0.30515 -0.305149 -0.305147 -0.305149 -0.305148 -0.305148 -0.30515 -0.305147 -0.30515 -0.305149 -0.305149 -0.305147 -0.305149 -0.30515 -0.305146 -0.305149 -0.30515 -0.305147 -0.305148 -0.305149 -0.305149 z"
       id="path37" />
    <path
       style="fill:none;stroke:#000000;stroke-width:0.305149px;stroke-linecap:round;stroke-linejoin:round;stroke-miterlimit:4;stroke-dasharray:none;stroke-opacity:1"
       d="m 18.934636,85.24542 v 0 0 0 0 0 h 0.305147 v 0 0 0 0 0 0 0 0 0 0 0 0 0 h 0.30515 v 0 0 0 0 0 0 0 0 0 0 0 0 h 0.305149 v 0 0 0 0 0 0 0 0 0 0 0 0 h 0.305149 v 0 0 0 0 0 0 0 0 0 0 0 0 0 h 0.305148 v 0 0 0 0 0 0 0 0 0 0 0 0 h 0.305147 v 0 0 0 0 0 0 0 0 0 0 0 0 0 h 0.30515 v 0 0 0 0 0 0 0 0 0 0 0 0 h 0.305149 v 0 0 0 0 0 0 0 0 0 0 0 0 0 h 0.305146 v 0 0 0 0 0 0 0 0 0 0 0 0 h 0.30515 v 0 0 0 0 0 0 0 0 0 0 0 0 h 0.305149 v 0 0 0 0 0 0 0 0 0 0 0 0 0 h 0.305147 v 0 0 0 0 0 0 0 0 0 0 0 0 h 0.305149 v 0 0 0 0 0 0 0 0 0 0 0 0 0 h 0.305149 v 0 0 0 0 0 0 0 0 0 0 0 0 h 0.30515 v 0 0 0 0 0 0 0 0 0 0 0 0 0 h 0.305147 v 0 0 0 0 0 0 0 0 0 0 0 0 h 0.30515 v 0 0 0 0 0 0 0 0 0 0 0 0 h 0.305148 v 0 0 0 0 0 0 0 0 0 0 0 0 0 h 0.305148 v 0 0 0 0 0 0 0 0 0 0 0 0 h 0.305149 v 0 0 0 0 0 0 0 0 0 0 0 0 0 h 0.305147 v 0 0 0 0 0 0 0 0 0 0 0 0 h 0.305149 v 0 0 0 0 0 0 0 0 0 0 0 0 0 h 0.30515 v 0 0 0 0 0 0 0 0 0 0 0 0 h 0.305146 v 0 0 0 0 0 0 0 0 0 0 0 0 h 0.30515 v 0 0 0 0 0 0 0 0 0 0 0 0 0 h 0.305149 v 0 0 0 0 0 0 0 0 0 0 0 0 h 0.305146 v 0 0 0 0 0 0 0 0 0 0 0 0 0 h 0.305151 v 0 0 0 0 0 0 0 0 0 0 0 0 h 0.305149 v 0 0 0 0 0 0 0 0 0 0 0 0 0 h 0.305148 v 0 0 0 0 0 0 0 0 0 0 0 0 h 0.305148 v 0 0 0 0 0 0 0 0 0 0 0 0 h 0.305149 v 0 0 0 0 0 0 0 0 0 0 0 0 0 h 0.305149 v 0 0 0 0 0 0 0 0 0 0 0 0 h 0.305148 v 0 0 0 0 0 0 0 0 0 0 0 0 0 h 0.305148 v 0 0 0 0 0 0 0 0 0 0 0 0 h 0.305148 v 0 0 0 0 0 0 0 0 0 0 0 0 0 h 0.305149 v 0 0 0 0 0 0 0 0 0 0 0 0 h 0.305148 v 0 0 0 0 0 0 0 0 0 0 0 0 h 0.305148 v 0 0 0 0 0 0 0 0 0 0 0 0 0 h 0.305149 v 0 0 0 0 0 0 0 0 0 0 0 0 h 0.305151 v 0 0 0 0 0 0 0 0 0 0 0 0 0 h 0.305146 v 0 0 0 0 0 0 0 0 0 0 0 0 h 0.305149 v 0 0 0 0 0 0 0 0 0 0 0 0 0 h 0.30515 v 0 0 0 0 0 0 0 0 0 0 0 0 h 0.305148 v 0 0 0 0 0 0 0 0 0 0 0 0 h 0.305148 v 0 0 0 0 0 0 0 0 0 0 0 0 0 h 0.305149 v 0 0 0 0 0 0 0 0 0 0 0 0 h 0.305148 v 0 0 0 0 0 0 0 0 0 0 0 0 0 h 0.305148 v 0 0 0 0 0 0 0 0 0 0 0 0 h 0.305149 v 0 0 0 0 0 0 0 0 0 0 0 0 0 h 0.305147 v 0 0 0 0 0 0 0 0 0 0 0 0 h 0.30515 v 0 0 0 0 0 0 0 0 0 0 0 0 h 0.305149 v 0 0 0 0 0 0 0 0 0 0 0 0 0 h 0.305148 v 0 0 0 0 0 0 0 0 0 0 0 0 h 0.305149 v 0 0 0 0 0 0 0 0 0 0 0 0 0 h 0.305149 v 0 0 0 0 0 0 0 0 0 0 0 0 h 0.305147 v 0 0 0 0 0 0 0 0 0 0 0 0 0 h 0.305149 v 0 0 0 0 0 0 0 0 0 0 0 0 h 0.305149 v 0 0 0 0 0 0 0 0 0 0 0 0 h 0.305149 v 0 0 0 0 0 0 0 0 0 0 0 0 0 h 0.305147 v 0 0 0 0 0 0 0 0 0 0 0 0 h 0.30515 v 0 0 0 0 0 0 0 0 0 0 0 0 0 h 0.305148 v 0 0 0 0 0 0 0 0 0 0 0 0 h 0.305147 v 0 0 0 0 0 0 0 0 0 0 0 0 0 h 0.30515 v 0 0 0 0 0 0 0 0 0 0 0 0 h 0.305148 v 0 0 0 0 0 0 0 0 0 0 0 0 h 0.305149 v 0 0 0 0 0 0 0 0 0 0 0 0 0 h 0.305149 v 0 0 0 0 0 0 0 0 0 0 0 0 h 0.305147 v 0 0 0 0 0 0 0 0 0 0 0 0 0 h 0.30515 v 0 0 0 0 0 0 0 0 0 0 0 0 h 0.305149 v 0 0 0 0 0 0 0 0 0 0 0 0 0 h 0.305146 v 0 0 0 0 0 0 0 0 0 0 0 0 h 0.30515 v 0 0 0 0 0 0 0 0 0 0 0 0 h 0.305149 v 0 0 0 0 0 0 0 0 0 0 0 0 0 h 0.305147 v 0 0 0 0 0 0 0 0 0 0 0 0 h 0.305149 v 0 0 0 0 0 0 0 0 0 0 0 0 0 h 0.305149 v 0 0 0 0 0 0 0 0 0 0 0 0 h 0.305147 v 0 0 0 0 0 0 0 0 0 0 0 0 0 h 0.30515 v 0 0 0 0 0 0 0 0 0 0 0 0 h 0.305147 v 0 0 0 0 0 0 0 0 0 0 0 0 h 0.30515 v 0 0 0 0 0 0 0 0 0 0 0 0 0 h 0.305151 v 0 0 0 0 0 0 0 0 0 0 0 0 h 0.305146 v 0 0 0 0 0 0 0 0 0 0 0 0 0 h 0.30515 v 0 0 0 0 0 0 0 0 0 0 0 0 h 0.305146 v 0 0 0 0 0 0 0 0 0 0 0 0 0 h 0.305152 v 0 0 0 0 0 0 0 0 0 0 0 0 h 0.305144 v 0 0 0 0 0 0 0 0 0 0 0 0 h 0.30515 v 0 0 0 0 0 0 0 0 0 0 0 0 0 h 0.305148 v 0 0 0 0 0 0 0 0 0 0 0 0 h 0.305148 v 0 0 0 0 0 0 0 0 0 0 0 0 0 h 0.305148 v 0 0 0 0 0 0 0 0 0 0 0 0 h 0.305152 v 0 0 0 0 0 0 0 0 0 0 0 0 0 h 0.305149 v 0 0 0 0 0 0 0 0 0 0 0 0 h 0.305147 v 0 0 0 0 0 0 0 0 0 0 0 0 h 0.30515 v 0 0 0 0 0 0 0 0 0 0 0 0 0 h 0.305145 v 0 0 0 0 0 0 0 0 0 0 0 0 h 0.305153 v 0 0 0 0 0 0 0 0 0 0 0 0 0 h 0.305144 v 0 0 0 0 0 0 0 0 0 0 0 0 h 0.30515 v 0 0 0 0 0 0 0 0 0 0 0 0 0 h 0.305148 v 0 0 0 0 0 0 0 0 0 0 0 0 h 0.305148 v 0 0 0 0 0 0 0 0 0 0 0 0 h 0.305148 v 0 0 0 0 0 0 0 0 0 0 0 0 0 h 0.305151 v 0 0 0 0 0 0 0 0 0 0 0 0 h 0.305151 v 0 0 0 0 0 0 0 0 0 0 0 0 0 h 0.305145 v 0 0 0 0 0 0 0 0 0 0 0 0 h 0.30515 v 0 0 0 0 0 0 0 0 0 0 0 0 0 h 0.305149 v 0 0 0 0 0 0 0 0 0 0 0 0 h 0.305149 v 0 0 0 0 0 0 0 0 0 0 0 0 h 0.305144 v 0 0 0 0 0 0 0 0 0 0 0 0 0 h 0.305153 v 0 0 0 0 0 0 0 0 0 0 0 0 h 0.305145 v 0 0 0 0 0 0 0 0 0 0 0 0 0 h 0.30515 v 0 0 0 0 0 0 0 0 0 0 0 0 h 0.305147 v 0 0 0 0 0 0 0 0 0 0 0 0 0 h 0.305149 v 0 0 0 0 0 0 0 0 0 0 0 0 h 0.305153 v 0 0 0 0 0 0 0 0 0 0 0 0 h 0.305144 v 0 0 0 0 0 0 0 0 0 0 0 0 0 h 0.305151 v 0 0 0 0 0 0 0 0 0 0 0 0 h 0.305148 v 0 0 0 0 0 0 0 0 0 0 0 0 0 h 0.30515 v 0 0 0 0 0 0 0 0 0 0 0 0 h 0.305144 v 0 0 0 0 0 0 0 0 0 0 0 0 0 h 0.305152 v 0 0 0 0 0 0 0 0 0 0 0 0 h 0.305146 v 0 0 0 0 0 0 0 0 0 0 0 0 h 0.305149 v 0 0 0 0 0 0 0 0 0 0 0 0 0 h 0.305147 v 0 0 0 0 0 0 0 0 0 0 0 0 h 0.305151 v 0 0 0 0 0 0 0 0 0 0 0 0 0 h 0.305147 v 0 0 0 0 0 0 0 0 0 0 0 0 h 0.305149 v 0 0 0 0 0 0 0 0 0 0 0 0 0 h 0.305152 v 0 0 0 0 0 0 0 0 0 0 0 0 h 0.305146 v 0 0 0 0 0 0 0 0 0 0 0 0 h 0.305151 v 0 0 0 0 0 0 0 0 0 0 0 0 0 h 0.305145 v 0 0 0 0 0 0 0 0 0 0 0 0 h 0.305151 v 0 0 0 0 0 0 0 0 0 0 0 0 0 h 0.305146 v 0 0 0 0 0 0 0 0 0 0 0 0 h 0.30515 v 0 0 0 0 0 0 0 0 0 0 0 0 0 h 0.305145 v 0 0 0 0 0 0 0 0 0 0 0 0 h 0.305152 v 0 0 0 0 0 0 0 0 0 0 0 0 h 0.305146 v 0 0 0 0 0 0 0 0 0 0 0 0 0 h 0.305149 v 0 0 0 0 0 0 0 0 0 0 0 0 h 0.305151 v 0 0 0 0 0 0 0 0 0 0 0 0 0 h 0.305147 v 0 0 0 0 -20.444951 0 0 0 0 0 0 0 h 0.305152 v 0 0 0 0 0 0 0 0 0 0 0 0 0 h 0.305146 v 0 0 0 0 0 0 0 0 0 0 0 0 h 0.305149 v 0 0 0 0 0 0 0 0 0 0 0 0 h 0.305147 v 0 0 0 0 0 0 0 0 0 0 0 0 0 h 0.30515 v 0 0 0 0 0 0 0 0 0 0 0 0 h 0.305145 v 0 0 0 0 0 0 0 0 0 0 0 0 0 h 0.305151 v 0 0 0 0 0 0 0 0 0 0 0 0 h 0.305147 v 0 0 0 0 0 0 0 0 0 0 0 0 0 h 0.305149 v 0 0 0 0 0 0 0 0 0 0 0 0 h 0.305151 v 0 0 0 0 0 0 0 0 0 0 0 0 h 0.305147 v 0 0 0 0 0 0 0 0 0 0 0 0 0 h 0.305151 v 0 0 0 0 0 0 0 0 0 0 0 0 h 0.305145 v 0 0 0 0 0 0 0 0 0 0 0 0 0 h 0.305152 v 0 0 0 0 0 0 0 0 0 0 0 0 h 0.305145 v 0 0 0 20.444951 0 0 0 0 0 0 0 0 0 h 0.305152 v 0 0 0 0 0 0 0 0 0 0 0 0 h 0.305145 v 0 0 0 0 0 0 0 0 0 0 0 0 h 0.305149 v 0 0 0 0 0 0 0 0 0 0 0 0 0 h 0.305148 v 0 0 0 0 0 0 0 0 0 0 0 0 h 0.305149 v 0 0 0 0 0 0 0 0 0 0 0 0 0 h 0.30515 v 0 0 0 0 0 0 0 0 0 0 0 0 h 0.305148 v 0 0 0 0 0 0 0 0 0 0 0 0 0 h 0.30515 v 0 0 0 0 0 0 0 0 0 0 0 0 h 0.305145 v 0 0 0 0 0 -20.444951 0 0 0 0 0 0 h 0.305153 v 0 0 0 0 0 0 0 0 0 0 0 0 0 h 0.305144 v 0 0 0 0 0 0 0 0 0 0 0 0 h 0.305152 v 0 0 0 0 0 0 0 0 0 0 0 0 0 h 0.305145 v 0 0 0 0 0 0 0 0 0 0 0 0 h 0.305151 v -20.139804 0 0 0 0 0 0 0 0 0 0 0 0 h 0.305147 v 0 0 0 0 0 0 0 0 0 0 0 0 h 0.30515 v 0 0 0 0 0 0 0 0 0 0 0 0 h 0.305146 v 0 0 0 0 0 0 0 0 0 0 0 0 0 h 0.30515 v 0 0 0 0 0 0 0 0 0 0 0 0 h 0.305151 v 0 0 0 0 0 0 0 0 0 0 0 0 0 h 0.305145 v 0 0 0 0 0 0 0 0 0 0 0 0 h 0.305151 v 0 0 0 0 0 0 0 0 0 0 0 0 0 h 0.305146 v 0 0 0 0 0 0 0 0 0 0 0 0 h 0.305153 v 0 0 0 0 0 0 0 0 0 0 0 0 h 0.305143 v 0 0 0 0 20.139804 0 0 0 0 0 0 0 0 h 0.305151 v 0 0 0 0 0 0 0 0 0 0 0 0 h 0.305148 v 0 0 0 0 0 0 0 0 0 0 0 0 0 h 0.30515 v 0 0 0 0 0 0 0 0 0 0 0 0 h 0.305145 v 0 0 0 0 0 0 0 0 0 0 0 0 0 l 0.305152,20.444951 v 0 0 0 0 0 0 0 0 0 0 0 0 h 0.305149 v 0 0 0 0 0 0 0 0 0 0 0 0 h 0.305147 v 0 0 0 0 0 0 0 0 0 0 0 0 0 h 0.30515 v 0 0 0 0 0 0 0 0 0 0 0 0 h 0.305146 v 0 0 0 0 0 0 0 0 0 0 0 0 0 h 0.305152 v 0 0 0 0 0 0 0 0 0 0 0 0 h 0.305144 v 0 0 0 0 0 0 0 0 0 0 0 0 0 h 0.305153 v 0 0 0 0 0 0 0 0 0 0 0 0 h 0.305146 v 0 0 0 0 0 0 0 0 0 0 0 0 h 0.30515 v 0 0 0 0 0 0 0 0 0 0 0 0 0 h 0.305146 v 0 0 0 0 0 0 0 0 0 0 0 0 h 0.30515 v 0 0 0 0 0 0 0 0 0 0 0 0 0 h 0.30515 v 0 0 0 0 0 0 0 0 0 0 0 0 h 0.305146 v 0 0 0 0 0 0 0 0 0 0 0 0 0 h 0.30515 v 0 0 0 0 0 0 0 0 0 0 0 0 h 0.305149 v 0 0 0 0 0 0 0 0 0 0 0 0 h 0.305149 v 0 0 0 0 0 0 0 0 0 0 0 0 0 h 0.305144 v 0 0 0 0 0 0 0 0 0 0 0 0 h 0.305153 v 0 0 0 0 0 0 0 0 0 0 0 0 0 h 0.305145 v 0 0 0 0 0 0 0 0 0 0 0 0 h 0.305151 v 0 0 0 0 0 0 0 0 0 0 0 0 0 h 0.305147 v 0 0 0 0 0 0 0 0 0 0 0 0 h 0.305149 v 0 0 0 0 0 0 0 0 0 0 0 0 h 0.305149 v 0 0 0 0 0 0 0 0 0 0 0 0 0 h 0.30515 v 0 0 0 0 0 0 0 0 0 0 0 0 h 0.305148 v 0 0 0 0 0 0 0 0 0 0 0 0 0 h 0.305148 v 0 0 0 0 0 0 0 0 0 0 0 0 h 0.30515 v 0 0 0 0 0 0 0 0 0 0 0 0 0 h 0.305143 v 0 0 0 0 0 0 0 0 0 0 0 0 h 0.305153 v 0 0 0 0 0 0 0 0 0 0 0 0 h 0.305146 v 0 0 0 0 0 0 0 0 0 0 0 0 0 h 0.30515 v 0 0 0 0 0 0 0 0 0 0 0 0 h 0.305146 v 0 0 0 0 0 0 0 0 0 0 0 0 0 h 0.305152 v 0 0 0 0 0 0 0 0 0 0 0 0 h 0.305147 v 0 0 0 0 0 0 0 0 0 0 0 0 0 h 0.30515 v 0 0 0 0 0 0 0 0 0 0 0 0 h 0.30515 v 0 0 0 0 0 0 0 0 0 0 0 0 h 0.305146 v 0 0 0 0 0 0 0 0 0 0 0 0 0 h 0.305151 v 0 0 0 0 0 0 0 0 0 0 0 0 h 0.305145 v 0 0 0 0 0 0 0 0 0 0 0 0 0 h 0.305151 v 0 0 0 0 0 0 0 0 0 0 0 0 h 0.305145 v 0 0 0 0 0 0 0 0 0 0 0 0 0 h 0.305152 v 0 0 0 0 0 0 0 0 0 0 0 0 h 0.305144 v 0 0 0 0 0 0 0 0 0 0 0 0 h 0.305152 v 0 0 0 0 0 0 0 0 0 0 0 0 0 h 0.305147 v 0 0 0 0 0 0 0 0 0 0 0 0 h 0.30515 v 0 0 0 0 0 0 0 0 0 0 0 0 0 h 0.30515 v 0 0 0 0 0 0 0 0 0 0 0 0 h 0.305148 v 0 0 0 0 0 0 0 0 0 0 0 0 0 h 0.305149 v 0 0 0 0 0 0 0 0 0 0 0 0 h 0.305147 v 0 0 0 0 0 0 0 0 0 0 0 0 h 0.30515 v 0 0 0 0 0 0 0 0 0 0 0 0 0 h 0.305146 v 0 0 0 0 0 0 0 0 0 0 0 0 h 0.305152 v 0 0 0 0 0 0 0 0 0 0 0 0 0 h 0.305144 v 0 0 0 0 0 0 0 0 0 0 0 0 h 0.30515 v 0 0 0 0 0 0 0 0 0 0 0 0 0 h 0.305147 v 0 0 0 0 0 0 0 0 0 0 0 0 h 0.305153 v 0 0 0 0 0 0 0 0 0 0 0 0 h 0.305148 v 0 0 0 0 0 0 0 0 0 0 0 0 0 h 0.305147 v 0 0 0 0 0 0 0 0 0 0 0 0 h 0.305151 v 0 0 0 0 0 0 0 0 0 0 0 0 0 h 0.305146 v 0 0 0 0 0 0 0 0 0 0 0 0 h 0.305149 v 0 0 0 0 0 0 0 0 0 0 0 0 0 h 0.305147 v 0 0 0 0 0 0 0 0 0 0 0 0 h 0.305151 v 0 0 0 0 0 0 0 0 0 0 0 0 h 0.305145 v 0 0 0 0 0 0 0 0 0 0 0 0 0 h 0.30515 v 0 0 0 0 0 0 0 0 0 0 0 0 h 0.305147 v 0 0 0 0 0 0 0 0 0 0 0 0 0 h 0.305152 v 0 0 0 0 0 0 0 0 0 0 0 0 h 0.30514 v 0 0 0 0 0 0 0 0 0 0 0 0 h 0.30516 v 0 0 0 0 0 0 0 0 0 0 0 0 0 h 0.305151 v 0 0 0 0 0 0 0 0 0 0 0 0 h 0.30514 v 0 0 0 0 0 0 0 0 0 0 0 0 0 h 0.30515 v 0 0 0 0 0 0 0 0 0 0 0 0 h 0.30515 v 0 0 0 0 0 0 0 0 0 0 0 0 0 h 0.30515 v 0 0 0 0 0 0 0 0 0 0 0 0 h 0.30514 v 0 0 0 0 0 0 0 0 0 0 0 0 h 0.30515 v 0 0 0 0 0 0 0 0 0 0 0 0 0 h 0.30515 v 0 0 0 0 0 0 0 0 0 0 0 0 h 0.30515 v 0 0 0 0 0 0 0 0 0 0 0 0 0 h 0.305154 v 0 0 0 0 0 0 0 0 0 0 0 0 h 0.305152 v 0 0 0 0 0 0 0 0 0 0 0 0 0 h 0.305149 v 0 0 0 0 0 0 0 0 0 0 0 0 h 0.30514 v 0 0 0 0 0 0 0 0 0 0 0 0 h 0.30514 v 0 0 0 0 0 0 0 0 0 0 0 0 0 h 0.30516 v 0 0 0 0 0 0 0 0 0 0 0 0 h 0.30515 v 0 0 0 0 0 0 0 0 0 0 0 0 0 h 0.30515 v 0 0 0 0 0 0 0 0 0 0 0 0 h 0.30515 v 0 0 0 0 0 0 0 0 0 0 0 0 0 h 0.30515 v 0 0 0 0 0 0 0 0 0 0 0 0 h 0.30515 v 0 0 0 0 0 0 0 0 0 0 0 0 h 0.30514 v 0 0 0 0 0 0 0 0 0 0 0 0 0 h 0.30515 v 0 0 0 0 0 0 0 0 0 0 0 0 h 0.30515 v 0 0 0 0 0 0 0 0 0 0 0 0 0 h 0.30515 v 0 0 0 0 0 0 0 0 0 0 0 0 h 0.30515 v 0 0 0 0 0 0 0 0 0 0 0 0 0 h 0.30515 v 0 0 0 0 0 0 0 0 0 0 0 0 h 0.30514 v 0 0 0 0 0 0 0 0 0 0 0 0 h 0.30515 v 0 0 0 0 0 0 0 0 0 0 0 0 0 h 0.30515 v 0 0 0 0 0 0 0 0 0 0 0 0 h 0.30516 v 0 0 0 0 0 0 0 0 0 0 0 0 0 h 0.30515 v 0 0 0 0 0 0 0 0 0 0 0 0 h 0.30514 v 0 0 0 0 0 0 0 0 0 0 0 0 0 h 0.30514 v 0 0 0 0 0 0 0 0 0 0 0 0 h 0.30515 v 0 0 0 0 0 0 0 0 0 0 0 0 h 0.30515 v 0 0 0 0 0 0 0 0 0 0 0 0 0 h 0.30515 v 0 0 0 0 0 0 0 0 0 0 0 0 h 0.30515 v 0 0 0 0 0 0 0 0 0 0 0 0 0 h 0.30516 v 0 0 0 0 0 0 0 0 0 0 0 0 h 0.30513 v 0 0 0 0 0 0 0 0 0 0 0 0 0 h 0.30515 v 0 0 0 0 0 0 0 0 0 0 0 0 h 0.30516 v 0 0 0 0 0 0 0 0 0 0 0 0 h 0.30515 v 0 0 0 0 0 0 0 0 0 0 0 0 0 h 0.30514 v 0 0 0 0 0 0 0 0 0 0 0 0 h 0.30514 v 0 0 0 0 0 0 0 0 0 0 0 0 0 h 0.30515 v 0 0 0 0 0 0 0 0 0 0 0 0 h 0.30515 v 0 0 0 0 0 0 0 0 0 0 0 0 0 h 0.30515 v 0 0 0 0 0 0 0 0 0 0 0 0 h 0.30515 v 0 0 0 0 0 0 0 0 0 0 0 0 h 0.30516 v 0 0 0 0 0 0 0 0 0 0 0 0 0 h 0.30514 v 0 0 0 0 0 0 0 0 0 0 0 0 h 0.30514 v 0 0 0 0 0 0 0 0 0 0 0 0 0 h 0.30515 v 0 0 0 0 0 0 0 0 0 0 0 0 h 0.30516 v 0 0 0 0 0 0 0 0 0 0 0 0 0 h 0.30515 v 0 0 0 0 0 0 0 0 0 0 0 0 h 0.30515 v 0 0 0 0 0 0 0 0 0 0 0 0 h 0.30515 v 0 0 0 0 0 0 0 0 0 0 0 0 0 h 0.30515 v 0 0 0 0 0 0 0 0 0 0 0 0 h 0.30513 v 0 0 0 0 0 0 0 0 0 0 0 0 0 h 0.30515 v 0 0 0 0 0 0 0 0 0 0 0 0 h 0.30516 v 0 0 0 0 0 0 0 0 0 0 0 0 0 h 0.30515 v 0 0 0 0 0 0 0 0 0 0 0 0 h 0.30515 v 0 0 0 0 0 0 0 0 0 0 0 0 h 0.30515 v 0 0 0 0 0 0 0 0 0 0 0 0 0 h 0.30514 v 0 0 0 0 0 0 0 0 0 0 0 0 h 0.30515 v 0 0 0 0 0 0 0 0 0 0 0 0 0 h 0.30514 v 0 0 0 0 0 0 0 0 0 0 0 0 h 0.30515 v 0 0 0 0 0 0 0 0 0 0 0 0 0 h 0.30516 v 0 0 0 0 0 0 0 0 0 0 0 0 h 0.30515 v 0 0 0 0 0 0 0 0 0 0 0 0 h 0.30513 v 0 0 0 0 0 0 0 0 0 0 0 0 0 h 0.30516 v 0 0 0 0 0 0 0 0 0 0 0 0 h 0.30515 v 0 0 0 0 0 0 0 0 0 0 0 0 0 h 0.30515 v 0 0 0 0 0 0 0 0 0 0 0 0 h 0.30515 v 0 0 0 0 0 0 0 0 0 0 0 0 0 h 0.30516 v 0 0 0 0 0 0 0 0 0 0 0 0 h 0.30514 v 0 0 0 0 0 0 0 0 0 0 0 0 h 0.30513 v 0 0 0 0 0 0 0 0 0 0 0 0 0 h 0.30515 v 0 0 0 0 0 0 0 0 0 0 0 0 h 0.30516 v 0 0 0 0 0 0 0 0 0 0 0 0 0 h 0.30515 v 0 0 0 0 0 0 0 0 0 0 0 0 h 0.30515 v 0 0 0 0 0 0 0 0 0 0 0 0 0 h 0.30514 v 0 0 0 0 0 0 0 0 0 0 0 0 h 0.30515 v 0 0 0 0 0 0 0 0 0 0 0 0 h 0.30515 v 0 0 0 0 0 0 0 0 0 0 0 0 0 h 0.30515 v 0 0 0 0 0 0 0 0 0 0 0 0 h 0.30516 v 0 0 0 0 0 0 0 0 0 0 0 0 0 h 0.30515 v 0 0 0 0 0 0 0 0 0 0 0 0 h 0.30512 v 0 0 0 0 0 0 0 0 0 0 0 0 0 h 0.30515 v 0 0 0 0 0 0 0 0 0 0 0 0 h 0.30516 v 0 0 0 0 0 0 0 0 0 0 0 0 h 0.30515 v 0 0 0 0 0 0 0 0 0 0 0 0 0 h 0.30515 v 0 0 0 0 0 0 0 0 0 0 0 0 h 0.30515 v 0 0 0 0 0 0 0 0 0 0 0 0 0 h 0.30516 v 0 0 0 0 0 0 0 0 0 0 0 0 h 0.30513 v 0 0 0 0 0 0 0 0 0 0 0 0 0 h 0.30515 v 0 0 0 0 0 0 0 0 0 0 0 0 h 0.30515 v 0 0 0 0 0 0 0 0 0 0 0 0 h 0.30516 v 0 0 0 0 0 0 0 0 0 0 0 0 0 h 0.30514 v 0 0 0 0 0 0 0 0 0 0 0 0 h 0.30515 v 0 0 0 0 0 0 0 0 0 0 0 0 0 h 0.30514 v 0 0 0 0 0 0 0 0 0 0 0 0 h 0.30515 v 0 0 0 0 0 0 0 0 0 0 0 0 0 h 0.30515 v 0 0 0 0 0 0 0 0 0 0 0 0 h 0.30515 v 0 0 0 0 0 0 0 0 0 0 0 0 h 0.30516 v 0 0 0 0 0 0 0 0 0 0 0 0 0 h 0.30515 v 0 0 0 0 0 0 0 0 0 0 0 0 h 0.30513 v 0 0 0 0 0 0 0 0 0 0 0 0 0 h 0.30515 v 0 0 0 0 0 0 0 0 0 0 0 0 h 0.30516 v 0 0 0 0 0 0 0 0 0 0 0 0 0 h 0.30514 v 0 0 0 0 0 0 0 0 0 0 0 0 h 0.30515 v 0 0 0 0 0 0 0 0 0 0 0 0 h 0.30515 v 0 0 0 0 0 0 0 0 0 0 0 0 0 h 0.30515 v 0 0 0 0 0 0 0 0 0 0 0 0 h 0.30514 v 0 0 0 0 0 0 0 0 0 0 0 0 0 h 0.30515 v 0 0 0 0 0 0 0 0 0 0 0 0 h 0.30516 v 0 0 0 0 0 0 0 0 0 0 0 0 0 h 0.30515 v 0 0 0 0 0 0 0 0 0 0 0 0 h 0.30515 v 0 0 0 0 0 0 0 0 0 0 0 0 h 0.30514 v 0 0 0 0 0 0 0 0 0 0 0 0 0 h 0.30514 v 0 0 0 0 0 0 0 0 0 0 0 0 h 0.30515 v 0 0 0 0 0 0 0 0 0 0 0 0 0 h 0.30515 v 0 0 0 0 0 0 0 0 0 0 0 0 h 0.30515 v 0 0 0 0 0 0 0 0 0 0 0 0 0 h 0.30516 v 0 0 0 0 0 0 0 0 0 0 0 0 h 0.30514 v 0 0 0 0 0 0 0 0 0 0 0 0 h 0.30514 v 0 0 0 0 0 0 0 0 0 0 0 0 0 h 0.30515 v 0 0 0 0 0 0 0 0 0 0 0 0 h 0.30516 v 0 0 0 0 0 0 0 0 0 0 0 0 0 h 0.30515 v 0 0 0 0 0 0 0 0 0 0 0 0 h 0.30515 v 0 0 0 0 0 0 0 0 0 0 0 0 0 h 0.30516 v 0 0 0 0 0 0 0 0 0 0 0 0 h 0.30512 v 0 0 0 0 0 0 0 0 0 0 0 0 h 0.30515 v 0 0 0 0 0 0 0 0 0 0 0 -20.444951 0 h 0.30515 v 0 0 0 0 0 0 0 0 0 0 0 0 h 0.30516 v 0 0 0 0 0 0 0 0 0 0 0 0 0 h 0.30515 v 0 0 0 0 0 0 0 0 0 0 0 0 h 0.30515 v 0 0 0 0 0 0 0 0 0 0 0 0 0 h 0.30514 v 0 0 0 0 0 0 0 0 0 0 0 0 h 0.30515 v 0 0 0 0 0 0 0 0 0 0 0 0 h 0.30515 v 0 0 0 0 0 0 0 0 0 0 0 0 0 h 0.30515 v 0 0 0 0 0 0 0 0 0 0 0 0 h 0.30515 v 0 0 0 0 0 0 0 0 0 0 0 0 0 h 0.30515 v 0 0 0 0 0 0 0 0 0 0 0 0 h 0.30514 v 0 0 0 0 0 0 0 0 0 0 0 0 0 h 0.30514 v 0 0 0 0 0 0 0 0 0 0 0 0 h 0.30516 v 0 0 0 0 0 0 0 0 0 0 0 0 h 0.30515 v 0 0 0 0 0 0 0 0 0 0 0 0 0 h 0.30515 v 0 0 0 0 0 0 0 0 0 20.444951 0 0 h 0.30515 v 0 0 0 0 0 0 0 0 0 0 0 0 0 h 0.30515 v 0 0 0 0 0 0 0 0 0 0 0 0 h 0.30514 v 0 0 0 0 0 0 0 0 0 0 0 0 0 h 0.30515 v 0 0 0 0 0 0 0 0 0 0 0 0 h 0.30514 v 0 0 0 0 0 0 0 0 0 0 0 0 h 0.30516 v 0 0 0 0 0 0 0 0 0 0 0 0 0 h 0.30515 v 0 0 0 0 0 0 0 0 0 0 0 0 h 0.30514 v 0 0 0 0 0 0 0 0 0 0 0 0 0 h 0.30515 v 0 0 0 0 0 0 0 0 0 0 0 0 h 0.30515 v 0 0 0 0 0 0 0 0 0 0 0 0 0 h 0.30515 v 0 0 0 0 0 0 0 0 0 0 0 0 h 0.30515 v 0 0 0 0 0 0 0 -20.444951 0 0 0 0 h 0.30516 v 0 0 0 0 0 0 0 0 0 0 0 0 0 h 0.30514 v 0 0 0 0 0 0 0 0 0 0 0 0 h 0.30514 v 0 0 0 0 0 0 0 0 0 0 0 0 0 h 0.30514 v 0 0 0 0 0 0 0 0 0 0 0 0 h 0.30516 v 0 0 0 0 0 0 0 0 0 0 0 0 0 h 0.30515 v 0 0 0 0 0 0 0 0 0 0 0 0 h 0.30515 v 0 0 0 0 0 0 0 0 0 0 0 0 h 0.30515 v 0 0 0 0 0 0 0 0 0 0 0 0 0 h 0.30514 v 0 0 0 0 0 0 0 0 0 0 0 0 h 0.30515 v 0 0 0 0 0 0 0 0 0 0 0 0 0 h 0.30515 v 0 0 0 0 0 0 0 0 0 0 0 0 h 0.30515 v 0 0 0 0 0 0 0 0 0 0 0 0 0 h 0.30516 v 0 0 0 0 0 0 0 0 0 0 0 0 h 0.30515 v 0 0 0 0 0 0 0 0 0 0 0 0 h 0.30513 v 0 0 0 0 0 0 20.444951 0 0 0 0 0 0 h 0.30516 v 0 0 0 0 0 0 0 0 0 0 0 0 h 0.30515 v 0 0 0 0 0 0 0 0 0 0 0 0 0 h 0.30515 v 0 0 0 0 0 0 0 0 0 0 0 0 h 0.30514 v 0 0 0 0 0 0 0 0 0 0 0 0 0 h 0.30516 v 0 0 0 0 0 0 0 0 0 0 0 0 h 0.30514 v 0 0 0 0 0 0 0 0 0 0 0 0 h 0.30515 v 0 0 0 0 0 0 0 0 0 0 0 0 0 h 0.30515 v 0 0 0 0 0 0 0 0 0 0 0 0 h 0.30516 v 0 0 0 0 0 0 0 0 0 0 0 0 0 h 0.30515 v 0 0 0 0 0 0 0 0 0 0 0 0 h 0.30512 v 0 0 0 0 0 0 0 0 0 0 0 0 0 h 0.30514 v 0 0 0 0 0 0 0 0 0 0 0 0 h 0.30516 v 0 0 0 0 0 0 0 0 0 0 0 0 h 0.30515 v 0 0 0 0 0 0 0 0 0 0 0 0 0 h 0.30515 v 0 0 0 0 0 0 0 0 0 0 0 0 h 0.30515 v 0 0 0 0 0 0 0 0 0 0 0 0 0 h 0.30515 v 0 0 0 0 0 0 0 0 0 0 0 0 h 0.30514 v 0 0 0 0 0 0 0 0 0 0 0 0 0 h 0.30515 v 0 0 0 0 0 0 0 0 0 0 0 0 h 0.30516 v 0 0 0 0 0 0 0 0 0 0 0 0 h 0.30515 v 0 0 0 0 0 0 0 0 0 0 0 0 0 h 0.30514 v 0 0 0 0 0 0 0 0 0 0 0 0 h 0.30515 v 0 0 0 0 0 0 0 0 0 0 0 0 0 h 0.30515 v 0 0 0 0 0 0 0 0 0 0 0 0 h 0.30514 v 0 0 0 0 0 0 0 0 0 0 0 0 0 h 0.30515 v 0 0 0 0 0 0 0 0 0 0 0 0 h 0.30515 v 0 0 0 0 0 0 0 0 0 0 0 0 h 0.30516 v 0 0 0 0 0 0 0 0 0 0 0 0 0 h 0.30515 v 0 0 0 0 0 0 0 0 0 0 0 0 h 0.30515 v 0 0 0 0 0 0 0 0 0 0 0 0 0 h 0.30515 v 0 0 0 0 0 0 0 0 0 0 0 0 h 0.30515 v 0 0 0 0 0 0 0 0 0 0 0 0 0 h 0.30512 v 0 0 0 0 0 0 0 0 0 0 0 0 h 0.30515 v 0 0 0 0 0 0 0 0 0 0 0 0 h 0.30516 v 0 0 0 0 0 0 0 0 0 0 0 0 0 h 0.30515 v 0 0 0 0 0 0 0 0 0 0 0 0 h 0.30513 v 0 0 0 0 0 0 0 0 0 0 0 0 0 h 0.30515 v 0 0 0 0 0 0 0 0 0 0 0 0 h 0.30516 v 0 0 0 0 0 0 0 0 0 0 0 0 0 h 0.30515 v 0 0 0 0 0 0 0 0 0 0 0 0 h 0.30515 v 0 0 0 0 0 0 0 0 0 0 0 0 h 0.30515 v 0 0 0 0 0 0 0 0 0 0 0 0 0 h 0.30514 v 0 0 0 0 0 0 0 0 0 0 0 0 h 0.30515 v 0 0 0 0 0 0 0 0 0 0 0 -20.444951 0 h 0.30514 v 0 0 0 0 0 0 0 0 0 0 0 0 h 0.30516 v 0 0 0 0 0 0 0 0 0 0 0 0 0 h 0.30515 v 0 0 0 0 0 0 0 0 0 0 0 0 h 0.30515 v 0 0 0 0 0 0 0 0 0 0 0 0 h 0.30514 v 0 0 0 0 0 0 0 0 0 0 0 0 0 h 0.30516 v 0 0 0 0 0 0 0 0 0 0 0 0 h 0.30515 v 0 0 0 0 0 0 0 0 0 0 0 0 0 h 0.30515 v 0 0 0 0 0 0 0 0 0 0 0 0 h 0.30515 v 0 0 0 0 0 0 0 0 0 0 0 0 0 h 0.30514 v 0 0 0 0 0 0 0 0 0 0 0 0 h 0.30514 v 0 0 0 0 0 0 0 0 0 0 0 0 h 0.30515 v 0 0 0 0 0 0 0 0 0 0 0 0 0 h 0.30515 v 0 0 0 0 0 0 0 0 0 0 0 0 h 0.30516 v 0 0 0 0 0 0 0 0 0 0 0 0 0 h 0.30515 v 0 0 0 0 0 0 0 0 0 20.444951 0 0 h 0.30515 v 0 0 0 0 0 0 0 0 0 0 0 0 0 h 0.30515 v 0 0 0 0 0 0 0 0 0 0 0 0 h 0.30514 v 0 0 0 0 0 0 0 0 0 0 0 0 h 0.30515 v 0 0 0 0 0 0 0 0 0 0 0 0 0 h 0.30515 v 0 0 0 0 0 0 0 0 0 0 0 0 h 0.30515 v 0 0 0 0 0 0 0 0 0 0 0 0 0 h 0.30515 v 0 0 0 0 0 0 0 0 0 0 0 0 h 0.30515 v 0 0 0 0 0 0 0 0 0 0 0 0 0 h 0.30514 v 0 0 0 0 0 0 0 0 0 0 0 0 h 0.30516 v 0 0 0 0 0 0 0 0 0 0 0 0 h 0.30513 v 0 0 0 0 0 0 0 0 0 0 0 0 0 h 0.30515 v 0 0 0 0 0 0"
       id="path38" />
    <text
       xml:space="preserve"
       style="font-style:normal;font-variant:normal;font-weight:400;font-size:3.80837px;line-height:125%;font-family:Arial;text-align:start;letter-spacing:0px;word-spacing:0px;text-anchor:start;fill:#000000;fill-opacity:1;stroke:none;stroke-width:0.451044"
       transform="rotate(-90)"
       x="-80.057892"
       y="4.0991149"
       id="text39"><tspan
         sodipodi:role="line"
         x="-80.057892"
         y="4.0991149"
         id="tspan39"
         style="font-size:3.80837px;stroke-width:0.451044"><tspan
           dx="0"
           dy="0"
           style="font-style:normal;font-variant:normal;font-weight:400;font-size:3.80837px;font-family:Arial;fill:#000000;stroke-width:0.451044"
           id="tspan38">Breakpoints per 200 nt window</tspan></tspan></text>
    <path
       style="fill:none;stroke:#c6c6c6;stroke-width:0.295714px;stroke-linecap:round;stroke-linejoin:round;stroke-miterlimit:4;stroke-dasharray:none;stroke-opacity:1"
       d="m 179.52553,26.304424 h 3.0543"
       id="path23" />
    <text
       xml:space="preserve"
       style="font-size:6.08352px;display:inline;opacity:0.5;fill:#666666;fill-opacity:1;stroke:#7fbfaa;stroke-width:0.354872;stroke-linecap:butt;stroke-linejoin:round;stroke-dasharray:none;stroke-opacity:0;paint-order:normal"
       x="148.04993"
       y="11.771424"
       id="text429-9-0-0"
       inkscape:label="text_orf2"
       transform="scale(0.98917251,1.010946)"><tspan
         sodipodi:role="line"
         id="tspan429-6-8-1"
         style="font-style:normal;font-variant:normal;font-weight:normal;font-stretch:normal;font-size:6.08352px;font-family:Tahoma;-inkscape-font-specification:Tahoma;fill:#666666;fill-opacity:1;stroke:#7fbfaa;stroke-width:0.354872"
         x="148.04993"
         y="11.771424">ORF2</tspan></text>
    <rect
       style="display:inline;fill:#008056;fill-opacity:0.501961;stroke-width:0.603375;stroke-linecap:butt;stroke-linejoin:round;image-rendering:auto"
       id="rect318-1-0-9-2-8-3-9-0-1"
       width="0.21560034"
       height="84.899055"
       x="18.829561"
       y="3.5384262"
       inkscape:label="orf1a_beg" />
    <rect
       style="display:inline;fill:#008056;fill-opacity:0.501961;stroke-width:0.603399;stroke-linecap:butt;stroke-linejoin:round;image-rendering:auto"
       id="rect318-1-0-9-2-8-3-9-0-1-4"
       width="0.21560034"
       height="84.905708"
       x="81.827843"
       y="3.5345101"
       inkscape:label="orf1a_beg" />
    <rect
       style="display:inline;fill:#004280;fill-opacity:0.501961;stroke-width:0.603437;stroke-linecap:butt;stroke-linejoin:round;image-rendering:auto"
       id="rect318-1-0-9-2-8-3-9-0-1-4-5"
       width="0.21560034"
       height="84.916519"
       x="82.046532"
       y="3.5424123"
       inkscape:label="orf1a_beg" />
    <rect
       style="display:inline;fill:#004280;fill-opacity:0.501961;stroke-width:0.603286;stroke-linecap:butt;stroke-linejoin:round;image-rendering:auto"
       id="rect318-1-0-9-2-8-3-9-0-1-4-5-9"
       width="0.21560034"
       height="84.873924"
       x="117.76032"
       y="3.5587475"
       inkscape:label="orf1a_beg" />
    <rect
       style="display:inline;fill:#800026;fill-opacity:0.501961;stroke-width:0.60329;stroke-linecap:butt;stroke-linejoin:round;image-rendering:auto"
       id="rect318-1-0-9-2-8-3-9-0-1-4-5-9-9"
       width="0.21560034"
       height="84.875191"
       x="117.97942"
       y="3.5645046"
       inkscape:label="orf1a_beg" />
    <rect
       style="display:inline;fill:#800026;fill-opacity:0.501961;stroke-width:0.60329;stroke-linecap:butt;stroke-linejoin:round;image-rendering:auto"
       id="rect318-1-0-9-2-8-3-9-0-1-4-5-9-9-3"
       width="0.21560034"
       height="84.875191"
       x="135.85168"
       y="3.5539882"
       inkscape:label="orf1a_beg" />
    <rect
       style="display:inline;fill:#800026;fill-opacity:0.501961;stroke-width:0.60329;stroke-linecap:butt;stroke-linejoin:round;image-rendering:auto"
       id="rect318-1-0-9-2-8-3-9-0-1-4-5-9-9-3-7"
       width="0.21560034"
       height="84.875191"
       x="171.41856"
       y="3.5589488"
       inkscape:label="orf1a_beg" />
    <text
       xml:space="preserve"
       style="font-size:3.71774px;display:inline;opacity:0.89;fill:#000000;fill-opacity:1;stroke:#7fbfaa;stroke-width:0.354872;stroke-linecap:butt;stroke-linejoin:round;stroke-dasharray:none;stroke-opacity:0;paint-order:normal"
       x="124.30235"
       y="10.854009"
       id="text429-9-0-8-0"
       inkscape:label="text_vp34"
       transform="scale(0.98917251,1.010946)"><tspan
         sodipodi:role="line"
         id="tspan429-6-8-3-6"
         style="font-style:normal;font-variant:normal;font-weight:normal;font-stretch:normal;font-size:3.71774px;font-family:Tahoma;-inkscape-font-specification:Tahoma;fill:#000000;fill-opacity:1;stroke:#7fbfaa;stroke-width:0.354872"
         x="124.30235"
         y="10.854009">VP34</tspan></text>
    <rect
       style="display:inline;opacity:0.649533;fill:#8f485e;fill-opacity:1;stroke:#008000;stroke-width:0.179797;stroke-linecap:butt;stroke-linejoin:round;stroke-dasharray:none;stroke-opacity:0;paint-order:normal"
       id="rect428-8-8-1"
       width="18.158274"
       height="12.181646"
       x="117.91278"
       y="3.5485673"
       inkscape:label="orf2_мз34" />
    <text
       xml:space="preserve"
       style="font-size:6.08352px;display:inline;opacity:0.5;fill:#666666;fill-opacity:1;stroke:#7fbfaa;stroke-width:0.354872;stroke-linecap:butt;stroke-linejoin:round;stroke-dasharray:none;stroke-opacity:0;paint-order:normal"
       x="42.143322"
       y="11.610711"
       id="text429-9"
       inkscape:label="text_orf1b"
       transform="scale(0.98917251,1.010946)"><tspan
         sodipodi:role="line"
         id="tspan429-6"
         style="font-style:normal;font-variant:normal;font-weight:normal;font-stretch:normal;font-size:6.08352px;font-family:Tahoma;-inkscape-font-specification:Tahoma;fill:#666666;fill-opacity:1;stroke:#7fbfaa;stroke-width:0.354872"
         x="42.143322"
         y="11.610711">ORF1a</tspan></text>
    <rect
       style="display:inline;opacity:0.5;fill:#008055;fill-opacity:1;stroke:#008000;stroke-width:0.336441;stroke-linecap:butt;stroke-linejoin:round;stroke-dasharray:none;stroke-opacity:0;paint-order:normal"
       id="rect428"
       width="63.447433"
       height="12.207877"
       x="18.819715"
       y="3.5251884"
       inkscape:label="orf1a" />
    <text
       xml:space="preserve"
       style="font-size:6.08352px;display:inline;opacity:0.5;fill:#666666;fill-opacity:1;stroke:#7fbfaa;stroke-width:0.354872;stroke-linecap:butt;stroke-linejoin:round;stroke-dasharray:none;stroke-opacity:0;paint-order:normal"
       x="91.939041"
       y="11.738992"
       id="text429-9-0"
       inkscape:label="text_orf1b"
       transform="scale(0.98917251,1.010946)"><tspan
         sodipodi:role="line"
         id="tspan429-6-8"
         style="font-style:normal;font-variant:normal;font-weight:normal;font-stretch:normal;font-size:6.08352px;font-family:Tahoma;-inkscape-font-specification:Tahoma;fill:#666666;fill-opacity:1;stroke:#7fbfaa;stroke-width:0.354872"
         x="91.939041"
         y="11.738992">ORF1b</tspan></text>
    <rect
       style="display:inline;opacity:0.5;fill:#004180;fill-opacity:1;stroke:#008000;stroke-width:0.254662;stroke-linecap:butt;stroke-linejoin:round;stroke-dasharray:none;stroke-opacity:0;paint-order:normal"
       id="rect428-8"
       width="36.380207"
       height="12.198599"
       x="81.825508"
       y="3.5378621"
       inkscape:label="orf1b" />
    <rect
       style="display:inline;opacity:0.5;fill:#800025;fill-opacity:1;stroke:#008000;stroke-width:0.3099;stroke-linecap:butt;stroke-linejoin:round;stroke-dasharray:none;stroke-opacity:0;paint-order:normal"
       id="rect428-8-8"
       width="53.874599"
       height="12.198628"
       x="117.75961"
       y="3.5441771"
       inkscape:label="orf2" />
    <text
       xml:space="preserve"
       style="font-style:normal;font-variant:normal;font-weight:400;font-size:2.82222px;line-height:125%;font-family:Arial;text-align:start;letter-spacing:0px;word-spacing:0px;text-anchor:start;fill:#004280;fill-opacity:0.501961;stroke:none;stroke-width:0.451095"
       x="83.086777"
       y="91.407822"
       id="text4-8"><tspan
         sodipodi:role="line"
         x="83.086777"
         y="91.407822"
         id="tspan4-5"
         style="font-weight:bold;font-size:2.82222px;fill:#004280;fill-opacity:0.501961;stroke-width:0.451095">2767</tspan></text>
    <text
       xml:space="preserve"
       style="font-style:normal;font-variant:normal;font-weight:400;font-size:2.82222px;line-height:125%;font-family:Arial;text-align:start;letter-spacing:0px;word-spacing:0px;text-anchor:start;fill:#004280;fill-opacity:0.501961;stroke:none;stroke-width:0.451095"
       x="111.04501"
       y="91.330414"
       id="text4-8-6"><tspan
         sodipodi:role="line"
         x="111.04501"
         y="91.330414"
         id="tspan4-5-01"
         style="font-weight:bold;font-size:2.82222px;fill:#004280;fill-opacity:0.501961;stroke-width:0.451095">4314</tspan></text>
    <text
       xml:space="preserve"
       style="font-style:normal;font-variant:normal;font-weight:400;font-size:2.82222px;line-height:125%;font-family:Arial;text-align:start;letter-spacing:0px;word-spacing:0px;text-anchor:start;fill:#800026;fill-opacity:0.501961;stroke:none;stroke-width:0.451095"
       x="118.77414"
       y="91.291664"
       id="text4-8-6-3"><tspan
         sodipodi:role="line"
         x="118.77414"
         y="91.291664"
         id="tspan4-5-01-9"
         style="font-weight:bold;font-size:2.82222px;fill:#800026;fill-opacity:0.501961;stroke-width:0.451095">4315</tspan></text>
    <text
       xml:space="preserve"
       style="font-style:normal;font-variant:normal;font-weight:400;font-size:2.82222px;line-height:125%;font-family:Arial;text-align:start;letter-spacing:0px;word-spacing:0px;text-anchor:start;fill:#800026;fill-opacity:0.501961;stroke:none;stroke-width:0.451095"
       x="138.35316"
       y="91.314995"
       id="text4-8-6-3-8"><tspan
         sodipodi:role="line"
         x="138.35316"
         y="91.314995"
         id="tspan4-5-01-9-2"
         style="font-weight:bold;font-size:2.82222px;fill:#800026;fill-opacity:0.501961;stroke-width:0.451095">5243</tspan></text>
    <text
       xml:space="preserve"
       style="font-style:normal;font-variant:normal;font-weight:400;font-size:2.82222px;line-height:125%;font-family:Arial;text-align:start;letter-spacing:0px;word-spacing:0px;text-anchor:start;fill:#008056;fill-opacity:0.501961;stroke:none;stroke-width:0.451095"
       x="74.742531"
       y="91.402573"
       id="text4-8-3"><tspan
         sodipodi:role="line"
         x="74.742531"
         y="91.402573"
         id="tspan4-5-0"
         style="font-weight:bold;font-size:2.82222px;fill:#008056;fill-opacity:0.501961;stroke-width:0.451095">2766</tspan></text>
  </g>
</svg>
