<?xml version="1.0" encoding="UTF-8" standalone="no"?>
<!-- Created with Inkscape (http://www.inkscape.org/) -->

<svg
   width="180mm"
   height="105mm"
   viewBox="0 0 180 105"
   version="1.1"
   id="svg1"
   inkscape:version="1.3.2 (091e20e, 2023-11-25, custom)"
   sodipodi:docname="brkpnt.svg"
   xmlns:inkscape="http://www.inkscape.org/namespaces/inkscape"
   xmlns:sodipodi="http://sodipodi.sourceforge.net/DTD/sodipodi-0.dtd"
   xmlns="http://www.w3.org/2000/svg"
   xmlns:svg="http://www.w3.org/2000/svg">
  <sodipodi:namedview
     id="namedview1"
     pagecolor="#ffffff"
     bordercolor="#000000"
     borderopacity="0.25"
     inkscape:showpageshadow="2"
     inkscape:pageopacity="0.0"
     inkscape:pagecheckerboard="0"
     inkscape:deskcolor="#d1d1d1"
     inkscape:document-units="mm"
     inkscape:zoom="1.6934021"
     inkscape:cx="360.51686"
     inkscape:cy="203.43662"
     inkscape:window-width="1920"
     inkscape:window-height="991"
     inkscape:window-x="-9"
     inkscape:window-y="-9"
     inkscape:window-maximized="1"
     inkscape:current-layer="layer1" />
  <defs
     id="defs1">
    <pattern
       id="EMFhbasepattern"
       patternUnits="userSpaceOnUse"
       width="6"
       height="6"
       x="0"
       y="0" />
    <pattern
       id="EMFhbasepattern-9"
       patternUnits="userSpaceOnUse"
       width="6"
       height="6"
       x="0"
       y="0" />
  </defs>
  <g
     inkscape:label="Слой 1"
     inkscape:groupmode="layer"
     id="layer1">
    <path
       style="fill:#c6c6c6;fill-opacity:1;fill-rule:evenodd;stroke:#c6c6c6;stroke-width:0.305182px;stroke-linecap:round;stroke-linejoin:round;stroke-miterlimit:4;stroke-dasharray:none;stroke-opacity:1"
       d="m 19.517385,65.219609 h 0.305182 0.305177 0.305182 0.305182 0.305177 0.305182 0.305182 0.305177 0.305182 0.305181 0.305178 V 55.148601 h 0.305182 0.305182 0.305177 0.305181 0.305183 0.305177 0.305182 0.305182 0.305176 0.305183 0.305182 0.305177 0.305182 0.305182 0.305177 0.305182 0.305177 0.305182 0.305182 0.305177 0.305182 0.305182 0.305177 0.305182 V 45.077594 55.148601 l 0.305182,-10.071007 h 0.305177 0.305182 0.305183 0.305176 0.305182 0.305182 0.305177 0.305183 0.305181 0.305177 0.305182 0.305182 v 10.071007 h 0.305178 0.305181 l 0.305182,-10.071007 v 10.071007 h 0.305177 0.305182 0.305182 0.305177 0.305182 V 45.077594 55.148601 h 0.305182 L 37.217841,45.077594 V 55.148601 45.077594 h 0.305182 v 10.071007 h 0.305183 0.305176 V 45.077594 h 0.305182 0.305183 0.305176 0.305183 v 10.071007 h 0.305181 0.305177 V 45.077594 55.148601 h 0.305183 V 45.077594 h 0.305181 0.305178 0.305181 v 10.071007 l 0.305182,-10.071007 v 10.071007 h 0.305178 0.305181 0.305182 0.305177 0.305182 0.305182 0.305177 0.305182 0.305183 0.305176 0.305182 0.305183 0.305176 0.305183 0.305182 0.305176 0.305183 0.305181 0.305178 0.305182 0.305181 0.305178 0.305181 0.305178 0.305182 0.305181 0.305178 0.305181 0.305182 0.305178 0.305181 0.305182 0.305177 0.305182 0.305183 0.305176 0.305182 0.305183 0.305176 0.305183 0.305182 0.305176 0.305183 0.305182 0.305177 0.305182 0.305181 0.305178 0.305182 0.305181 0.305178 0.305181 0.305182 0.305178 0.305181 0.305183 0.305176 0.305182 V 45.077594 h 0.305183 0.305176 0.305183 0.305182 0.305176 0.305183 0.305182 0.305177 0.305182 0.305182 0.305177 0.305182 0.305181 0.305178 0.305182 v 10.071007 h 0.305182 0.305177 0.305181 0.305183 0.305177 0.305182 0.305182 0.305176 0.305183 0.305182 0.305177 0.305182 0.305182 0.305177 0.305182 V 65.219609 55.148601 65.219609 h 0.305176 0.305183 0.305182 0.305177 V 55.148601 h 0.305182 0.305182 0.305177 0.305182 0.305182 0.305177 0.305182 0.305182 0.305177 0.305182 0.305182 0.305177 0.305182 0.305182 0.305177 0.305182 0.305182 0.305177 0.305182 0.305182 0.305177 0.305182 0.305182 0.305177 V 65.219609 55.148601 65.219609 h 0.305182 V 55.148601 h 0.305182 0.305177 0.305182 0.305183 0.305176 0.305182 0.305182 0.305177 0.305183 0.305181 0.305177 0.305182 0.305182 0.305178 0.305181 0.305182 0.305177 0.305182 0.305182 l 0.305177,10.071008 V 55.148601 h 0.305182 0.305182 0.305177 0.305182 0.305183 0.305176 0.305182 0.305183 0.305176 0.305183 0.305181 0.305177 0.305183 0.305181 0.305178 0.305181 0.305182 0.305178 0.305181 0.305178 0.305181 0.305182 0.305178 0.305181 0.305182 0.305177 0.305182 0.305182 0.305177 0.305182 0.305183 0.305176 0.305182 0.305183 0.305176 v 10.071008 l 0.305183,-10.071008 h 0.305182 v 10.071008 h 0.305176 0.305183 0.305181 V 55.148601 h 0.305178 0.305182 0.305181 0.305179 0.305184 0.30518 0.305177 0.305167 0.30519 0.305167 0.30518 0.305187 0.305177 0.30519 0.305167 0.30519 0.30517 0.30519 0.30517 0.30519 0.30518 0.30517 0.30519 0.30518 0.30518 0.30518 0.30518 0.30518 0.30518 0.30518 0.30518 0.30518 0.30518 0.30518 0.30518 0.30517 0.30519 0.30517 0.30519 0.30517 0.30519 0.30518 0.30518 0.30518 0.30519 0.30517 0.30519 0.30517 0.30518 0.30518 0.30518 0.30518 0.30518 0.30518 0.30518 0.30519 0.30517 0.30519 0.30517 0.30519 0.30517 0.30518 0.30518 0.30518 0.30519 0.30517 0.30519 0.30518 V 65.219609 55.148601 h 0.30518 0.30518 0.30518 0.30518 0.30518 0.30518 0.30517 0.30519 0.30518 0.30518 0.30518 0.30518 0.30518 0.30518 0.30518 0.30518 0.30518 0.30519 0.30517 0.30518 0.30519 0.30517 0.30519 0.30517 0.30519 0.30517 0.30519 0.30517 0.30519 0.30518 0.30518 0.30518 0.30517 0.30519 0.30517 0.30519 0.30517 0.30519 0.30518 0.30518 0.30518 0.30519 0.30517 0.30519 0.30517 V 45.077594 55.148601 h 0.30519 V 45.077594 H 130.603 V 55.148601 45.077594 l 0.30518,10.071007 h 0.30518 V 45.077594 h 0.30518 0.30518 0.30518 0.30519 0.30517 0.30519 0.30517 0.30519 0.30517 0.30519 0.30517 0.30518 V 55.148601 45.077594 h 0.30519 0.30517 0.30519 0.30518 0.30518 0.30518 0.30518 0.30518 0.30518 0.30518 0.30517 0.30519 0.30518 0.30518 0.30518 0.30518 0.30518 0.30518 0.30518 0.30518 0.30518 0.30519 0.30517 v 10.071007 h 0.30519 0.30518 0.30517 0.30519 0.30517 0.30519 V 45.077594 55.148601 h 0.30517 V 45.077594 55.148601 45.077594 h 0.30519 v 10.071007 h 0.30517 0.30519 l 0.30518,-10.071007 h 0.30518 0.30518 0.30518 0.30518 0.30517 0.30519 v -10.37619 h 0.30517 v 10.37619 h 0.30519 0.30518 0.30518 0.30518 0.30519 0.30517 0.30519 v -10.37619 10.37619 l 0.30517,-10.37619 h 0.30519 0.30517 0.30518 0.30518 0.30518 0.30518 0.30518 0.30519 0.30517 0.30519 0.30517 0.30519 v 10.37619 -10.37619 h 0.30517 0.30519 0.30518 v 10.37619 h 0.30519 0.30517 v -10.37619 10.37619 -10.37619 h 0.30518 0.30519 v 10.37619 -10.37619 10.37619 -10.37619 h 0.30518 v 10.37619 -10.37619 h 0.30518 v 10.37619 h 0.30518 0.30519 0.30517 0.30519 0.30518 0.30519 0.30517 0.30519 0.30518 0.30519 0.30517 0.30519 0.30518 0.30518 v -10.37619 10.37619 -10.37619 10.37619 h 0.30518 v -10.37619 10.37619 -10.37619 10.37619 h 0.30519 0.30518 0.30517 0.30519 0.30518 0.30519 v -10.37619 10.37619 h 0.30517 v -10.37619 10.37619 -10.37619 h 0.30519 v 10.37619 -10.37619 10.37619 h 0.30518 0.30518 v -10.37619 h 0.30518 0.30519 0.30518 v 10.37619 h 0.30518 0.30518 0.30519 0.30518 0.30518 0.30518 0.30519 0.30518 0.30517 0.30519 0.30518 0.30518 v 10.071007 h 0.30518 0.30519 0.30518 0.30518 0.30518 0.30519 v 10.071008 h 0.30518 0.30518 0.30518 0.30519 0.30517 v 20.447136 h -0.30517 -0.30519 -0.30518 -0.30518 -0.30518 -0.30519 -0.30518 -0.30518 -0.30518 -0.30519 -0.30518 -0.30518 -0.30518 -0.30519 -0.30517 -0.30518 -0.30519 -0.30518 -0.30518 -0.30518 -0.30519 -0.30518 -0.30518 -0.30518 -0.30519 -0.30518 -0.30518 -0.30518 -0.30519 -0.30517 -0.30519 -0.30518 -0.30519 -0.30517 -0.30518 -0.30519 -0.30518 -0.30518 -0.30518 -0.30519 -0.30517 -0.30519 -0.30518 -0.30519 -0.30517 -0.30519 -0.30518 -0.30519 -0.30517 -0.30519 -0.30518 -0.30518 -0.30518 -0.30519 -0.30518 -0.30517 -0.30519 -0.30518 -0.30519 -0.30517 -0.30519 -0.30517 -0.30519 -0.30517 -0.30519 -0.30518 -0.30518 -0.30518 -0.30518 -0.30518 -0.30517 -0.30519 -0.30517 -0.30519 -0.30517 -0.30519 -0.30518 -0.30518 -0.30518 -0.30519 -0.30517 -0.30519 -0.30517 -0.30518 -0.30518 -0.30518 -0.30518 -0.30518 -0.30519 -0.30517 -0.30519 -0.30517 -0.30519 -0.30517 -0.30519 -0.30517 -0.30518 -0.30519 -0.30517 -0.30519 -0.30518 -0.30518 -0.30518 -0.30518 -0.30518 -0.30518 -0.30518 -0.30518 -0.30518 -0.30519 -0.30517 -0.30518 -0.30518 -0.30518 -0.30518 -0.30518 -0.30518 -0.30518 -0.30519 -0.30517 -0.30519 -0.30518 -0.30517 -0.30519 -0.30517 -0.30519 -0.30517 -0.30519 -0.30517 -0.30519 -0.30518 -0.30518 -0.30518 -0.30518 -0.30518 -0.30517 -0.30519 -0.30517 -0.30519 -0.30517 -0.30519 -0.30518 -0.30518 -0.30518 -0.30519 -0.30517 -0.30519 -0.30517 -0.30519 -0.30517 -0.30518 -0.30518 -0.30518 -0.30519 -0.30517 -0.30519 -0.30517 -0.30519 -0.30517 -0.30519 -0.30517 -0.30519 -0.30518 -0.30517 -0.30519 -0.30518 -0.30518 -0.30518 -0.30518 -0.30518 -0.30518 -0.30518 -0.30518 -0.30518 -0.30519 -0.30517 -0.30518 -0.30518 -0.30518 -0.30518 -0.30518 -0.30518 -0.30518 -0.30519 -0.30517 -0.30519 -0.30518 -0.30518 -0.30518 -0.30517 -0.30519 -0.30517 -0.30519 -0.30517 -0.30519 -0.30518 -0.30518 -0.30518 -0.30518 -0.30518 -0.30518 -0.30518 -0.30517 -0.30519 -0.30517 -0.30519 -0.30518 -0.30518 -0.30518 -0.30519 -0.30517 -0.30519 -0.30517 -0.30519 -0.30517 -0.30518 -0.30518 -0.30518 -0.30518 -0.30518 -0.30518 -0.30518 -0.30518 -0.30518 -0.30518 -0.30518 -0.30518 -0.30519 -0.30517 -0.30518 -0.30519 -0.30517 -0.30519 -0.30517 -0.30519 -0.305167 -0.30519 -0.305177 -0.305187 -0.30518 -0.305167 -0.30519 -0.305167 -0.305177 -0.30518 H 96.728004 96.422825 96.117644 95.812462 95.507284 95.202103 94.89692 94.591744 94.286562 93.981379 93.676203 93.37102 93.065838 92.760662 92.455479 92.150297 91.84512 91.539938 91.234756 90.929579 90.624397 90.319216 90.014038 89.708856 89.403675 89.098497 88.793316 88.488138 88.182956 87.877775 87.572597 87.267416 86.962233 86.657056 86.351875 86.046692 85.741516 85.436333 85.131151 84.825975 84.520792 84.21561 83.910433 83.605251 83.300069 82.994892 82.68971 82.384528 82.079351 81.774169 81.468988 81.16381 80.858628 80.553446 80.248269 79.943088 79.637905 79.332728 79.027546 78.722364 78.417188 78.112005 77.806823 77.501646 77.196464 76.891282 76.586105 76.280923 75.975741 75.670564 75.365382 75.0602 74.755023 74.449841 74.144659 73.839482 73.5343 73.229118 72.923941 72.618759 72.313577 72.0084 71.703218 71.398036 71.092859 70.787677 70.482495 70.177318 69.872136 69.566954 69.261777 68.956595 68.651412 68.346236 68.041054 67.735877 67.430695 67.125513 66.820336 66.515154 66.209971 65.904795 65.599613 65.294431 64.989254 64.684071 64.37889 64.073713 63.768531 63.463349 63.158171 62.85299 62.547808 62.242631 61.937449 61.632267 61.32709 61.021908 60.716725 60.411549 60.106367 59.801184 59.496008 59.190825 58.885643 58.580467 58.275284 57.970103 57.664925 57.359743 57.054562 56.749384 56.444203 56.139021 55.833843 55.528662 55.22348 54.918303 54.613121 54.307938 54.002762 53.69758 53.392397 53.087221 52.782038 52.476856 52.17168 51.866497 51.561315 51.256138 50.950956 50.645775 50.340597 50.035415 49.730234 49.425056 49.119875 48.814693 48.509515 48.204334 47.899156 47.593975 47.288793 46.983615 46.678434 46.373251 46.068075 45.762893 45.45771 45.152534 44.847351 44.542169 44.236993 43.93181 43.626628 43.321451 43.016269 42.711087 42.40591 42.100728 41.795547 41.490369 41.185187 40.880006 40.574828 40.269647 39.964464 39.659287 39.354106 39.048923 38.743747 38.438564 38.133382 37.828206 37.523023 37.217841 36.912664 36.607482 36.3023 35.997123 35.691941 35.386759 35.081582 34.7764 34.471219 34.166041 33.860859 33.555677 33.2505 32.945319 32.640136 32.334959 32.029777 31.724595 31.419419 31.114236 30.809054 30.503877 30.198695 29.893513 29.588336 29.283154 28.977972 28.672795 28.367613 28.062431 27.757254 27.452072 27.146895 26.841713 26.536531 26.231354 25.926172 25.620989 25.315813 25.010631 24.705449 24.400272 24.095089 23.789908 23.484731 23.179549 22.874367 22.569189 22.264008 21.958826 21.653649 21.348467 21.043285 20.738108 20.432926 20.127744 19.822567 19.517385 19.212202 Z"
       id="path36" />
    <path
       style="fill:none;stroke:#c6c6c6;stroke-width:0.295714px;stroke-linecap:round;stroke-linejoin:round;stroke-miterlimit:4;stroke-dasharray:none;stroke-opacity:1"
       d="m 179.52553,26.304424 h 3.0543"
       id="path23" />
    <text
       xml:space="preserve"
       style="font-size:6.08352px;display:inline;opacity:0.5;fill:#666666;fill-opacity:1;stroke:#7fbfaa;stroke-width:0.354872;stroke-linecap:butt;stroke-linejoin:round;stroke-dasharray:none;stroke-opacity:0;paint-order:normal"
       x="148.04993"
       y="11.771424"
       id="text429-9-0-0"
       inkscape:label="text_orf2"
       transform="scale(0.98917251,1.010946)"><tspan
         sodipodi:role="line"
         id="tspan429-6-8-1"
         style="font-style:normal;font-variant:normal;font-weight:normal;font-stretch:normal;font-size:6.08352px;font-family:Tahoma;-inkscape-font-specification:Tahoma;fill:#666666;fill-opacity:1;stroke:#7fbfaa;stroke-width:0.354872"
         x="148.04993"
         y="11.771424">ORF2</tspan></text>
    <path
       style="fill:#808080;fill-opacity:1;fill-rule:evenodd;stroke:#808080;stroke-width:0.305182px;stroke-linecap:round;stroke-linejoin:round;stroke-miterlimit:4;stroke-dasharray:none;stroke-opacity:1"
       d="m 19.238904,75.212569 h 0.305182 0.305177 0.305182 0.305182 0.305177 0.305182 0.305182 0.305177 0.305182 0.305181 V 64.836385 h 0.305178 0.305182 0.305182 0.305177 0.305181 0.305183 0.305177 0.305182 0.305182 0.305176 0.305183 0.305182 0.305177 0.305182 0.305182 0.305177 0.305182 0.305177 0.305182 0.305182 0.305177 0.305182 0.305182 V 54.765377 h 0.305177 V 64.836385 54.765377 64.836385 h 0.305182 V 54.765377 64.836385 h 0.305182 V 54.765377 64.836385 54.765377 64.836385 h 0.305177 V 54.765377 64.836385 h 0.305182 V 54.765377 64.836385 l 0.305183,-10.071008 h 0.305176 0.305182 0.305182 0.305177 0.305183 0.305181 0.305177 0.305182 0.305182 0.305178 0.305181 0.305182 0.305177 0.305182 0.305182 0.305177 0.305182 0.305182 V 64.836385 L 36.93936,54.765377 V 64.836385 54.765377 64.836385 54.765377 h 0.305182 0.305183 0.305176 0.305182 0.305183 0.305176 v 10.071008 h 0.305183 V 54.765377 h 0.305181 0.305177 0.305183 V 64.836385 54.765377 h 0.305181 v 10.071008 h 0.305178 0.305181 V 54.765377 h 0.305182 0.305178 0.305181 V 64.836385 54.765377 64.836385 h 0.305182 V 54.765377 64.836385 h 0.305177 0.305182 0.305182 0.305177 0.305182 0.305183 0.305176 0.305182 0.305183 0.305176 0.305183 0.305182 0.305176 0.305183 0.305181 0.305178 0.305182 0.305181 0.305178 0.305181 0.305178 0.305182 0.305181 0.305178 0.305181 0.305182 0.305178 0.305181 0.305182 0.305177 0.305182 0.305183 0.305176 0.305182 0.305183 0.305176 0.305183 0.305182 0.305176 0.305183 0.305182 0.305177 0.305182 0.305181 0.305178 V 54.765377 64.836385 54.765377 h 0.305182 v 10.071008 h 0.305181 0.305178 0.305181 0.305182 0.305178 0.305181 0.305183 0.305176 0.305182 0.305183 V 54.765377 64.836385 h 0.305176 V 54.765377 h 0.305183 0.305182 0.305176 0.305183 0.305182 0.305177 0.305182 0.305182 0.305177 0.305182 0.305181 0.305178 0.305182 0.305182 V 64.836385 54.765377 64.836385 h 0.305177 0.305181 0.305183 0.305177 0.305182 0.305182 0.305176 0.305183 0.305182 0.305177 0.305182 0.305182 0.305177 0.305182 0.305176 0.305183 0.305182 0.305177 0.305182 0.305182 0.305177 0.305182 0.305182 0.305177 0.305182 0.305182 0.305177 0.305182 0.305182 0.305177 0.305182 0.305182 0.305177 0.305182 0.305182 0.305177 0.305182 0.305182 0.305177 0.305182 0.305182 0.305177 0.305182 0.305182 0.305177 0.305182 0.305183 0.305176 0.305182 0.305182 0.305177 0.305183 0.305181 0.305177 0.305182 0.305182 0.305178 0.305181 0.305182 0.305177 0.305182 0.305182 0.305177 0.305182 0.305182 0.305177 0.305182 0.305183 0.305176 0.305182 0.305183 0.305176 0.305183 0.305181 0.305177 0.305183 0.305181 0.305178 0.305181 0.305182 0.305178 0.305181 0.305178 0.305181 0.305182 0.305178 0.305181 0.305182 0.305177 0.305182 0.305182 0.305177 0.305182 0.305183 0.305176 0.305182 0.305183 0.305176 0.305183 0.305182 0.305176 0.305183 0.305181 0.305178 0.305182 0.305181 0.305179 0.305185 0.305174 0.305189 0.30517 0.30519 0.30517 0.30518 0.30519 0.305175 0.305187 0.30517 0.305187 0.30517 0.30519 0.30517 0.30519 0.30518 0.30517 0.30519 0.30518 0.30518 0.30518 0.30518 0.30518 0.30518 0.30518 0.30518 0.30518 0.30518 0.30518 0.30518 0.30517 0.30519 0.30517 0.30519 0.30517 0.30519 0.30518 0.30518 0.30518 0.30519 0.30517 0.30519 0.30517 0.30518 0.30518 0.30518 0.30518 0.30518 0.30518 0.30518 0.30519 0.30517 0.30519 0.30517 0.30519 0.30517 0.30518 0.30518 0.30518 0.30519 0.30517 0.30519 0.30518 0.30518 0.30518 0.30518 0.30518 0.30518 0.30518 0.30517 0.30519 0.30518 0.30518 0.30518 0.30518 0.30518 0.30518 V 54.765377 64.836385 54.765377 h 0.30518 v 10.071008 h 0.30518 0.30518 0.30519 0.30517 0.30518 0.30519 0.30517 0.30519 0.30517 0.30519 0.30517 0.30519 0.30517 0.30519 0.30518 0.30518 0.30518 0.30517 0.30519 0.30517 0.30519 0.30517 0.30519 0.30518 0.30518 0.30518 0.30519 0.30517 0.30519 V 54.765377 h 0.30517 0.30519 0.30517 0.30518 0.30518 0.30518 0.30518 0.30518 0.30519 0.30517 0.30519 0.30517 0.30519 0.30517 0.30519 0.30517 0.30518 0.30519 0.30517 0.30519 0.30518 0.30518 0.30518 0.30518 0.30518 0.30518 0.30518 0.30517 0.30519 0.30518 0.30518 0.30518 0.30518 0.30518 0.30518 0.30518 0.30518 0.30518 0.30519 0.30517 V 64.836385 54.765377 64.836385 h 0.30519 0.30518 0.30517 0.30519 V 54.765377 64.836385 54.765377 h 0.30517 0.30519 0.30517 0.30519 0.30517 0.30519 0.30518 0.30518 0.30518 0.30518 0.30518 0.30517 0.30519 0.30517 0.30519 0.30518 0.30518 0.30518 0.30519 0.30517 0.30519 0.30517 0.30519 0.30517 0.30518 0.30518 V 44.69437 h 0.30518 0.30518 V 54.765377 44.69437 l 0.30518,10.071007 h 0.30519 0.30517 0.30519 0.30517 0.30519 0.30517 0.30519 0.30518 0.30519 0.30517 0.30518 0.30519 0.30518 0.30518 0.30518 0.30519 0.30517 0.30519 0.30518 0.30519 0.30517 0.30519 0.30518 0.30519 0.30517 0.30519 0.30518 0.30518 0.30518 0.30519 0.30518 0.30517 0.30519 0.30518 0.30519 0.30517 0.30519 0.30518 0.30518 0.30518 0.30519 0.30518 0.30518 0.30518 0.30519 0.30518 0.30518 0.30518 0.30519 0.30518 0.30517 0.30519 0.30518 0.30518 v 10.071008 h 0.30518 0.30519 0.30518 0.30518 0.30518 0.30519 0.30518 0.30518 v 10.376184 h 0.30518 0.30519 0.30517 v 10.070952 h -0.30517 -0.30519 -0.30518 -0.30518 -0.30518 -0.30519 -0.30518 -0.30518 -0.30518 -0.30519 -0.30518 -0.30518 -0.30518 -0.30519 -0.30517 -0.30518 -0.30519 -0.30518 -0.30518 -0.30518 -0.30519 -0.30518 -0.30518 -0.30518 -0.30519 -0.30518 -0.30518 -0.30518 -0.30519 -0.30517 -0.30519 -0.30518 -0.30519 -0.30517 -0.30518 -0.30519 -0.30518 -0.30518 -0.30518 -0.30519 -0.30517 -0.30519 -0.30518 -0.30519 -0.30517 -0.30519 -0.30518 -0.30519 -0.30517 -0.30519 -0.30518 -0.30518 -0.30518 -0.30519 -0.30518 -0.30517 -0.30519 -0.30518 -0.30519 -0.30517 -0.30519 -0.30517 -0.30519 -0.30517 -0.30519 -0.30518 -0.30518 -0.30518 -0.30518 -0.30518 -0.30517 -0.30519 -0.30517 -0.30519 -0.30517 -0.30519 -0.30518 -0.30518 -0.30518 -0.30519 -0.30517 -0.30519 -0.30517 -0.30518 -0.30518 -0.30518 -0.30518 -0.30518 -0.30519 -0.30517 -0.30519 -0.30517 -0.30519 -0.30517 -0.30519 -0.30517 -0.30518 -0.30519 -0.30517 -0.30519 -0.30518 -0.30518 -0.30518 -0.30518 -0.30518 -0.30518 -0.30518 -0.30518 -0.30518 -0.30519 -0.30517 -0.30518 -0.30518 -0.30518 -0.30518 -0.30518 -0.30518 -0.30518 -0.30519 -0.30517 -0.30519 -0.30518 -0.30517 -0.30519 -0.30517 -0.30519 -0.30517 -0.30519 -0.30517 -0.30519 -0.30518 -0.30518 -0.30518 -0.30518 -0.30518 -0.30517 -0.30519 -0.30517 -0.30519 -0.30517 -0.30519 -0.30518 -0.30518 -0.30518 -0.30519 -0.30517 -0.30519 -0.30517 -0.30519 -0.30517 -0.30518 -0.30518 -0.30518 -0.30519 -0.30517 -0.30519 -0.30517 -0.30519 -0.30517 -0.30519 -0.30517 -0.30519 -0.30518 -0.30517 -0.30519 -0.30518 -0.30518 -0.30518 -0.30518 -0.30518 -0.30518 -0.30518 -0.30518 -0.30518 -0.30519 -0.30517 -0.30518 -0.30518 -0.30518 -0.30518 -0.30518 -0.30518 -0.30518 -0.30519 -0.30517 -0.30519 -0.30518 -0.30518 -0.30518 -0.30517 -0.30519 -0.30517 -0.30519 -0.30517 -0.30519 -0.30518 -0.30518 -0.30518 -0.30518 -0.30518 -0.30518 -0.30518 -0.30517 -0.30519 -0.30517 -0.30519 -0.30518 -0.30518 -0.30518 -0.30519 -0.30517 -0.30519 -0.30517 -0.30519 -0.30517 -0.30518 -0.30518 -0.30518 -0.30518 -0.30518 -0.30518 -0.30518 -0.30518 -0.30518 -0.30518 -0.30518 -0.30518 -0.30519 -0.30517 -0.30518 -0.30519 -0.30517 -0.30519 -0.30517 -0.305187 -0.30517 -0.305187 -0.305175 -0.30519 -0.30518 -0.30517 -0.30519 -0.30517 H 97.059882 96.754708 96.449523 96.144344 95.839163 95.533981 95.228803 94.923622 94.618439 94.313263 94.008081 93.702898 93.397722 93.092539 92.787357 92.482181 92.176998 91.871816 91.566639 91.261457 90.956275 90.651098 90.345916 90.040735 89.735557 89.430375 89.125194 88.820016 88.514835 88.209657 87.904475 87.599294 87.294116 86.988935 86.683752 86.378575 86.073394 85.768211 85.463035 85.157852 84.85267 84.547494 84.242311 83.937129 83.631952 83.32677 83.021588 82.716411 82.411229 82.106047 81.80087 81.495688 81.190507 80.885329 80.580147 80.274965 79.969788 79.664607 79.359424 79.054247 78.749065 78.443883 78.138707 77.833524 77.528342 77.223165 76.917983 76.612801 76.307624 76.002442 75.69726 75.392083 75.086901 74.781719 74.476542 74.17136 73.866178 73.561001 73.255819 72.950637 72.64546 72.340278 72.035096 71.729919 71.424737 71.119555 70.814378 70.509196 70.204014 69.898837 69.593655 69.288473 68.983296 68.678114 68.372931 68.067755 67.762573 67.457396 67.152214 66.847032 66.541855 66.236673 65.93149 65.626314 65.321132 65.01595 64.710773 64.40559 64.100409 63.795232 63.49005 63.184868 62.87969 62.574509 62.269327 61.96415 61.658968 61.353786 61.048609 60.743427 60.438244 60.133068 59.827886 59.522703 59.217527 58.912344 58.607162 58.301986 57.996803 57.691622 57.386444 57.081262 56.776081 56.470903 56.165722 55.86054 55.555362 55.250181 54.944999 54.639822 54.33464 54.029457 53.724281 53.419099 53.113916 52.80874 52.503557 52.198375 51.893199 51.588016 51.282834 50.977657 50.672475 50.367294 50.062116 49.756934 49.451753 49.146575 48.841394 48.536212 48.231034 47.925853 47.620675 47.315494 47.010312 46.705134 46.399953 46.09477 45.789594 45.484412 45.179229 44.874053 44.56887 44.263688 43.958512 43.653329 43.348147 43.04297 42.737788 42.432606 42.127429 41.822247 41.517066 41.211888 40.906706 40.601525 40.296347 39.991166 39.685983 39.380806 39.075625 38.770442 38.465266 38.160083 37.854901 37.549725 37.244542 36.93936 36.634183 36.329001 36.023819 35.718642 35.41346 35.108278 34.803101 34.497919 34.192738 33.88756 33.582378 33.277196 32.972019 32.666838 32.361655 32.056478 31.751296 31.446114 31.140938 30.835755 30.530573 30.225396 29.920214 29.615032 29.309855 29.004673 28.699491 28.394314 28.089132 27.78395 27.478773 27.173591 26.868414 26.563232 26.25805 25.952873 25.647691 25.342508 25.037332 24.73215 24.426968 24.121791 23.816608 23.511427 23.20625 22.901068 22.595886 22.290708 21.985527 21.680345 21.375168 21.069986 20.764804 20.459627 20.154445 19.849263 19.544086 19.238904 Z"
       id="path37" />
    <rect
       style="display:inline;fill:#008056;fill-opacity:0.501961;stroke-width:0.603375;stroke-linecap:butt;stroke-linejoin:round;image-rendering:auto"
       id="rect318-1-0-9-2-8-3-9-0-1"
       width="0.21560034"
       height="84.899055"
       x="18.829561"
       y="3.5384262"
       inkscape:label="orf1a_beg" />
    <rect
       style="display:inline;fill:#008056;fill-opacity:0.501961;stroke-width:0.603529;stroke-linecap:butt;stroke-linejoin:round;image-rendering:auto"
       id="rect318-1-0-9-2-8-3-9-0-1-4"
       width="0.21560034"
       height="84.94223"
       x="81.75631"
       y="3.5345101"
       inkscape:label="orf1a_beg" />
    <rect
       style="display:inline;fill:#004280;fill-opacity:0.501961;stroke-width:0.603437;stroke-linecap:butt;stroke-linejoin:round;image-rendering:auto"
       id="rect318-1-0-9-2-8-3-9-0-1-4-5"
       width="0.21560034"
       height="84.916519"
       x="81.974464"
       y="3.5424123"
       inkscape:label="orf1a_beg" />
    <rect
       style="display:inline;fill:#004280;fill-opacity:0.501961;stroke-width:0.603437;stroke-linecap:butt;stroke-linejoin:round;image-rendering:auto"
       id="rect318-1-0-9-2-8-3-9-0-1-4-5-9"
       width="0.21560034"
       height="84.916519"
       x="117.75604"
       y="3.5587475"
       inkscape:label="orf1a_beg" />
    <rect
       style="display:inline;fill:#800026;fill-opacity:0.501961;stroke-width:0.60329;stroke-linecap:butt;stroke-linejoin:round;image-rendering:auto"
       id="rect318-1-0-9-2-8-3-9-0-1-4-5-9-9"
       width="0.21560034"
       height="84.875191"
       x="117.97242"
       y="3.5645046"
       inkscape:label="orf1a_beg" />
    <rect
       style="display:inline;fill:#800026;fill-opacity:0.501961;stroke-width:0.60329;stroke-linecap:butt;stroke-linejoin:round;image-rendering:auto"
       id="rect318-1-0-9-2-8-3-9-0-1-4-5-9-9-3"
       width="0.21560034"
       height="84.875191"
       x="135.85168"
       y="3.5539882"
       inkscape:label="orf1a_beg" />
    <rect
       style="display:inline;fill:#800026;fill-opacity:0.501961;stroke-width:0.60329;stroke-linecap:butt;stroke-linejoin:round;image-rendering:auto"
       id="rect318-1-0-9-2-8-3-9-0-1-4-5-9-9-3-7"
       width="0.21560034"
       height="84.875191"
       x="171.41856"
       y="3.5589488"
       inkscape:label="orf1a_beg" />
    <text
       xml:space="preserve"
       style="font-size:3.71774px;display:inline;opacity:0.89;fill:#000000;fill-opacity:1;stroke:#7fbfaa;stroke-width:0.354872;stroke-linecap:butt;stroke-linejoin:round;stroke-dasharray:none;stroke-opacity:0;paint-order:normal"
       x="124.30235"
       y="10.854009"
       id="text429-9-0-8-0"
       inkscape:label="text_vp34"
       transform="scale(0.98917251,1.010946)"><tspan
         sodipodi:role="line"
         id="tspan429-6-8-3-6"
         style="font-style:normal;font-variant:normal;font-weight:normal;font-stretch:normal;font-size:3.71774px;font-family:Tahoma;-inkscape-font-specification:Tahoma;fill:#000000;fill-opacity:1;stroke:#7fbfaa;stroke-width:0.354872"
         x="124.30235"
         y="10.854009">VP34</tspan></text>
    <rect
       style="display:inline;opacity:0.649533;fill:#8f485e;fill-opacity:1;stroke:#008000;stroke-width:0.179797;stroke-linecap:butt;stroke-linejoin:round;stroke-dasharray:none;stroke-opacity:0;paint-order:normal"
       id="rect428-8-8-1"
       width="18.158274"
       height="12.181646"
       x="117.91278"
       y="3.5485673"
       inkscape:label="orf2_мз34" />
    <text
       xml:space="preserve"
       style="font-size:6.08352px;display:inline;opacity:0.5;fill:#666666;fill-opacity:1;stroke:#7fbfaa;stroke-width:0.354872;stroke-linecap:butt;stroke-linejoin:round;stroke-dasharray:none;stroke-opacity:0;paint-order:normal"
       x="42.143322"
       y="11.610711"
       id="text429-9"
       inkscape:label="text_orf1b"
       transform="scale(0.98917251,1.010946)"><tspan
         sodipodi:role="line"
         id="tspan429-6"
         style="font-style:normal;font-variant:normal;font-weight:normal;font-stretch:normal;font-size:6.08352px;font-family:Tahoma;-inkscape-font-specification:Tahoma;fill:#666666;fill-opacity:1;stroke:#7fbfaa;stroke-width:0.354872"
         x="42.143322"
         y="11.610711">ORF1a</tspan></text>
    <rect
       style="display:inline;opacity:0.5;fill:#008055;fill-opacity:1;stroke:#008000;stroke-width:0.336276;stroke-linecap:butt;stroke-linejoin:round;stroke-dasharray:none;stroke-opacity:0;paint-order:normal"
       id="rect428"
       width="63.384212"
       height="12.208042"
       x="18.819632"
       y="3.5251057"
       inkscape:label="orf1a" />
    <text
       xml:space="preserve"
       style="font-size:6.08352px;display:inline;opacity:0.5;fill:#666666;fill-opacity:1;stroke:#7fbfaa;stroke-width:0.354872;stroke-linecap:butt;stroke-linejoin:round;stroke-dasharray:none;stroke-opacity:0;paint-order:normal"
       x="91.939041"
       y="11.738992"
       id="text429-9-0"
       inkscape:label="text_orf1b"
       transform="scale(0.98917251,1.010946)"><tspan
         sodipodi:role="line"
         id="tspan429-6-8"
         style="font-style:normal;font-variant:normal;font-weight:normal;font-stretch:normal;font-size:6.08352px;font-family:Tahoma;-inkscape-font-specification:Tahoma;fill:#666666;fill-opacity:1;stroke:#7fbfaa;stroke-width:0.354872"
         x="91.939041"
         y="11.738992">ORF1b</tspan></text>
    <rect
       style="display:inline;opacity:0.5;fill:#004180;fill-opacity:1;stroke:#008000;stroke-width:0.254727;stroke-linecap:butt;stroke-linejoin:round;stroke-dasharray:none;stroke-opacity:0;paint-order:normal"
       id="rect428-8"
       width="36.453556"
       height="12.180274"
       x="81.746216"
       y="3.5378945"
       inkscape:label="orf1b" />
    <rect
       style="display:inline;opacity:0.5;fill:#800025;fill-opacity:1;stroke:#008000;stroke-width:0.309524;stroke-linecap:butt;stroke-linejoin:round;stroke-dasharray:none;stroke-opacity:0;paint-order:normal"
       id="rect428-8-8"
       width="53.873074"
       height="12.169374"
       x="117.76133"
       y="3.5439889"
       inkscape:label="orf2" />
    <path
       style="fill:none;stroke:#000000;stroke-width:0.305182px;stroke-linecap:round;stroke-linejoin:round;stroke-miterlimit:4;stroke-dasharray:none;stroke-opacity:1"
       d="m 15.881921,21.195353 v 3.05182 h 1.5259 -1.5259 v 15.259102 h 1.5259 -1.5259 v 15.259102 h 1.5259 -1.5259 v 15.259101 h 1.5259 -1.5259 v 15.259043 h 1.5259 -1.5259 v 3.051815 h 3.0518 v -1.5259 1.5259 h 38.147541 v -1.5259 1.5259 h 38.147541 v -1.5259 1.5259 h 38.147537 v -1.5259 1.5259 h 38.14763 v -1.5259 1.5259 h 3.05183"
       id="path1" />
    <text
       xml:space="preserve"
       style="font-style:normal;font-variant:normal;font-weight:400;font-size:4.2854px;line-height:125%;font-family:Arial;text-align:start;letter-spacing:0px;word-spacing:0px;text-anchor:start;fill:#000000;fill-opacity:1;stroke:none;stroke-width:0.451095"
       x="17.794268"
       y="93.74073"
       id="text2"><tspan
         sodipodi:role="line"
         x="17.794268"
         y="93.74073"
         id="tspan2"
         style="stroke-width:0.451095"><tspan
           dx="0"
           dy="0"
           style="font-style:normal;font-variant:normal;font-weight:400;font-size:4.2854px;font-family:Arial;fill:#000000;stroke-width:0.451095"
           id="tspan1">1</tspan></tspan></text>
    <text
       xml:space="preserve"
       style="font-style:normal;font-variant:normal;font-weight:400;font-size:3.80837px;line-height:125%;font-family:Arial;text-align:start;letter-spacing:0px;word-spacing:0px;text-anchor:start;fill:#000000;fill-opacity:1;stroke:none;stroke-width:0.451095"
       x="52.890255"
       y="93.74073"
       id="text4"><tspan
         sodipodi:role="line"
         x="52.890255"
         y="93.74073"
         id="tspan4"
         style="font-size:3.80837px;stroke-width:0.451095"><tspan
           dx="0"
           dy="0"
           style="font-style:normal;font-variant:normal;font-weight:400;font-size:3.80837px;font-family:Arial;fill:#000000;stroke-width:0.451095"
           id="tspan3">1661</tspan></tspan></text>
    <text
       xml:space="preserve"
       style="font-style:normal;font-variant:normal;font-weight:400;font-size:3.80837px;line-height:125%;font-family:Arial;text-align:start;letter-spacing:0px;word-spacing:0px;text-anchor:start;fill:#000000;fill-opacity:1;stroke:none;stroke-width:0.451095"
       x="91.567749"
       y="93.74073"
       id="text6"><tspan
         sodipodi:role="line"
         x="91.567749"
         y="93.74073"
         id="tspan6"
         style="font-size:3.80837px;stroke-width:0.451095"><tspan
           dx="0"
           dy="0"
           style="font-style:normal;font-variant:normal;font-weight:400;font-size:3.80837px;font-family:Arial;fill:#000000;stroke-width:0.451095"
           id="tspan5">3322</tspan></tspan></text>
    <text
       xml:space="preserve"
       style="font-style:normal;font-variant:normal;font-weight:400;font-size:3.80837px;line-height:125%;font-family:Arial;text-align:start;letter-spacing:0px;word-spacing:0px;text-anchor:start;fill:#000000;fill-opacity:1;stroke:none;stroke-width:0.451095"
       x="128.65781"
       y="93.74073"
       id="text8"><tspan
         sodipodi:role="line"
         x="128.65781"
         y="93.74073"
         id="tspan8"
         style="font-size:3.80837px;stroke-width:0.451095"><tspan
           dx="0"
           dy="0"
           style="font-style:normal;font-variant:normal;font-weight:400;font-size:3.80837px;font-family:Arial;fill:#000000;stroke-width:0.451095"
           id="tspan7">4985</tspan></tspan></text>
    <text
       xml:space="preserve"
       style="font-style:normal;font-variant:normal;font-weight:400;font-size:3.80837px;line-height:125%;font-family:Arial;text-align:start;letter-spacing:0px;word-spacing:0px;text-anchor:start;fill:#000000;fill-opacity:1;stroke:none;stroke-width:0.451095"
       x="167.33528"
       y="93.74073"
       id="text10"><tspan
         sodipodi:role="line"
         x="167.33528"
         y="93.74073"
         id="tspan10"
         style="font-size:3.80837px;stroke-width:0.451095"><tspan
           dx="0"
           dy="0"
           style="font-style:normal;font-variant:normal;font-weight:400;font-size:3.80837px;font-family:Arial;fill:#000000;stroke-width:0.451095"
           id="tspan9">6645</tspan></tspan></text>
    <text
       xml:space="preserve"
       style="font-style:normal;font-variant:normal;font-weight:400;font-size:3.80837px;line-height:125%;font-family:Arial;text-align:start;letter-spacing:0px;word-spacing:0px;text-anchor:start;fill:#000000;fill-opacity:1;stroke:none;stroke-width:0.451095"
       x="14.637811"
       y="100.73463"
       id="text12"><tspan
         sodipodi:role="line"
         x="14.637811"
         y="100.73463"
         id="tspan12"
         style="font-size:3.80837px;stroke-width:0.451095"><tspan
           dx="0"
           dy="0"
           style="font-style:normal;font-variant:normal;font-weight:400;font-size:3.80837px;font-family:Arial;fill:#000000;stroke-width:0.451095"
           id="tspan11">Nucleotide position in relation to OR371570_human_CHN_2022_HAstV-4-Fuzhou-2022-10_NA_</tspan></tspan></text>
    <text
       xml:space="preserve"
       style="font-style:normal;font-variant:normal;font-weight:400;font-size:4.2854px;line-height:356.071%;font-family:Arial;text-align:start;letter-spacing:0px;word-spacing:0px;text-anchor:start;fill:#000000;fill-opacity:1;stroke:none;stroke-width:0.451095"
       x="7.6734719"
       y="25.724258"
       id="text22"><tspan
         sodipodi:role="line"
         x="7.6734719"
         y="25.724258"
         id="tspan14"
         style="stroke-width:0.451095"><tspan
           dx="0"
           dy="0"
           style="font-style:normal;font-variant:normal;font-weight:400;font-size:4.2854px;font-family:Arial;fill:#000000;stroke-width:0.451095"
           id="tspan13">6</tspan></tspan><tspan
         sodipodi:role="line"
         x="7.6734719"
         y="40.983326"
         id="tspan16"
         style="stroke-width:0.451095"><tspan
           dx="0"
           dy="0"
           style="font-style:normal;font-variant:normal;font-weight:400;font-size:4.2854px;font-family:Arial;fill:#000000;stroke-width:0.451095"
           id="tspan15">4,5</tspan></tspan><tspan
         sodipodi:role="line"
         x="7.6734719"
         y="56.242393"
         id="tspan18"
         style="stroke-width:0.451095"><tspan
           dx="0"
           dy="0"
           style="font-style:normal;font-variant:normal;font-weight:400;font-size:4.2854px;font-family:Arial;fill:#000000;stroke-width:0.451095"
           id="tspan17">3</tspan></tspan><tspan
         sodipodi:role="line"
         x="7.6734719"
         y="71.501457"
         id="tspan20"
         style="stroke-width:0.451095"><tspan
           dx="0"
           dy="0"
           style="font-style:normal;font-variant:normal;font-weight:400;font-size:4.2854px;font-family:Arial;fill:#000000;stroke-width:0.451095"
           id="tspan19">1,5</tspan></tspan><tspan
         sodipodi:role="line"
         x="7.6734719"
         y="86.760529"
         id="tspan22"
         style="stroke-width:0.451095"><tspan
           dx="0"
           dy="0"
           style="font-style:normal;font-variant:normal;font-weight:400;font-size:4.2854px;font-family:Arial;fill:#000000;stroke-width:0.451095"
           id="tspan21">0</tspan></tspan></text>
    <path
       style="fill:none;stroke:#000000;stroke-width:0.305182px;stroke-linecap:round;stroke-linejoin:round;stroke-miterlimit:4;stroke-dasharray:none;stroke-opacity:1"
       d="m 48.841394,18.143532 v 1.52591 m 0.305181,-1.52591 v 1.52591 m 0,-1.52591 v 1.52591 m 25.635144,-1.52591 v 1.52591 m 3.662164,-1.52591 v 1.52591 m 1.525905,-1.52591 v 1.52591 m 0.915541,-1.52591 v 1.52591 m 10.070946,-1.52591 v 1.52591 m 17.090095,-1.52591 v 1.52591 m 0,-1.52591 v 1.52591 m 2.13626,-1.52591 v 1.52591 m 3.0518,-1.52591 v 1.52591 m 1.5259,-1.52591 v 1.52591 m 2.13627,-1.52591 v 1.52591 m 0.61036,-1.52591 v 1.52591 m 1.83108,-1.52591 v 1.52591 m 3.66217,-1.52591 v 1.52591 m 11.90203,-1.52591 v 1.52591 m 5.49324,-1.52591 v 1.52591 m 4.27253,-1.52591 v 1.52591 m 1.22072,-1.52591 v 1.52591 m 1.83108,-1.52591 v 1.52591 m 16.4798,-1.52591 v 1.52591 m 0.61036,-1.52591 v 1.52591 m 0.30518,-1.52591 v 1.52591"
       id="path22" />
    <path
       style="fill:none;stroke:#000000;stroke-width:0.305182px;stroke-linecap:round;stroke-linejoin:round;stroke-miterlimit:4;stroke-dasharray:0.451095, 0.451095;stroke-dashoffset:0;stroke-opacity:1"
       d="M 15.881921,24.247173 H 174.5758"
       id="path34" />
    <path
       style="fill:none;stroke:#000000;stroke-width:0.305182px;stroke-linecap:round;stroke-linejoin:round;stroke-miterlimit:4;stroke-dasharray:1.35329, 0.451095, 0.451095, 0.451095, 0.451095, 0.451095;stroke-dashoffset:0;stroke-opacity:1"
       d="M 15.881921,34.31818 H 174.5758"
       id="path35" />
    <path
       style="fill:none;stroke:#000000;stroke-width:0.305182px;stroke-linecap:round;stroke-linejoin:round;stroke-miterlimit:4;stroke-dasharray:none;stroke-opacity:1"
       d="m 18.933721,85.283521 v 0 0 0 0 0 h 0.305183 v 0 0 0 0 0 0 0 0 0 0 0 0 h 0.305182 v 0 0 0 0 0 0 0 0 0 0 0 0 0 h 0.305177 v 0 0 0 0 0 0 0 0 0 0 0 0 h 0.305182 v 0 0 0 0 0 0 0 0 0 0 0 0 h 0.305182 v 0 0 0 0 0 0 0 0 0 0 0 0 0 h 0.305177 v 0 0 0 0 0 0 0 0 0 0 0 0 h 0.305182 v 0 0 0 0 0 0 0 0 0 0 0 0 h 0.305182 v 0 0 0 0 0 0 0 0 0 0 0 0 h 0.305177 v 0 0 0 0 0 0 0 0 0 0 0 0 0 h 0.305182 v 0 0 0 0 0 0 0 0 0 0 0 0 h 0.305181 v 0 0 0 0 0 0 0 0 0 0 0 0 h 0.305178 v 0 0 0 0 0 0 0 0 0 0 0 0 0 h 0.305182 v 0 0 0 0 0 0 0 0 0 0 0 0 h 0.305182 v 0 0 0 0 0 0 0 0 0 0 0 0 h 0.305177 v 0 0 0 0 0 0 0 0 0 0 0 0 h 0.305181 v 0 0 0 0 0 0 0 0 0 0 0 0 0 h 0.305183 v 0 0 0 0 0 0 0 0 0 0 0 0 h 0.305177 v 0 0 0 0 0 0 0 0 0 0 0 0 h 0.305182 v 0 0 0 0 0 0 0 0 0 0 0 0 0 h 0.305182 v 0 0 0 0 0 0 0 0 0 0 0 0 h 0.305176 v 0 0 0 0 0 0 0 0 0 0 0 0 h 0.305183 v 0 0 0 0 0 0 0 0 0 0 0 0 0 h 0.305182 v 0 0 0 0 0 0 0 0 0 0 0 0 h 0.305177 v 0 0 0 0 0 0 0 0 0 0 0 0 h 0.305182 v 0 0 0 0 0 0 0 0 0 0 0 0 h 0.305182 v 0 0 0 0 0 0 0 0 0 0 0 0 0 h 0.305177 v 0 0 0 0 0 0 0 0 0 0 0 0 h 0.305182 v 0 0 0 0 0 0 0 0 0 0 0 0 h 0.305177 v 0 0 0 0 0 0 0 0 0 0 0 0 0 h 0.305182 v 0 0 0 0 0 0 0 0 0 0 0 0 h 0.305182 v 0 0 0 0 0 0 0 0 0 0 0 0 h 0.305177 v 0 0 0 0 0 0 0 0 0 0 0 0 h 0.305182 v 0 0 0 0 0 0 0 0 0 0 0 0 0 h 0.305182 v 0 0 0 0 0 0 0 0 0 0 0 0 h 0.305177 v 0 0 0 0 0 0 0 0 0 0 0 0 h 0.305182 v 0 0 0 0 0 0 0 0 0 0 0 0 0 h 0.305182 v 0 0 0 0 0 0 0 0 0 0 0 0 h 0.305177 v 0 0 0 0 0 0 0 0 0 0 0 0 h 0.305182 v 0 0 0 0 0 0 0 0 0 0 0 0 h 0.305183 v 0 0 0 0 0 0 0 0 0 0 0 0 0 h 0.305176 v 0 0 0 0 0 0 0 0 0 0 0 0 h 0.305182 v 0 0 0 0 0 0 0 0 0 0 0 0 h 0.305182 v 0 0 0 0 0 0 0 0 0 0 0 0 0 h 0.305177 v 0 0 0 0 0 0 0 0 0 0 0 0 h 0.305183 v 0 0 0 0 0 0 0 0 0 0 0 0 h 0.305181 v 0 0 0 0 0 0 0 0 0 0 0 0 h 0.305177 v 0 0 0 0 0 0 0 0 0 0 0 0 0 h 0.305182 v 0 0 0 0 0 0 0 0 0 0 0 0 h 0.305182 v 0 0 0 0 0 0 0 0 0 0 0 0 h 0.305178 v 0 0 0 0 0 0 0 0 0 0 0 0 0 h 0.305181 v 0 0 0 0 0 0 0 0 0 0 0 0 h 0.305182 v 0 0 0 0 0 0 0 0 0 0 0 0 h 0.305177 v 0 0 0 0 0 0 0 0 0 0 0 0 0 h 0.305182 v 0 0 0 0 0 0 0 0 0 0 0 0 h 0.305182 v 0 0 0 0 0 0 0 0 0 0 0 0 h 0.305177 v 0 0 0 0 0 0 0 0 0 0 0 0 h 0.305182 v 0 0 0 0 0 0 0 0 0 0 0 0 0 h 0.305182 v 0 0 0 0 0 0 0 0 0 0 0 0 h 0.305177 v 0 0 0 0 0 0 0 0 0 0 0 0 h 0.305182 v 0 0 0 0 0 0 0 0 0 0 0 0 0 h 0.305183 v 0 0 0 0 0 0 0 0 0 0 0 0 h 0.305176 v 0 0 0 0 0 0 0 0 0 0 0 0 h 0.305182 v 0 0 0 0 0 0 0 0 0 0 0 0 h 0.305183 v 0 0 0 0 0 0 0 0 0 0 0 0 0 h 0.305176 v 0 0 0 0 0 0 0 0 0 0 0 0 h 0.305183 v 0 0 0 0 0 0 0 0 0 0 0 0 h 0.305181 v 0 0 0 0 0 0 0 0 0 0 0 0 0 h 0.305177 v 0 0 0 0 0 0 0 0 0 0 0 0 h 0.305183 v 0 0 0 0 0 0 0 0 0 0 0 0 h 0.305181 v 0 0 0 0 0 0 0 0 0 0 0 0 h 0.305178 v 0 0 0 0 0 0 0 0 0 0 0 0 0 h 0.305181 v 0 0 0 0 0 0 0 0 0 0 0 0 h 0.305182 v 0 0 0 0 0 0 0 0 0 0 0 0 h 0.305178 v 0 0 0 0 0 0 0 0 0 0 0 0 0 h 0.305181 v 0 0 0 0 0 0 0 0 0 0 0 0 h 0.305182 v 0 0 0 0 0 0 0 0 0 0 0 0 h 0.305177 v 0 0 0 0 0 0 0 0 0 0 0 0 h 0.305182 v 0 0 0 0 0 0 0 0 0 0 0 0 0 h 0.305182 v 0 0 0 0 0 0 0 0 0 0 0 0 h 0.305177 v 0 0 0 0 0 0 0 0 0 0 0 0 h 0.305182 v 0 0 0 0 0 0 0 0 0 0 0 0 0 h 0.305183 v 0 0 0 0 0 0 0 0 0 0 0 0 h 0.305176 v 0 0 0 0 0 0 0 0 0 0 0 0 h 0.305182 v 0 0 0 0 0 0 0 0 0 0 0 0 0 h 0.305183 v 0 0 0 0 0 0 0 0 0 0 0 0 h 0.305176 v 0 0 0 0 0 0 0 0 0 0 0 0 h 0.305183 v 0 0 0 0 0 0 0 0 0 0 0 0 h 0.305182 v 0 0 0 0 0 0 0 0 0 0 0 0 0 h 0.305176 v 0 0 0 0 0 0 0 0 0 0 0 0 h 0.305183 v 0 0 0 0 0 0 0 0 0 0 0 0 h 0.305181 v 0 0 0 0 -10.070952 0 0 0 0 0 0 0 -10.376184 h 0.305178 v 0 0 0 -10.071008 0 0 0 0 0 0 0 0 h 0.305182 v 0 0 0 0 0 0 0 0 0 0 0 0 h 0.305181 v 0 0 0 0 0 0 0 0 0 0 0 0 h 0.305178 v 0 0 0 0 0 0 0 0 0 0 0 0 0 h 0.305181 v 0 0 0 0 0 0 0 0 0 0 0 0 h 0.305178 v 0 0 0 0 0 0 0 0 0 0 0 0 h 0.305182 v 0 0 0 0 0 0 0 0 0 0 0 0 0 h 0.305181 v 0 0 0 0 0 0 0 0 0 0 0 0 h 0.305178 v 0 0 0 0 0 0 0 0 0 0 0 0 h 0.305181 v 0 0 0 0 0 0 0 0 0 0 0 0 h 0.305182 v 0 0 0 0 0 0 0 0 0 0 0 0 0 h 0.305178 v 0 0 0 0 0 0 0 0 0 0 0 0 h 0.305181 v 0 0 0 0 0 0 0 0 0 0 0 0 h 0.305182 v 0 0 0 0 0 0 0 0 0 0 0 0 0 h 0.305177 v 0 0 0 0 10.071008 0 0 0 0 0 0 0 l 0.305182,10.376184 v 0 0 0 0 10.070952 0 0 0 0 0 0 0 h 0.305183 v 0 0 0 0 0 0 0 0 0 0 0 0 h 0.305176 v 0 0 0 0 0 0 0 0 0 0 0 0 0 h 0.305182 v 0 0 0 0 0 0 0 0 0 0 0 0 h 0.305183 v 0 0 0 0 0 0 0 0 0 0 0 0 h 0.305176 v 0 0 0 0 0 0 0 0 0 0 0 0 0 h 0.305183 v 0 0 0 0 0 0 0 0 0 0 0 0 h 0.305182 v 0 0 0 0 0 0 0 0 0 0 0 0 h 0.305176 v 0 0 0 0 0 0 0 0 0 0 0 0 h 0.305183 v 0 0 0 0 0 0 0 0 0 0 0 0 0 h 0.305182 v 0 0 0 0 0 0 0 0 0 0 0 0 h 0.305177 v 0 0 0 0 0 0 0 0 0 0 0 0 h 0.305182 v 0 0 0 0 0 0 0 0 0 0 0 0 0 h 0.305181 v 0 0 0 0 0 0 0 0 0 0 0 0 h 0.305178 v 0 0 0 0 0 0 0 0 0 0 0 0 h 0.305182 v 0 0 0 0 0 0 0 0 0 0 0 0 0 h 0.305181 v 0 0 0 0 0 0 0 0 0 0 0 0 h 0.305178 v 0 0 0 0 0 0 0 0 0 0 0 0 h 0.305181 v 0 0 0 0 0 0 0 0 0 0 0 0 h 0.305182 v 0 0 0 0 0 0 0 0 0 0 0 0 0 h 0.305178 v 0 0 0 0 0 0 0 0 0 0 0 0 h 0.305181 v 0 0 0 0 0 0 0 0 0 0 0 0 h 0.305183 v 0 0 0 0 0 0 0 0 0 0 0 0 0 h 0.305176 v 0 0 0 0 0 0 0 0 0 0 0 0 h 0.305182 v 0 0 0 0 0 0 0 0 0 0 0 0 h 0.305183 v 0 0 0 0 0 0 0 0 0 0 0 0 h 0.305176 v 0 0 0 0 0 0 0 0 0 0 0 0 0 h 0.305183 v 0 0 0 0 0 0 0 0 0 0 0 0 h 0.305182 v 0 0 0 0 0 0 0 0 0 0 0 0 h 0.305176 v 0 0 0 0 0 0 0 0 0 0 0 0 0 h 0.305183 v 0 0 0 0 0 0 0 0 0 0 0 0 h 0.305182 v 0 0 0 0 0 0 0 0 0 0 0 0 h 0.305177 v 0 0 0 0 0 0 0 0 0 0 0 0 h 0.305182 v 0 0 0 0 0 0 0 0 0 0 0 0 0 h 0.305182 v 0 0 0 0 0 0 0 0 0 0 0 0 h 0.305177 v 0 0 0 0 0 0 0 0 0 0 0 0 h 0.305182 v 0 0 0 0 0 0 0 0 0 0 0 0 0 h 0.305181 v 0 0 0 0 0 0 0 0 0 0 0 0 h 0.305178 v 0 0 0 0 0 0 0 0 0 0 0 0 h 0.305182 v 0 0 0 0 0 0 0 0 0 0 0 0 h 0.305182 v 0 0 0 0 0 0 0 0 0 0 0 0 0 h 0.305177 v 0 0 0 0 0 0 0 0 0 0 0 0 h 0.305181 v 0 0 0 0 0 0 0 0 0 0 0 0 h 0.305183 v 0 0 0 0 0 0 0 0 0 0 0 0 0 h 0.305177 v 0 0 0 0 0 0 0 0 0 0 0 0 h 0.305182 v 0 0 0 0 0 0 0 0 0 0 0 0 h 0.305182 v 0 0 0 0 0 0 0 0 0 0 0 0 0 h 0.305176 v 0 0 0 0 0 0 0 0 0 0 0 0 h 0.305183 v 0 0 0 0 0 0 0 0 0 0 0 0 h 0.305182 v 0 0 0 0 0 0 0 0 0 0 0 0 h 0.305177 v 0 0 0 0 0 0 0 0 0 0 0 0 0 h 0.305182 v 0 0 0 0 0 0 0 0 0 0 0 0 h 0.305182 v 0 0 0 0 0 0 0 0 0 0 0 0 h 0.305177 v 0 0 0 0 0 0 0 0 0 0 0 0 0 h 0.305182 v 0 0 0 0 0 0 0 0 0 0 0 0 h 0.305176 v 0 0 0 0 0 0 0 0 0 0 0 0 h 0.305183 v 0 0 0 0 0 0 0 0 0 0 0 0 h 0.305182 v 0 0 0 0 0 0 0 0 0 0 0 0 0 h 0.305177 v 0 0 0 0 0 0 0 0 0 0 0 0 h 0.305182 v 0 0 0 0 0 0 0 0 0 0 0 0 h 0.305182 v 0 0 0 0 0 0 0 0 0 0 0 0 0 h 0.305177 v 0 0 0 0 0 0 0 0 0 0 0 0 h 0.305182 v 0 0 0 0 0 0 0 0 0 0 0 0 h 0.305182 v 0 0 0 0 0 0 0 0 0 0 0 0 h 0.305177 v 0 0 0 0 0 0 0 0 0 0 0 0 0 h 0.305182 v 0 0 0 0 0 0 0 0 0 0 0 0 h 0.305182 v 0 0 0 0 0 0 0 0 0 0 0 0 h 0.305177 v 0 0 0 0 0 0 0 0 0 0 0 0 0 h 0.305182 v 0 0 0 0 0 0 0 0 0 0 0 0 h 0.305182 v 0 0 -10.070952 0 0 0 0 0 0 0 0 0 h 0.305177 v 0 0 0 0 0 0 0 0 0 0 0 0 h 0.305182 v 0 0 0 0 0 0 0 0 0 0 0 0 0 h 0.305182 v 0 0 0 0 0 0 0 0 0 0 0 0 h 0.305177 v 0 0 0 0 0 0 0 0 0 0 0 0 h 0.305182 v 0 0 0 0 0 0 0 0 0 0 0 0 0 h 0.305182 v 0 0 0 0 0 0 0 0 0 0 0 0 h 0.305177 v 0 0 0 0 0 0 0 0 0 0 0 0 h 0.305182 v 0 0 0 0 0 0 0 0 0 0 0 0 0 h 0.305182 v 0 0 0 0 0 0 0 0 0 0 0 0 h 0.305177 v 0 0 0 0 0 0 0 0 0 0 0 0 h 0.305182 v 0 0 0 0 0 0 0 0 0 0 -10.376184 0 h 0.305182 v 0 0 0 0 0 0 0 0 0 0 0 0 0 h 0.305177 v 0 0 0 0 0 0 0 0 0 0 0 0 h 0.305182 v 0 0 0 0 0 0 0 0 0 0 0 0 h 0.305182 v 0 0 0 10.376184 0 0 0 0 0 0 0 0 0 h 0.305177 v 0 0 0 0 0 0 0 0 0 0 -10.376184 0 h 0.305182 v 0 0 0 0 0 0 0 0 0 0 0 0 h 0.305183 v 0 0 0 0 0 0 0 0 0 0 0 0 h 0.305176 v 0 0 0 0 0 0 0 0 0 0 0 0 0 h 0.305182 v 0 -10.071008 0 0 0 0 0 0 0 0 0 0 h 0.305182 v 0 0 0 0 0 0 0 0 0 0 0 0 h 0.305177 v 0 0 0 0 0 0 0 0 0 0 0 0 0 h 0.305183 v 0 0 0 0 0 0 0 0 0 0 0 0 h 0.305181 v 0 0 0 0 0 0 0 0 0 0 0 0 h 0.305177 v 0 0 0 0 0 0 0 0 0 0 0 0 h 0.305182 v 0 0 0 0 0 0 0 0 0 0 0 10.071008 0 h 0.305182 v 0 0 0 0 0 0 0 0 0 0 0 0 h 0.305178 v 0 0 0 0 0 0 0 0 0 0 0 0 h 0.305181 v 0 0 0 0 0 0 0 0 0 0 0 0 0 h 0.305182 v 0 0 0 0 0 0 0 0 0 0 0 0 h 0.305177 v 0 0 0 0 0 0 0 0 0 0 0 10.376184 h 0.305182 v 0 0 0 0 0 0 0 0 0 0 0 0 h 0.305182 v 0 0 0 0 0 0 0 0 0 0 0 0 0 h 0.305177 v 0 0 0 0 0 0 0 0 0 0 0 0 h 0.305182 v 0 0 10.070952 0 0 0 0 0 0 0 0 0 h 0.305182 v 0 0 0 0 0 0 0 0 0 0 0 0 0 h 0.305177 v 0 0 0 0 0 0 0 0 0 0 0 0 h 0.305182 v 0 0 0 0 0 0 0 0 0 0 0 0 h 0.305183 v 0 0 0 0 0 0 0 0 0 0 0 0 h 0.305176 v 0 0 0 0 0 0 0 0 0 0 0 0 0 h 0.305182 v 0 0 0 0 0 0 0 0 0 0 0 0 h 0.305183 v 0 0 0 0 0 0 0 0 0 0 0 0 h 0.305176 v 0 0 0 0 0 0 0 0 0 0 0 0 0 h 0.305183 v 0 0 0 0 0 0 0 0 0 0 0 0 h 0.305181 v 0 0 0 0 0 0 0 0 0 0 0 0 h 0.305177 v 0 0 0 0 0 0 0 0 0 0 0 0 0 h 0.305183 v 0 0 0 0 0 0 0 0 0 0 0 0 h 0.305181 v 0 0 0 0 0 0 0 0 0 0 0 0 h 0.305178 v 0 0 0 0 0 0 0 0 0 0 0 0 h 0.305181 v 0 0 0 0 0 0 0 0 0 0 0 0 0 h 0.305182 v 0 0 0 0 0 0 0 0 0 0 0 0 h 0.305178 v 0 0 0 0 0 0 0 0 0 0 0 0 h 0.305181 v 0 0 0 0 0 0 -10.070952 0 0 0 0 0 0 h 0.305178 v 0 0 0 0 0 0 0 0 0 0 0 0 h 0.305181 v 0 0 0 0 0 0 0 0 0 0 0 0 h 0.305182 v 0 0 0 0 0 0 0 0 0 0 0 0 h 0.305178 v 0 0 0 0 0 0 0 0 0 0 0 0 0 h 0.305181 v 0 0 0 0 0 0 0 0 0 0 0 0 h 0.305182 v 0 0 0 0 0 0 0 0 0 0 0 0 h 0.305177 v 0 0 0 0 0 0 0 0 0 0 0 0 0 h 0.305182 v 0 0 0 0 0 0 0 0 0 0 0 0 h 0.305182 v 0 0 0 0 0 0 0 0 0 0 0 0 h 0.305177 v 0 0 0 0 0 0 0 0 0 0 0 0 h 0.305182 v 0 0 0 0 0 0 0 0 0 0 0 0 0 h 0.305183 v 0 0 0 0 0 0 0 0 0 0 0 0 h 0.305176 v 0 0 0 0 0 0 0 0 0 0 0 0 h 0.305182 v 0 0 0 0 0 0 0 0 0 0 0 0 0 h 0.305183 v 0 0 0 0 0 0 10.070952 0 0 0 0 0 h 0.305176 v 0 0 0 0 0 0 0 0 0 0 0 0 h 0.305183 v 0 0 0 0 0 0 0 0 0 0 0 0 h 0.305182 v 0 0 0 0 0 0 0 0 0 0 0 0 0 h 0.305176 v 0 0 0 0 0 0 0 0 0 0 0 0 h 0.305183 v 0 0 0 0 0 0 0 0 0 0 0 0 h 0.305181 v 0 0 0 0 0 0 0 0 0 0 0 0 0 h 0.305178 v 0 0 0 0 0 0 0 0 0 0 0 0 h 0.305182 v 0 0 0 0 0 0 0 0 0 0 0 0 h 0.305181 v 0 0 0 0 0 0 0 0 0 0 0 0 0 h 0.305179 v 0 0 0 0 0 0 0 0 0 0 0 0 h 0.305185 v 0 0 0 0 0 0 0 0 0 0 0 0 h 0.305174 v 0 0 0 0 0 0 0 0 0 0 0 0 h 0.305189 v 0 0 0 0 0 0 0 0 0 0 0 0 0 h 0.30517 v 0 0 0 0 0 0 0 0 0 0 0 0 h 0.30519 v 0 0 0 0 0 0 0 0 0 0 0 0 h 0.30517 v 0 0 0 0 0 0 0 0 0 0 0 0 0 h 0.30518 v 0 0 0 0 0 0 0 0 0 0 0 0 h 0.30519 v 0 0 0 0 0 0 0 0 0 0 0 0 h 0.305175 v 0 0 0 0 0 0 0 0 0 0 0 0 h 0.305187 v 0 0 0 0 0 0 0 0 0 0 0 0 0 h 0.30517 v 0 0 0 0 0 0 0 0 0 0 0 0 h 0.305187 v 0 0 0 0 0 0 0 0 0 0 0 0 h 0.30517 v 0 0 0 0 0 0 0 0 0 0 0 0 0 h 0.30519 v 0 0 0 0 0 0 0 0 0 0 0 0 h 0.30517 v 0 0 0 0 0 0 0 0 0 0 0 0 h 0.30519 v 0 0 0 0 0 0 0 0 0 0 0 0 h 0.30518 v 0 0 0 0 0 0 0 0 0 0 0 0 0 h 0.30517 v 0 0 0 0 0 0 0 0 0 0 0 0 h 0.30519 v 0 0 0 0 0 0 0 0 0 0 0 0 h 0.30518 v 0 0 0 0 0 0 0 0 0 0 0 0 0 h 0.30518 v 0 0 0 0 0 0 0 0 0 0 0 0 h 0.30518 v 0 0 0 0 0 0 0 0 0 0 0 0 h 0.30518 v 0 0 0 0 0 0 0 0 0 0 0 0 h 0.30518 v 0 0 0 0 0 0 0 0 0 0 0 0 0 h 0.30518 v 0 0 0 0 0 0 0 0 0 0 0 0 h 0.30518 v 0 0 0 0 0 0 0 0 0 0 0 0 h 0.30518 v 0 0 0 0 0 0 0 0 0 0 0 0 0 h 0.30518 v 0 0 0 0 0 0 0 0 0 0 0 0 h 0.30518 v 0 0 0 0 0 0 0 0 0 0 0 0 h 0.30518 v 0 0 0 0 0 0 0 0 -10.070952 0 0 0 0 h 0.30518 v 0 0 0 -10.376184 0 0 0 0 0 0 0 0 h 0.30517 v 0 0 0 0 0 0 0 0 0 0 0 0 h 0.30519 v 0 0 0 0 0 0 0 0 0 0 0 0 h 0.30517 v 0 0 0 0 0 0 0 0 0 0 0 0 0 h 0.30519 v 0 0 0 0 0 0 0 0 0 0 0 0 h 0.30517 v 0 0 0 0 0 0 0 0 0 0 0 0 h 0.30519 v 0 0 0 0 0 0 0 0 0 0 0 -10.071008 0 h 0.30518 v 0 0 0 0 0 0 0 0 0 0 0 0 h 0.30518 v 0 0 0 0 0 0 0 0 0 0 0 0 h 0.30518 v 0 0 0 0 0 0 0 0 0 0 0 0 h 0.30519 v 0 0 0 0 0 0 0 0 0 0 0 0 0 h 0.30517 v 0 0 0 0 0 0 0 0 0 0 0 0 h 0.30519 v 0 0 0 0 0 0 0 0 0 0 0 0 h 0.30517 v 0 0 0 0 0 0 0 0 0 0 0 0 0 h 0.30518 v 0 0 0 0 0 0 0 0 10.071008 0 0 0 h 0.30518 v 0 0 0 0 10.376184 0 0 0 0 0 0 0 h 0.30518 v 0 0 0 0 0 0 0 0 0 0 0 0 h 0.30518 v 0 0 0 0 -10.376184 0 0 0 0 0 0 0 0 h 0.30518 v 0 0 0 0 0 0 0 0 0 0 0 0 h 0.30518 v 0 0 0 0 0 0 0 0 0 0 0 0 h 0.30518 v 0 0 0 0 0 0 0 0 0 0 0 0 0 h 0.30519 v 0 0 0 0 0 0 0 0 0 0 0 10.376184 h 0.30517 v 0 0 -10.376184 0 0 0 0 0 0 0 0 0 h 0.30519 v 0 0 0 0 0 0 0 0 0 0 0 0 h 0.30517 v 0 0 0 0 0 0 0 0 0 0 0 0 0 h 0.30519 v 0 0 0 0 0 0 0 0 0 0 0 0 h 0.30517 v 0 0 0 0 0 0 0 0 0 0 0 0 h 0.30518 v 0 0 0 0 0 0 0 0 0 0 0 0 0 h 0.30518 v 0 0 0 0 0 0 0 0 0 -10.071008 0 0 h 0.30518 v 0 0 0 0 0 0 0 0 0 0 0 0 h 0.30519 v 0 0 0 0 0 0 0 0 0 0 0 0 h 0.30517 v 0 0 0 0 -10.071007 0 0 0 0 0 0 0 0 h 0.30519 v 0 0 0 0 10.071007 0 0 0 0 0 0 0 h 0.30518 v 0 0 0 0 0 0 0 0 0 0 0 0 h 0.30518 v 0 0 0 0 0 0 0 0 0 0 0 0 0 h 0.30518 v 0 0 0 0 0 0 0 0 0 0 0 0 h 0.30518 v 0 0 0 0 0 0 0 0 0 0 0 0 h 0.30518 v 0 0 0 10.071008 0 -10.071008 0 0 0 0 0 0 0 h 0.30518 v 0 0 0 0 0 0 0 0 0 0 0 0 h 0.30518 v 0 0 0 0 0 0 0 0 0 0 0 0 h 0.30517 v 0 0 0 0 0 0 0 0 0 0 0 0 h 0.30519 v 0 0 0 0 0 0 0 0 0 0 0 0 0 h 0.30518 v 0 0 0 0 0 0 0 0 0 0 0 0 h 0.30518 v 0 0 0 0 0 0 0 0 0 0 10.071008 0 h 0.30518 v 0 0 0 0 0 0 0 0 0 0 0 0 0 h 0.30518 v 0 0 0 0 0 0 0 0 0 0 0 0 h 0.30518 v 0 0 0 0 10.376184 0 0 0 0 0 0 0 h 0.30518 v 0 0 0 0 0 0 0 0 0 0 0 0 h 0.30518 v 0 0 0 0 0 0 0 0 0 0 0 0 0 h 0.30518 v 0 0 0 0 -10.376184 0 0 0 0 0 0 0 h 0.30518 v 0 0 0 0 0 0 0 0 0 0 0 0 h 0.30519 v 0 0 0 0 0 0 0 0 0 0 0 0 0 h 0.30517 v 0 0 0 0 0 10.376184 0 0 0 0 0 0 h 0.30518 v 0 0 0 0 0 0 0 0 0 0 0 0 h 0.30519 v 0 0 0 0 0 0 0 0 0 0 0 0 h 0.30517 v 0 0 0 0 0 0 0 0 0 0 0 0 0 h 0.30519 v 0 0 0 0 0 0 0 0 0 0 0 0 h 0.30517 v 0 0 0 0 0 0 0 0 0 0 0 0 h 0.30519 v 0 0 0 0 0 0 0 0 0 0 0 0 0 h 0.30517 v 0 0 0 0 0 0 0 0 0 0 0 0 h 0.30519 v 0 0 0 0 0 0 0 0 0 0 0 0 h 0.30517 v 0 0 0 0 0 0 0 0 0 0 0 0 h 0.30519 v 0 0 0 0 0 0 0 0 0 0 0 0 0 h 0.30518 v 0 0 0 0 0 0 0 0 0 0 0 0 h 0.30518 v 0 0 0 0 0 10.070952 0 0 0 0 0 0 h 0.30518 v 0 0 0 0 0 0 0 0 0 0 0 0 0 h 0.30517 v 0 0 0 0 0 0 0 0 0 0 0 0 h 0.30519 v 0 0 0 0 0 0 0 0 0 0 0 0 h 0.30517 v 0 0 0 0 0 0 0 0 0 0 0 0 0 h 0.30519 v 0 0 0 0 0 0 0 0 0 0 0 0 h 0.30517 v 0 0 0 0 0 0 0 0 0 0 0 0 h 0.30519 v 0 0 0 0 0 0 0 0 0 0 0 0 h 0.30518 v 0 0 0 0 0 0 0 0 0 0 0 0 0 h 0.30518 v 0 0 0 0 0 0 0 0 0 0 0 0 h 0.30518 v 0 0 0 0 0 0 0 0 0 0 0 0 h 0.30519 v 0 0 0 0 0 0 0 0 0 0 0 0 0 h 0.30517 v 0 0 0 0 0 0 0 0 0 0 0 0 h 0.30519 v 0 0 0 0 0 0 0 0 0 0 0 0 h 0.30517 v 0 0 0 0 0 0 0 0 0 0 0 0 h 0.30519 v 0 0 0 0 0 0 0 0 0 0 0 0 0 h 0.30517 v 0 0 0 0 0 0 0 0 0 0 0 0 h 0.30518 v 0 0 0 0 0 0 0 0 0 0 0 0 h 0.30518 v 0 0 0 0 0 0 0 0 0 0 0 0 0 h 0.30518 v 0 0 0 0 0 0 0 0 0 0 0 0 h 0.30518 v 0 0 0 0 0 0 0 0 0 0 0 0 h 0.30518 v 0 0 0 0 0 0 0 0 0 0 0 0 h 0.30519 v 0 0 0 0 0 0 0 0 0 0 0 0 0 h 0.30517 v 0 0 0 0 0 0 0 0 0 0 0 0 h 0.30519 v 0 -10.070952 0 0 0 0 0 0 0 0 0 0 h 0.30517 v 0 0 0 0 0 0 0 0 0 0 0 0 0 h 0.30519 v 0 0 0 0 0 0 0 0 0 0 0 0 h 0.30517 v 0 0 0 0 0 0 0 0 0 0 0 0 h 0.30519 v 0 0 0 0 0 0 0 0 0 0 0 0 h 0.30517 v 0 0 0 0 0 0 0 0 0 0 0 0 0 h 0.30518 v 0 0 0 0 0 0 0 0 0 0 0 0 h 0.30519 v 0 0 0 0 0 0 0 0 0 0 0 0 h 0.30517 v 0 0 0 0 0 0 0 0 0 0 0 0 0 h 0.30519 v 0 0 0 0 0 0 0 0 0 0 0 0 h 0.30518 v 0 0 0 0 0 0 0 0 0 0 0 0 h 0.30518 v 0 0 0 0 0 0 0 0 0 0 0 0 0 h 0.30518 v 0 0 0 0 0 0 0 0 0 0 0 0 h 0.30518 v 0 0 0 0 0 0 0 0 0 0 0 0 h 0.30518 v 0 0 0 0 0 0 0 0 0 0 0 0 h 0.30518 v 0 0 10.070952 0 0 0 0 0 0 0 0 0 0 h 0.30518 v 0 0 0 0 0 0 0 0 0 0 0 0 h 0.30517 v 0 0 0 0 0 0 0 0 0 0 0 0 h 0.30519 v 0 -10.070952 0 0 0 0 0 0 0 0 0 0 0 h 0.30518 v 0 0 0 0 0 0 0 0 0 0 0 0 h 0.30518 v 0 0 0 0 0 0 0 0 0 0 0 0 h 0.30518 v 0 0 0 0 0 0 0 0 0 0 0 0 h 0.30518 v 0 0 0 0 0 0 0 0 0 0 0 0 0 h 0.30518 v 0 0 0 0 0 0 0 0 0 0 0 0 h 0.30518 v 0 0 0 0 0 0 0 0 0 0 0 0 h 0.30518 v 0 0 0 0 0 0 0 0 0 0 0 0 0 h 0.30518 v 0 0 0 0 0 0 0 0 0 0 0 0 h 0.30518 v 0 0 0 0 0 0 0 0 0 0 0 0 h 0.30519 v 0 0 0 0 0 0 0 0 0 0 0 0 h 0.30517 v 0 0 0 0 0 0 0 0 0 0 0 0 0 h 0.30519 v 0 0 0 0 0 0 0 0 0 0 0 0 h 0.30518 v 0 0 0 0 0 0 0 0 -10.376184 0 0 0 h 0.30517 v 0 0 0 0 0 0 0 0 0 0 0 0 0 h 0.30519 v 0 10.376184 0 0 0 0 0 0 0 0 0 0 h 0.30517 v 0 0 0 0 0 0 0 0 0 0 0 0 h 0.30519 v 0 0 0 0 0 0 0 0 0 0 0 0 h 0.30517 v 0 -10.376184 0 0 0 0 0 0 0 0 0 0 0 h 0.30519 v 0 0 0 0 0 0 0 0 0 0 0 0 h 0.30517 v 0 0 0 0 0 0 0 0 0 0 0 0 h 0.30519 v 0 0 0 0 0 0 0 0 0 0 0 0 0 h 0.30518 v 0 0 0 0 0 0 0 0 0 0 0 0 h 0.30518 v 0 0 0 0 0 0 0 0 0 0 -10.071008 0 h 0.30518 v 0 0 0 0 0 0 0 0 0 0 0 0 h 0.30518 v 0 0 0 0 0 0 0 0 0 0 0 0 0 h 0.30518 v 0 0 0 0 0 0 0 0 0 0 0 0 h 0.30517 v 0 0 0 0 0 0 0 0 0 0 0 0 h 0.30519 v 0 0 0 0 0 0 0 0 0 10.071008 0 0 0 h 0.30517 v 0 0 0 0 0 0 0 0 0 0 0 0 h 0.30519 v 0 0 0 0 0 0 0 0 0 0 0 0 h 0.30518 v 0 0 0 0 0 0 0 0 0 0 0 0 0 h 0.30518 v 0 0 0 0 0 0 0 0 0 0 0 0 h 0.30518 v 0 10.376184 0 0 0 0 0 0 0 0 0 0 h 0.30519 v 0 0 0 0 0 0 0 0 0 0 0 0 h 0.30517 v 0 0 0 0 0 0 0 0 0 0 0 0 0 h 0.30519 v 0 0 0 0 0 0 0 0 0 0 0 0 h 0.30517 v 0 0 0 0 0 0 0 0 0 0 0 0 h 0.30519 v 0 0 0 0 0 0 0 0 0 0 0 10.070952 0 h 0.30517 v 0 0 0 0 0 0 0 0 0 0 0 0 h 0.30518 v 0 0 0 0 0 0 0 0 0 0 0 0 h 0.30518 v 0 0 0 0 0 0 0 0 0 0 0 0 h 0.30518 v 0 0 0 0 0 0 0 0 0 0 0 0 0 h 0.30518 v 0 0 0 0 0 0 0 0 0 0 0 0 h 0.30518 v 0 0 0 0 0 0 0 0 0 0 0 0 h 0.30519 v 0 0 0 0 0 0 0 0 0 0 0 0 0 h 0.30517 v 0 0 0 0 0 0 0 0 0 0 0 0 h 0.30519 v 0 0 0 0 0 0 0 0 0 0 0 0 h 0.30517 v 0 0 0 0 0 0 0 0 0 0 0 0 h 0.30519 v 0 0 0 0 0 0 0 0 0 0 0 0 0 h 0.30517 v 0 0 0 0 0 0 0 0 0 0 0 0 h 0.30519 v 0 0 0 0 0 0 0 0 0 0 0 0 h 0.30518 v 0 0 0 0 0 0 0 0 0 0 0 0 0 h 0.30519 v 0 0 0 0 0 0 0 0 0 0 0 0 h 0.30517 v 0 0 0 0 0 0 0 0 0 0 0 0 h 0.30518 v 0 0 0 0 0 0 0 0 0 0 0 0 h 0.30519 v 0 0 0 0 0 0 0 0 0 0 0 0 0 h 0.30518 v 0 0 0 0 0 0 0 0 0 0 0 0 h 0.30518 v 0 0 0 0 0 0 0 0 0 0 0 0 h 0.30518 v 0 0 0 0 0 0 0 0 0 0 0 0 0 h 0.30519 v 0 0 0 0 0 0 0 0 0 0 0 0 h 0.30517 v 0 0 0 0 0 0 0 0 0 0 0 0 h 0.30519 v 0 0 0 0 0 0 0 0 0 0 0 0 0 h 0.30518 v 0 0 0 0 0 0 0 0 0 0 0 0 h 0.30519 v 0 0 0 0 0 0 0 0 0 0 0 0 h 0.30517 v 0 0 0 0 0 0 0 0 0 0 0 0 h 0.30519 v 0 0 0 0 0 0 0 0 0 0 0 0 0 h 0.30518 v 0 0 0 0 0 0 0 0 0 0 0 0 h 0.30519 v 0 0 0 0 0 0 0 0 0 0 0 0 h 0.30517 v 0 0 0 0 0 0 0 0 0 0 0 0 0 h 0.30519 v 0 0 0 0 0 0 0 0 0 0 0 0 h 0.30518 v 0 0 0 0 0 0 0 0 0 0 0 0 h 0.30518 v 0 0 0 0 0 0 0 0 0 0 0 0 h 0.30518 v 0 0 0 0 0 0 0 0 0 0 0 0 0 h 0.30519 v 0 0 0 0 0 0 0 0 0 0 0 0 h 0.30518 v 0 0 0 0 0 0 0 0 0 0 0 0 h 0.30517 v 0 0 0 0 0 0 0 0 0 0 0 0 0 h 0.30519 v 0 0 0 0 0 0 0 0 0 0 0 0 l 0.30518,-10.070952 v 0 0 0 0 0 0 0 0 0 0 0 0 h 0.30519 v 0 0 0 0 0 0 0 0 0 0 0 0 h 0.30517 v 0 0 0 -10.376184 0 0 0 0 0 0 0 0 -10.071008 h 0.30519 v 0 0 0 0 0 0 0 0 0 0 0 0 h 0.30518 v 0 0 0 0 0 0 0 0 0 0 0 0 h 0.30518 v 0 0 0 0 0 0 0 0 0 0 0 0 0 h 0.30518 v 0 0 0 0 0 0 0 0 0 0 0 0 h 0.30519 v 0 0 0 0 0 0 0 0 0 0 0 0 h 0.30518 v 0 0 0 0 0 0 0 0 0 0 0 0 h 0.30518 v 0 0 0 0 0 0 0 0 0 0 0 0 0 h 0.30518 v 0 0 0 0 0 0 0 0 0 0 0 0 h 0.30519 v 0 0 0 0 0 0 0 0 0 0 0 0 h 0.30518 v 0 0 0 0 0 0 0 0 0 0 0 0 0 h 0.30518 v 0 0 0 0 0 0 0 0 0 0 0 0 h 0.30518 v 0 0 0 0 0 0 0 0 0 0 0 0 h 0.30519 v 10.071008 0 0 0 0 0 0 0 0 0 0 0 0 h 0.30518 v 0 0 0 0 0 0 0 0 0 0 0 0 h 0.30517 v 0 0 0 10.376184 0 0 0 0 0 0 0 0 l 0.30519,10.070952 v 0 0 0 0 0 0 0 0 0 0 0 0 h 0.30518 v 0 0 0 0 0 0 0 0 0 0 0 0 0 h 0.30518 v 0 0 0 0 0 0 0 0 0 0 0 0 h 0.30518 v 0 0 0 0 0 0 0 0 0 0 0 0 h 0.30519 v 0 0 0 0 0 0 0 0 0 0 0 0 0 h 0.30518 v 0 0 0 0 0 0 0 0 0 0 0 0 h 0.30518 v 0 0 0 0 0 0 0 0 0 0 0 0 h 0.30518 v 0 0 0 0 0 0 0 0 0 0 0 0 h 0.30519 v 0 0 0 0 0 0 0 0 0 0 0 0 0 h 0.30518 v 0 0 0 0 0 0 0 0 0 0 0 0 h 0.30518 v 0 0 0 0 0 0 0 0 0 0 0 0 h 0.30518 v 0 0 0 0 0 0 0 0 0 0 0 0 0 h 0.30519 v 0 0 0 0 0 0 0 0 0 0 0 0 h 0.30517 v 0 0 0 0 0 0"
       id="path38" />
    <text
       xml:space="preserve"
       style="font-style:normal;font-variant:normal;font-weight:400;font-size:3.80837px;line-height:125%;font-family:Arial;text-align:start;letter-spacing:0px;word-spacing:0px;text-anchor:start;fill:#000000;fill-opacity:1;stroke:none;stroke-width:0.451095"
       transform="rotate(-90)"
       x="-81.237961"
       y="4.793859"
       id="text39"><tspan
         sodipodi:role="line"
         x="-81.237961"
         y="4.793859"
         id="tspan39"
         style="font-size:3.80837px;stroke-width:0.451095"><tspan
           dx="0"
           dy="0"
           style="font-style:normal;font-variant:normal;font-weight:400;font-size:3.80837px;font-family:Arial;fill:#000000;stroke-width:0.451095"
           id="tspan38">Breakpoints per 200 nt window</tspan></tspan></text>
    <text
       xml:space="preserve"
       style="font-style:normal;font-variant:normal;font-weight:400;font-size:2.82222px;line-height:125%;font-family:Arial;text-align:start;letter-spacing:0px;word-spacing:0px;text-anchor:start;fill:#004280;fill-opacity:0.501961;stroke:none;stroke-width:0.451095"
       x="83.086777"
       y="91.407822"
       id="text4-8"><tspan
         sodipodi:role="line"
         x="83.086777"
         y="91.407822"
         id="tspan4-5"
         style="font-weight:bold;font-size:2.82222px;fill:#004280;fill-opacity:0.501961;stroke-width:0.451095">2782</tspan></text>
    <text
       xml:space="preserve"
       style="font-style:normal;font-variant:normal;font-weight:400;font-size:2.82222px;line-height:125%;font-family:Arial;text-align:start;letter-spacing:0px;word-spacing:0px;text-anchor:start;fill:#004280;fill-opacity:0.501961;stroke:none;stroke-width:0.451095"
       x="111.04499"
       y="91.330414"
       id="text4-8-6"><tspan
         sodipodi:role="line"
         x="111.04499"
         y="91.330414"
         id="tspan4-5-01"
         style="font-weight:bold;font-size:2.82222px;fill:#004280;fill-opacity:0.501961;stroke-width:0.451095">4329</tspan></text>
    <text
       xml:space="preserve"
       style="font-style:normal;font-variant:normal;font-weight:400;font-size:2.82222px;line-height:125%;font-family:Arial;text-align:start;letter-spacing:0px;word-spacing:0px;text-anchor:start;fill:#800026;fill-opacity:0.501961;stroke:none;stroke-width:0.451095"
       x="118.77414"
       y="91.291664"
       id="text4-8-6-3"><tspan
         sodipodi:role="line"
         x="118.77414"
         y="91.291664"
         id="tspan4-5-01-9"
         style="font-weight:bold;font-size:2.82222px;fill:#800026;fill-opacity:0.501961;stroke-width:0.451095">4330</tspan></text>
    <text
       xml:space="preserve"
       style="font-style:normal;font-variant:normal;font-weight:400;font-size:2.82222px;line-height:125%;font-family:Arial;text-align:start;letter-spacing:0px;word-spacing:0px;text-anchor:start;fill:#800026;fill-opacity:0.501961;stroke:none;stroke-width:0.451095"
       x="137.82401"
       y="91.314995"
       id="text4-8-6-3-8"><tspan
         sodipodi:role="line"
         x="137.82401"
         y="91.314995"
         id="tspan4-5-01-9-2"
         style="font-weight:bold;font-size:2.82222px;fill:#800026;fill-opacity:0.501961;stroke-width:0.451095">5258</tspan></text>
    <text
       xml:space="preserve"
       style="font-style:normal;font-variant:normal;font-weight:400;font-size:2.82222px;line-height:125%;font-family:Arial;text-align:start;letter-spacing:0px;word-spacing:0px;text-anchor:start;fill:#008056;fill-opacity:0.501961;stroke:none;stroke-width:0.451095"
       x="75.271698"
       y="91.402573"
       id="text4-8-3"><tspan
         sodipodi:role="line"
         x="75.271698"
         y="91.402573"
         id="tspan4-5-0"
         style="font-weight:bold;font-size:2.82222px;fill:#008056;fill-opacity:0.501961;stroke-width:0.451095">2781</tspan></text>
  </g>
</svg>
