<?xml version="1.0" encoding="utf-8" standalone="no"?>
<!DOCTYPE svg PUBLIC "-//W3C//DTD SVG 1.1//EN"
  "http://www.w3.org/Graphics/SVG/1.1/DTD/svg11.dtd">
<svg xmlns:xlink="http://www.w3.org/1999/xlink" width="460.8pt" height="345.6pt" viewBox="0 0 460.8 345.6" xmlns="http://www.w3.org/2000/svg" version="1.1">
 <metadata>
  <rdf:RDF xmlns:dc="http://purl.org/dc/elements/1.1/" xmlns:cc="http://creativecommons.org/ns#" xmlns:rdf="http://www.w3.org/1999/02/22-rdf-syntax-ns#">
   <cc:Work>
    <dc:type rdf:resource="http://purl.org/dc/dcmitype/StillImage"/>
    <dc:date>2024-07-27T18:16:45.382033</dc:date>
    <dc:format>image/svg+xml</dc:format>
    <dc:creator>
     <cc:Agent>
      <dc:title>Matplotlib v3.9.1, https://matplotlib.org/</dc:title>
     </cc:Agent>
    </dc:creator>
   </cc:Work>
  </rdf:RDF>
 </metadata>
 <defs>
  <style type="text/css">*{stroke-linejoin: round; stroke-linecap: butt}</style>
 </defs>
 <g id="figure_1">
  <g id="patch_1">
   <path d="M 0 345.6 
L 460.8 345.6 
L 460.8 0 
L 0 0 
z
" style="fill: #ffffff"/>
  </g>
  <g id="axes_1">
   <g id="patch_2">
    <path d="M 57.6 307.584 
L 414.72 307.584 
L 414.72 41.472 
L 57.6 41.472 
z
" style="fill: #ffffff"/>
   </g>
   <g id="matplotlib.axis_1">
    <g id="xtick_1">
     <g id="line2d_1">
      <defs>
       <path id="m83432036c2" d="M 0 0 
L 0 3.5 
" style="stroke: #000000; stroke-width: 0.8"/>
      </defs>
      <g>
       <use xlink:href="#m83432036c2" x="57.6" y="307.584" style="stroke: #000000; stroke-width: 0.8"/>
      </g>
     </g>
     <g id="text_1">
      <!-- 0 -->
      <g transform="translate(54.41875 322.182437) scale(0.1 -0.1)">
       <defs>
        <path id="DejaVuSans-30" d="M 2034 4250 
Q 1547 4250 1301 3770 
Q 1056 3291 1056 2328 
Q 1056 1369 1301 889 
Q 1547 409 2034 409 
Q 2525 409 2770 889 
Q 3016 1369 3016 2328 
Q 3016 3291 2770 3770 
Q 2525 4250 2034 4250 
z
M 2034 4750 
Q 2819 4750 3233 4129 
Q 3647 3509 3647 2328 
Q 3647 1150 3233 529 
Q 2819 -91 2034 -91 
Q 1250 -91 836 529 
Q 422 1150 422 2328 
Q 422 3509 836 4129 
Q 1250 4750 2034 4750 
z
" transform="scale(0.015625)"/>
       </defs>
       <use xlink:href="#DejaVuSans-30"/>
      </g>
     </g>
    </g>
    <g id="xtick_2">
     <g id="line2d_2">
      <g>
       <use xlink:href="#m83432036c2" x="110.225995" y="307.584" style="stroke: #000000; stroke-width: 0.8"/>
      </g>
     </g>
     <g id="text_2">
      <!-- 1000 -->
      <g transform="translate(97.500995 322.182437) scale(0.1 -0.1)">
       <defs>
        <path id="DejaVuSans-31" d="M 794 531 
L 1825 531 
L 1825 4091 
L 703 3866 
L 703 4441 
L 1819 4666 
L 2450 4666 
L 2450 531 
L 3481 531 
L 3481 0 
L 794 0 
L 794 531 
z
" transform="scale(0.015625)"/>
       </defs>
       <use xlink:href="#DejaVuSans-31"/>
       <use xlink:href="#DejaVuSans-30" x="63.623047"/>
       <use xlink:href="#DejaVuSans-30" x="127.246094"/>
       <use xlink:href="#DejaVuSans-30" x="190.869141"/>
      </g>
     </g>
    </g>
    <g id="xtick_3">
     <g id="line2d_3">
      <g>
       <use xlink:href="#m83432036c2" x="162.851989" y="307.584" style="stroke: #000000; stroke-width: 0.8"/>
      </g>
     </g>
     <g id="text_3">
      <!-- 2000 -->
      <g transform="translate(150.126989 322.182437) scale(0.1 -0.1)">
       <defs>
        <path id="DejaVuSans-32" d="M 1228 531 
L 3431 531 
L 3431 0 
L 469 0 
L 469 531 
Q 828 903 1448 1529 
Q 2069 2156 2228 2338 
Q 2531 2678 2651 2914 
Q 2772 3150 2772 3378 
Q 2772 3750 2511 3984 
Q 2250 4219 1831 4219 
Q 1534 4219 1204 4116 
Q 875 4013 500 3803 
L 500 4441 
Q 881 4594 1212 4672 
Q 1544 4750 1819 4750 
Q 2544 4750 2975 4387 
Q 3406 4025 3406 3419 
Q 3406 3131 3298 2873 
Q 3191 2616 2906 2266 
Q 2828 2175 2409 1742 
Q 1991 1309 1228 531 
z
" transform="scale(0.015625)"/>
       </defs>
       <use xlink:href="#DejaVuSans-32"/>
       <use xlink:href="#DejaVuSans-30" x="63.623047"/>
       <use xlink:href="#DejaVuSans-30" x="127.246094"/>
       <use xlink:href="#DejaVuSans-30" x="190.869141"/>
      </g>
     </g>
    </g>
    <g id="xtick_4">
     <g id="line2d_4">
      <g>
       <use xlink:href="#m83432036c2" x="215.477984" y="307.584" style="stroke: #000000; stroke-width: 0.8"/>
      </g>
     </g>
     <g id="text_4">
      <!-- 3000 -->
      <g transform="translate(202.752984 322.182437) scale(0.1 -0.1)">
       <defs>
        <path id="DejaVuSans-33" d="M 2597 2516 
Q 3050 2419 3304 2112 
Q 3559 1806 3559 1356 
Q 3559 666 3084 287 
Q 2609 -91 1734 -91 
Q 1441 -91 1130 -33 
Q 819 25 488 141 
L 488 750 
Q 750 597 1062 519 
Q 1375 441 1716 441 
Q 2309 441 2620 675 
Q 2931 909 2931 1356 
Q 2931 1769 2642 2001 
Q 2353 2234 1838 2234 
L 1294 2234 
L 1294 2753 
L 1863 2753 
Q 2328 2753 2575 2939 
Q 2822 3125 2822 3475 
Q 2822 3834 2567 4026 
Q 2313 4219 1838 4219 
Q 1578 4219 1281 4162 
Q 984 4106 628 3988 
L 628 4550 
Q 988 4650 1302 4700 
Q 1616 4750 1894 4750 
Q 2613 4750 3031 4423 
Q 3450 4097 3450 3541 
Q 3450 3153 3228 2886 
Q 3006 2619 2597 2516 
z
" transform="scale(0.015625)"/>
       </defs>
       <use xlink:href="#DejaVuSans-33"/>
       <use xlink:href="#DejaVuSans-30" x="63.623047"/>
       <use xlink:href="#DejaVuSans-30" x="127.246094"/>
       <use xlink:href="#DejaVuSans-30" x="190.869141"/>
      </g>
     </g>
    </g>
    <g id="xtick_5">
     <g id="line2d_5">
      <g>
       <use xlink:href="#m83432036c2" x="268.103979" y="307.584" style="stroke: #000000; stroke-width: 0.8"/>
      </g>
     </g>
     <g id="text_5">
      <!-- 4000 -->
      <g transform="translate(255.378979 322.182437) scale(0.1 -0.1)">
       <defs>
        <path id="DejaVuSans-34" d="M 2419 4116 
L 825 1625 
L 2419 1625 
L 2419 4116 
z
M 2253 4666 
L 3047 4666 
L 3047 1625 
L 3713 1625 
L 3713 1100 
L 3047 1100 
L 3047 0 
L 2419 0 
L 2419 1100 
L 313 1100 
L 313 1709 
L 2253 4666 
z
" transform="scale(0.015625)"/>
       </defs>
       <use xlink:href="#DejaVuSans-34"/>
       <use xlink:href="#DejaVuSans-30" x="63.623047"/>
       <use xlink:href="#DejaVuSans-30" x="127.246094"/>
       <use xlink:href="#DejaVuSans-30" x="190.869141"/>
      </g>
     </g>
    </g>
    <g id="xtick_6">
     <g id="line2d_6">
      <g>
       <use xlink:href="#m83432036c2" x="320.729973" y="307.584" style="stroke: #000000; stroke-width: 0.8"/>
      </g>
     </g>
     <g id="text_6">
      <!-- 5000 -->
      <g transform="translate(308.004973 322.182437) scale(0.1 -0.1)">
       <defs>
        <path id="DejaVuSans-35" d="M 691 4666 
L 3169 4666 
L 3169 4134 
L 1269 4134 
L 1269 2991 
Q 1406 3038 1543 3061 
Q 1681 3084 1819 3084 
Q 2600 3084 3056 2656 
Q 3513 2228 3513 1497 
Q 3513 744 3044 326 
Q 2575 -91 1722 -91 
Q 1428 -91 1123 -41 
Q 819 9 494 109 
L 494 744 
Q 775 591 1075 516 
Q 1375 441 1709 441 
Q 2250 441 2565 725 
Q 2881 1009 2881 1497 
Q 2881 1984 2565 2268 
Q 2250 2553 1709 2553 
Q 1456 2553 1204 2497 
Q 953 2441 691 2322 
L 691 4666 
z
" transform="scale(0.015625)"/>
       </defs>
       <use xlink:href="#DejaVuSans-35"/>
       <use xlink:href="#DejaVuSans-30" x="63.623047"/>
       <use xlink:href="#DejaVuSans-30" x="127.246094"/>
       <use xlink:href="#DejaVuSans-30" x="190.869141"/>
      </g>
     </g>
    </g>
    <g id="xtick_7">
     <g id="line2d_7">
      <g>
       <use xlink:href="#m83432036c2" x="373.355968" y="307.584" style="stroke: #000000; stroke-width: 0.8"/>
      </g>
     </g>
     <g id="text_7">
      <!-- 6000 -->
      <g transform="translate(360.630968 322.182437) scale(0.1 -0.1)">
       <defs>
        <path id="DejaVuSans-36" d="M 2113 2584 
Q 1688 2584 1439 2293 
Q 1191 2003 1191 1497 
Q 1191 994 1439 701 
Q 1688 409 2113 409 
Q 2538 409 2786 701 
Q 3034 994 3034 1497 
Q 3034 2003 2786 2293 
Q 2538 2584 2113 2584 
z
M 3366 4563 
L 3366 3988 
Q 3128 4100 2886 4159 
Q 2644 4219 2406 4219 
Q 1781 4219 1451 3797 
Q 1122 3375 1075 2522 
Q 1259 2794 1537 2939 
Q 1816 3084 2150 3084 
Q 2853 3084 3261 2657 
Q 3669 2231 3669 1497 
Q 3669 778 3244 343 
Q 2819 -91 2113 -91 
Q 1303 -91 875 529 
Q 447 1150 447 2328 
Q 447 3434 972 4092 
Q 1497 4750 2381 4750 
Q 2619 4750 2861 4703 
Q 3103 4656 3366 4563 
z
" transform="scale(0.015625)"/>
       </defs>
       <use xlink:href="#DejaVuSans-36"/>
       <use xlink:href="#DejaVuSans-30" x="63.623047"/>
       <use xlink:href="#DejaVuSans-30" x="127.246094"/>
       <use xlink:href="#DejaVuSans-30" x="190.869141"/>
      </g>
     </g>
    </g>
    <g id="text_8">
     <!-- Position in genome, nt -->
     <g transform="translate(180.227187 335.860562) scale(0.1 -0.1)">
      <defs>
       <path id="DejaVuSans-50" d="M 1259 4147 
L 1259 2394 
L 2053 2394 
Q 2494 2394 2734 2622 
Q 2975 2850 2975 3272 
Q 2975 3691 2734 3919 
Q 2494 4147 2053 4147 
L 1259 4147 
z
M 628 4666 
L 2053 4666 
Q 2838 4666 3239 4311 
Q 3641 3956 3641 3272 
Q 3641 2581 3239 2228 
Q 2838 1875 2053 1875 
L 1259 1875 
L 1259 0 
L 628 0 
L 628 4666 
z
" transform="scale(0.015625)"/>
       <path id="DejaVuSans-6f" d="M 1959 3097 
Q 1497 3097 1228 2736 
Q 959 2375 959 1747 
Q 959 1119 1226 758 
Q 1494 397 1959 397 
Q 2419 397 2687 759 
Q 2956 1122 2956 1747 
Q 2956 2369 2687 2733 
Q 2419 3097 1959 3097 
z
M 1959 3584 
Q 2709 3584 3137 3096 
Q 3566 2609 3566 1747 
Q 3566 888 3137 398 
Q 2709 -91 1959 -91 
Q 1206 -91 779 398 
Q 353 888 353 1747 
Q 353 2609 779 3096 
Q 1206 3584 1959 3584 
z
" transform="scale(0.015625)"/>
       <path id="DejaVuSans-73" d="M 2834 3397 
L 2834 2853 
Q 2591 2978 2328 3040 
Q 2066 3103 1784 3103 
Q 1356 3103 1142 2972 
Q 928 2841 928 2578 
Q 928 2378 1081 2264 
Q 1234 2150 1697 2047 
L 1894 2003 
Q 2506 1872 2764 1633 
Q 3022 1394 3022 966 
Q 3022 478 2636 193 
Q 2250 -91 1575 -91 
Q 1294 -91 989 -36 
Q 684 19 347 128 
L 347 722 
Q 666 556 975 473 
Q 1284 391 1588 391 
Q 1994 391 2212 530 
Q 2431 669 2431 922 
Q 2431 1156 2273 1281 
Q 2116 1406 1581 1522 
L 1381 1569 
Q 847 1681 609 1914 
Q 372 2147 372 2553 
Q 372 3047 722 3315 
Q 1072 3584 1716 3584 
Q 2034 3584 2315 3537 
Q 2597 3491 2834 3397 
z
" transform="scale(0.015625)"/>
       <path id="DejaVuSans-69" d="M 603 3500 
L 1178 3500 
L 1178 0 
L 603 0 
L 603 3500 
z
M 603 4863 
L 1178 4863 
L 1178 4134 
L 603 4134 
L 603 4863 
z
" transform="scale(0.015625)"/>
       <path id="DejaVuSans-74" d="M 1172 4494 
L 1172 3500 
L 2356 3500 
L 2356 3053 
L 1172 3053 
L 1172 1153 
Q 1172 725 1289 603 
Q 1406 481 1766 481 
L 2356 481 
L 2356 0 
L 1766 0 
Q 1100 0 847 248 
Q 594 497 594 1153 
L 594 3053 
L 172 3053 
L 172 3500 
L 594 3500 
L 594 4494 
L 1172 4494 
z
" transform="scale(0.015625)"/>
       <path id="DejaVuSans-6e" d="M 3513 2113 
L 3513 0 
L 2938 0 
L 2938 2094 
Q 2938 2591 2744 2837 
Q 2550 3084 2163 3084 
Q 1697 3084 1428 2787 
Q 1159 2491 1159 1978 
L 1159 0 
L 581 0 
L 581 3500 
L 1159 3500 
L 1159 2956 
Q 1366 3272 1645 3428 
Q 1925 3584 2291 3584 
Q 2894 3584 3203 3211 
Q 3513 2838 3513 2113 
z
" transform="scale(0.015625)"/>
       <path id="DejaVuSans-20" transform="scale(0.015625)"/>
       <path id="DejaVuSans-67" d="M 2906 1791 
Q 2906 2416 2648 2759 
Q 2391 3103 1925 3103 
Q 1463 3103 1205 2759 
Q 947 2416 947 1791 
Q 947 1169 1205 825 
Q 1463 481 1925 481 
Q 2391 481 2648 825 
Q 2906 1169 2906 1791 
z
M 3481 434 
Q 3481 -459 3084 -895 
Q 2688 -1331 1869 -1331 
Q 1566 -1331 1297 -1286 
Q 1028 -1241 775 -1147 
L 775 -588 
Q 1028 -725 1275 -790 
Q 1522 -856 1778 -856 
Q 2344 -856 2625 -561 
Q 2906 -266 2906 331 
L 2906 616 
Q 2728 306 2450 153 
Q 2172 0 1784 0 
Q 1141 0 747 490 
Q 353 981 353 1791 
Q 353 2603 747 3093 
Q 1141 3584 1784 3584 
Q 2172 3584 2450 3431 
Q 2728 3278 2906 2969 
L 2906 3500 
L 3481 3500 
L 3481 434 
z
" transform="scale(0.015625)"/>
       <path id="DejaVuSans-65" d="M 3597 1894 
L 3597 1613 
L 953 1613 
Q 991 1019 1311 708 
Q 1631 397 2203 397 
Q 2534 397 2845 478 
Q 3156 559 3463 722 
L 3463 178 
Q 3153 47 2828 -22 
Q 2503 -91 2169 -91 
Q 1331 -91 842 396 
Q 353 884 353 1716 
Q 353 2575 817 3079 
Q 1281 3584 2069 3584 
Q 2775 3584 3186 3129 
Q 3597 2675 3597 1894 
z
M 3022 2063 
Q 3016 2534 2758 2815 
Q 2500 3097 2075 3097 
Q 1594 3097 1305 2825 
Q 1016 2553 972 2059 
L 3022 2063 
z
" transform="scale(0.015625)"/>
       <path id="DejaVuSans-6d" d="M 3328 2828 
Q 3544 3216 3844 3400 
Q 4144 3584 4550 3584 
Q 5097 3584 5394 3201 
Q 5691 2819 5691 2113 
L 5691 0 
L 5113 0 
L 5113 2094 
Q 5113 2597 4934 2840 
Q 4756 3084 4391 3084 
Q 3944 3084 3684 2787 
Q 3425 2491 3425 1978 
L 3425 0 
L 2847 0 
L 2847 2094 
Q 2847 2600 2669 2842 
Q 2491 3084 2119 3084 
Q 1678 3084 1418 2786 
Q 1159 2488 1159 1978 
L 1159 0 
L 581 0 
L 581 3500 
L 1159 3500 
L 1159 2956 
Q 1356 3278 1631 3431 
Q 1906 3584 2284 3584 
Q 2666 3584 2933 3390 
Q 3200 3197 3328 2828 
z
" transform="scale(0.015625)"/>
       <path id="DejaVuSans-2c" d="M 750 794 
L 1409 794 
L 1409 256 
L 897 -744 
L 494 -744 
L 750 256 
L 750 794 
z
" transform="scale(0.015625)"/>
      </defs>
      <use xlink:href="#DejaVuSans-50"/>
      <use xlink:href="#DejaVuSans-6f" x="56.677734"/>
      <use xlink:href="#DejaVuSans-73" x="117.859375"/>
      <use xlink:href="#DejaVuSans-69" x="169.958984"/>
      <use xlink:href="#DejaVuSans-74" x="197.742188"/>
      <use xlink:href="#DejaVuSans-69" x="236.951172"/>
      <use xlink:href="#DejaVuSans-6f" x="264.734375"/>
      <use xlink:href="#DejaVuSans-6e" x="325.916016"/>
      <use xlink:href="#DejaVuSans-20" x="389.294922"/>
      <use xlink:href="#DejaVuSans-69" x="421.082031"/>
      <use xlink:href="#DejaVuSans-6e" x="448.865234"/>
      <use xlink:href="#DejaVuSans-20" x="512.244141"/>
      <use xlink:href="#DejaVuSans-67" x="544.03125"/>
      <use xlink:href="#DejaVuSans-65" x="607.507812"/>
      <use xlink:href="#DejaVuSans-6e" x="669.03125"/>
      <use xlink:href="#DejaVuSans-6f" x="732.410156"/>
      <use xlink:href="#DejaVuSans-6d" x="793.591797"/>
      <use xlink:href="#DejaVuSans-65" x="891.003906"/>
      <use xlink:href="#DejaVuSans-2c" x="952.527344"/>
      <use xlink:href="#DejaVuSans-20" x="984.314453"/>
      <use xlink:href="#DejaVuSans-6e" x="1016.101562"/>
      <use xlink:href="#DejaVuSans-74" x="1079.480469"/>
     </g>
    </g>
   </g>
   <g id="matplotlib.axis_2">
    <g id="ytick_1">
     <g id="line2d_8">
      <defs>
       <path id="m965da632e0" d="M 0 0 
L -3.5 0 
" style="stroke: #000000; stroke-width: 0.8"/>
      </defs>
      <g>
       <use xlink:href="#m965da632e0" x="57.6" y="295.820765" style="stroke: #000000; stroke-width: 0.8"/>
      </g>
     </g>
     <g id="text_9">
      <!-- 0 -->
      <g transform="translate(44.2375 299.619984) scale(0.1 -0.1)">
       <use xlink:href="#DejaVuSans-30"/>
      </g>
     </g>
    </g>
    <g id="ytick_2">
     <g id="line2d_9">
      <g>
       <use xlink:href="#m965da632e0" x="57.6" y="262.544286" style="stroke: #000000; stroke-width: 0.8"/>
      </g>
     </g>
     <g id="text_10">
      <!-- 200 -->
      <g transform="translate(31.5125 266.343505) scale(0.1 -0.1)">
       <use xlink:href="#DejaVuSans-32"/>
       <use xlink:href="#DejaVuSans-30" x="63.623047"/>
       <use xlink:href="#DejaVuSans-30" x="127.246094"/>
      </g>
     </g>
    </g>
    <g id="ytick_3">
     <g id="line2d_10">
      <g>
       <use xlink:href="#m965da632e0" x="57.6" y="229.267807" style="stroke: #000000; stroke-width: 0.8"/>
      </g>
     </g>
     <g id="text_11">
      <!-- 400 -->
      <g transform="translate(31.5125 233.067026) scale(0.1 -0.1)">
       <use xlink:href="#DejaVuSans-34"/>
       <use xlink:href="#DejaVuSans-30" x="63.623047"/>
       <use xlink:href="#DejaVuSans-30" x="127.246094"/>
      </g>
     </g>
    </g>
    <g id="ytick_4">
     <g id="line2d_11">
      <g>
       <use xlink:href="#m965da632e0" x="57.6" y="195.991329" style="stroke: #000000; stroke-width: 0.8"/>
      </g>
     </g>
     <g id="text_12">
      <!-- 600 -->
      <g transform="translate(31.5125 199.790547) scale(0.1 -0.1)">
       <use xlink:href="#DejaVuSans-36"/>
       <use xlink:href="#DejaVuSans-30" x="63.623047"/>
       <use xlink:href="#DejaVuSans-30" x="127.246094"/>
      </g>
     </g>
    </g>
    <g id="ytick_5">
     <g id="line2d_12">
      <g>
       <use xlink:href="#m965da632e0" x="57.6" y="162.71485" style="stroke: #000000; stroke-width: 0.8"/>
      </g>
     </g>
     <g id="text_13">
      <!-- 800 -->
      <g transform="translate(31.5125 166.514069) scale(0.1 -0.1)">
       <defs>
        <path id="DejaVuSans-38" d="M 2034 2216 
Q 1584 2216 1326 1975 
Q 1069 1734 1069 1313 
Q 1069 891 1326 650 
Q 1584 409 2034 409 
Q 2484 409 2743 651 
Q 3003 894 3003 1313 
Q 3003 1734 2745 1975 
Q 2488 2216 2034 2216 
z
M 1403 2484 
Q 997 2584 770 2862 
Q 544 3141 544 3541 
Q 544 4100 942 4425 
Q 1341 4750 2034 4750 
Q 2731 4750 3128 4425 
Q 3525 4100 3525 3541 
Q 3525 3141 3298 2862 
Q 3072 2584 2669 2484 
Q 3125 2378 3379 2068 
Q 3634 1759 3634 1313 
Q 3634 634 3220 271 
Q 2806 -91 2034 -91 
Q 1263 -91 848 271 
Q 434 634 434 1313 
Q 434 1759 690 2068 
Q 947 2378 1403 2484 
z
M 1172 3481 
Q 1172 3119 1398 2916 
Q 1625 2713 2034 2713 
Q 2441 2713 2670 2916 
Q 2900 3119 2900 3481 
Q 2900 3844 2670 4047 
Q 2441 4250 2034 4250 
Q 1625 4250 1398 4047 
Q 1172 3844 1172 3481 
z
" transform="scale(0.015625)"/>
       </defs>
       <use xlink:href="#DejaVuSans-38"/>
       <use xlink:href="#DejaVuSans-30" x="63.623047"/>
       <use xlink:href="#DejaVuSans-30" x="127.246094"/>
      </g>
     </g>
    </g>
    <g id="ytick_6">
     <g id="line2d_13">
      <g>
       <use xlink:href="#m965da632e0" x="57.6" y="129.438371" style="stroke: #000000; stroke-width: 0.8"/>
      </g>
     </g>
     <g id="text_14">
      <!-- 1000 -->
      <g transform="translate(25.15 133.23759) scale(0.1 -0.1)">
       <use xlink:href="#DejaVuSans-31"/>
       <use xlink:href="#DejaVuSans-30" x="63.623047"/>
       <use xlink:href="#DejaVuSans-30" x="127.246094"/>
       <use xlink:href="#DejaVuSans-30" x="190.869141"/>
      </g>
     </g>
    </g>
    <g id="ytick_7">
     <g id="line2d_14">
      <g>
       <use xlink:href="#m965da632e0" x="57.6" y="96.161893" style="stroke: #000000; stroke-width: 0.8"/>
      </g>
     </g>
     <g id="text_15">
      <!-- 1200 -->
      <g transform="translate(25.15 99.961111) scale(0.1 -0.1)">
       <use xlink:href="#DejaVuSans-31"/>
       <use xlink:href="#DejaVuSans-32" x="63.623047"/>
       <use xlink:href="#DejaVuSans-30" x="127.246094"/>
       <use xlink:href="#DejaVuSans-30" x="190.869141"/>
      </g>
     </g>
    </g>
    <g id="ytick_8">
     <g id="line2d_15">
      <g>
       <use xlink:href="#m965da632e0" x="57.6" y="62.885414" style="stroke: #000000; stroke-width: 0.8"/>
      </g>
     </g>
     <g id="text_16">
      <!-- 1400 -->
      <g transform="translate(25.15 66.684633) scale(0.1 -0.1)">
       <use xlink:href="#DejaVuSans-31"/>
       <use xlink:href="#DejaVuSans-34" x="63.623047"/>
       <use xlink:href="#DejaVuSans-30" x="127.246094"/>
       <use xlink:href="#DejaVuSans-30" x="190.869141"/>
      </g>
     </g>
    </g>
    <g id="text_17">
     <!-- Number of sequences in GenBank -->
     <g transform="translate(19.070312 259.725656) rotate(-90) scale(0.1 -0.1)">
      <defs>
       <path id="DejaVuSans-4e" d="M 628 4666 
L 1478 4666 
L 3547 763 
L 3547 4666 
L 4159 4666 
L 4159 0 
L 3309 0 
L 1241 3903 
L 1241 0 
L 628 0 
L 628 4666 
z
" transform="scale(0.015625)"/>
       <path id="DejaVuSans-75" d="M 544 1381 
L 544 3500 
L 1119 3500 
L 1119 1403 
Q 1119 906 1312 657 
Q 1506 409 1894 409 
Q 2359 409 2629 706 
Q 2900 1003 2900 1516 
L 2900 3500 
L 3475 3500 
L 3475 0 
L 2900 0 
L 2900 538 
Q 2691 219 2414 64 
Q 2138 -91 1772 -91 
Q 1169 -91 856 284 
Q 544 659 544 1381 
z
M 1991 3584 
L 1991 3584 
z
" transform="scale(0.015625)"/>
       <path id="DejaVuSans-62" d="M 3116 1747 
Q 3116 2381 2855 2742 
Q 2594 3103 2138 3103 
Q 1681 3103 1420 2742 
Q 1159 2381 1159 1747 
Q 1159 1113 1420 752 
Q 1681 391 2138 391 
Q 2594 391 2855 752 
Q 3116 1113 3116 1747 
z
M 1159 2969 
Q 1341 3281 1617 3432 
Q 1894 3584 2278 3584 
Q 2916 3584 3314 3078 
Q 3713 2572 3713 1747 
Q 3713 922 3314 415 
Q 2916 -91 2278 -91 
Q 1894 -91 1617 61 
Q 1341 213 1159 525 
L 1159 0 
L 581 0 
L 581 4863 
L 1159 4863 
L 1159 2969 
z
" transform="scale(0.015625)"/>
       <path id="DejaVuSans-72" d="M 2631 2963 
Q 2534 3019 2420 3045 
Q 2306 3072 2169 3072 
Q 1681 3072 1420 2755 
Q 1159 2438 1159 1844 
L 1159 0 
L 581 0 
L 581 3500 
L 1159 3500 
L 1159 2956 
Q 1341 3275 1631 3429 
Q 1922 3584 2338 3584 
Q 2397 3584 2469 3576 
Q 2541 3569 2628 3553 
L 2631 2963 
z
" transform="scale(0.015625)"/>
       <path id="DejaVuSans-66" d="M 2375 4863 
L 2375 4384 
L 1825 4384 
Q 1516 4384 1395 4259 
Q 1275 4134 1275 3809 
L 1275 3500 
L 2222 3500 
L 2222 3053 
L 1275 3053 
L 1275 0 
L 697 0 
L 697 3053 
L 147 3053 
L 147 3500 
L 697 3500 
L 697 3744 
Q 697 4328 969 4595 
Q 1241 4863 1831 4863 
L 2375 4863 
z
" transform="scale(0.015625)"/>
       <path id="DejaVuSans-71" d="M 947 1747 
Q 947 1113 1208 752 
Q 1469 391 1925 391 
Q 2381 391 2643 752 
Q 2906 1113 2906 1747 
Q 2906 2381 2643 2742 
Q 2381 3103 1925 3103 
Q 1469 3103 1208 2742 
Q 947 2381 947 1747 
z
M 2906 525 
Q 2725 213 2448 61 
Q 2172 -91 1784 -91 
Q 1150 -91 751 415 
Q 353 922 353 1747 
Q 353 2572 751 3078 
Q 1150 3584 1784 3584 
Q 2172 3584 2448 3432 
Q 2725 3281 2906 2969 
L 2906 3500 
L 3481 3500 
L 3481 -1331 
L 2906 -1331 
L 2906 525 
z
" transform="scale(0.015625)"/>
       <path id="DejaVuSans-63" d="M 3122 3366 
L 3122 2828 
Q 2878 2963 2633 3030 
Q 2388 3097 2138 3097 
Q 1578 3097 1268 2742 
Q 959 2388 959 1747 
Q 959 1106 1268 751 
Q 1578 397 2138 397 
Q 2388 397 2633 464 
Q 2878 531 3122 666 
L 3122 134 
Q 2881 22 2623 -34 
Q 2366 -91 2075 -91 
Q 1284 -91 818 406 
Q 353 903 353 1747 
Q 353 2603 823 3093 
Q 1294 3584 2113 3584 
Q 2378 3584 2631 3529 
Q 2884 3475 3122 3366 
z
" transform="scale(0.015625)"/>
       <path id="DejaVuSans-47" d="M 3809 666 
L 3809 1919 
L 2778 1919 
L 2778 2438 
L 4434 2438 
L 4434 434 
Q 4069 175 3628 42 
Q 3188 -91 2688 -91 
Q 1594 -91 976 548 
Q 359 1188 359 2328 
Q 359 3472 976 4111 
Q 1594 4750 2688 4750 
Q 3144 4750 3555 4637 
Q 3966 4525 4313 4306 
L 4313 3634 
Q 3963 3931 3569 4081 
Q 3175 4231 2741 4231 
Q 1884 4231 1454 3753 
Q 1025 3275 1025 2328 
Q 1025 1384 1454 906 
Q 1884 428 2741 428 
Q 3075 428 3337 486 
Q 3600 544 3809 666 
z
" transform="scale(0.015625)"/>
       <path id="DejaVuSans-42" d="M 1259 2228 
L 1259 519 
L 2272 519 
Q 2781 519 3026 730 
Q 3272 941 3272 1375 
Q 3272 1813 3026 2020 
Q 2781 2228 2272 2228 
L 1259 2228 
z
M 1259 4147 
L 1259 2741 
L 2194 2741 
Q 2656 2741 2882 2914 
Q 3109 3088 3109 3444 
Q 3109 3797 2882 3972 
Q 2656 4147 2194 4147 
L 1259 4147 
z
M 628 4666 
L 2241 4666 
Q 2963 4666 3353 4366 
Q 3744 4066 3744 3513 
Q 3744 3084 3544 2831 
Q 3344 2578 2956 2516 
Q 3422 2416 3680 2098 
Q 3938 1781 3938 1306 
Q 3938 681 3513 340 
Q 3088 0 2303 0 
L 628 0 
L 628 4666 
z
" transform="scale(0.015625)"/>
       <path id="DejaVuSans-61" d="M 2194 1759 
Q 1497 1759 1228 1600 
Q 959 1441 959 1056 
Q 959 750 1161 570 
Q 1363 391 1709 391 
Q 2188 391 2477 730 
Q 2766 1069 2766 1631 
L 2766 1759 
L 2194 1759 
z
M 3341 1997 
L 3341 0 
L 2766 0 
L 2766 531 
Q 2569 213 2275 61 
Q 1981 -91 1556 -91 
Q 1019 -91 701 211 
Q 384 513 384 1019 
Q 384 1609 779 1909 
Q 1175 2209 1959 2209 
L 2766 2209 
L 2766 2266 
Q 2766 2663 2505 2880 
Q 2244 3097 1772 3097 
Q 1472 3097 1187 3025 
Q 903 2953 641 2809 
L 641 3341 
Q 956 3463 1253 3523 
Q 1550 3584 1831 3584 
Q 2591 3584 2966 3190 
Q 3341 2797 3341 1997 
z
" transform="scale(0.015625)"/>
       <path id="DejaVuSans-6b" d="M 581 4863 
L 1159 4863 
L 1159 1991 
L 2875 3500 
L 3609 3500 
L 1753 1863 
L 3688 0 
L 2938 0 
L 1159 1709 
L 1159 0 
L 581 0 
L 581 4863 
z
" transform="scale(0.015625)"/>
      </defs>
      <use xlink:href="#DejaVuSans-4e"/>
      <use xlink:href="#DejaVuSans-75" x="74.804688"/>
      <use xlink:href="#DejaVuSans-6d" x="138.183594"/>
      <use xlink:href="#DejaVuSans-62" x="235.595703"/>
      <use xlink:href="#DejaVuSans-65" x="299.072266"/>
      <use xlink:href="#DejaVuSans-72" x="360.595703"/>
      <use xlink:href="#DejaVuSans-20" x="401.708984"/>
      <use xlink:href="#DejaVuSans-6f" x="433.496094"/>
      <use xlink:href="#DejaVuSans-66" x="494.677734"/>
      <use xlink:href="#DejaVuSans-20" x="529.882812"/>
      <use xlink:href="#DejaVuSans-73" x="561.669922"/>
      <use xlink:href="#DejaVuSans-65" x="613.769531"/>
      <use xlink:href="#DejaVuSans-71" x="675.292969"/>
      <use xlink:href="#DejaVuSans-75" x="738.769531"/>
      <use xlink:href="#DejaVuSans-65" x="802.148438"/>
      <use xlink:href="#DejaVuSans-6e" x="863.671875"/>
      <use xlink:href="#DejaVuSans-63" x="927.050781"/>
      <use xlink:href="#DejaVuSans-65" x="982.03125"/>
      <use xlink:href="#DejaVuSans-73" x="1043.554688"/>
      <use xlink:href="#DejaVuSans-20" x="1095.654297"/>
      <use xlink:href="#DejaVuSans-69" x="1127.441406"/>
      <use xlink:href="#DejaVuSans-6e" x="1155.224609"/>
      <use xlink:href="#DejaVuSans-20" x="1218.603516"/>
      <use xlink:href="#DejaVuSans-47" x="1250.390625"/>
      <use xlink:href="#DejaVuSans-65" x="1327.880859"/>
      <use xlink:href="#DejaVuSans-6e" x="1389.404297"/>
      <use xlink:href="#DejaVuSans-42" x="1452.783203"/>
      <use xlink:href="#DejaVuSans-61" x="1521.386719"/>
      <use xlink:href="#DejaVuSans-6e" x="1582.666016"/>
      <use xlink:href="#DejaVuSans-6b" x="1646.044922"/>
     </g>
    </g>
   </g>
   <g id="line2d_16">
    <path d="M 57.6 293.657794 
L 57.757878 293.158646 
L 58.073634 293.158646 
L 58.284138 292.825882 
L 60.75756 292.825882 
L 60.915438 292.659499 
L 61.28382 292.659499 
L 61.441698 292.326735 
L 61.704828 292.326735 
L 61.862706 290.496528 
L 61.915332 290.330146 
L 62.07321 288.000792 
L 64.494005 288.000792 
L 64.651883 287.501645 
L 65.072891 287.501645 
L 65.230769 287.335263 
L 67.441061 287.335263 
L 67.598939 287.002498 
L 73.335172 287.002498 
L 73.49305 286.836116 
L 81.965836 286.836116 
L 82.123714 286.669733 
L 83.702493 286.669733 
L 83.860371 286.336968 
L 98.59565 286.336968 
L 98.753528 286.503351 
L 104.174005 286.503351 
L 104.331883 286.669733 
L 106.279045 286.669733 
L 106.436923 286.503351 
L 112.857294 286.503351 
L 113.015172 286.669733 
L 115.488594 286.669733 
L 115.646472 286.503351 
L 117.225252 286.503351 
L 117.38313 286.336968 
L 119.698674 286.336968 
L 119.856552 282.842938 
L 119.909178 282.842938 
L 120.067056 282.510173 
L 120.80382 282.510173 
L 120.961698 282.343791 
L 121.59321 282.343791 
L 121.751088 279.016143 
L 122.066844 279.016143 
L 122.224721 277.352319 
L 122.382599 277.185937 
L 122.803607 277.185937 
L 122.961485 277.352319 
L 123.014111 277.352319 
L 123.171989 277.185937 
L 131.644775 277.185937 
L 131.802653 277.518702 
L 131.960531 277.685084 
L 132.118408 279.681673 
L 132.276286 279.681673 
L 132.48679 280.679967 
L 132.644668 281.179114 
L 132.855172 281.179114 
L 133.01305 281.345497 
L 133.644562 281.345497 
L 133.80244 281.511879 
L 134.3287 281.511879 
L 134.486578 282.676556 
L 134.539204 282.676556 
L 134.697082 282.510173 
L 134.802334 282.842938 
L 134.960212 286.336968 
L 144.959151 286.336968 
L 145.117029 286.503351 
L 181.11321 286.503351 
L 181.271088 291.99397 
L 183.165623 291.99397 
L 183.218249 292.825882 
L 183.270875 291.32844 
L 183.323501 291.494823 
L 183.481379 291.99397 
L 184.007639 291.99397 
L 184.165517 292.160352 
L 189.112361 292.160352 
L 189.270239 284.839527 
L 190.691141 284.839527 
L 190.849019 285.172292 
L 190.901645 285.172292 
L 191.059523 286.503351 
L 199.269178 286.503351 
L 199.427056 286.336968 
L 203.216127 286.336968 
L 203.374005 286.170586 
L 203.637135 286.170586 
L 203.689761 286.004204 
L 203.742387 286.170586 
L 204.005517 286.170586 
L 204.163395 286.004204 
L 204.794907 286.004204 
L 204.952785 286.170586 
L 207.057825 286.170586 
L 207.215703 286.336968 
L 209.162865 286.336968 
L 209.320743 286.004204 
L 210.741645 286.004204 
L 210.899523 286.170586 
L 211.636286 286.170586 
L 211.794164 286.336968 
L 215.26748 286.336968 
L 215.425358 286.170586 
L 216.530504 286.170586 
L 216.688382 286.336968 
L 221.687851 286.336968 
L 221.845729 286.170586 
L 226.213687 286.170586 
L 226.371565 286.004204 
L 229.108117 286.004204 
L 229.265995 285.837821 
L 229.792255 285.837821 
L 229.950133 286.004204 
L 232.370928 286.004204 
L 232.528806 285.837821 
L 245.948435 285.837821 
L 246.264191 284.34038 
L 246.843077 284.34038 
L 246.895703 284.173997 
L 247.053581 283.175703 
L 247.211459 283.175703 
L 247.369337 282.011026 
L 247.527215 272.194465 
L 247.842971 268.201287 
L 248.158727 268.201287 
L 248.316605 268.034905 
L 248.421857 268.034905 
L 248.579735 265.040022 
L 248.790239 265.040022 
L 248.948117 262.544286 
L 249.105995 262.377904 
L 249.316499 248.90093 
L 249.421751 248.90093 
L 249.579629 248.734547 
L 249.737507 248.734547 
L 249.895385 247.569871 
L 250.053263 247.569871 
L 250.263767 247.237106 
L 252.210928 247.237106 
L 252.57931 246.405194 
L 253.052944 246.405194 
L 253.210822 245.074135 
L 253.684456 245.074135 
L 253.842334 244.574988 
L 254.052838 244.574988 
L 254.210716 244.408605 
L 259.789072 244.408605 
L 259.94695 244.574988 
L 261.736233 244.574988 
L 261.894111 244.408605 
L 264.051777 244.408605 
L 264.209655 244.574988 
L 264.683289 244.574988 
L 264.841167 244.907752 
L 266.472573 244.907752 
L 266.735703 245.906047 
L 266.893581 257.885579 
L 267.156711 259.549403 
L 267.314589 259.549403 
L 267.367215 259.715785 
L 267.419841 262.544286 
L 267.577719 275.688495 
L 267.630345 275.688495 
L 267.682971 275.854878 
L 267.840849 276.853172 
L 267.893475 276.853172 
L 268.051353 277.518702 
L 273.524456 277.518702 
L 273.682334 277.851466 
L 274.103342 277.851466 
L 274.26122 278.017849 
L 274.419098 278.017849 
L 274.629602 278.350613 
L 275.945252 278.350613 
L 275.997878 278.184231 
L 276.050504 278.350613 
L 276.10313 278.350613 
L 276.261008 278.849761 
L 276.36626 278.849761 
L 276.62939 281.179114 
L 280.418462 281.179114 
L 280.57634 245.074135 
L 280.839469 245.074135 
L 280.997347 244.07584 
L 281.155225 244.07584 
L 281.313103 243.576693 
L 281.365729 243.576693 
L 281.523607 243.243928 
L 281.681485 243.077546 
L 282.944509 243.077546 
L 283.102387 242.079252 
L 284.681167 242.079252 
L 284.733793 242.245634 
L 284.891671 241.912869 
L 285.049549 242.578399 
L 285.260053 242.578399 
L 285.312679 241.580105 
L 285.470557 208.636391 
L 285.575809 208.636391 
L 285.786313 209.801067 
L 285.891565 209.801067 
L 286.049443 207.471714 
L 286.259947 207.471714 
L 286.417825 206.972567 
L 286.891459 206.972567 
L 287.101963 207.638096 
L 287.365093 207.638096 
L 287.575597 207.305331 
L 287.628223 207.305331 
L 287.786101 202.646624 
L 294.785358 202.646624 
L 295.101114 201.981095 
L 295.258992 201.981095 
L 295.41687 201.814713 
L 295.68 201.814713 
L 295.785252 200.816418 
L 295.837878 199.651741 
L 295.995756 189.502415 
L 296.048382 189.502415 
L 296.20626 180.684149 
L 296.679894 176.025442 
L 296.837772 172.032264 
L 296.99565 168.538234 
L 297.416658 165.543351 
L 297.52191 165.210586 
L 297.78504 162.215703 
L 297.942918 159.719967 
L 298.100796 129.604754 
L 298.3113 128.440077 
L 298.363926 128.440077 
L 298.416552 127.608165 
L 298.57443 89.672979 
L 298.627056 89.672979 
L 298.679682 88.674685 
L 298.83756 76.029623 
L 298.890186 76.029623 
L 299.048064 71.038151 
L 299.10069 71.038151 
L 299.258568 68.209651 
L 299.36382 68.209651 
L 299.521698 65.048385 
L 299.732202 64.382856 
L 299.995332 64.382856 
L 300.15321 57.72756 
L 300.363714 57.72756 
L 300.521592 57.561177 
L 301.100477 57.561177 
L 301.258355 56.729265 
L 301.416233 56.562883 
L 301.574111 56.729265 
L 301.995119 56.729265 
L 302.363501 57.72756 
L 302.521379 53.734382 
L 302.679257 53.568 
L 302.784509 53.568 
L 302.942387 53.734382 
L 302.995013 53.734382 
L 303.152891 53.900765 
L 303.416021 53.900765 
L 303.573899 53.734382 
L 303.731777 53.734382 
L 303.889655 53.568 
L 304.047533 54.732677 
L 304.205411 54.732677 
L 304.363289 54.899059 
L 304.521167 56.230118 
L 304.679045 90.837656 
L 304.836923 90.837656 
L 304.994801 91.336803 
L 305.100053 91.336803 
L 305.257931 91.503186 
L 305.415809 91.503186 
L 305.521061 91.83595 
L 305.678939 94.498069 
L 305.784191 94.498069 
L 305.942069 95.99551 
L 306.205199 96.494657 
L 306.415703 96.494657 
L 306.573581 96.827422 
L 306.626207 96.827422 
L 306.784085 96.993805 
L 307.573475 96.993805 
L 307.731353 96.827422 
L 308.941751 96.827422 
L 309.099629 96.993805 
L 309.889019 96.993805 
L 310.046897 99.489541 
L 310.152149 99.489541 
L 310.310027 99.655923 
L 310.573156 99.655923 
L 310.731034 100.15507 
L 310.78366 100.15507 
L 310.941538 101.319747 
L 311.625676 101.319747 
L 311.783554 104.813777 
L 312.62557 104.813777 
L 312.783448 104.98016 
L 312.836074 104.98016 
L 312.993952 110.637161 
L 313.046578 110.637161 
L 313.257082 111.136308 
L 313.41496 110.969926 
L 313.572838 110.969926 
L 313.730716 111.302691 
L 313.888594 111.302691 
L 314.151724 111.801838 
L 314.625358 111.801838 
L 314.783236 114.463956 
L 314.835862 114.463956 
L 314.99374 114.796721 
L 315.046366 114.796721 
L 315.204244 114.963103 
L 315.309496 114.963103 
L 315.467374 116.460545 
L 315.625252 132.10049 
L 315.835756 132.10049 
L 315.993634 138.755785 
L 316.256764 138.755785 
L 316.362016 138.922168 
L 316.519894 169.869293 
L 316.677772 169.869293 
L 316.730398 170.701205 
L 316.888276 182.84712 
L 317.204032 182.84712 
L 317.309284 183.013502 
L 317.467162 186.008385 
L 317.677666 217.454657 
L 318.098674 217.454657 
L 318.1513 217.62104 
L 318.309178 229.101425 
L 318.41443 229.101425 
L 318.67756 229.600572 
L 318.94069 229.600572 
L 319.309072 237.08778 
L 319.572202 238.585221 
L 319.677454 239.084369 
L 319.835332 244.574988 
L 320.151088 244.574988 
L 320.414218 245.074135 
L 320.835225 245.074135 
L 321.150981 245.739664 
L 321.361485 245.739664 
L 321.571989 246.405194 
L 322.203501 246.405194 
L 322.361379 247.070724 
L 322.519257 247.070724 
L 322.677135 251.230283 
L 322.992891 251.230283 
L 323.466525 252.39496 
L 323.571777 252.39496 
L 323.887533 253.726019 
L 323.940159 253.726019 
L 324.098037 254.724314 
L 324.308541 258.384726 
L 324.519045 259.715785 
L 324.571671 259.715785 
L 324.624297 259.882168 
L 324.782175 260.71408 
L 325.518939 260.71408 
L 325.782069 261.213227 
L 326.308329 261.213227 
L 326.466207 261.712374 
L 326.624085 265.705552 
L 332.886578 265.705552 
L 333.044456 265.871934 
L 335.833634 265.871934 
L 335.991512 265.705552 
L 340.990981 265.705552 
L 341.148859 266.204699 
L 341.938249 266.204699 
L 342.096127 266.371081 
L 344.780053 266.371081 
L 344.937931 266.537464 
L 345.727321 266.537464 
L 346.043077 267.369376 
L 346.200955 268.534052 
L 346.358833 268.866817 
L 346.516711 273.192759 
L 351.042546 273.192759 
L 351.200424 276.02126 
L 352.410822 276.02126 
L 352.5687 276.187642 
L 352.989708 276.187642 
L 353.147586 277.019554 
L 353.305464 277.185937 
L 353.463342 290.995675 
L 353.831724 290.995675 
L 353.989602 292.825882 
L 368.093369 292.825882 
L 368.251247 292.992264 
L 375.145252 292.992264 
L 375.30313 293.158646 
L 381.723501 293.158646 
L 381.881379 293.824176 
L 386.354589 293.824176 
L 386.512467 295.488 
L 391.98557 295.488 
L 392.301326 283.67485 
L 392.932838 283.67485 
L 393.090716 283.00932 
L 393.56435 283.00932 
L 393.722228 277.019554 
L 398.774324 277.019554 
L 398.932202 273.359142 
L 399.247958 273.359142 
L 399.458462 273.026377 
L 405.878833 273.026377 
L 406.036711 272.859994 
L 407.404987 272.859994 
L 407.562865 274.024671 
L 407.773369 274.024671 
L 407.931247 274.191054 
L 408.299629 274.191054 
L 408.457507 274.024671 
L 408.931141 274.024671 
L 409.141645 271.528935 
L 410.194164 271.528935 
L 410.352042 271.695318 
L 410.50992 282.510173 
L 411.088806 282.510173 
L 411.246684 283.342085 
L 412.0887 283.342085 
L 412.246578 283.508468 
L 412.61496 283.508468 
L 412.772838 284.34038 
L 412.87809 284.34038 
L 413.035968 284.506762 
L 413.246472 284.506762 
L 413.40435 284.673144 
L 413.509602 284.673144 
L 413.562228 285.005909 
L 413.720106 288.999087 
L 413.877984 289.165469 
L 413.983236 289.165469 
L 414.141114 289.498234 
L 414.246366 289.498234 
L 414.509496 290.496528 
L 414.667374 291.99397 
L 414.667374 291.99397 
" clip-path="url(#pe508e23727)" style="fill: none; stroke: #1f77b4; stroke-width: 1.5; stroke-linecap: square"/>
   </g>
   <g id="patch_3">
    <path d="M 57.6 307.584 
L 57.6 41.472 
" style="fill: none; stroke: #000000; stroke-width: 0.8; stroke-linejoin: miter; stroke-linecap: square"/>
   </g>
   <g id="patch_4">
    <path d="M 414.72 307.584 
L 414.72 41.472 
" style="fill: none; stroke: #000000; stroke-width: 0.8; stroke-linejoin: miter; stroke-linecap: square"/>
   </g>
   <g id="patch_5">
    <path d="M 57.6 307.584 
L 414.72 307.584 
" style="fill: none; stroke: #000000; stroke-width: 0.8; stroke-linejoin: miter; stroke-linecap: square"/>
   </g>
   <g id="patch_6">
    <path d="M 57.6 41.472 
L 414.72 41.472 
" style="fill: none; stroke: #000000; stroke-width: 0.8; stroke-linejoin: miter; stroke-linecap: square"/>
   </g>
  </g>
 </g>
 <defs>
  <clipPath id="pe508e23727">
   <rect x="57.6" y="41.472" width="357.12" height="266.112"/>
  </clipPath>
 </defs>
</svg>
