<?xml version="1.0" encoding="utf-8" standalone="no"?>
<!DOCTYPE svg PUBLIC "-//W3C//DTD SVG 1.1//EN"
  "http://www.w3.org/Graphics/SVG/1.1/DTD/svg11.dtd">
<svg xmlns:xlink="http://www.w3.org/1999/xlink" width="460.8pt" height="345.6pt" viewBox="0 0 460.8 345.6" xmlns="http://www.w3.org/2000/svg" version="1.1">
 <metadata>
  <rdf:RDF xmlns:dc="http://purl.org/dc/elements/1.1/" xmlns:cc="http://creativecommons.org/ns#" xmlns:rdf="http://www.w3.org/1999/02/22-rdf-syntax-ns#">
   <cc:Work>
    <dc:type rdf:resource="http://purl.org/dc/dcmitype/StillImage"/>
    <dc:date>2024-07-27T18:16:47.574674</dc:date>
    <dc:format>image/svg+xml</dc:format>
    <dc:creator>
     <cc:Agent>
      <dc:title>Matplotlib v3.9.1, https://matplotlib.org/</dc:title>
     </cc:Agent>
    </dc:creator>
   </cc:Work>
  </rdf:RDF>
 </metadata>
 <defs>
  <style type="text/css">*{stroke-linejoin: round; stroke-linecap: butt}</style>
 </defs>
 <g id="figure_1">
  <g id="patch_1">
   <path d="M 0 345.6 
L 460.8 345.6 
L 460.8 0 
L 0 0 
z
" style="fill: #ffffff"/>
  </g>
  <g id="axes_1">
   <g id="patch_2">
    <path d="M 57.6 307.584 
L 414.72 307.584 
L 414.72 41.472 
L 57.6 41.472 
z
" style="fill: #ffffff"/>
   </g>
   <g id="matplotlib.axis_1">
    <g id="xtick_1">
     <g id="line2d_1">
      <defs>
       <path id="mf7d6be96a2" d="M 0 0 
L 0 3.5 
" style="stroke: #000000; stroke-width: 0.8"/>
      </defs>
      <g>
       <use xlink:href="#mf7d6be96a2" x="57.6" y="307.584" style="stroke: #000000; stroke-width: 0.8"/>
      </g>
     </g>
     <g id="text_1">
      <!-- 0 -->
      <g transform="translate(54.41875 322.182437) scale(0.1 -0.1)">
       <defs>
        <path id="DejaVuSans-30" d="M 2034 4250 
Q 1547 4250 1301 3770 
Q 1056 3291 1056 2328 
Q 1056 1369 1301 889 
Q 1547 409 2034 409 
Q 2525 409 2770 889 
Q 3016 1369 3016 2328 
Q 3016 3291 2770 3770 
Q 2525 4250 2034 4250 
z
M 2034 4750 
Q 2819 4750 3233 4129 
Q 3647 3509 3647 2328 
Q 3647 1150 3233 529 
Q 2819 -91 2034 -91 
Q 1250 -91 836 529 
Q 422 1150 422 2328 
Q 422 3509 836 4129 
Q 1250 4750 2034 4750 
z
" transform="scale(0.015625)"/>
       </defs>
       <use xlink:href="#DejaVuSans-30"/>
      </g>
     </g>
    </g>
    <g id="xtick_2">
     <g id="line2d_2">
      <g>
       <use xlink:href="#mf7d6be96a2" x="110.436218" y="307.584" style="stroke: #000000; stroke-width: 0.8"/>
      </g>
     </g>
     <g id="text_2">
      <!-- 1000 -->
      <g transform="translate(97.711218 322.182437) scale(0.1 -0.1)">
       <defs>
        <path id="DejaVuSans-31" d="M 794 531 
L 1825 531 
L 1825 4091 
L 703 3866 
L 703 4441 
L 1819 4666 
L 2450 4666 
L 2450 531 
L 3481 531 
L 3481 0 
L 794 0 
L 794 531 
z
" transform="scale(0.015625)"/>
       </defs>
       <use xlink:href="#DejaVuSans-31"/>
       <use xlink:href="#DejaVuSans-30" x="63.623047"/>
       <use xlink:href="#DejaVuSans-30" x="127.246094"/>
       <use xlink:href="#DejaVuSans-30" x="190.869141"/>
      </g>
     </g>
    </g>
    <g id="xtick_3">
     <g id="line2d_3">
      <g>
       <use xlink:href="#mf7d6be96a2" x="163.272437" y="307.584" style="stroke: #000000; stroke-width: 0.8"/>
      </g>
     </g>
     <g id="text_3">
      <!-- 2000 -->
      <g transform="translate(150.547437 322.182437) scale(0.1 -0.1)">
       <defs>
        <path id="DejaVuSans-32" d="M 1228 531 
L 3431 531 
L 3431 0 
L 469 0 
L 469 531 
Q 828 903 1448 1529 
Q 2069 2156 2228 2338 
Q 2531 2678 2651 2914 
Q 2772 3150 2772 3378 
Q 2772 3750 2511 3984 
Q 2250 4219 1831 4219 
Q 1534 4219 1204 4116 
Q 875 4013 500 3803 
L 500 4441 
Q 881 4594 1212 4672 
Q 1544 4750 1819 4750 
Q 2544 4750 2975 4387 
Q 3406 4025 3406 3419 
Q 3406 3131 3298 2873 
Q 3191 2616 2906 2266 
Q 2828 2175 2409 1742 
Q 1991 1309 1228 531 
z
" transform="scale(0.015625)"/>
       </defs>
       <use xlink:href="#DejaVuSans-32"/>
       <use xlink:href="#DejaVuSans-30" x="63.623047"/>
       <use xlink:href="#DejaVuSans-30" x="127.246094"/>
       <use xlink:href="#DejaVuSans-30" x="190.869141"/>
      </g>
     </g>
    </g>
    <g id="xtick_4">
     <g id="line2d_4">
      <g>
       <use xlink:href="#mf7d6be96a2" x="216.108655" y="307.584" style="stroke: #000000; stroke-width: 0.8"/>
      </g>
     </g>
     <g id="text_4">
      <!-- 3000 -->
      <g transform="translate(203.383655 322.182437) scale(0.1 -0.1)">
       <defs>
        <path id="DejaVuSans-33" d="M 2597 2516 
Q 3050 2419 3304 2112 
Q 3559 1806 3559 1356 
Q 3559 666 3084 287 
Q 2609 -91 1734 -91 
Q 1441 -91 1130 -33 
Q 819 25 488 141 
L 488 750 
Q 750 597 1062 519 
Q 1375 441 1716 441 
Q 2309 441 2620 675 
Q 2931 909 2931 1356 
Q 2931 1769 2642 2001 
Q 2353 2234 1838 2234 
L 1294 2234 
L 1294 2753 
L 1863 2753 
Q 2328 2753 2575 2939 
Q 2822 3125 2822 3475 
Q 2822 3834 2567 4026 
Q 2313 4219 1838 4219 
Q 1578 4219 1281 4162 
Q 984 4106 628 3988 
L 628 4550 
Q 988 4650 1302 4700 
Q 1616 4750 1894 4750 
Q 2613 4750 3031 4423 
Q 3450 4097 3450 3541 
Q 3450 3153 3228 2886 
Q 3006 2619 2597 2516 
z
" transform="scale(0.015625)"/>
       </defs>
       <use xlink:href="#DejaVuSans-33"/>
       <use xlink:href="#DejaVuSans-30" x="63.623047"/>
       <use xlink:href="#DejaVuSans-30" x="127.246094"/>
       <use xlink:href="#DejaVuSans-30" x="190.869141"/>
      </g>
     </g>
    </g>
    <g id="xtick_5">
     <g id="line2d_5">
      <g>
       <use xlink:href="#mf7d6be96a2" x="268.944874" y="307.584" style="stroke: #000000; stroke-width: 0.8"/>
      </g>
     </g>
     <g id="text_5">
      <!-- 4000 -->
      <g transform="translate(256.219874 322.182437) scale(0.1 -0.1)">
       <defs>
        <path id="DejaVuSans-34" d="M 2419 4116 
L 825 1625 
L 2419 1625 
L 2419 4116 
z
M 2253 4666 
L 3047 4666 
L 3047 1625 
L 3713 1625 
L 3713 1100 
L 3047 1100 
L 3047 0 
L 2419 0 
L 2419 1100 
L 313 1100 
L 313 1709 
L 2253 4666 
z
" transform="scale(0.015625)"/>
       </defs>
       <use xlink:href="#DejaVuSans-34"/>
       <use xlink:href="#DejaVuSans-30" x="63.623047"/>
       <use xlink:href="#DejaVuSans-30" x="127.246094"/>
       <use xlink:href="#DejaVuSans-30" x="190.869141"/>
      </g>
     </g>
    </g>
    <g id="xtick_6">
     <g id="line2d_6">
      <g>
       <use xlink:href="#mf7d6be96a2" x="321.781092" y="307.584" style="stroke: #000000; stroke-width: 0.8"/>
      </g>
     </g>
     <g id="text_6">
      <!-- 5000 -->
      <g transform="translate(309.056092 322.182437) scale(0.1 -0.1)">
       <defs>
        <path id="DejaVuSans-35" d="M 691 4666 
L 3169 4666 
L 3169 4134 
L 1269 4134 
L 1269 2991 
Q 1406 3038 1543 3061 
Q 1681 3084 1819 3084 
Q 2600 3084 3056 2656 
Q 3513 2228 3513 1497 
Q 3513 744 3044 326 
Q 2575 -91 1722 -91 
Q 1428 -91 1123 -41 
Q 819 9 494 109 
L 494 744 
Q 775 591 1075 516 
Q 1375 441 1709 441 
Q 2250 441 2565 725 
Q 2881 1009 2881 1497 
Q 2881 1984 2565 2268 
Q 2250 2553 1709 2553 
Q 1456 2553 1204 2497 
Q 953 2441 691 2322 
L 691 4666 
z
" transform="scale(0.015625)"/>
       </defs>
       <use xlink:href="#DejaVuSans-35"/>
       <use xlink:href="#DejaVuSans-30" x="63.623047"/>
       <use xlink:href="#DejaVuSans-30" x="127.246094"/>
       <use xlink:href="#DejaVuSans-30" x="190.869141"/>
      </g>
     </g>
    </g>
    <g id="xtick_7">
     <g id="line2d_7">
      <g>
       <use xlink:href="#mf7d6be96a2" x="374.61731" y="307.584" style="stroke: #000000; stroke-width: 0.8"/>
      </g>
     </g>
     <g id="text_7">
      <!-- 6000 -->
      <g transform="translate(361.89231 322.182437) scale(0.1 -0.1)">
       <defs>
        <path id="DejaVuSans-36" d="M 2113 2584 
Q 1688 2584 1439 2293 
Q 1191 2003 1191 1497 
Q 1191 994 1439 701 
Q 1688 409 2113 409 
Q 2538 409 2786 701 
Q 3034 994 3034 1497 
Q 3034 2003 2786 2293 
Q 2538 2584 2113 2584 
z
M 3366 4563 
L 3366 3988 
Q 3128 4100 2886 4159 
Q 2644 4219 2406 4219 
Q 1781 4219 1451 3797 
Q 1122 3375 1075 2522 
Q 1259 2794 1537 2939 
Q 1816 3084 2150 3084 
Q 2853 3084 3261 2657 
Q 3669 2231 3669 1497 
Q 3669 778 3244 343 
Q 2819 -91 2113 -91 
Q 1303 -91 875 529 
Q 447 1150 447 2328 
Q 447 3434 972 4092 
Q 1497 4750 2381 4750 
Q 2619 4750 2861 4703 
Q 3103 4656 3366 4563 
z
" transform="scale(0.015625)"/>
       </defs>
       <use xlink:href="#DejaVuSans-36"/>
       <use xlink:href="#DejaVuSans-30" x="63.623047"/>
       <use xlink:href="#DejaVuSans-30" x="127.246094"/>
       <use xlink:href="#DejaVuSans-30" x="190.869141"/>
      </g>
     </g>
    </g>
    <g id="text_8">
     <!-- Position in genome, nt -->
     <g transform="translate(180.227187 335.860562) scale(0.1 -0.1)">
      <defs>
       <path id="DejaVuSans-50" d="M 1259 4147 
L 1259 2394 
L 2053 2394 
Q 2494 2394 2734 2622 
Q 2975 2850 2975 3272 
Q 2975 3691 2734 3919 
Q 2494 4147 2053 4147 
L 1259 4147 
z
M 628 4666 
L 2053 4666 
Q 2838 4666 3239 4311 
Q 3641 3956 3641 3272 
Q 3641 2581 3239 2228 
Q 2838 1875 2053 1875 
L 1259 1875 
L 1259 0 
L 628 0 
L 628 4666 
z
" transform="scale(0.015625)"/>
       <path id="DejaVuSans-6f" d="M 1959 3097 
Q 1497 3097 1228 2736 
Q 959 2375 959 1747 
Q 959 1119 1226 758 
Q 1494 397 1959 397 
Q 2419 397 2687 759 
Q 2956 1122 2956 1747 
Q 2956 2369 2687 2733 
Q 2419 3097 1959 3097 
z
M 1959 3584 
Q 2709 3584 3137 3096 
Q 3566 2609 3566 1747 
Q 3566 888 3137 398 
Q 2709 -91 1959 -91 
Q 1206 -91 779 398 
Q 353 888 353 1747 
Q 353 2609 779 3096 
Q 1206 3584 1959 3584 
z
" transform="scale(0.015625)"/>
       <path id="DejaVuSans-73" d="M 2834 3397 
L 2834 2853 
Q 2591 2978 2328 3040 
Q 2066 3103 1784 3103 
Q 1356 3103 1142 2972 
Q 928 2841 928 2578 
Q 928 2378 1081 2264 
Q 1234 2150 1697 2047 
L 1894 2003 
Q 2506 1872 2764 1633 
Q 3022 1394 3022 966 
Q 3022 478 2636 193 
Q 2250 -91 1575 -91 
Q 1294 -91 989 -36 
Q 684 19 347 128 
L 347 722 
Q 666 556 975 473 
Q 1284 391 1588 391 
Q 1994 391 2212 530 
Q 2431 669 2431 922 
Q 2431 1156 2273 1281 
Q 2116 1406 1581 1522 
L 1381 1569 
Q 847 1681 609 1914 
Q 372 2147 372 2553 
Q 372 3047 722 3315 
Q 1072 3584 1716 3584 
Q 2034 3584 2315 3537 
Q 2597 3491 2834 3397 
z
" transform="scale(0.015625)"/>
       <path id="DejaVuSans-69" d="M 603 3500 
L 1178 3500 
L 1178 0 
L 603 0 
L 603 3500 
z
M 603 4863 
L 1178 4863 
L 1178 4134 
L 603 4134 
L 603 4863 
z
" transform="scale(0.015625)"/>
       <path id="DejaVuSans-74" d="M 1172 4494 
L 1172 3500 
L 2356 3500 
L 2356 3053 
L 1172 3053 
L 1172 1153 
Q 1172 725 1289 603 
Q 1406 481 1766 481 
L 2356 481 
L 2356 0 
L 1766 0 
Q 1100 0 847 248 
Q 594 497 594 1153 
L 594 3053 
L 172 3053 
L 172 3500 
L 594 3500 
L 594 4494 
L 1172 4494 
z
" transform="scale(0.015625)"/>
       <path id="DejaVuSans-6e" d="M 3513 2113 
L 3513 0 
L 2938 0 
L 2938 2094 
Q 2938 2591 2744 2837 
Q 2550 3084 2163 3084 
Q 1697 3084 1428 2787 
Q 1159 2491 1159 1978 
L 1159 0 
L 581 0 
L 581 3500 
L 1159 3500 
L 1159 2956 
Q 1366 3272 1645 3428 
Q 1925 3584 2291 3584 
Q 2894 3584 3203 3211 
Q 3513 2838 3513 2113 
z
" transform="scale(0.015625)"/>
       <path id="DejaVuSans-20" transform="scale(0.015625)"/>
       <path id="DejaVuSans-67" d="M 2906 1791 
Q 2906 2416 2648 2759 
Q 2391 3103 1925 3103 
Q 1463 3103 1205 2759 
Q 947 2416 947 1791 
Q 947 1169 1205 825 
Q 1463 481 1925 481 
Q 2391 481 2648 825 
Q 2906 1169 2906 1791 
z
M 3481 434 
Q 3481 -459 3084 -895 
Q 2688 -1331 1869 -1331 
Q 1566 -1331 1297 -1286 
Q 1028 -1241 775 -1147 
L 775 -588 
Q 1028 -725 1275 -790 
Q 1522 -856 1778 -856 
Q 2344 -856 2625 -561 
Q 2906 -266 2906 331 
L 2906 616 
Q 2728 306 2450 153 
Q 2172 0 1784 0 
Q 1141 0 747 490 
Q 353 981 353 1791 
Q 353 2603 747 3093 
Q 1141 3584 1784 3584 
Q 2172 3584 2450 3431 
Q 2728 3278 2906 2969 
L 2906 3500 
L 3481 3500 
L 3481 434 
z
" transform="scale(0.015625)"/>
       <path id="DejaVuSans-65" d="M 3597 1894 
L 3597 1613 
L 953 1613 
Q 991 1019 1311 708 
Q 1631 397 2203 397 
Q 2534 397 2845 478 
Q 3156 559 3463 722 
L 3463 178 
Q 3153 47 2828 -22 
Q 2503 -91 2169 -91 
Q 1331 -91 842 396 
Q 353 884 353 1716 
Q 353 2575 817 3079 
Q 1281 3584 2069 3584 
Q 2775 3584 3186 3129 
Q 3597 2675 3597 1894 
z
M 3022 2063 
Q 3016 2534 2758 2815 
Q 2500 3097 2075 3097 
Q 1594 3097 1305 2825 
Q 1016 2553 972 2059 
L 3022 2063 
z
" transform="scale(0.015625)"/>
       <path id="DejaVuSans-6d" d="M 3328 2828 
Q 3544 3216 3844 3400 
Q 4144 3584 4550 3584 
Q 5097 3584 5394 3201 
Q 5691 2819 5691 2113 
L 5691 0 
L 5113 0 
L 5113 2094 
Q 5113 2597 4934 2840 
Q 4756 3084 4391 3084 
Q 3944 3084 3684 2787 
Q 3425 2491 3425 1978 
L 3425 0 
L 2847 0 
L 2847 2094 
Q 2847 2600 2669 2842 
Q 2491 3084 2119 3084 
Q 1678 3084 1418 2786 
Q 1159 2488 1159 1978 
L 1159 0 
L 581 0 
L 581 3500 
L 1159 3500 
L 1159 2956 
Q 1356 3278 1631 3431 
Q 1906 3584 2284 3584 
Q 2666 3584 2933 3390 
Q 3200 3197 3328 2828 
z
" transform="scale(0.015625)"/>
       <path id="DejaVuSans-2c" d="M 750 794 
L 1409 794 
L 1409 256 
L 897 -744 
L 494 -744 
L 750 256 
L 750 794 
z
" transform="scale(0.015625)"/>
      </defs>
      <use xlink:href="#DejaVuSans-50"/>
      <use xlink:href="#DejaVuSans-6f" x="56.677734"/>
      <use xlink:href="#DejaVuSans-73" x="117.859375"/>
      <use xlink:href="#DejaVuSans-69" x="169.958984"/>
      <use xlink:href="#DejaVuSans-74" x="197.742188"/>
      <use xlink:href="#DejaVuSans-69" x="236.951172"/>
      <use xlink:href="#DejaVuSans-6f" x="264.734375"/>
      <use xlink:href="#DejaVuSans-6e" x="325.916016"/>
      <use xlink:href="#DejaVuSans-20" x="389.294922"/>
      <use xlink:href="#DejaVuSans-69" x="421.082031"/>
      <use xlink:href="#DejaVuSans-6e" x="448.865234"/>
      <use xlink:href="#DejaVuSans-20" x="512.244141"/>
      <use xlink:href="#DejaVuSans-67" x="544.03125"/>
      <use xlink:href="#DejaVuSans-65" x="607.507812"/>
      <use xlink:href="#DejaVuSans-6e" x="669.03125"/>
      <use xlink:href="#DejaVuSans-6f" x="732.410156"/>
      <use xlink:href="#DejaVuSans-6d" x="793.591797"/>
      <use xlink:href="#DejaVuSans-65" x="891.003906"/>
      <use xlink:href="#DejaVuSans-2c" x="952.527344"/>
      <use xlink:href="#DejaVuSans-20" x="984.314453"/>
      <use xlink:href="#DejaVuSans-6e" x="1016.101562"/>
      <use xlink:href="#DejaVuSans-74" x="1079.480469"/>
     </g>
    </g>
   </g>
   <g id="matplotlib.axis_2">
    <g id="ytick_1">
     <g id="line2d_8">
      <defs>
       <path id="m2438b83e0a" d="M 0 0 
L -3.5 0 
" style="stroke: #000000; stroke-width: 0.8"/>
      </defs>
      <g>
       <use xlink:href="#m2438b83e0a" x="57.6" y="297.156414" style="stroke: #000000; stroke-width: 0.8"/>
      </g>
     </g>
     <g id="text_9">
      <!-- 0 -->
      <g transform="translate(44.2375 300.955633) scale(0.1 -0.1)">
       <use xlink:href="#DejaVuSans-30"/>
      </g>
     </g>
    </g>
    <g id="ytick_2">
     <g id="line2d_9">
      <g>
       <use xlink:href="#m2438b83e0a" x="57.6" y="263.788138" style="stroke: #000000; stroke-width: 0.8"/>
      </g>
     </g>
     <g id="text_10">
      <!-- 200 -->
      <g transform="translate(31.5125 267.587357) scale(0.1 -0.1)">
       <use xlink:href="#DejaVuSans-32"/>
       <use xlink:href="#DejaVuSans-30" x="63.623047"/>
       <use xlink:href="#DejaVuSans-30" x="127.246094"/>
      </g>
     </g>
    </g>
    <g id="ytick_3">
     <g id="line2d_10">
      <g>
       <use xlink:href="#m2438b83e0a" x="57.6" y="230.419862" style="stroke: #000000; stroke-width: 0.8"/>
      </g>
     </g>
     <g id="text_11">
      <!-- 400 -->
      <g transform="translate(31.5125 234.219081) scale(0.1 -0.1)">
       <use xlink:href="#DejaVuSans-34"/>
       <use xlink:href="#DejaVuSans-30" x="63.623047"/>
       <use xlink:href="#DejaVuSans-30" x="127.246094"/>
      </g>
     </g>
    </g>
    <g id="ytick_4">
     <g id="line2d_11">
      <g>
       <use xlink:href="#m2438b83e0a" x="57.6" y="197.051586" style="stroke: #000000; stroke-width: 0.8"/>
      </g>
     </g>
     <g id="text_12">
      <!-- 600 -->
      <g transform="translate(31.5125 200.850805) scale(0.1 -0.1)">
       <use xlink:href="#DejaVuSans-36"/>
       <use xlink:href="#DejaVuSans-30" x="63.623047"/>
       <use xlink:href="#DejaVuSans-30" x="127.246094"/>
      </g>
     </g>
    </g>
    <g id="ytick_5">
     <g id="line2d_12">
      <g>
       <use xlink:href="#m2438b83e0a" x="57.6" y="163.68331" style="stroke: #000000; stroke-width: 0.8"/>
      </g>
     </g>
     <g id="text_13">
      <!-- 800 -->
      <g transform="translate(31.5125 167.482529) scale(0.1 -0.1)">
       <defs>
        <path id="DejaVuSans-38" d="M 2034 2216 
Q 1584 2216 1326 1975 
Q 1069 1734 1069 1313 
Q 1069 891 1326 650 
Q 1584 409 2034 409 
Q 2484 409 2743 651 
Q 3003 894 3003 1313 
Q 3003 1734 2745 1975 
Q 2488 2216 2034 2216 
z
M 1403 2484 
Q 997 2584 770 2862 
Q 544 3141 544 3541 
Q 544 4100 942 4425 
Q 1341 4750 2034 4750 
Q 2731 4750 3128 4425 
Q 3525 4100 3525 3541 
Q 3525 3141 3298 2862 
Q 3072 2584 2669 2484 
Q 3125 2378 3379 2068 
Q 3634 1759 3634 1313 
Q 3634 634 3220 271 
Q 2806 -91 2034 -91 
Q 1263 -91 848 271 
Q 434 634 434 1313 
Q 434 1759 690 2068 
Q 947 2378 1403 2484 
z
M 1172 3481 
Q 1172 3119 1398 2916 
Q 1625 2713 2034 2713 
Q 2441 2713 2670 2916 
Q 2900 3119 2900 3481 
Q 2900 3844 2670 4047 
Q 2441 4250 2034 4250 
Q 1625 4250 1398 4047 
Q 1172 3844 1172 3481 
z
" transform="scale(0.015625)"/>
       </defs>
       <use xlink:href="#DejaVuSans-38"/>
       <use xlink:href="#DejaVuSans-30" x="63.623047"/>
       <use xlink:href="#DejaVuSans-30" x="127.246094"/>
      </g>
     </g>
    </g>
    <g id="ytick_6">
     <g id="line2d_13">
      <g>
       <use xlink:href="#m2438b83e0a" x="57.6" y="130.315034" style="stroke: #000000; stroke-width: 0.8"/>
      </g>
     </g>
     <g id="text_14">
      <!-- 1000 -->
      <g transform="translate(25.15 134.114253) scale(0.1 -0.1)">
       <use xlink:href="#DejaVuSans-31"/>
       <use xlink:href="#DejaVuSans-30" x="63.623047"/>
       <use xlink:href="#DejaVuSans-30" x="127.246094"/>
       <use xlink:href="#DejaVuSans-30" x="190.869141"/>
      </g>
     </g>
    </g>
    <g id="ytick_7">
     <g id="line2d_14">
      <g>
       <use xlink:href="#m2438b83e0a" x="57.6" y="96.946759" style="stroke: #000000; stroke-width: 0.8"/>
      </g>
     </g>
     <g id="text_15">
      <!-- 1200 -->
      <g transform="translate(25.15 100.745977) scale(0.1 -0.1)">
       <use xlink:href="#DejaVuSans-31"/>
       <use xlink:href="#DejaVuSans-32" x="63.623047"/>
       <use xlink:href="#DejaVuSans-30" x="127.246094"/>
       <use xlink:href="#DejaVuSans-30" x="190.869141"/>
      </g>
     </g>
    </g>
    <g id="ytick_8">
     <g id="line2d_15">
      <g>
       <use xlink:href="#m2438b83e0a" x="57.6" y="63.578483" style="stroke: #000000; stroke-width: 0.8"/>
      </g>
     </g>
     <g id="text_16">
      <!-- 1400 -->
      <g transform="translate(25.15 67.377702) scale(0.1 -0.1)">
       <use xlink:href="#DejaVuSans-31"/>
       <use xlink:href="#DejaVuSans-34" x="63.623047"/>
       <use xlink:href="#DejaVuSans-30" x="127.246094"/>
       <use xlink:href="#DejaVuSans-30" x="190.869141"/>
      </g>
     </g>
    </g>
    <g id="text_17">
     <!-- Number of sequences in GenBank -->
     <g transform="translate(19.070312 259.725656) rotate(-90) scale(0.1 -0.1)">
      <defs>
       <path id="DejaVuSans-4e" d="M 628 4666 
L 1478 4666 
L 3547 763 
L 3547 4666 
L 4159 4666 
L 4159 0 
L 3309 0 
L 1241 3903 
L 1241 0 
L 628 0 
L 628 4666 
z
" transform="scale(0.015625)"/>
       <path id="DejaVuSans-75" d="M 544 1381 
L 544 3500 
L 1119 3500 
L 1119 1403 
Q 1119 906 1312 657 
Q 1506 409 1894 409 
Q 2359 409 2629 706 
Q 2900 1003 2900 1516 
L 2900 3500 
L 3475 3500 
L 3475 0 
L 2900 0 
L 2900 538 
Q 2691 219 2414 64 
Q 2138 -91 1772 -91 
Q 1169 -91 856 284 
Q 544 659 544 1381 
z
M 1991 3584 
L 1991 3584 
z
" transform="scale(0.015625)"/>
       <path id="DejaVuSans-62" d="M 3116 1747 
Q 3116 2381 2855 2742 
Q 2594 3103 2138 3103 
Q 1681 3103 1420 2742 
Q 1159 2381 1159 1747 
Q 1159 1113 1420 752 
Q 1681 391 2138 391 
Q 2594 391 2855 752 
Q 3116 1113 3116 1747 
z
M 1159 2969 
Q 1341 3281 1617 3432 
Q 1894 3584 2278 3584 
Q 2916 3584 3314 3078 
Q 3713 2572 3713 1747 
Q 3713 922 3314 415 
Q 2916 -91 2278 -91 
Q 1894 -91 1617 61 
Q 1341 213 1159 525 
L 1159 0 
L 581 0 
L 581 4863 
L 1159 4863 
L 1159 2969 
z
" transform="scale(0.015625)"/>
       <path id="DejaVuSans-72" d="M 2631 2963 
Q 2534 3019 2420 3045 
Q 2306 3072 2169 3072 
Q 1681 3072 1420 2755 
Q 1159 2438 1159 1844 
L 1159 0 
L 581 0 
L 581 3500 
L 1159 3500 
L 1159 2956 
Q 1341 3275 1631 3429 
Q 1922 3584 2338 3584 
Q 2397 3584 2469 3576 
Q 2541 3569 2628 3553 
L 2631 2963 
z
" transform="scale(0.015625)"/>
       <path id="DejaVuSans-66" d="M 2375 4863 
L 2375 4384 
L 1825 4384 
Q 1516 4384 1395 4259 
Q 1275 4134 1275 3809 
L 1275 3500 
L 2222 3500 
L 2222 3053 
L 1275 3053 
L 1275 0 
L 697 0 
L 697 3053 
L 147 3053 
L 147 3500 
L 697 3500 
L 697 3744 
Q 697 4328 969 4595 
Q 1241 4863 1831 4863 
L 2375 4863 
z
" transform="scale(0.015625)"/>
       <path id="DejaVuSans-71" d="M 947 1747 
Q 947 1113 1208 752 
Q 1469 391 1925 391 
Q 2381 391 2643 752 
Q 2906 1113 2906 1747 
Q 2906 2381 2643 2742 
Q 2381 3103 1925 3103 
Q 1469 3103 1208 2742 
Q 947 2381 947 1747 
z
M 2906 525 
Q 2725 213 2448 61 
Q 2172 -91 1784 -91 
Q 1150 -91 751 415 
Q 353 922 353 1747 
Q 353 2572 751 3078 
Q 1150 3584 1784 3584 
Q 2172 3584 2448 3432 
Q 2725 3281 2906 2969 
L 2906 3500 
L 3481 3500 
L 3481 -1331 
L 2906 -1331 
L 2906 525 
z
" transform="scale(0.015625)"/>
       <path id="DejaVuSans-63" d="M 3122 3366 
L 3122 2828 
Q 2878 2963 2633 3030 
Q 2388 3097 2138 3097 
Q 1578 3097 1268 2742 
Q 959 2388 959 1747 
Q 959 1106 1268 751 
Q 1578 397 2138 397 
Q 2388 397 2633 464 
Q 2878 531 3122 666 
L 3122 134 
Q 2881 22 2623 -34 
Q 2366 -91 2075 -91 
Q 1284 -91 818 406 
Q 353 903 353 1747 
Q 353 2603 823 3093 
Q 1294 3584 2113 3584 
Q 2378 3584 2631 3529 
Q 2884 3475 3122 3366 
z
" transform="scale(0.015625)"/>
       <path id="DejaVuSans-47" d="M 3809 666 
L 3809 1919 
L 2778 1919 
L 2778 2438 
L 4434 2438 
L 4434 434 
Q 4069 175 3628 42 
Q 3188 -91 2688 -91 
Q 1594 -91 976 548 
Q 359 1188 359 2328 
Q 359 3472 976 4111 
Q 1594 4750 2688 4750 
Q 3144 4750 3555 4637 
Q 3966 4525 4313 4306 
L 4313 3634 
Q 3963 3931 3569 4081 
Q 3175 4231 2741 4231 
Q 1884 4231 1454 3753 
Q 1025 3275 1025 2328 
Q 1025 1384 1454 906 
Q 1884 428 2741 428 
Q 3075 428 3337 486 
Q 3600 544 3809 666 
z
" transform="scale(0.015625)"/>
       <path id="DejaVuSans-42" d="M 1259 2228 
L 1259 519 
L 2272 519 
Q 2781 519 3026 730 
Q 3272 941 3272 1375 
Q 3272 1813 3026 2020 
Q 2781 2228 2272 2228 
L 1259 2228 
z
M 1259 4147 
L 1259 2741 
L 2194 2741 
Q 2656 2741 2882 2914 
Q 3109 3088 3109 3444 
Q 3109 3797 2882 3972 
Q 2656 4147 2194 4147 
L 1259 4147 
z
M 628 4666 
L 2241 4666 
Q 2963 4666 3353 4366 
Q 3744 4066 3744 3513 
Q 3744 3084 3544 2831 
Q 3344 2578 2956 2516 
Q 3422 2416 3680 2098 
Q 3938 1781 3938 1306 
Q 3938 681 3513 340 
Q 3088 0 2303 0 
L 628 0 
L 628 4666 
z
" transform="scale(0.015625)"/>
       <path id="DejaVuSans-61" d="M 2194 1759 
Q 1497 1759 1228 1600 
Q 959 1441 959 1056 
Q 959 750 1161 570 
Q 1363 391 1709 391 
Q 2188 391 2477 730 
Q 2766 1069 2766 1631 
L 2766 1759 
L 2194 1759 
z
M 3341 1997 
L 3341 0 
L 2766 0 
L 2766 531 
Q 2569 213 2275 61 
Q 1981 -91 1556 -91 
Q 1019 -91 701 211 
Q 384 513 384 1019 
Q 384 1609 779 1909 
Q 1175 2209 1959 2209 
L 2766 2209 
L 2766 2266 
Q 2766 2663 2505 2880 
Q 2244 3097 1772 3097 
Q 1472 3097 1187 3025 
Q 903 2953 641 2809 
L 641 3341 
Q 956 3463 1253 3523 
Q 1550 3584 1831 3584 
Q 2591 3584 2966 3190 
Q 3341 2797 3341 1997 
z
" transform="scale(0.015625)"/>
       <path id="DejaVuSans-6b" d="M 581 4863 
L 1159 4863 
L 1159 1991 
L 2875 3500 
L 3609 3500 
L 1753 1863 
L 3688 0 
L 2938 0 
L 1159 1709 
L 1159 0 
L 581 0 
L 581 4863 
z
" transform="scale(0.015625)"/>
      </defs>
      <use xlink:href="#DejaVuSans-4e"/>
      <use xlink:href="#DejaVuSans-75" x="74.804688"/>
      <use xlink:href="#DejaVuSans-6d" x="138.183594"/>
      <use xlink:href="#DejaVuSans-62" x="235.595703"/>
      <use xlink:href="#DejaVuSans-65" x="299.072266"/>
      <use xlink:href="#DejaVuSans-72" x="360.595703"/>
      <use xlink:href="#DejaVuSans-20" x="401.708984"/>
      <use xlink:href="#DejaVuSans-6f" x="433.496094"/>
      <use xlink:href="#DejaVuSans-66" x="494.677734"/>
      <use xlink:href="#DejaVuSans-20" x="529.882812"/>
      <use xlink:href="#DejaVuSans-73" x="561.669922"/>
      <use xlink:href="#DejaVuSans-65" x="613.769531"/>
      <use xlink:href="#DejaVuSans-71" x="675.292969"/>
      <use xlink:href="#DejaVuSans-75" x="738.769531"/>
      <use xlink:href="#DejaVuSans-65" x="802.148438"/>
      <use xlink:href="#DejaVuSans-6e" x="863.671875"/>
      <use xlink:href="#DejaVuSans-63" x="927.050781"/>
      <use xlink:href="#DejaVuSans-65" x="982.03125"/>
      <use xlink:href="#DejaVuSans-73" x="1043.554688"/>
      <use xlink:href="#DejaVuSans-20" x="1095.654297"/>
      <use xlink:href="#DejaVuSans-69" x="1127.441406"/>
      <use xlink:href="#DejaVuSans-6e" x="1155.224609"/>
      <use xlink:href="#DejaVuSans-20" x="1218.603516"/>
      <use xlink:href="#DejaVuSans-47" x="1250.390625"/>
      <use xlink:href="#DejaVuSans-65" x="1327.880859"/>
      <use xlink:href="#DejaVuSans-6e" x="1389.404297"/>
      <use xlink:href="#DejaVuSans-42" x="1452.783203"/>
      <use xlink:href="#DejaVuSans-61" x="1521.386719"/>
      <use xlink:href="#DejaVuSans-6e" x="1582.666016"/>
      <use xlink:href="#DejaVuSans-6b" x="1646.044922"/>
     </g>
    </g>
   </g>
   <g id="line2d_16">
    <path d="M 57.6 294.32011 
L 57.811345 293.152221 
L 58.128362 292.484855 
L 58.181198 292.484855 
L 58.339707 292.151172 
L 58.445379 292.151172 
L 58.603888 291.984331 
L 58.868069 291.984331 
L 59.185087 291.316966 
L 59.871957 291.316966 
L 60.030466 290.816441 
L 60.294647 290.816441 
L 60.453156 290.315917 
L 61.879734 290.315917 
L 62.143915 289.314869 
L 64.151691 289.314869 
L 64.363036 288.981186 
L 64.574381 288.981186 
L 64.732889 288.814345 
L 65.102743 288.814345 
L 65.261252 288.647503 
L 67.004847 288.647503 
L 67.163356 288.313821 
L 73.398029 288.313821 
L 73.556538 288.146979 
L 82.063169 288.146979 
L 82.221678 287.980138 
L 84.018109 287.980138 
L 84.176618 287.646455 
L 100.238828 287.646455 
L 100.397337 287.813297 
L 104.465726 287.813297 
L 104.624234 287.980138 
L 106.473502 287.980138 
L 106.632011 287.813297 
L 113.078029 287.813297 
L 113.236538 287.980138 
L 115.71984 287.980138 
L 115.878349 287.813297 
L 117.410599 287.813297 
L 117.569108 287.646455 
L 119.841065 287.646455 
L 119.999574 284.142786 
L 120.105246 284.142786 
L 120.263755 283.809103 
L 121.056298 283.809103 
L 121.214807 283.642262 
L 121.848842 283.642262 
L 122.00735 280.305434 
L 122.324368 280.305434 
L 122.482876 278.470179 
L 122.641385 278.303338 
L 123.064075 278.303338 
L 123.222583 278.470179 
L 132.099068 278.470179 
L 132.257577 278.803862 
L 132.363249 278.803862 
L 132.521758 278.970703 
L 132.62743 278.970703 
L 132.785939 281.807007 
L 132.944447 282.307531 
L 133.05012 282.307531 
L 133.261465 282.641214 
L 133.948336 282.641214 
L 134.106844 282.808055 
L 134.635206 282.808055 
L 134.740879 282.974897 
L 134.899387 282.808055 
L 135.00506 282.808055 
L 135.110732 283.141738 
L 135.269241 287.646455 
L 145.413795 287.646455 
L 145.572304 287.813297 
L 152.546684 287.813297 
L 152.705193 287.646455 
L 155.716858 287.646455 
L 155.875366 287.813297 
L 183.297364 287.813297 
L 183.3502 288.313821 
L 183.455872 282.14069 
L 183.614381 279.471228 
L 183.667217 279.471228 
L 183.878562 279.137545 
L 183.931398 279.137545 
L 184.089907 278.970703 
L 184.88245 278.970703 
L 185.146631 275.800717 
L 185.939174 275.800717 
L 186.097683 275.633876 
L 186.467537 275.633876 
L 186.626045 275.300193 
L 186.731718 275.300193 
L 186.890226 273.464938 
L 187.101571 273.464938 
L 187.154407 273.298097 
L 187.312916 271.129159 
L 187.999787 271.129159 
L 188.158296 272.964414 
L 188.36964 272.964414 
L 188.528149 273.131255 
L 188.845166 273.131255 
L 189.109348 274.96651 
L 189.21502 274.96651 
L 189.373529 275.133352 
L 191.064288 275.133352 
L 191.222796 275.467034 
L 191.275632 275.467034 
L 191.434141 287.813297 
L 199.676591 287.813297 
L 199.8351 287.646455 
L 203.533635 287.646455 
L 203.692144 287.479614 
L 204.061997 287.479614 
L 204.114834 287.312772 
L 204.16767 287.479614 
L 204.326178 287.479614 
L 204.484687 287.312772 
L 205.224394 287.312772 
L 205.382903 287.479614 
L 207.496352 287.479614 
L 207.65486 287.646455 
L 209.504128 287.646455 
L 209.662636 287.312772 
L 211.98743 287.312772 
L 212.198775 287.646455 
L 215.738802 287.646455 
L 215.89731 287.479614 
L 217.165379 287.479614 
L 217.323888 287.646455 
L 222.290493 287.646455 
L 222.449001 287.479614 
L 226.728735 287.479614 
L 226.887244 287.312772 
L 229.370546 287.312772 
L 229.529055 287.145931 
L 230.321598 287.145931 
L 230.480107 287.312772 
L 232.857736 287.312772 
L 233.016245 287.145931 
L 246.542317 287.145931 
L 246.859334 285.644359 
L 247.440533 285.644359 
L 247.493369 285.477517 
L 247.651877 284.476469 
L 247.810386 284.476469 
L 247.968895 282.641214 
L 248.127403 273.298097 
L 248.285912 272.46389 
L 248.444421 266.624441 
L 249.078455 266.624441 
L 249.236964 266.123917 
L 249.395473 266.123917 
L 249.553981 263.621297 
L 249.659654 263.454455 
L 250.029507 249.940303 
L 250.188016 249.773462 
L 250.346525 249.773462 
L 250.505033 248.605572 
L 250.663542 248.605572 
L 250.822051 248.438731 
L 250.874887 248.438731 
L 251.033395 248.27189 
L 251.086232 248.27189 
L 251.24474 248.438731 
L 252.829827 248.438731 
L 253.094008 247.938207 
L 253.305353 247.938207 
L 253.463862 247.604524 
L 253.62237 247.604524 
L 253.939387 246.269793 
L 254.150732 246.269793 
L 254.309241 246.102952 
L 254.679095 246.102952 
L 254.837603 245.602428 
L 260.491079 245.602428 
L 260.649587 245.769269 
L 262.340346 245.769269 
L 262.498855 245.602428 
L 265.08783 245.602428 
L 265.352011 246.102952 
L 267.254115 246.102952 
L 267.412623 246.603476 
L 267.72964 259.783945 
L 267.782477 259.783945 
L 267.940985 260.784993 
L 267.993822 260.784993 
L 268.046658 260.951834 
L 268.099494 263.788138 
L 268.258003 276.634924 
L 268.522184 276.634924 
L 268.680692 278.803862 
L 274.228495 278.803862 
L 274.387004 279.137545 
L 274.809694 279.137545 
L 274.968202 279.471228 
L 275.232383 279.471228 
L 275.390892 279.638069 
L 276.658961 279.638069 
L 276.711798 279.471228 
L 276.764634 279.638069 
L 276.81747 279.638069 
L 276.975979 280.138593 
L 277.081651 280.138593 
L 277.345832 282.474372 
L 281.15004 282.474372 
L 281.308549 246.269793 
L 281.57273 246.269793 
L 281.731238 245.268745 
L 281.889747 245.268745 
L 282.048256 244.768221 
L 282.101092 244.768221 
L 282.259601 244.434538 
L 282.418109 244.267697 
L 283.686178 244.267697 
L 283.844687 243.266648 
L 285.429774 243.266648 
L 285.48261 243.43349 
L 285.641119 243.099807 
L 285.799627 243.767172 
L 286.010972 243.767172 
L 286.063808 242.599283 
L 286.222317 205.059972 
L 286.327989 205.059972 
L 286.486498 205.560497 
L 286.539334 205.560497 
L 286.645007 206.227862 
L 286.803515 203.892083 
L 286.909188 203.892083 
L 287.067696 203.391559 
L 287.648895 203.391559 
L 287.86024 204.058924 
L 288.124421 204.058924 
L 288.282929 203.725241 
L 295.415819 203.725241 
L 295.732836 203.057876 
L 295.891345 203.057876 
L 296.049854 202.891034 
L 296.314035 202.891034 
L 296.419707 201.889986 
L 296.472543 200.722097 
L 296.631052 190.711614 
L 296.683888 190.711614 
L 296.842397 181.869021 
L 297.317923 177.197462 
L 297.423595 173.526952 
L 297.476431 173.693793 
L 297.63494 169.6896 
L 298.05763 166.686455 
L 298.163302 166.352772 
L 298.427483 163.349628 
L 298.48032 162.849103 
L 298.691664 126.477683 
L 298.744501 126.477683 
L 298.955846 125.643476 
L 299.061518 124.97611 
L 299.272863 108.792497 
L 299.325699 108.792497 
L 299.484208 76.758952 
L 299.537044 76.425269 
L 299.695553 72.087393 
L 299.748389 71.920552 
L 299.906897 69.084248 
L 300.01257 69.084248 
L 300.171079 65.914262 
L 300.329587 65.413738 
L 300.43526 65.080055 
L 300.593768 65.246897 
L 300.646605 65.246897 
L 300.805113 58.4064 
L 301.439148 58.4064 
L 301.597656 58.239559 
L 301.756165 58.239559 
L 301.914674 57.739034 
L 302.073182 57.572193 
L 302.707217 57.572193 
L 302.865726 57.405352 
L 303.024234 53.568 
L 303.182743 54.402207 
L 303.446924 54.402207 
L 303.605433 54.73589 
L 303.711105 54.73589 
L 303.816778 54.902731 
L 303.975286 54.73589 
L 304.080959 54.73589 
L 304.239467 54.569048 
L 304.397976 54.569048 
L 304.556485 54.402207 
L 304.76783 56.404303 
L 304.873502 56.404303 
L 305.084847 57.071669 
L 305.190519 57.071669 
L 305.349028 88.938372 
L 305.507537 91.774676 
L 305.666045 91.774676 
L 305.824554 92.442041 
L 306.088735 92.442041 
L 306.194407 92.775724 
L 306.352916 95.445186 
L 306.458589 95.445186 
L 306.617097 97.1136 
L 306.669933 97.1136 
L 306.828442 97.447283 
L 307.092623 97.447283 
L 307.356804 97.947807 
L 307.40964 97.947807 
L 307.568149 97.780966 
L 309.78727 97.780966 
L 309.945779 97.947807 
L 310.579814 97.947807 
L 310.738322 100.950952 
L 310.896831 102.619366 
L 310.949667 102.619366 
L 311.108176 103.954097 
L 311.266684 103.954097 
L 311.425193 104.454621 
L 311.478029 104.454621 
L 311.636538 105.62251 
L 312.1649 105.62251 
L 312.323409 105.789352 
L 313.274461 105.789352 
L 313.432969 105.956193 
L 313.538642 105.956193 
L 313.69715 111.6288 
L 313.802823 111.6288 
L 313.961332 112.296166 
L 314.11984 112.129324 
L 314.54253 112.129324 
L 314.806711 112.629848 
L 314.912383 112.629848 
L 315.070892 112.79669 
L 315.335073 112.79669 
L 315.493582 113.297214 
L 315.652091 113.464055 
L 315.810599 115.632993 
L 315.969108 115.799834 
L 316.021944 115.799834 
L 316.180453 117.134566 
L 316.338961 127.145048 
L 316.444634 127.145048 
L 316.655979 127.979255 
L 316.814487 129.480828 
L 317.078668 132.317131 
L 317.237177 149.668634 
L 317.395686 151.50389 
L 317.448522 151.50389 
L 317.607031 180.701131 
L 317.659867 180.701131 
L 317.818375 181.368497 
L 317.871212 181.368497 
L 318.082557 214.069407 
L 318.293901 218.407283 
L 318.45241 218.574124 
L 318.505246 218.574124 
L 318.663755 218.740966 
L 318.822264 218.740966 
L 318.980772 219.24149 
L 319.139281 227.249876 
L 319.192117 227.249876 
L 319.456298 228.250924 
L 319.614807 229.919338 
L 319.667643 229.919338 
L 319.931824 238.094566 
L 320.090333 239.262455 
L 320.248842 245.435586 
L 320.565859 246.102952 
L 320.618695 246.102952 
L 320.777204 246.269793 
L 320.882876 246.269793 
L 321.041385 246.436634 
L 321.094221 246.436634 
L 321.305566 246.770317 
L 322.045273 246.770317 
L 322.203782 247.104 
L 322.309454 247.104 
L 322.467963 247.270841 
L 323.101997 247.270841 
L 323.260506 247.437683 
L 323.419015 249.606621 
L 323.577523 249.606621 
L 323.788868 252.943448 
L 324.31723 252.943448 
L 324.634248 256.113434 
L 324.687084 256.113434 
L 324.845593 256.947641 
L 325.268282 261.118676 
L 325.321119 261.118676 
L 325.690972 261.952883 
L 326.430679 261.952883 
L 326.69486 262.453407 
L 327.064714 262.453407 
L 327.223222 266.958124 
L 333.669241 266.958124 
L 333.82775 267.124966 
L 333.986258 267.124966 
L 334.144767 266.958124 
L 341.806019 266.958124 
L 341.964527 267.458648 
L 342.175872 267.458648 
L 342.387217 267.792331 
L 345.927244 267.792331 
L 346.085752 267.959172 
L 347.036804 267.959172 
L 347.195313 268.793379 
L 347.353822 274.299145 
L 347.51233 274.465986 
L 347.565166 274.465986 
L 347.723675 276.301241 
L 351.792064 276.301241 
L 351.950573 281.306483 
L 352.320426 281.306483 
L 352.478935 281.139641 
L 354.856565 281.139641 
L 355.015073 285.143834 
L 356.124634 285.143834 
L 356.283142 285.477517 
L 356.547324 285.477517 
L 356.60016 286.144883 
L 356.758668 291.81749 
L 358.185246 291.81749 
L 358.343755 291.984331 
L 369.122344 291.984331 
L 369.280852 294.153269 
L 373.560586 294.153269 
L 373.719095 294.987476 
L 374.141784 294.987476 
L 374.300293 295.154317 
L 391.10221 295.154317 
L 391.260719 294.987476 
L 391.366391 294.987476 
L 391.5249 290.6496 
L 391.630573 290.6496 
L 391.789081 290.482759 
L 391.894754 290.482759 
L 392.158935 273.131255 
L 393.585513 273.131255 
L 393.744021 272.964414 
L 394.008202 272.964414 
L 394.166711 273.131255 
L 398.552117 273.131255 
L 398.710626 269.794428 
L 399.238988 269.794428 
L 399.397497 269.627586 
L 405.579334 269.627586 
L 405.737843 268.292855 
L 407.217257 268.292855 
L 407.270093 268.459697 
L 407.428602 267.458648 
L 407.534274 267.458648 
L 407.692783 267.62549 
L 408.43249 267.62549 
L 408.590999 267.458648 
L 408.908016 267.458648 
L 409.066525 265.957076 
L 409.436378 265.957076 
L 409.594887 266.123917 
L 410.017577 266.123917 
L 410.176085 266.4576 
L 410.334594 283.308579 
L 410.545939 283.308579 
L 410.704447 283.475421 
L 410.757284 283.475421 
L 411.179973 284.476469 
L 412.078189 284.476469 
L 412.236698 284.64331 
L 412.606551 284.64331 
L 412.76506 285.644359 
L 412.870732 285.644359 
L 413.029241 285.8112 
L 413.504767 285.8112 
L 413.557603 286.144883 
L 413.716112 290.315917 
L 413.874621 290.482759 
L 413.980293 290.482759 
L 414.138802 290.816441 
L 414.244474 290.816441 
L 414.508655 291.483807 
L 414.667164 295.488 
L 414.667164 295.488 
" clip-path="url(#p190ee1ef3a)" style="fill: none; stroke: #1f77b4; stroke-width: 1.5; stroke-linecap: square"/>
   </g>
   <g id="patch_3">
    <path d="M 57.6 307.584 
L 57.6 41.472 
" style="fill: none; stroke: #000000; stroke-width: 0.8; stroke-linejoin: miter; stroke-linecap: square"/>
   </g>
   <g id="patch_4">
    <path d="M 414.72 307.584 
L 414.72 41.472 
" style="fill: none; stroke: #000000; stroke-width: 0.8; stroke-linejoin: miter; stroke-linecap: square"/>
   </g>
   <g id="patch_5">
    <path d="M 57.6 307.584 
L 414.72 307.584 
" style="fill: none; stroke: #000000; stroke-width: 0.8; stroke-linejoin: miter; stroke-linecap: square"/>
   </g>
   <g id="patch_6">
    <path d="M 57.6 41.472 
L 414.72 41.472 
" style="fill: none; stroke: #000000; stroke-width: 0.8; stroke-linejoin: miter; stroke-linecap: square"/>
   </g>
  </g>
 </g>
 <defs>
  <clipPath id="p190ee1ef3a">
   <rect x="57.6" y="41.472" width="357.12" height="266.112"/>
  </clipPath>
 </defs>
</svg>
