<?xml version="1.0" encoding="utf-8" standalone="no"?>
<!DOCTYPE svg PUBLIC "-//W3C//DTD SVG 1.1//EN"
  "http://www.w3.org/Graphics/SVG/1.1/DTD/svg11.dtd">
<svg xmlns:xlink="http://www.w3.org/1999/xlink" width="460.8pt" height="345.6pt" viewBox="0 0 460.8 345.6" xmlns="http://www.w3.org/2000/svg" version="1.1">
 <metadata>
  <rdf:RDF xmlns:dc="http://purl.org/dc/elements/1.1/" xmlns:cc="http://creativecommons.org/ns#" xmlns:rdf="http://www.w3.org/1999/02/22-rdf-syntax-ns#">
   <cc:Work>
    <dc:type rdf:resource="http://purl.org/dc/dcmitype/StillImage"/>
    <dc:date>2024-07-27T18:16:33.852736</dc:date>
    <dc:format>image/svg+xml</dc:format>
    <dc:creator>
     <cc:Agent>
      <dc:title>Matplotlib v3.9.1, https://matplotlib.org/</dc:title>
     </cc:Agent>
    </dc:creator>
   </cc:Work>
  </rdf:RDF>
 </metadata>
 <defs>
  <style type="text/css">*{stroke-linejoin: round; stroke-linecap: butt}</style>
 </defs>
 <g id="figure_1">
  <g id="patch_1">
   <path d="M 0 345.6 
L 460.8 345.6 
L 460.8 0 
L 0 0 
z
" style="fill: #ffffff"/>
  </g>
  <g id="axes_1">
   <g id="patch_2">
    <path d="M 57.6 307.584 
L 414.72 307.584 
L 414.72 41.472 
L 57.6 41.472 
z
" style="fill: #ffffff"/>
   </g>
   <g id="matplotlib.axis_1">
    <g id="xtick_1">
     <g id="line2d_1">
      <defs>
       <path id="m7cd7641c73" d="M 0 0 
L 0 3.5 
" style="stroke: #000000; stroke-width: 0.8"/>
      </defs>
      <g>
       <use xlink:href="#m7cd7641c73" x="57.6" y="307.584" style="stroke: #000000; stroke-width: 0.8"/>
      </g>
     </g>
     <g id="text_1">
      <!-- 0 -->
      <g transform="translate(54.41875 322.182437) scale(0.1 -0.1)">
       <defs>
        <path id="DejaVuSans-30" d="M 2034 4250 
Q 1547 4250 1301 3770 
Q 1056 3291 1056 2328 
Q 1056 1369 1301 889 
Q 1547 409 2034 409 
Q 2525 409 2770 889 
Q 3016 1369 3016 2328 
Q 3016 3291 2770 3770 
Q 2525 4250 2034 4250 
z
M 2034 4750 
Q 2819 4750 3233 4129 
Q 3647 3509 3647 2328 
Q 3647 1150 3233 529 
Q 2819 -91 2034 -91 
Q 1250 -91 836 529 
Q 422 1150 422 2328 
Q 422 3509 836 4129 
Q 1250 4750 2034 4750 
z
" transform="scale(0.015625)"/>
       </defs>
       <use xlink:href="#DejaVuSans-30"/>
      </g>
     </g>
    </g>
    <g id="xtick_2">
     <g id="line2d_2">
      <g>
       <use xlink:href="#m7cd7641c73" x="110.117647" y="307.584" style="stroke: #000000; stroke-width: 0.8"/>
      </g>
     </g>
     <g id="text_2">
      <!-- 1000 -->
      <g transform="translate(97.392647 322.182437) scale(0.1 -0.1)">
       <defs>
        <path id="DejaVuSans-31" d="M 794 531 
L 1825 531 
L 1825 4091 
L 703 3866 
L 703 4441 
L 1819 4666 
L 2450 4666 
L 2450 531 
L 3481 531 
L 3481 0 
L 794 0 
L 794 531 
z
" transform="scale(0.015625)"/>
       </defs>
       <use xlink:href="#DejaVuSans-31"/>
       <use xlink:href="#DejaVuSans-30" x="63.623047"/>
       <use xlink:href="#DejaVuSans-30" x="127.246094"/>
       <use xlink:href="#DejaVuSans-30" x="190.869141"/>
      </g>
     </g>
    </g>
    <g id="xtick_3">
     <g id="line2d_3">
      <g>
       <use xlink:href="#m7cd7641c73" x="162.635294" y="307.584" style="stroke: #000000; stroke-width: 0.8"/>
      </g>
     </g>
     <g id="text_3">
      <!-- 2000 -->
      <g transform="translate(149.910294 322.182437) scale(0.1 -0.1)">
       <defs>
        <path id="DejaVuSans-32" d="M 1228 531 
L 3431 531 
L 3431 0 
L 469 0 
L 469 531 
Q 828 903 1448 1529 
Q 2069 2156 2228 2338 
Q 2531 2678 2651 2914 
Q 2772 3150 2772 3378 
Q 2772 3750 2511 3984 
Q 2250 4219 1831 4219 
Q 1534 4219 1204 4116 
Q 875 4013 500 3803 
L 500 4441 
Q 881 4594 1212 4672 
Q 1544 4750 1819 4750 
Q 2544 4750 2975 4387 
Q 3406 4025 3406 3419 
Q 3406 3131 3298 2873 
Q 3191 2616 2906 2266 
Q 2828 2175 2409 1742 
Q 1991 1309 1228 531 
z
" transform="scale(0.015625)"/>
       </defs>
       <use xlink:href="#DejaVuSans-32"/>
       <use xlink:href="#DejaVuSans-30" x="63.623047"/>
       <use xlink:href="#DejaVuSans-30" x="127.246094"/>
       <use xlink:href="#DejaVuSans-30" x="190.869141"/>
      </g>
     </g>
    </g>
    <g id="xtick_4">
     <g id="line2d_4">
      <g>
       <use xlink:href="#m7cd7641c73" x="215.152941" y="307.584" style="stroke: #000000; stroke-width: 0.8"/>
      </g>
     </g>
     <g id="text_4">
      <!-- 3000 -->
      <g transform="translate(202.427941 322.182437) scale(0.1 -0.1)">
       <defs>
        <path id="DejaVuSans-33" d="M 2597 2516 
Q 3050 2419 3304 2112 
Q 3559 1806 3559 1356 
Q 3559 666 3084 287 
Q 2609 -91 1734 -91 
Q 1441 -91 1130 -33 
Q 819 25 488 141 
L 488 750 
Q 750 597 1062 519 
Q 1375 441 1716 441 
Q 2309 441 2620 675 
Q 2931 909 2931 1356 
Q 2931 1769 2642 2001 
Q 2353 2234 1838 2234 
L 1294 2234 
L 1294 2753 
L 1863 2753 
Q 2328 2753 2575 2939 
Q 2822 3125 2822 3475 
Q 2822 3834 2567 4026 
Q 2313 4219 1838 4219 
Q 1578 4219 1281 4162 
Q 984 4106 628 3988 
L 628 4550 
Q 988 4650 1302 4700 
Q 1616 4750 1894 4750 
Q 2613 4750 3031 4423 
Q 3450 4097 3450 3541 
Q 3450 3153 3228 2886 
Q 3006 2619 2597 2516 
z
" transform="scale(0.015625)"/>
       </defs>
       <use xlink:href="#DejaVuSans-33"/>
       <use xlink:href="#DejaVuSans-30" x="63.623047"/>
       <use xlink:href="#DejaVuSans-30" x="127.246094"/>
       <use xlink:href="#DejaVuSans-30" x="190.869141"/>
      </g>
     </g>
    </g>
    <g id="xtick_5">
     <g id="line2d_5">
      <g>
       <use xlink:href="#m7cd7641c73" x="267.670588" y="307.584" style="stroke: #000000; stroke-width: 0.8"/>
      </g>
     </g>
     <g id="text_5">
      <!-- 4000 -->
      <g transform="translate(254.945588 322.182437) scale(0.1 -0.1)">
       <defs>
        <path id="DejaVuSans-34" d="M 2419 4116 
L 825 1625 
L 2419 1625 
L 2419 4116 
z
M 2253 4666 
L 3047 4666 
L 3047 1625 
L 3713 1625 
L 3713 1100 
L 3047 1100 
L 3047 0 
L 2419 0 
L 2419 1100 
L 313 1100 
L 313 1709 
L 2253 4666 
z
" transform="scale(0.015625)"/>
       </defs>
       <use xlink:href="#DejaVuSans-34"/>
       <use xlink:href="#DejaVuSans-30" x="63.623047"/>
       <use xlink:href="#DejaVuSans-30" x="127.246094"/>
       <use xlink:href="#DejaVuSans-30" x="190.869141"/>
      </g>
     </g>
    </g>
    <g id="xtick_6">
     <g id="line2d_6">
      <g>
       <use xlink:href="#m7cd7641c73" x="320.188235" y="307.584" style="stroke: #000000; stroke-width: 0.8"/>
      </g>
     </g>
     <g id="text_6">
      <!-- 5000 -->
      <g transform="translate(307.463235 322.182437) scale(0.1 -0.1)">
       <defs>
        <path id="DejaVuSans-35" d="M 691 4666 
L 3169 4666 
L 3169 4134 
L 1269 4134 
L 1269 2991 
Q 1406 3038 1543 3061 
Q 1681 3084 1819 3084 
Q 2600 3084 3056 2656 
Q 3513 2228 3513 1497 
Q 3513 744 3044 326 
Q 2575 -91 1722 -91 
Q 1428 -91 1123 -41 
Q 819 9 494 109 
L 494 744 
Q 775 591 1075 516 
Q 1375 441 1709 441 
Q 2250 441 2565 725 
Q 2881 1009 2881 1497 
Q 2881 1984 2565 2268 
Q 2250 2553 1709 2553 
Q 1456 2553 1204 2497 
Q 953 2441 691 2322 
L 691 4666 
z
" transform="scale(0.015625)"/>
       </defs>
       <use xlink:href="#DejaVuSans-35"/>
       <use xlink:href="#DejaVuSans-30" x="63.623047"/>
       <use xlink:href="#DejaVuSans-30" x="127.246094"/>
       <use xlink:href="#DejaVuSans-30" x="190.869141"/>
      </g>
     </g>
    </g>
    <g id="xtick_7">
     <g id="line2d_7">
      <g>
       <use xlink:href="#m7cd7641c73" x="372.705882" y="307.584" style="stroke: #000000; stroke-width: 0.8"/>
      </g>
     </g>
     <g id="text_7">
      <!-- 6000 -->
      <g transform="translate(359.980882 322.182437) scale(0.1 -0.1)">
       <defs>
        <path id="DejaVuSans-36" d="M 2113 2584 
Q 1688 2584 1439 2293 
Q 1191 2003 1191 1497 
Q 1191 994 1439 701 
Q 1688 409 2113 409 
Q 2538 409 2786 701 
Q 3034 994 3034 1497 
Q 3034 2003 2786 2293 
Q 2538 2584 2113 2584 
z
M 3366 4563 
L 3366 3988 
Q 3128 4100 2886 4159 
Q 2644 4219 2406 4219 
Q 1781 4219 1451 3797 
Q 1122 3375 1075 2522 
Q 1259 2794 1537 2939 
Q 1816 3084 2150 3084 
Q 2853 3084 3261 2657 
Q 3669 2231 3669 1497 
Q 3669 778 3244 343 
Q 2819 -91 2113 -91 
Q 1303 -91 875 529 
Q 447 1150 447 2328 
Q 447 3434 972 4092 
Q 1497 4750 2381 4750 
Q 2619 4750 2861 4703 
Q 3103 4656 3366 4563 
z
" transform="scale(0.015625)"/>
       </defs>
       <use xlink:href="#DejaVuSans-36"/>
       <use xlink:href="#DejaVuSans-30" x="63.623047"/>
       <use xlink:href="#DejaVuSans-30" x="127.246094"/>
       <use xlink:href="#DejaVuSans-30" x="190.869141"/>
      </g>
     </g>
    </g>
    <g id="text_8">
     <!-- Position in genome, nt -->
     <g transform="translate(180.227187 335.860562) scale(0.1 -0.1)">
      <defs>
       <path id="DejaVuSans-50" d="M 1259 4147 
L 1259 2394 
L 2053 2394 
Q 2494 2394 2734 2622 
Q 2975 2850 2975 3272 
Q 2975 3691 2734 3919 
Q 2494 4147 2053 4147 
L 1259 4147 
z
M 628 4666 
L 2053 4666 
Q 2838 4666 3239 4311 
Q 3641 3956 3641 3272 
Q 3641 2581 3239 2228 
Q 2838 1875 2053 1875 
L 1259 1875 
L 1259 0 
L 628 0 
L 628 4666 
z
" transform="scale(0.015625)"/>
       <path id="DejaVuSans-6f" d="M 1959 3097 
Q 1497 3097 1228 2736 
Q 959 2375 959 1747 
Q 959 1119 1226 758 
Q 1494 397 1959 397 
Q 2419 397 2687 759 
Q 2956 1122 2956 1747 
Q 2956 2369 2687 2733 
Q 2419 3097 1959 3097 
z
M 1959 3584 
Q 2709 3584 3137 3096 
Q 3566 2609 3566 1747 
Q 3566 888 3137 398 
Q 2709 -91 1959 -91 
Q 1206 -91 779 398 
Q 353 888 353 1747 
Q 353 2609 779 3096 
Q 1206 3584 1959 3584 
z
" transform="scale(0.015625)"/>
       <path id="DejaVuSans-73" d="M 2834 3397 
L 2834 2853 
Q 2591 2978 2328 3040 
Q 2066 3103 1784 3103 
Q 1356 3103 1142 2972 
Q 928 2841 928 2578 
Q 928 2378 1081 2264 
Q 1234 2150 1697 2047 
L 1894 2003 
Q 2506 1872 2764 1633 
Q 3022 1394 3022 966 
Q 3022 478 2636 193 
Q 2250 -91 1575 -91 
Q 1294 -91 989 -36 
Q 684 19 347 128 
L 347 722 
Q 666 556 975 473 
Q 1284 391 1588 391 
Q 1994 391 2212 530 
Q 2431 669 2431 922 
Q 2431 1156 2273 1281 
Q 2116 1406 1581 1522 
L 1381 1569 
Q 847 1681 609 1914 
Q 372 2147 372 2553 
Q 372 3047 722 3315 
Q 1072 3584 1716 3584 
Q 2034 3584 2315 3537 
Q 2597 3491 2834 3397 
z
" transform="scale(0.015625)"/>
       <path id="DejaVuSans-69" d="M 603 3500 
L 1178 3500 
L 1178 0 
L 603 0 
L 603 3500 
z
M 603 4863 
L 1178 4863 
L 1178 4134 
L 603 4134 
L 603 4863 
z
" transform="scale(0.015625)"/>
       <path id="DejaVuSans-74" d="M 1172 4494 
L 1172 3500 
L 2356 3500 
L 2356 3053 
L 1172 3053 
L 1172 1153 
Q 1172 725 1289 603 
Q 1406 481 1766 481 
L 2356 481 
L 2356 0 
L 1766 0 
Q 1100 0 847 248 
Q 594 497 594 1153 
L 594 3053 
L 172 3053 
L 172 3500 
L 594 3500 
L 594 4494 
L 1172 4494 
z
" transform="scale(0.015625)"/>
       <path id="DejaVuSans-6e" d="M 3513 2113 
L 3513 0 
L 2938 0 
L 2938 2094 
Q 2938 2591 2744 2837 
Q 2550 3084 2163 3084 
Q 1697 3084 1428 2787 
Q 1159 2491 1159 1978 
L 1159 0 
L 581 0 
L 581 3500 
L 1159 3500 
L 1159 2956 
Q 1366 3272 1645 3428 
Q 1925 3584 2291 3584 
Q 2894 3584 3203 3211 
Q 3513 2838 3513 2113 
z
" transform="scale(0.015625)"/>
       <path id="DejaVuSans-20" transform="scale(0.015625)"/>
       <path id="DejaVuSans-67" d="M 2906 1791 
Q 2906 2416 2648 2759 
Q 2391 3103 1925 3103 
Q 1463 3103 1205 2759 
Q 947 2416 947 1791 
Q 947 1169 1205 825 
Q 1463 481 1925 481 
Q 2391 481 2648 825 
Q 2906 1169 2906 1791 
z
M 3481 434 
Q 3481 -459 3084 -895 
Q 2688 -1331 1869 -1331 
Q 1566 -1331 1297 -1286 
Q 1028 -1241 775 -1147 
L 775 -588 
Q 1028 -725 1275 -790 
Q 1522 -856 1778 -856 
Q 2344 -856 2625 -561 
Q 2906 -266 2906 331 
L 2906 616 
Q 2728 306 2450 153 
Q 2172 0 1784 0 
Q 1141 0 747 490 
Q 353 981 353 1791 
Q 353 2603 747 3093 
Q 1141 3584 1784 3584 
Q 2172 3584 2450 3431 
Q 2728 3278 2906 2969 
L 2906 3500 
L 3481 3500 
L 3481 434 
z
" transform="scale(0.015625)"/>
       <path id="DejaVuSans-65" d="M 3597 1894 
L 3597 1613 
L 953 1613 
Q 991 1019 1311 708 
Q 1631 397 2203 397 
Q 2534 397 2845 478 
Q 3156 559 3463 722 
L 3463 178 
Q 3153 47 2828 -22 
Q 2503 -91 2169 -91 
Q 1331 -91 842 396 
Q 353 884 353 1716 
Q 353 2575 817 3079 
Q 1281 3584 2069 3584 
Q 2775 3584 3186 3129 
Q 3597 2675 3597 1894 
z
M 3022 2063 
Q 3016 2534 2758 2815 
Q 2500 3097 2075 3097 
Q 1594 3097 1305 2825 
Q 1016 2553 972 2059 
L 3022 2063 
z
" transform="scale(0.015625)"/>
       <path id="DejaVuSans-6d" d="M 3328 2828 
Q 3544 3216 3844 3400 
Q 4144 3584 4550 3584 
Q 5097 3584 5394 3201 
Q 5691 2819 5691 2113 
L 5691 0 
L 5113 0 
L 5113 2094 
Q 5113 2597 4934 2840 
Q 4756 3084 4391 3084 
Q 3944 3084 3684 2787 
Q 3425 2491 3425 1978 
L 3425 0 
L 2847 0 
L 2847 2094 
Q 2847 2600 2669 2842 
Q 2491 3084 2119 3084 
Q 1678 3084 1418 2786 
Q 1159 2488 1159 1978 
L 1159 0 
L 581 0 
L 581 3500 
L 1159 3500 
L 1159 2956 
Q 1356 3278 1631 3431 
Q 1906 3584 2284 3584 
Q 2666 3584 2933 3390 
Q 3200 3197 3328 2828 
z
" transform="scale(0.015625)"/>
       <path id="DejaVuSans-2c" d="M 750 794 
L 1409 794 
L 1409 256 
L 897 -744 
L 494 -744 
L 750 256 
L 750 794 
z
" transform="scale(0.015625)"/>
      </defs>
      <use xlink:href="#DejaVuSans-50"/>
      <use xlink:href="#DejaVuSans-6f" x="56.677734"/>
      <use xlink:href="#DejaVuSans-73" x="117.859375"/>
      <use xlink:href="#DejaVuSans-69" x="169.958984"/>
      <use xlink:href="#DejaVuSans-74" x="197.742188"/>
      <use xlink:href="#DejaVuSans-69" x="236.951172"/>
      <use xlink:href="#DejaVuSans-6f" x="264.734375"/>
      <use xlink:href="#DejaVuSans-6e" x="325.916016"/>
      <use xlink:href="#DejaVuSans-20" x="389.294922"/>
      <use xlink:href="#DejaVuSans-69" x="421.082031"/>
      <use xlink:href="#DejaVuSans-6e" x="448.865234"/>
      <use xlink:href="#DejaVuSans-20" x="512.244141"/>
      <use xlink:href="#DejaVuSans-67" x="544.03125"/>
      <use xlink:href="#DejaVuSans-65" x="607.507812"/>
      <use xlink:href="#DejaVuSans-6e" x="669.03125"/>
      <use xlink:href="#DejaVuSans-6f" x="732.410156"/>
      <use xlink:href="#DejaVuSans-6d" x="793.591797"/>
      <use xlink:href="#DejaVuSans-65" x="891.003906"/>
      <use xlink:href="#DejaVuSans-2c" x="952.527344"/>
      <use xlink:href="#DejaVuSans-20" x="984.314453"/>
      <use xlink:href="#DejaVuSans-6e" x="1016.101562"/>
      <use xlink:href="#DejaVuSans-74" x="1079.480469"/>
     </g>
    </g>
   </g>
   <g id="matplotlib.axis_2">
    <g id="ytick_1">
     <g id="line2d_8">
      <defs>
       <path id="mec1623808d" d="M 0 0 
L -3.5 0 
" style="stroke: #000000; stroke-width: 0.8"/>
      </defs>
      <g>
       <use xlink:href="#mec1623808d" x="57.6" y="298.340039" style="stroke: #000000; stroke-width: 0.8"/>
      </g>
     </g>
     <g id="text_9">
      <!-- 0 -->
      <g transform="translate(44.2375 302.139258) scale(0.1 -0.1)">
       <use xlink:href="#DejaVuSans-30"/>
      </g>
     </g>
    </g>
    <g id="ytick_2">
     <g id="line2d_9">
      <g>
       <use xlink:href="#mec1623808d" x="57.6" y="264.786641" style="stroke: #000000; stroke-width: 0.8"/>
      </g>
     </g>
     <g id="text_10">
      <!-- 200 -->
      <g transform="translate(31.5125 268.58586) scale(0.1 -0.1)">
       <use xlink:href="#DejaVuSans-32"/>
       <use xlink:href="#DejaVuSans-30" x="63.623047"/>
       <use xlink:href="#DejaVuSans-30" x="127.246094"/>
      </g>
     </g>
    </g>
    <g id="ytick_3">
     <g id="line2d_10">
      <g>
       <use xlink:href="#mec1623808d" x="57.6" y="231.233243" style="stroke: #000000; stroke-width: 0.8"/>
      </g>
     </g>
     <g id="text_11">
      <!-- 400 -->
      <g transform="translate(31.5125 235.032461) scale(0.1 -0.1)">
       <use xlink:href="#DejaVuSans-34"/>
       <use xlink:href="#DejaVuSans-30" x="63.623047"/>
       <use xlink:href="#DejaVuSans-30" x="127.246094"/>
      </g>
     </g>
    </g>
    <g id="ytick_4">
     <g id="line2d_11">
      <g>
       <use xlink:href="#mec1623808d" x="57.6" y="197.679845" style="stroke: #000000; stroke-width: 0.8"/>
      </g>
     </g>
     <g id="text_12">
      <!-- 600 -->
      <g transform="translate(31.5125 201.479063) scale(0.1 -0.1)">
       <use xlink:href="#DejaVuSans-36"/>
       <use xlink:href="#DejaVuSans-30" x="63.623047"/>
       <use xlink:href="#DejaVuSans-30" x="127.246094"/>
      </g>
     </g>
    </g>
    <g id="ytick_5">
     <g id="line2d_12">
      <g>
       <use xlink:href="#mec1623808d" x="57.6" y="164.126447" style="stroke: #000000; stroke-width: 0.8"/>
      </g>
     </g>
     <g id="text_13">
      <!-- 800 -->
      <g transform="translate(31.5125 167.925665) scale(0.1 -0.1)">
       <defs>
        <path id="DejaVuSans-38" d="M 2034 2216 
Q 1584 2216 1326 1975 
Q 1069 1734 1069 1313 
Q 1069 891 1326 650 
Q 1584 409 2034 409 
Q 2484 409 2743 651 
Q 3003 894 3003 1313 
Q 3003 1734 2745 1975 
Q 2488 2216 2034 2216 
z
M 1403 2484 
Q 997 2584 770 2862 
Q 544 3141 544 3541 
Q 544 4100 942 4425 
Q 1341 4750 2034 4750 
Q 2731 4750 3128 4425 
Q 3525 4100 3525 3541 
Q 3525 3141 3298 2862 
Q 3072 2584 2669 2484 
Q 3125 2378 3379 2068 
Q 3634 1759 3634 1313 
Q 3634 634 3220 271 
Q 2806 -91 2034 -91 
Q 1263 -91 848 271 
Q 434 634 434 1313 
Q 434 1759 690 2068 
Q 947 2378 1403 2484 
z
M 1172 3481 
Q 1172 3119 1398 2916 
Q 1625 2713 2034 2713 
Q 2441 2713 2670 2916 
Q 2900 3119 2900 3481 
Q 2900 3844 2670 4047 
Q 2441 4250 2034 4250 
Q 1625 4250 1398 4047 
Q 1172 3844 1172 3481 
z
" transform="scale(0.015625)"/>
       </defs>
       <use xlink:href="#DejaVuSans-38"/>
       <use xlink:href="#DejaVuSans-30" x="63.623047"/>
       <use xlink:href="#DejaVuSans-30" x="127.246094"/>
      </g>
     </g>
    </g>
    <g id="ytick_6">
     <g id="line2d_13">
      <g>
       <use xlink:href="#mec1623808d" x="57.6" y="130.573049" style="stroke: #000000; stroke-width: 0.8"/>
      </g>
     </g>
     <g id="text_14">
      <!-- 1000 -->
      <g transform="translate(25.15 134.372267) scale(0.1 -0.1)">
       <use xlink:href="#DejaVuSans-31"/>
       <use xlink:href="#DejaVuSans-30" x="63.623047"/>
       <use xlink:href="#DejaVuSans-30" x="127.246094"/>
       <use xlink:href="#DejaVuSans-30" x="190.869141"/>
      </g>
     </g>
    </g>
    <g id="ytick_7">
     <g id="line2d_14">
      <g>
       <use xlink:href="#mec1623808d" x="57.6" y="97.01965" style="stroke: #000000; stroke-width: 0.8"/>
      </g>
     </g>
     <g id="text_15">
      <!-- 1200 -->
      <g transform="translate(25.15 100.818869) scale(0.1 -0.1)">
       <use xlink:href="#DejaVuSans-31"/>
       <use xlink:href="#DejaVuSans-32" x="63.623047"/>
       <use xlink:href="#DejaVuSans-30" x="127.246094"/>
       <use xlink:href="#DejaVuSans-30" x="190.869141"/>
      </g>
     </g>
    </g>
    <g id="ytick_8">
     <g id="line2d_15">
      <g>
       <use xlink:href="#mec1623808d" x="57.6" y="63.466252" style="stroke: #000000; stroke-width: 0.8"/>
      </g>
     </g>
     <g id="text_16">
      <!-- 1400 -->
      <g transform="translate(25.15 67.265471) scale(0.1 -0.1)">
       <use xlink:href="#DejaVuSans-31"/>
       <use xlink:href="#DejaVuSans-34" x="63.623047"/>
       <use xlink:href="#DejaVuSans-30" x="127.246094"/>
       <use xlink:href="#DejaVuSans-30" x="190.869141"/>
      </g>
     </g>
    </g>
    <g id="text_17">
     <!-- Number of sequences in GenBank -->
     <g transform="translate(19.070312 259.725656) rotate(-90) scale(0.1 -0.1)">
      <defs>
       <path id="DejaVuSans-4e" d="M 628 4666 
L 1478 4666 
L 3547 763 
L 3547 4666 
L 4159 4666 
L 4159 0 
L 3309 0 
L 1241 3903 
L 1241 0 
L 628 0 
L 628 4666 
z
" transform="scale(0.015625)"/>
       <path id="DejaVuSans-75" d="M 544 1381 
L 544 3500 
L 1119 3500 
L 1119 1403 
Q 1119 906 1312 657 
Q 1506 409 1894 409 
Q 2359 409 2629 706 
Q 2900 1003 2900 1516 
L 2900 3500 
L 3475 3500 
L 3475 0 
L 2900 0 
L 2900 538 
Q 2691 219 2414 64 
Q 2138 -91 1772 -91 
Q 1169 -91 856 284 
Q 544 659 544 1381 
z
M 1991 3584 
L 1991 3584 
z
" transform="scale(0.015625)"/>
       <path id="DejaVuSans-62" d="M 3116 1747 
Q 3116 2381 2855 2742 
Q 2594 3103 2138 3103 
Q 1681 3103 1420 2742 
Q 1159 2381 1159 1747 
Q 1159 1113 1420 752 
Q 1681 391 2138 391 
Q 2594 391 2855 752 
Q 3116 1113 3116 1747 
z
M 1159 2969 
Q 1341 3281 1617 3432 
Q 1894 3584 2278 3584 
Q 2916 3584 3314 3078 
Q 3713 2572 3713 1747 
Q 3713 922 3314 415 
Q 2916 -91 2278 -91 
Q 1894 -91 1617 61 
Q 1341 213 1159 525 
L 1159 0 
L 581 0 
L 581 4863 
L 1159 4863 
L 1159 2969 
z
" transform="scale(0.015625)"/>
       <path id="DejaVuSans-72" d="M 2631 2963 
Q 2534 3019 2420 3045 
Q 2306 3072 2169 3072 
Q 1681 3072 1420 2755 
Q 1159 2438 1159 1844 
L 1159 0 
L 581 0 
L 581 3500 
L 1159 3500 
L 1159 2956 
Q 1341 3275 1631 3429 
Q 1922 3584 2338 3584 
Q 2397 3584 2469 3576 
Q 2541 3569 2628 3553 
L 2631 2963 
z
" transform="scale(0.015625)"/>
       <path id="DejaVuSans-66" d="M 2375 4863 
L 2375 4384 
L 1825 4384 
Q 1516 4384 1395 4259 
Q 1275 4134 1275 3809 
L 1275 3500 
L 2222 3500 
L 2222 3053 
L 1275 3053 
L 1275 0 
L 697 0 
L 697 3053 
L 147 3053 
L 147 3500 
L 697 3500 
L 697 3744 
Q 697 4328 969 4595 
Q 1241 4863 1831 4863 
L 2375 4863 
z
" transform="scale(0.015625)"/>
       <path id="DejaVuSans-71" d="M 947 1747 
Q 947 1113 1208 752 
Q 1469 391 1925 391 
Q 2381 391 2643 752 
Q 2906 1113 2906 1747 
Q 2906 2381 2643 2742 
Q 2381 3103 1925 3103 
Q 1469 3103 1208 2742 
Q 947 2381 947 1747 
z
M 2906 525 
Q 2725 213 2448 61 
Q 2172 -91 1784 -91 
Q 1150 -91 751 415 
Q 353 922 353 1747 
Q 353 2572 751 3078 
Q 1150 3584 1784 3584 
Q 2172 3584 2448 3432 
Q 2725 3281 2906 2969 
L 2906 3500 
L 3481 3500 
L 3481 -1331 
L 2906 -1331 
L 2906 525 
z
" transform="scale(0.015625)"/>
       <path id="DejaVuSans-63" d="M 3122 3366 
L 3122 2828 
Q 2878 2963 2633 3030 
Q 2388 3097 2138 3097 
Q 1578 3097 1268 2742 
Q 959 2388 959 1747 
Q 959 1106 1268 751 
Q 1578 397 2138 397 
Q 2388 397 2633 464 
Q 2878 531 3122 666 
L 3122 134 
Q 2881 22 2623 -34 
Q 2366 -91 2075 -91 
Q 1284 -91 818 406 
Q 353 903 353 1747 
Q 353 2603 823 3093 
Q 1294 3584 2113 3584 
Q 2378 3584 2631 3529 
Q 2884 3475 3122 3366 
z
" transform="scale(0.015625)"/>
       <path id="DejaVuSans-47" d="M 3809 666 
L 3809 1919 
L 2778 1919 
L 2778 2438 
L 4434 2438 
L 4434 434 
Q 4069 175 3628 42 
Q 3188 -91 2688 -91 
Q 1594 -91 976 548 
Q 359 1188 359 2328 
Q 359 3472 976 4111 
Q 1594 4750 2688 4750 
Q 3144 4750 3555 4637 
Q 3966 4525 4313 4306 
L 4313 3634 
Q 3963 3931 3569 4081 
Q 3175 4231 2741 4231 
Q 1884 4231 1454 3753 
Q 1025 3275 1025 2328 
Q 1025 1384 1454 906 
Q 1884 428 2741 428 
Q 3075 428 3337 486 
Q 3600 544 3809 666 
z
" transform="scale(0.015625)"/>
       <path id="DejaVuSans-42" d="M 1259 2228 
L 1259 519 
L 2272 519 
Q 2781 519 3026 730 
Q 3272 941 3272 1375 
Q 3272 1813 3026 2020 
Q 2781 2228 2272 2228 
L 1259 2228 
z
M 1259 4147 
L 1259 2741 
L 2194 2741 
Q 2656 2741 2882 2914 
Q 3109 3088 3109 3444 
Q 3109 3797 2882 3972 
Q 2656 4147 2194 4147 
L 1259 4147 
z
M 628 4666 
L 2241 4666 
Q 2963 4666 3353 4366 
Q 3744 4066 3744 3513 
Q 3744 3084 3544 2831 
Q 3344 2578 2956 2516 
Q 3422 2416 3680 2098 
Q 3938 1781 3938 1306 
Q 3938 681 3513 340 
Q 3088 0 2303 0 
L 628 0 
L 628 4666 
z
" transform="scale(0.015625)"/>
       <path id="DejaVuSans-61" d="M 2194 1759 
Q 1497 1759 1228 1600 
Q 959 1441 959 1056 
Q 959 750 1161 570 
Q 1363 391 1709 391 
Q 2188 391 2477 730 
Q 2766 1069 2766 1631 
L 2766 1759 
L 2194 1759 
z
M 3341 1997 
L 3341 0 
L 2766 0 
L 2766 531 
Q 2569 213 2275 61 
Q 1981 -91 1556 -91 
Q 1019 -91 701 211 
Q 384 513 384 1019 
Q 384 1609 779 1909 
Q 1175 2209 1959 2209 
L 2766 2209 
L 2766 2266 
Q 2766 2663 2505 2880 
Q 2244 3097 1772 3097 
Q 1472 3097 1187 3025 
Q 903 2953 641 2809 
L 641 3341 
Q 956 3463 1253 3523 
Q 1550 3584 1831 3584 
Q 2591 3584 2966 3190 
Q 3341 2797 3341 1997 
z
" transform="scale(0.015625)"/>
       <path id="DejaVuSans-6b" d="M 581 4863 
L 1159 4863 
L 1159 1991 
L 2875 3500 
L 3609 3500 
L 1753 1863 
L 3688 0 
L 2938 0 
L 1159 1709 
L 1159 0 
L 581 0 
L 581 4863 
z
" transform="scale(0.015625)"/>
      </defs>
      <use xlink:href="#DejaVuSans-4e"/>
      <use xlink:href="#DejaVuSans-75" x="74.804688"/>
      <use xlink:href="#DejaVuSans-6d" x="138.183594"/>
      <use xlink:href="#DejaVuSans-62" x="235.595703"/>
      <use xlink:href="#DejaVuSans-65" x="299.072266"/>
      <use xlink:href="#DejaVuSans-72" x="360.595703"/>
      <use xlink:href="#DejaVuSans-20" x="401.708984"/>
      <use xlink:href="#DejaVuSans-6f" x="433.496094"/>
      <use xlink:href="#DejaVuSans-66" x="494.677734"/>
      <use xlink:href="#DejaVuSans-20" x="529.882812"/>
      <use xlink:href="#DejaVuSans-73" x="561.669922"/>
      <use xlink:href="#DejaVuSans-65" x="613.769531"/>
      <use xlink:href="#DejaVuSans-71" x="675.292969"/>
      <use xlink:href="#DejaVuSans-75" x="738.769531"/>
      <use xlink:href="#DejaVuSans-65" x="802.148438"/>
      <use xlink:href="#DejaVuSans-6e" x="863.671875"/>
      <use xlink:href="#DejaVuSans-63" x="927.050781"/>
      <use xlink:href="#DejaVuSans-65" x="982.03125"/>
      <use xlink:href="#DejaVuSans-73" x="1043.554688"/>
      <use xlink:href="#DejaVuSans-20" x="1095.654297"/>
      <use xlink:href="#DejaVuSans-69" x="1127.441406"/>
      <use xlink:href="#DejaVuSans-6e" x="1155.224609"/>
      <use xlink:href="#DejaVuSans-20" x="1218.603516"/>
      <use xlink:href="#DejaVuSans-47" x="1250.390625"/>
      <use xlink:href="#DejaVuSans-65" x="1327.880859"/>
      <use xlink:href="#DejaVuSans-6e" x="1389.404297"/>
      <use xlink:href="#DejaVuSans-42" x="1452.783203"/>
      <use xlink:href="#DejaVuSans-61" x="1521.386719"/>
      <use xlink:href="#DejaVuSans-6e" x="1582.666016"/>
      <use xlink:href="#DejaVuSans-6b" x="1646.044922"/>
     </g>
    </g>
   </g>
   <g id="line2d_16">
    <path d="M 57.6 295.488 
L 57.810071 294.313631 
L 58.125176 293.642563 
L 58.177694 293.642563 
L 58.335247 293.307029 
L 58.440282 293.307029 
L 58.597835 293.139262 
L 58.860424 293.139262 
L 59.123012 292.635961 
L 60.225882 292.635961 
L 60.383435 291.629359 
L 61.801412 291.629359 
L 62.011482 290.45499 
L 64.059671 290.45499 
L 64.269741 290.119456 
L 64.374776 290.119456 
L 64.532329 289.951689 
L 65.004988 289.951689 
L 65.162541 289.783922 
L 66.895624 289.783922 
L 67.053176 289.448388 
L 73.250259 289.448388 
L 73.407812 289.280621 
L 81.863153 289.280621 
L 82.020706 289.112854 
L 83.806306 289.112854 
L 83.963859 288.77732 
L 99.614118 288.77732 
L 99.771671 288.945087 
L 104.130635 288.945087 
L 104.288188 289.112854 
L 106.126306 289.112854 
L 106.283859 288.945087 
L 112.691012 288.945087 
L 112.848565 289.112854 
L 115.316894 289.112854 
L 115.474447 288.945087 
L 116.944941 288.945087 
L 117.102494 288.77732 
L 119.413271 288.77732 
L 119.570824 285.254214 
L 119.675859 285.254214 
L 119.833412 284.91868 
L 120.621176 284.91868 
L 120.778729 284.750913 
L 121.408941 284.750913 
L 121.566494 281.395573 
L 121.8816 281.395573 
L 122.039153 279.550136 
L 122.196706 279.382369 
L 122.616847 279.382369 
L 122.7744 279.550136 
L 131.597365 279.550136 
L 131.754918 279.88567 
L 131.859953 279.88567 
L 132.017506 280.053437 
L 132.122541 280.053437 
L 132.280094 282.905476 
L 132.437647 283.408777 
L 132.542682 283.408777 
L 132.700235 283.744311 
L 133.330447 283.744311 
L 133.488 283.912078 
L 134.118212 283.912078 
L 134.223247 284.079845 
L 134.3808 283.912078 
L 134.485835 283.912078 
L 134.590871 284.247612 
L 134.748424 288.77732 
L 144.831812 288.77732 
L 144.989365 288.945087 
L 151.921694 288.945087 
L 152.079247 288.77732 
L 155.072753 288.77732 
L 155.230306 288.945087 
L 182.539482 288.945087 
L 182.854588 278.375767 
L 183.064659 278.040233 
L 183.117176 278.040233 
L 183.274729 277.872466 
L 183.747388 277.872466 
L 183.904941 275.355961 
L 184.062494 274.85266 
L 185.638024 274.85266 
L 185.743059 274.684893 
L 185.900612 277.201398 
L 186.058165 275.020427 
L 186.268235 275.020427 
L 186.320753 274.85266 
L 186.478306 272.671689 
L 188.001318 272.671689 
L 188.158871 273.007223 
L 188.316424 273.007223 
L 188.473976 277.201398 
L 190.364612 277.201398 
L 190.417129 277.536932 
L 190.574682 288.945087 
L 198.767435 288.945087 
L 198.924988 288.77732 
L 202.601224 288.77732 
L 202.758776 288.609553 
L 203.1264 288.609553 
L 203.178918 288.441786 
L 203.231435 288.609553 
L 203.388988 288.609553 
L 203.546541 288.441786 
L 204.281788 288.441786 
L 204.439341 288.609553 
L 206.224941 288.609553 
L 206.382494 288.77732 
L 208.640753 288.77732 
L 208.798306 288.441786 
L 211.004047 288.441786 
L 211.214118 288.77732 
L 214.7328 288.77732 
L 214.890353 288.609553 
L 216.150776 288.609553 
L 216.308329 288.77732 
L 221.139953 288.77732 
L 221.297506 288.609553 
L 225.656471 288.609553 
L 225.814024 288.441786 
L 228.282353 288.441786 
L 228.439906 288.274019 
L 229.227671 288.274019 
L 229.385224 288.441786 
L 231.748518 288.441786 
L 231.906071 288.274019 
L 245.350588 288.274019 
L 245.665694 286.764117 
L 246.243388 286.764117 
L 246.295906 286.59635 
L 246.453459 285.589748 
L 246.611012 285.589748 
L 246.768565 283.744311 
L 246.926118 274.349359 
L 247.083671 273.510524 
L 247.241224 268.645282 
L 247.818918 268.645282 
L 247.976471 267.135379 
L 248.186541 267.135379 
L 248.344094 264.618874 
L 248.449129 264.451107 
L 248.816753 250.861981 
L 248.974306 250.694214 
L 249.131859 250.694214 
L 249.289412 249.519845 
L 249.446965 249.519845 
L 249.604518 249.352078 
L 249.657035 249.352078 
L 249.814588 249.184311 
L 249.867106 249.184311 
L 250.024659 249.352078 
L 251.600188 249.352078 
L 251.967812 248.513243 
L 252.387953 248.513243 
L 252.703059 247.171107 
L 252.913129 247.171107 
L 253.070682 247.00334 
L 253.1232 247.00334 
L 253.280753 246.667806 
L 253.438306 246.667806 
L 253.595859 246.164505 
L 259.005176 246.164505 
L 259.162729 246.500039 
L 259.215247 246.500039 
L 259.3728 246.667806 
L 261.053365 246.667806 
L 261.210918 246.500039 
L 263.784282 246.500039 
L 264.046871 247.00334 
L 265.937506 247.00334 
L 266.095059 247.506641 
L 266.410165 260.760233 
L 266.462682 260.760233 
L 266.620235 261.766835 
L 266.672753 261.766835 
L 266.725271 261.934602 
L 266.777788 264.786641 
L 266.935341 278.040233 
L 266.987859 278.040233 
L 267.197929 278.375767 
L 267.355482 279.88567 
L 272.974871 279.88567 
L 273.132424 280.053437 
L 273.342494 280.053437 
L 273.500047 280.388971 
L 273.6576 280.388971 
L 273.815153 280.556738 
L 273.867671 280.556738 
L 274.025224 280.724505 
L 275.285647 280.724505 
L 275.338165 280.556738 
L 275.390682 280.724505 
L 275.4432 280.724505 
L 275.600753 281.227806 
L 275.705788 281.227806 
L 275.968376 283.576544 
L 279.749647 283.576544 
L 279.9072 247.171107 
L 280.169788 247.171107 
L 280.327341 246.164505 
L 280.484894 246.164505 
L 280.642447 245.661204 
L 280.694965 245.661204 
L 280.852518 245.32567 
L 281.010071 245.157903 
L 282.270494 245.157903 
L 282.428047 244.151301 
L 284.003576 244.151301 
L 284.056094 244.319068 
L 284.213647 243.983534 
L 284.3712 244.654602 
L 284.581271 244.654602 
L 284.633788 243.480233 
L 284.791341 205.73266 
L 284.896376 205.73266 
L 285.053929 206.235961 
L 285.106447 206.235961 
L 285.211482 206.907029 
L 285.369035 204.558291 
L 285.474071 204.558291 
L 285.631624 204.05499 
L 286.209318 204.05499 
L 286.419388 204.726058 
L 286.681976 204.726058 
L 286.839529 204.390524 
L 293.929412 204.390524 
L 294.244518 203.719456 
L 294.402071 203.719456 
L 294.559624 203.551689 
L 294.822212 203.551689 
L 294.927247 202.545087 
L 294.979765 201.370718 
L 295.137318 191.136932 
L 295.189835 191.136932 
L 295.347388 182.245282 
L 295.399906 181.909748 
L 295.557459 179.896544 
L 295.820047 177.715573 
L 295.9776 173.689165 
L 296.135153 170.166058 
L 296.555294 167.146252 
L 296.660329 166.810718 
L 296.922918 163.790913 
L 296.975435 163.287612 
L 297.185506 126.546641 
L 297.238024 126.546641 
L 297.500612 125.707806 
L 297.553129 124.868971 
L 297.710682 96.013049 
L 297.7632 96.013049 
L 297.973271 76.719845 
L 298.025788 76.384311 
L 298.183341 71.854602 
L 298.235859 71.854602 
L 298.393412 69.17033 
L 298.498447 69.17033 
L 298.656 66.150524 
L 298.813553 65.479456 
L 298.971106 65.311689 
L 299.128659 65.311689 
L 299.286212 58.265476 
L 299.916424 58.265476 
L 300.073976 58.097709 
L 300.231529 58.097709 
L 300.389082 57.594408 
L 300.546635 57.426641 
L 300.704188 57.594408 
L 301.176847 57.594408 
L 301.3344 57.426641 
L 301.491953 53.568 
L 301.649506 54.406835 
L 301.807059 54.406835 
L 301.912094 54.239068 
L 302.069647 54.742369 
L 302.174682 54.574602 
L 302.332235 54.742369 
L 302.542306 54.742369 
L 302.699859 54.574602 
L 302.857412 54.574602 
L 303.014965 54.406835 
L 303.172518 55.581204 
L 303.330071 55.748971 
L 303.487624 56.755573 
L 303.645176 57.091107 
L 303.802729 89.134602 
L 303.960282 91.986641 
L 304.117835 92.489942 
L 304.222871 92.489942 
L 304.380424 92.657709 
L 304.537976 92.657709 
L 304.643012 92.993243 
L 304.800565 95.677515 
L 304.9056 95.677515 
L 305.063153 97.522951 
L 305.220706 97.690718 
L 305.535812 97.690718 
L 305.7984 98.194019 
L 306.113506 98.194019 
L 306.271059 98.026252 
L 307.163859 98.026252 
L 307.321412 98.194019 
L 307.899106 98.194019 
L 308.056659 98.361786 
L 308.844424 98.361786 
L 309.001976 98.529553 
L 309.3696 98.529553 
L 309.579671 101.717126 
L 309.789741 101.717126 
L 309.947294 102.555961 
L 310.419953 102.555961 
L 310.577506 102.723728 
L 310.735059 102.723728 
L 310.892612 106.246835 
L 311.680376 106.246835 
L 311.837929 106.414602 
L 311.942965 106.414602 
L 312.100518 112.11868 
L 312.205553 112.11868 
L 312.363106 112.454214 
L 312.468141 112.454214 
L 312.730729 112.957515 
L 312.9408 112.957515 
L 313.098353 113.293049 
L 313.150871 113.293049 
L 313.308424 113.460816 
L 313.728565 113.460816 
L 313.886118 116.145087 
L 313.938635 116.145087 
L 314.043671 116.480621 
L 314.201224 119.500427 
L 314.411294 119.500427 
L 314.516329 119.835961 
L 314.568847 128.559845 
L 314.7264 157.415767 
L 314.988988 157.919068 
L 315.146541 166.810718 
L 315.304094 167.481786 
L 315.461647 167.481786 
L 315.724235 171.004893 
L 315.776753 171.004893 
L 315.829271 171.843728 
L 315.986824 181.23868 
L 316.144376 184.761786 
L 316.301929 184.761786 
L 316.617035 202.209553 
L 316.774588 219.321786 
L 317.037176 219.825087 
L 317.194729 219.825087 
L 317.247247 219.992854 
L 317.457318 222.677126 
L 317.509835 222.677126 
L 317.667388 228.716738 
L 317.824941 230.226641 
L 317.929976 230.226641 
L 318.035012 231.065476 
L 318.2976 239.286058 
L 318.455153 240.124893 
L 318.665224 241.131495 
L 318.770259 241.634796 
L 318.927812 247.338874 
L 319.085365 248.009942 
L 319.452988 248.009942 
L 319.610541 248.513243 
L 320.345788 248.513243 
L 320.503341 248.848777 
L 321.291106 248.848777 
L 321.448659 249.687612 
L 322.183906 249.687612 
L 322.236424 249.855379 
L 322.393976 251.533049 
L 322.814118 255.727223 
L 322.971671 255.89499 
L 323.024188 255.89499 
L 323.339294 257.740427 
L 323.496847 260.089165 
L 323.601882 260.592466 
L 323.916988 262.941204 
L 324.599718 262.941204 
L 324.757271 263.108971 
L 324.809788 263.108971 
L 325.019859 263.444505 
L 325.387482 263.444505 
L 325.545035 267.806447 
L 325.702588 267.974214 
L 326.017694 267.974214 
L 326.175247 268.477515 
L 326.963012 268.477515 
L 327.120565 268.813049 
L 332.267294 268.813049 
L 332.424847 268.645282 
L 343.873694 268.645282 
L 344.031247 268.813049 
L 345.239153 268.813049 
L 345.396706 276.194796 
L 345.554259 280.724505 
L 345.711812 280.892272 
L 345.869365 286.59635 
L 346.184471 286.59635 
L 346.342024 286.931883 
L 349.808188 286.931883 
L 349.965741 291.126058 
L 350.123294 291.964893 
L 350.175812 291.964893 
L 350.228329 293.81033 
L 350.333365 293.642563 
L 350.4384 293.642563 
L 350.595953 293.81033 
L 374.491482 293.81033 
L 374.649035 293.642563 
L 388.618729 293.642563 
L 388.776282 293.81033 
L 391.717271 293.81033 
L 391.874824 292.971495 
L 391.927341 292.971495 
L 392.084894 288.945087 
L 392.242447 288.945087 
L 392.4 282.066641 
L 393.607906 282.066641 
L 393.765459 276.027029 
L 394.448188 276.027029 
L 394.605741 275.859262 
L 397.336659 275.859262 
L 397.494212 275.691495 
L 398.807153 275.691495 
L 398.964706 272.000621 
L 399.279812 272.000621 
L 399.5424 271.49732 
L 407.420047 271.49732 
L 407.472565 271.665087 
L 407.630118 276.194796 
L 408.4704 276.194796 
L 408.627953 276.027029 
L 408.943059 276.027029 
L 409.153129 273.510524 
L 410.203482 273.510524 
L 410.361035 273.678291 
L 410.518588 284.583146 
L 410.938729 284.583146 
L 411.358871 285.589748 
L 412.094118 285.589748 
L 412.251671 285.757515 
L 412.619294 285.757515 
L 412.776847 286.764117 
L 412.881882 286.764117 
L 413.039435 286.931883 
L 413.512094 286.931883 
L 413.564612 287.267417 
L 413.722165 291.461592 
L 413.879718 291.629359 
L 413.984753 291.629359 
L 414.142306 291.964893 
L 414.247341 291.964893 
L 414.509929 292.971495 
L 414.667482 294.481398 
L 414.667482 294.481398 
" clip-path="url(#pab33738543)" style="fill: none; stroke: #1f77b4; stroke-width: 1.5; stroke-linecap: square"/>
   </g>
   <g id="patch_3">
    <path d="M 57.6 307.584 
L 57.6 41.472 
" style="fill: none; stroke: #000000; stroke-width: 0.8; stroke-linejoin: miter; stroke-linecap: square"/>
   </g>
   <g id="patch_4">
    <path d="M 414.72 307.584 
L 414.72 41.472 
" style="fill: none; stroke: #000000; stroke-width: 0.8; stroke-linejoin: miter; stroke-linecap: square"/>
   </g>
   <g id="patch_5">
    <path d="M 57.6 307.584 
L 414.72 307.584 
" style="fill: none; stroke: #000000; stroke-width: 0.8; stroke-linejoin: miter; stroke-linecap: square"/>
   </g>
   <g id="patch_6">
    <path d="M 57.6 41.472 
L 414.72 41.472 
" style="fill: none; stroke: #000000; stroke-width: 0.8; stroke-linejoin: miter; stroke-linecap: square"/>
   </g>
  </g>
 </g>
 <defs>
  <clipPath id="pab33738543">
   <rect x="57.6" y="41.472" width="357.12" height="266.112"/>
  </clipPath>
 </defs>
</svg>
