<?xml version="1.0" encoding="utf-8" standalone="no"?>
<!DOCTYPE svg PUBLIC "-//W3C//DTD SVG 1.1//EN"
  "http://www.w3.org/Graphics/SVG/1.1/DTD/svg11.dtd">
<svg xmlns:xlink="http://www.w3.org/1999/xlink" width="460.8pt" height="345.6pt" viewBox="0 0 460.8 345.6" xmlns="http://www.w3.org/2000/svg" version="1.1">
 <metadata>
  <rdf:RDF xmlns:dc="http://purl.org/dc/elements/1.1/" xmlns:cc="http://creativecommons.org/ns#" xmlns:rdf="http://www.w3.org/1999/02/22-rdf-syntax-ns#">
   <cc:Work>
    <dc:type rdf:resource="http://purl.org/dc/dcmitype/StillImage"/>
    <dc:date>2024-07-27T18:16:38.668629</dc:date>
    <dc:format>image/svg+xml</dc:format>
    <dc:creator>
     <cc:Agent>
      <dc:title>Matplotlib v3.9.1, https://matplotlib.org/</dc:title>
     </cc:Agent>
    </dc:creator>
   </cc:Work>
  </rdf:RDF>
 </metadata>
 <defs>
  <style type="text/css">*{stroke-linejoin: round; stroke-linecap: butt}</style>
 </defs>
 <g id="figure_1">
  <g id="patch_1">
   <path d="M 0 345.6 
L 460.8 345.6 
L 460.8 0 
L 0 0 
z
" style="fill: #ffffff"/>
  </g>
  <g id="axes_1">
   <g id="patch_2">
    <path d="M 57.6 307.584 
L 414.72 307.584 
L 414.72 41.472 
L 57.6 41.472 
z
" style="fill: #ffffff"/>
   </g>
   <g id="matplotlib.axis_1">
    <g id="xtick_1">
     <g id="line2d_1">
      <defs>
       <path id="m6601cb1e2f" d="M 0 0 
L 0 3.5 
" style="stroke: #000000; stroke-width: 0.8"/>
      </defs>
      <g>
       <use xlink:href="#m6601cb1e2f" x="57.6" y="307.584" style="stroke: #000000; stroke-width: 0.8"/>
      </g>
     </g>
     <g id="text_1">
      <!-- 0 -->
      <g transform="translate(54.41875 322.182437) scale(0.1 -0.1)">
       <defs>
        <path id="DejaVuSans-30" d="M 2034 4250 
Q 1547 4250 1301 3770 
Q 1056 3291 1056 2328 
Q 1056 1369 1301 889 
Q 1547 409 2034 409 
Q 2525 409 2770 889 
Q 3016 1369 3016 2328 
Q 3016 3291 2770 3770 
Q 2525 4250 2034 4250 
z
M 2034 4750 
Q 2819 4750 3233 4129 
Q 3647 3509 3647 2328 
Q 3647 1150 3233 529 
Q 2819 -91 2034 -91 
Q 1250 -91 836 529 
Q 422 1150 422 2328 
Q 422 3509 836 4129 
Q 1250 4750 2034 4750 
z
" transform="scale(0.015625)"/>
       </defs>
       <use xlink:href="#DejaVuSans-30"/>
      </g>
     </g>
    </g>
    <g id="xtick_2">
     <g id="line2d_2">
      <g>
       <use xlink:href="#m6601cb1e2f" x="110.719143" y="307.584" style="stroke: #000000; stroke-width: 0.8"/>
      </g>
     </g>
     <g id="text_2">
      <!-- 1000 -->
      <g transform="translate(97.994143 322.182437) scale(0.1 -0.1)">
       <defs>
        <path id="DejaVuSans-31" d="M 794 531 
L 1825 531 
L 1825 4091 
L 703 3866 
L 703 4441 
L 1819 4666 
L 2450 4666 
L 2450 531 
L 3481 531 
L 3481 0 
L 794 0 
L 794 531 
z
" transform="scale(0.015625)"/>
       </defs>
       <use xlink:href="#DejaVuSans-31"/>
       <use xlink:href="#DejaVuSans-30" x="63.623047"/>
       <use xlink:href="#DejaVuSans-30" x="127.246094"/>
       <use xlink:href="#DejaVuSans-30" x="190.869141"/>
      </g>
     </g>
    </g>
    <g id="xtick_3">
     <g id="line2d_3">
      <g>
       <use xlink:href="#m6601cb1e2f" x="163.838286" y="307.584" style="stroke: #000000; stroke-width: 0.8"/>
      </g>
     </g>
     <g id="text_3">
      <!-- 2000 -->
      <g transform="translate(151.113286 322.182437) scale(0.1 -0.1)">
       <defs>
        <path id="DejaVuSans-32" d="M 1228 531 
L 3431 531 
L 3431 0 
L 469 0 
L 469 531 
Q 828 903 1448 1529 
Q 2069 2156 2228 2338 
Q 2531 2678 2651 2914 
Q 2772 3150 2772 3378 
Q 2772 3750 2511 3984 
Q 2250 4219 1831 4219 
Q 1534 4219 1204 4116 
Q 875 4013 500 3803 
L 500 4441 
Q 881 4594 1212 4672 
Q 1544 4750 1819 4750 
Q 2544 4750 2975 4387 
Q 3406 4025 3406 3419 
Q 3406 3131 3298 2873 
Q 3191 2616 2906 2266 
Q 2828 2175 2409 1742 
Q 1991 1309 1228 531 
z
" transform="scale(0.015625)"/>
       </defs>
       <use xlink:href="#DejaVuSans-32"/>
       <use xlink:href="#DejaVuSans-30" x="63.623047"/>
       <use xlink:href="#DejaVuSans-30" x="127.246094"/>
       <use xlink:href="#DejaVuSans-30" x="190.869141"/>
      </g>
     </g>
    </g>
    <g id="xtick_4">
     <g id="line2d_4">
      <g>
       <use xlink:href="#m6601cb1e2f" x="216.95743" y="307.584" style="stroke: #000000; stroke-width: 0.8"/>
      </g>
     </g>
     <g id="text_4">
      <!-- 3000 -->
      <g transform="translate(204.23243 322.182437) scale(0.1 -0.1)">
       <defs>
        <path id="DejaVuSans-33" d="M 2597 2516 
Q 3050 2419 3304 2112 
Q 3559 1806 3559 1356 
Q 3559 666 3084 287 
Q 2609 -91 1734 -91 
Q 1441 -91 1130 -33 
Q 819 25 488 141 
L 488 750 
Q 750 597 1062 519 
Q 1375 441 1716 441 
Q 2309 441 2620 675 
Q 2931 909 2931 1356 
Q 2931 1769 2642 2001 
Q 2353 2234 1838 2234 
L 1294 2234 
L 1294 2753 
L 1863 2753 
Q 2328 2753 2575 2939 
Q 2822 3125 2822 3475 
Q 2822 3834 2567 4026 
Q 2313 4219 1838 4219 
Q 1578 4219 1281 4162 
Q 984 4106 628 3988 
L 628 4550 
Q 988 4650 1302 4700 
Q 1616 4750 1894 4750 
Q 2613 4750 3031 4423 
Q 3450 4097 3450 3541 
Q 3450 3153 3228 2886 
Q 3006 2619 2597 2516 
z
" transform="scale(0.015625)"/>
       </defs>
       <use xlink:href="#DejaVuSans-33"/>
       <use xlink:href="#DejaVuSans-30" x="63.623047"/>
       <use xlink:href="#DejaVuSans-30" x="127.246094"/>
       <use xlink:href="#DejaVuSans-30" x="190.869141"/>
      </g>
     </g>
    </g>
    <g id="xtick_5">
     <g id="line2d_5">
      <g>
       <use xlink:href="#m6601cb1e2f" x="270.076573" y="307.584" style="stroke: #000000; stroke-width: 0.8"/>
      </g>
     </g>
     <g id="text_5">
      <!-- 4000 -->
      <g transform="translate(257.351573 322.182437) scale(0.1 -0.1)">
       <defs>
        <path id="DejaVuSans-34" d="M 2419 4116 
L 825 1625 
L 2419 1625 
L 2419 4116 
z
M 2253 4666 
L 3047 4666 
L 3047 1625 
L 3713 1625 
L 3713 1100 
L 3047 1100 
L 3047 0 
L 2419 0 
L 2419 1100 
L 313 1100 
L 313 1709 
L 2253 4666 
z
" transform="scale(0.015625)"/>
       </defs>
       <use xlink:href="#DejaVuSans-34"/>
       <use xlink:href="#DejaVuSans-30" x="63.623047"/>
       <use xlink:href="#DejaVuSans-30" x="127.246094"/>
       <use xlink:href="#DejaVuSans-30" x="190.869141"/>
      </g>
     </g>
    </g>
    <g id="xtick_6">
     <g id="line2d_6">
      <g>
       <use xlink:href="#m6601cb1e2f" x="323.195716" y="307.584" style="stroke: #000000; stroke-width: 0.8"/>
      </g>
     </g>
     <g id="text_6">
      <!-- 5000 -->
      <g transform="translate(310.470716 322.182437) scale(0.1 -0.1)">
       <defs>
        <path id="DejaVuSans-35" d="M 691 4666 
L 3169 4666 
L 3169 4134 
L 1269 4134 
L 1269 2991 
Q 1406 3038 1543 3061 
Q 1681 3084 1819 3084 
Q 2600 3084 3056 2656 
Q 3513 2228 3513 1497 
Q 3513 744 3044 326 
Q 2575 -91 1722 -91 
Q 1428 -91 1123 -41 
Q 819 9 494 109 
L 494 744 
Q 775 591 1075 516 
Q 1375 441 1709 441 
Q 2250 441 2565 725 
Q 2881 1009 2881 1497 
Q 2881 1984 2565 2268 
Q 2250 2553 1709 2553 
Q 1456 2553 1204 2497 
Q 953 2441 691 2322 
L 691 4666 
z
" transform="scale(0.015625)"/>
       </defs>
       <use xlink:href="#DejaVuSans-35"/>
       <use xlink:href="#DejaVuSans-30" x="63.623047"/>
       <use xlink:href="#DejaVuSans-30" x="127.246094"/>
       <use xlink:href="#DejaVuSans-30" x="190.869141"/>
      </g>
     </g>
    </g>
    <g id="xtick_7">
     <g id="line2d_7">
      <g>
       <use xlink:href="#m6601cb1e2f" x="376.314859" y="307.584" style="stroke: #000000; stroke-width: 0.8"/>
      </g>
     </g>
     <g id="text_7">
      <!-- 6000 -->
      <g transform="translate(363.589859 322.182437) scale(0.1 -0.1)">
       <defs>
        <path id="DejaVuSans-36" d="M 2113 2584 
Q 1688 2584 1439 2293 
Q 1191 2003 1191 1497 
Q 1191 994 1439 701 
Q 1688 409 2113 409 
Q 2538 409 2786 701 
Q 3034 994 3034 1497 
Q 3034 2003 2786 2293 
Q 2538 2584 2113 2584 
z
M 3366 4563 
L 3366 3988 
Q 3128 4100 2886 4159 
Q 2644 4219 2406 4219 
Q 1781 4219 1451 3797 
Q 1122 3375 1075 2522 
Q 1259 2794 1537 2939 
Q 1816 3084 2150 3084 
Q 2853 3084 3261 2657 
Q 3669 2231 3669 1497 
Q 3669 778 3244 343 
Q 2819 -91 2113 -91 
Q 1303 -91 875 529 
Q 447 1150 447 2328 
Q 447 3434 972 4092 
Q 1497 4750 2381 4750 
Q 2619 4750 2861 4703 
Q 3103 4656 3366 4563 
z
" transform="scale(0.015625)"/>
       </defs>
       <use xlink:href="#DejaVuSans-36"/>
       <use xlink:href="#DejaVuSans-30" x="63.623047"/>
       <use xlink:href="#DejaVuSans-30" x="127.246094"/>
       <use xlink:href="#DejaVuSans-30" x="190.869141"/>
      </g>
     </g>
    </g>
    <g id="text_8">
     <!-- Position in genome, nt -->
     <g transform="translate(180.227187 335.860562) scale(0.1 -0.1)">
      <defs>
       <path id="DejaVuSans-50" d="M 1259 4147 
L 1259 2394 
L 2053 2394 
Q 2494 2394 2734 2622 
Q 2975 2850 2975 3272 
Q 2975 3691 2734 3919 
Q 2494 4147 2053 4147 
L 1259 4147 
z
M 628 4666 
L 2053 4666 
Q 2838 4666 3239 4311 
Q 3641 3956 3641 3272 
Q 3641 2581 3239 2228 
Q 2838 1875 2053 1875 
L 1259 1875 
L 1259 0 
L 628 0 
L 628 4666 
z
" transform="scale(0.015625)"/>
       <path id="DejaVuSans-6f" d="M 1959 3097 
Q 1497 3097 1228 2736 
Q 959 2375 959 1747 
Q 959 1119 1226 758 
Q 1494 397 1959 397 
Q 2419 397 2687 759 
Q 2956 1122 2956 1747 
Q 2956 2369 2687 2733 
Q 2419 3097 1959 3097 
z
M 1959 3584 
Q 2709 3584 3137 3096 
Q 3566 2609 3566 1747 
Q 3566 888 3137 398 
Q 2709 -91 1959 -91 
Q 1206 -91 779 398 
Q 353 888 353 1747 
Q 353 2609 779 3096 
Q 1206 3584 1959 3584 
z
" transform="scale(0.015625)"/>
       <path id="DejaVuSans-73" d="M 2834 3397 
L 2834 2853 
Q 2591 2978 2328 3040 
Q 2066 3103 1784 3103 
Q 1356 3103 1142 2972 
Q 928 2841 928 2578 
Q 928 2378 1081 2264 
Q 1234 2150 1697 2047 
L 1894 2003 
Q 2506 1872 2764 1633 
Q 3022 1394 3022 966 
Q 3022 478 2636 193 
Q 2250 -91 1575 -91 
Q 1294 -91 989 -36 
Q 684 19 347 128 
L 347 722 
Q 666 556 975 473 
Q 1284 391 1588 391 
Q 1994 391 2212 530 
Q 2431 669 2431 922 
Q 2431 1156 2273 1281 
Q 2116 1406 1581 1522 
L 1381 1569 
Q 847 1681 609 1914 
Q 372 2147 372 2553 
Q 372 3047 722 3315 
Q 1072 3584 1716 3584 
Q 2034 3584 2315 3537 
Q 2597 3491 2834 3397 
z
" transform="scale(0.015625)"/>
       <path id="DejaVuSans-69" d="M 603 3500 
L 1178 3500 
L 1178 0 
L 603 0 
L 603 3500 
z
M 603 4863 
L 1178 4863 
L 1178 4134 
L 603 4134 
L 603 4863 
z
" transform="scale(0.015625)"/>
       <path id="DejaVuSans-74" d="M 1172 4494 
L 1172 3500 
L 2356 3500 
L 2356 3053 
L 1172 3053 
L 1172 1153 
Q 1172 725 1289 603 
Q 1406 481 1766 481 
L 2356 481 
L 2356 0 
L 1766 0 
Q 1100 0 847 248 
Q 594 497 594 1153 
L 594 3053 
L 172 3053 
L 172 3500 
L 594 3500 
L 594 4494 
L 1172 4494 
z
" transform="scale(0.015625)"/>
       <path id="DejaVuSans-6e" d="M 3513 2113 
L 3513 0 
L 2938 0 
L 2938 2094 
Q 2938 2591 2744 2837 
Q 2550 3084 2163 3084 
Q 1697 3084 1428 2787 
Q 1159 2491 1159 1978 
L 1159 0 
L 581 0 
L 581 3500 
L 1159 3500 
L 1159 2956 
Q 1366 3272 1645 3428 
Q 1925 3584 2291 3584 
Q 2894 3584 3203 3211 
Q 3513 2838 3513 2113 
z
" transform="scale(0.015625)"/>
       <path id="DejaVuSans-20" transform="scale(0.015625)"/>
       <path id="DejaVuSans-67" d="M 2906 1791 
Q 2906 2416 2648 2759 
Q 2391 3103 1925 3103 
Q 1463 3103 1205 2759 
Q 947 2416 947 1791 
Q 947 1169 1205 825 
Q 1463 481 1925 481 
Q 2391 481 2648 825 
Q 2906 1169 2906 1791 
z
M 3481 434 
Q 3481 -459 3084 -895 
Q 2688 -1331 1869 -1331 
Q 1566 -1331 1297 -1286 
Q 1028 -1241 775 -1147 
L 775 -588 
Q 1028 -725 1275 -790 
Q 1522 -856 1778 -856 
Q 2344 -856 2625 -561 
Q 2906 -266 2906 331 
L 2906 616 
Q 2728 306 2450 153 
Q 2172 0 1784 0 
Q 1141 0 747 490 
Q 353 981 353 1791 
Q 353 2603 747 3093 
Q 1141 3584 1784 3584 
Q 2172 3584 2450 3431 
Q 2728 3278 2906 2969 
L 2906 3500 
L 3481 3500 
L 3481 434 
z
" transform="scale(0.015625)"/>
       <path id="DejaVuSans-65" d="M 3597 1894 
L 3597 1613 
L 953 1613 
Q 991 1019 1311 708 
Q 1631 397 2203 397 
Q 2534 397 2845 478 
Q 3156 559 3463 722 
L 3463 178 
Q 3153 47 2828 -22 
Q 2503 -91 2169 -91 
Q 1331 -91 842 396 
Q 353 884 353 1716 
Q 353 2575 817 3079 
Q 1281 3584 2069 3584 
Q 2775 3584 3186 3129 
Q 3597 2675 3597 1894 
z
M 3022 2063 
Q 3016 2534 2758 2815 
Q 2500 3097 2075 3097 
Q 1594 3097 1305 2825 
Q 1016 2553 972 2059 
L 3022 2063 
z
" transform="scale(0.015625)"/>
       <path id="DejaVuSans-6d" d="M 3328 2828 
Q 3544 3216 3844 3400 
Q 4144 3584 4550 3584 
Q 5097 3584 5394 3201 
Q 5691 2819 5691 2113 
L 5691 0 
L 5113 0 
L 5113 2094 
Q 5113 2597 4934 2840 
Q 4756 3084 4391 3084 
Q 3944 3084 3684 2787 
Q 3425 2491 3425 1978 
L 3425 0 
L 2847 0 
L 2847 2094 
Q 2847 2600 2669 2842 
Q 2491 3084 2119 3084 
Q 1678 3084 1418 2786 
Q 1159 2488 1159 1978 
L 1159 0 
L 581 0 
L 581 3500 
L 1159 3500 
L 1159 2956 
Q 1356 3278 1631 3431 
Q 1906 3584 2284 3584 
Q 2666 3584 2933 3390 
Q 3200 3197 3328 2828 
z
" transform="scale(0.015625)"/>
       <path id="DejaVuSans-2c" d="M 750 794 
L 1409 794 
L 1409 256 
L 897 -744 
L 494 -744 
L 750 256 
L 750 794 
z
" transform="scale(0.015625)"/>
      </defs>
      <use xlink:href="#DejaVuSans-50"/>
      <use xlink:href="#DejaVuSans-6f" x="56.677734"/>
      <use xlink:href="#DejaVuSans-73" x="117.859375"/>
      <use xlink:href="#DejaVuSans-69" x="169.958984"/>
      <use xlink:href="#DejaVuSans-74" x="197.742188"/>
      <use xlink:href="#DejaVuSans-69" x="236.951172"/>
      <use xlink:href="#DejaVuSans-6f" x="264.734375"/>
      <use xlink:href="#DejaVuSans-6e" x="325.916016"/>
      <use xlink:href="#DejaVuSans-20" x="389.294922"/>
      <use xlink:href="#DejaVuSans-69" x="421.082031"/>
      <use xlink:href="#DejaVuSans-6e" x="448.865234"/>
      <use xlink:href="#DejaVuSans-20" x="512.244141"/>
      <use xlink:href="#DejaVuSans-67" x="544.03125"/>
      <use xlink:href="#DejaVuSans-65" x="607.507812"/>
      <use xlink:href="#DejaVuSans-6e" x="669.03125"/>
      <use xlink:href="#DejaVuSans-6f" x="732.410156"/>
      <use xlink:href="#DejaVuSans-6d" x="793.591797"/>
      <use xlink:href="#DejaVuSans-65" x="891.003906"/>
      <use xlink:href="#DejaVuSans-2c" x="952.527344"/>
      <use xlink:href="#DejaVuSans-20" x="984.314453"/>
      <use xlink:href="#DejaVuSans-6e" x="1016.101562"/>
      <use xlink:href="#DejaVuSans-74" x="1079.480469"/>
     </g>
    </g>
   </g>
   <g id="matplotlib.axis_2">
    <g id="ytick_1">
     <g id="line2d_8">
      <defs>
       <path id="md13c4a1503" d="M 0 0 
L -3.5 0 
" style="stroke: #000000; stroke-width: 0.8"/>
      </defs>
      <g>
       <use xlink:href="#md13c4a1503" x="57.6" y="297.156414" style="stroke: #000000; stroke-width: 0.8"/>
      </g>
     </g>
     <g id="text_9">
      <!-- 0 -->
      <g transform="translate(44.2375 300.955633) scale(0.1 -0.1)">
       <use xlink:href="#DejaVuSans-30"/>
      </g>
     </g>
    </g>
    <g id="ytick_2">
     <g id="line2d_9">
      <g>
       <use xlink:href="#md13c4a1503" x="57.6" y="263.788138" style="stroke: #000000; stroke-width: 0.8"/>
      </g>
     </g>
     <g id="text_10">
      <!-- 200 -->
      <g transform="translate(31.5125 267.587357) scale(0.1 -0.1)">
       <use xlink:href="#DejaVuSans-32"/>
       <use xlink:href="#DejaVuSans-30" x="63.623047"/>
       <use xlink:href="#DejaVuSans-30" x="127.246094"/>
      </g>
     </g>
    </g>
    <g id="ytick_3">
     <g id="line2d_10">
      <g>
       <use xlink:href="#md13c4a1503" x="57.6" y="230.419862" style="stroke: #000000; stroke-width: 0.8"/>
      </g>
     </g>
     <g id="text_11">
      <!-- 400 -->
      <g transform="translate(31.5125 234.219081) scale(0.1 -0.1)">
       <use xlink:href="#DejaVuSans-34"/>
       <use xlink:href="#DejaVuSans-30" x="63.623047"/>
       <use xlink:href="#DejaVuSans-30" x="127.246094"/>
      </g>
     </g>
    </g>
    <g id="ytick_4">
     <g id="line2d_11">
      <g>
       <use xlink:href="#md13c4a1503" x="57.6" y="197.051586" style="stroke: #000000; stroke-width: 0.8"/>
      </g>
     </g>
     <g id="text_12">
      <!-- 600 -->
      <g transform="translate(31.5125 200.850805) scale(0.1 -0.1)">
       <use xlink:href="#DejaVuSans-36"/>
       <use xlink:href="#DejaVuSans-30" x="63.623047"/>
       <use xlink:href="#DejaVuSans-30" x="127.246094"/>
      </g>
     </g>
    </g>
    <g id="ytick_5">
     <g id="line2d_12">
      <g>
       <use xlink:href="#md13c4a1503" x="57.6" y="163.68331" style="stroke: #000000; stroke-width: 0.8"/>
      </g>
     </g>
     <g id="text_13">
      <!-- 800 -->
      <g transform="translate(31.5125 167.482529) scale(0.1 -0.1)">
       <defs>
        <path id="DejaVuSans-38" d="M 2034 2216 
Q 1584 2216 1326 1975 
Q 1069 1734 1069 1313 
Q 1069 891 1326 650 
Q 1584 409 2034 409 
Q 2484 409 2743 651 
Q 3003 894 3003 1313 
Q 3003 1734 2745 1975 
Q 2488 2216 2034 2216 
z
M 1403 2484 
Q 997 2584 770 2862 
Q 544 3141 544 3541 
Q 544 4100 942 4425 
Q 1341 4750 2034 4750 
Q 2731 4750 3128 4425 
Q 3525 4100 3525 3541 
Q 3525 3141 3298 2862 
Q 3072 2584 2669 2484 
Q 3125 2378 3379 2068 
Q 3634 1759 3634 1313 
Q 3634 634 3220 271 
Q 2806 -91 2034 -91 
Q 1263 -91 848 271 
Q 434 634 434 1313 
Q 434 1759 690 2068 
Q 947 2378 1403 2484 
z
M 1172 3481 
Q 1172 3119 1398 2916 
Q 1625 2713 2034 2713 
Q 2441 2713 2670 2916 
Q 2900 3119 2900 3481 
Q 2900 3844 2670 4047 
Q 2441 4250 2034 4250 
Q 1625 4250 1398 4047 
Q 1172 3844 1172 3481 
z
" transform="scale(0.015625)"/>
       </defs>
       <use xlink:href="#DejaVuSans-38"/>
       <use xlink:href="#DejaVuSans-30" x="63.623047"/>
       <use xlink:href="#DejaVuSans-30" x="127.246094"/>
      </g>
     </g>
    </g>
    <g id="ytick_6">
     <g id="line2d_13">
      <g>
       <use xlink:href="#md13c4a1503" x="57.6" y="130.315034" style="stroke: #000000; stroke-width: 0.8"/>
      </g>
     </g>
     <g id="text_14">
      <!-- 1000 -->
      <g transform="translate(25.15 134.114253) scale(0.1 -0.1)">
       <use xlink:href="#DejaVuSans-31"/>
       <use xlink:href="#DejaVuSans-30" x="63.623047"/>
       <use xlink:href="#DejaVuSans-30" x="127.246094"/>
       <use xlink:href="#DejaVuSans-30" x="190.869141"/>
      </g>
     </g>
    </g>
    <g id="ytick_7">
     <g id="line2d_14">
      <g>
       <use xlink:href="#md13c4a1503" x="57.6" y="96.946759" style="stroke: #000000; stroke-width: 0.8"/>
      </g>
     </g>
     <g id="text_15">
      <!-- 1200 -->
      <g transform="translate(25.15 100.745977) scale(0.1 -0.1)">
       <use xlink:href="#DejaVuSans-31"/>
       <use xlink:href="#DejaVuSans-32" x="63.623047"/>
       <use xlink:href="#DejaVuSans-30" x="127.246094"/>
       <use xlink:href="#DejaVuSans-30" x="190.869141"/>
      </g>
     </g>
    </g>
    <g id="ytick_8">
     <g id="line2d_15">
      <g>
       <use xlink:href="#md13c4a1503" x="57.6" y="63.578483" style="stroke: #000000; stroke-width: 0.8"/>
      </g>
     </g>
     <g id="text_16">
      <!-- 1400 -->
      <g transform="translate(25.15 67.377702) scale(0.1 -0.1)">
       <use xlink:href="#DejaVuSans-31"/>
       <use xlink:href="#DejaVuSans-34" x="63.623047"/>
       <use xlink:href="#DejaVuSans-30" x="127.246094"/>
       <use xlink:href="#DejaVuSans-30" x="190.869141"/>
      </g>
     </g>
    </g>
    <g id="text_17">
     <!-- Number of sequences in GenBank -->
     <g transform="translate(19.070312 259.725656) rotate(-90) scale(0.1 -0.1)">
      <defs>
       <path id="DejaVuSans-4e" d="M 628 4666 
L 1478 4666 
L 3547 763 
L 3547 4666 
L 4159 4666 
L 4159 0 
L 3309 0 
L 1241 3903 
L 1241 0 
L 628 0 
L 628 4666 
z
" transform="scale(0.015625)"/>
       <path id="DejaVuSans-75" d="M 544 1381 
L 544 3500 
L 1119 3500 
L 1119 1403 
Q 1119 906 1312 657 
Q 1506 409 1894 409 
Q 2359 409 2629 706 
Q 2900 1003 2900 1516 
L 2900 3500 
L 3475 3500 
L 3475 0 
L 2900 0 
L 2900 538 
Q 2691 219 2414 64 
Q 2138 -91 1772 -91 
Q 1169 -91 856 284 
Q 544 659 544 1381 
z
M 1991 3584 
L 1991 3584 
z
" transform="scale(0.015625)"/>
       <path id="DejaVuSans-62" d="M 3116 1747 
Q 3116 2381 2855 2742 
Q 2594 3103 2138 3103 
Q 1681 3103 1420 2742 
Q 1159 2381 1159 1747 
Q 1159 1113 1420 752 
Q 1681 391 2138 391 
Q 2594 391 2855 752 
Q 3116 1113 3116 1747 
z
M 1159 2969 
Q 1341 3281 1617 3432 
Q 1894 3584 2278 3584 
Q 2916 3584 3314 3078 
Q 3713 2572 3713 1747 
Q 3713 922 3314 415 
Q 2916 -91 2278 -91 
Q 1894 -91 1617 61 
Q 1341 213 1159 525 
L 1159 0 
L 581 0 
L 581 4863 
L 1159 4863 
L 1159 2969 
z
" transform="scale(0.015625)"/>
       <path id="DejaVuSans-72" d="M 2631 2963 
Q 2534 3019 2420 3045 
Q 2306 3072 2169 3072 
Q 1681 3072 1420 2755 
Q 1159 2438 1159 1844 
L 1159 0 
L 581 0 
L 581 3500 
L 1159 3500 
L 1159 2956 
Q 1341 3275 1631 3429 
Q 1922 3584 2338 3584 
Q 2397 3584 2469 3576 
Q 2541 3569 2628 3553 
L 2631 2963 
z
" transform="scale(0.015625)"/>
       <path id="DejaVuSans-66" d="M 2375 4863 
L 2375 4384 
L 1825 4384 
Q 1516 4384 1395 4259 
Q 1275 4134 1275 3809 
L 1275 3500 
L 2222 3500 
L 2222 3053 
L 1275 3053 
L 1275 0 
L 697 0 
L 697 3053 
L 147 3053 
L 147 3500 
L 697 3500 
L 697 3744 
Q 697 4328 969 4595 
Q 1241 4863 1831 4863 
L 2375 4863 
z
" transform="scale(0.015625)"/>
       <path id="DejaVuSans-71" d="M 947 1747 
Q 947 1113 1208 752 
Q 1469 391 1925 391 
Q 2381 391 2643 752 
Q 2906 1113 2906 1747 
Q 2906 2381 2643 2742 
Q 2381 3103 1925 3103 
Q 1469 3103 1208 2742 
Q 947 2381 947 1747 
z
M 2906 525 
Q 2725 213 2448 61 
Q 2172 -91 1784 -91 
Q 1150 -91 751 415 
Q 353 922 353 1747 
Q 353 2572 751 3078 
Q 1150 3584 1784 3584 
Q 2172 3584 2448 3432 
Q 2725 3281 2906 2969 
L 2906 3500 
L 3481 3500 
L 3481 -1331 
L 2906 -1331 
L 2906 525 
z
" transform="scale(0.015625)"/>
       <path id="DejaVuSans-63" d="M 3122 3366 
L 3122 2828 
Q 2878 2963 2633 3030 
Q 2388 3097 2138 3097 
Q 1578 3097 1268 2742 
Q 959 2388 959 1747 
Q 959 1106 1268 751 
Q 1578 397 2138 397 
Q 2388 397 2633 464 
Q 2878 531 3122 666 
L 3122 134 
Q 2881 22 2623 -34 
Q 2366 -91 2075 -91 
Q 1284 -91 818 406 
Q 353 903 353 1747 
Q 353 2603 823 3093 
Q 1294 3584 2113 3584 
Q 2378 3584 2631 3529 
Q 2884 3475 3122 3366 
z
" transform="scale(0.015625)"/>
       <path id="DejaVuSans-47" d="M 3809 666 
L 3809 1919 
L 2778 1919 
L 2778 2438 
L 4434 2438 
L 4434 434 
Q 4069 175 3628 42 
Q 3188 -91 2688 -91 
Q 1594 -91 976 548 
Q 359 1188 359 2328 
Q 359 3472 976 4111 
Q 1594 4750 2688 4750 
Q 3144 4750 3555 4637 
Q 3966 4525 4313 4306 
L 4313 3634 
Q 3963 3931 3569 4081 
Q 3175 4231 2741 4231 
Q 1884 4231 1454 3753 
Q 1025 3275 1025 2328 
Q 1025 1384 1454 906 
Q 1884 428 2741 428 
Q 3075 428 3337 486 
Q 3600 544 3809 666 
z
" transform="scale(0.015625)"/>
       <path id="DejaVuSans-42" d="M 1259 2228 
L 1259 519 
L 2272 519 
Q 2781 519 3026 730 
Q 3272 941 3272 1375 
Q 3272 1813 3026 2020 
Q 2781 2228 2272 2228 
L 1259 2228 
z
M 1259 4147 
L 1259 2741 
L 2194 2741 
Q 2656 2741 2882 2914 
Q 3109 3088 3109 3444 
Q 3109 3797 2882 3972 
Q 2656 4147 2194 4147 
L 1259 4147 
z
M 628 4666 
L 2241 4666 
Q 2963 4666 3353 4366 
Q 3744 4066 3744 3513 
Q 3744 3084 3544 2831 
Q 3344 2578 2956 2516 
Q 3422 2416 3680 2098 
Q 3938 1781 3938 1306 
Q 3938 681 3513 340 
Q 3088 0 2303 0 
L 628 0 
L 628 4666 
z
" transform="scale(0.015625)"/>
       <path id="DejaVuSans-61" d="M 2194 1759 
Q 1497 1759 1228 1600 
Q 959 1441 959 1056 
Q 959 750 1161 570 
Q 1363 391 1709 391 
Q 2188 391 2477 730 
Q 2766 1069 2766 1631 
L 2766 1759 
L 2194 1759 
z
M 3341 1997 
L 3341 0 
L 2766 0 
L 2766 531 
Q 2569 213 2275 61 
Q 1981 -91 1556 -91 
Q 1019 -91 701 211 
Q 384 513 384 1019 
Q 384 1609 779 1909 
Q 1175 2209 1959 2209 
L 2766 2209 
L 2766 2266 
Q 2766 2663 2505 2880 
Q 2244 3097 1772 3097 
Q 1472 3097 1187 3025 
Q 903 2953 641 2809 
L 641 3341 
Q 956 3463 1253 3523 
Q 1550 3584 1831 3584 
Q 2591 3584 2966 3190 
Q 3341 2797 3341 1997 
z
" transform="scale(0.015625)"/>
       <path id="DejaVuSans-6b" d="M 581 4863 
L 1159 4863 
L 1159 1991 
L 2875 3500 
L 3609 3500 
L 1753 1863 
L 3688 0 
L 2938 0 
L 1159 1709 
L 1159 0 
L 581 0 
L 581 4863 
z
" transform="scale(0.015625)"/>
      </defs>
      <use xlink:href="#DejaVuSans-4e"/>
      <use xlink:href="#DejaVuSans-75" x="74.804688"/>
      <use xlink:href="#DejaVuSans-6d" x="138.183594"/>
      <use xlink:href="#DejaVuSans-62" x="235.595703"/>
      <use xlink:href="#DejaVuSans-65" x="299.072266"/>
      <use xlink:href="#DejaVuSans-72" x="360.595703"/>
      <use xlink:href="#DejaVuSans-20" x="401.708984"/>
      <use xlink:href="#DejaVuSans-6f" x="433.496094"/>
      <use xlink:href="#DejaVuSans-66" x="494.677734"/>
      <use xlink:href="#DejaVuSans-20" x="529.882812"/>
      <use xlink:href="#DejaVuSans-73" x="561.669922"/>
      <use xlink:href="#DejaVuSans-65" x="613.769531"/>
      <use xlink:href="#DejaVuSans-71" x="675.292969"/>
      <use xlink:href="#DejaVuSans-75" x="738.769531"/>
      <use xlink:href="#DejaVuSans-65" x="802.148438"/>
      <use xlink:href="#DejaVuSans-6e" x="863.671875"/>
      <use xlink:href="#DejaVuSans-63" x="927.050781"/>
      <use xlink:href="#DejaVuSans-65" x="982.03125"/>
      <use xlink:href="#DejaVuSans-73" x="1043.554688"/>
      <use xlink:href="#DejaVuSans-20" x="1095.654297"/>
      <use xlink:href="#DejaVuSans-69" x="1127.441406"/>
      <use xlink:href="#DejaVuSans-6e" x="1155.224609"/>
      <use xlink:href="#DejaVuSans-20" x="1218.603516"/>
      <use xlink:href="#DejaVuSans-47" x="1250.390625"/>
      <use xlink:href="#DejaVuSans-65" x="1327.880859"/>
      <use xlink:href="#DejaVuSans-6e" x="1389.404297"/>
      <use xlink:href="#DejaVuSans-42" x="1452.783203"/>
      <use xlink:href="#DejaVuSans-61" x="1521.386719"/>
      <use xlink:href="#DejaVuSans-6e" x="1582.666016"/>
      <use xlink:href="#DejaVuSans-6b" x="1646.044922"/>
     </g>
    </g>
   </g>
   <g id="line2d_16">
    <path d="M 57.6 294.32011 
L 57.812477 293.152221 
L 58.131191 292.484855 
L 58.184311 292.484855 
L 58.343668 292.151172 
L 58.449906 292.151172 
L 58.609264 291.984331 
L 58.874859 291.984331 
L 59.193574 291.316966 
L 59.831004 291.316966 
L 59.990361 290.6496 
L 60.255957 290.149076 
L 60.734029 290.149076 
L 60.893387 289.982234 
L 61.95577 289.982234 
L 62.274485 289.314869 
L 64.239893 289.314869 
L 64.452369 288.981186 
L 64.558608 288.981186 
L 64.717965 288.814345 
L 65.196037 288.814345 
L 65.355395 288.647503 
L 67.108327 288.647503 
L 67.267684 288.313821 
L 73.535743 288.313821 
L 73.6951 288.146979 
L 82.247282 288.146979 
L 82.40664 287.980138 
L 84.212691 287.980138 
L 84.372048 287.646455 
L 100.520268 287.646455 
L 100.679625 287.813297 
L 104.769799 287.813297 
L 104.929157 287.980138 
L 106.788327 287.980138 
L 106.947684 287.813297 
L 113.42822 287.813297 
L 113.587577 287.980138 
L 116.084177 287.980138 
L 116.243534 287.813297 
L 117.73087 287.813297 
L 117.890228 287.646455 
L 120.22747 287.646455 
L 120.386827 284.142786 
L 120.493066 284.142786 
L 120.652423 283.809103 
L 121.44921 283.809103 
L 121.608568 283.642262 
L 122.245997 283.642262 
L 122.405355 280.305434 
L 122.72407 280.305434 
L 122.883427 278.470179 
L 123.042784 278.303338 
L 123.467738 278.303338 
L 123.627095 278.470179 
L 132.551111 278.470179 
L 132.710469 278.803862 
L 132.816707 278.803862 
L 132.976064 278.970703 
L 133.082303 278.970703 
L 133.24166 281.807007 
L 133.401017 282.307531 
L 133.613494 282.307531 
L 133.772851 282.474372 
L 134.410281 282.474372 
L 134.569639 282.808055 
L 135.10083 282.808055 
L 135.260187 283.975945 
L 135.313307 283.975945 
L 135.472664 283.809103 
L 135.578902 284.142786 
L 135.73826 287.646455 
L 145.937135 287.646455 
L 146.096493 287.813297 
L 153.10822 287.813297 
L 153.267577 287.646455 
L 156.295368 287.646455 
L 156.454726 287.813297 
L 184.023561 287.813297 
L 184.07668 290.983283 
L 184.129799 290.816441 
L 184.289157 284.810152 
L 184.395395 284.810152 
L 184.554752 284.64331 
L 184.71411 284.64331 
L 184.873467 284.142786 
L 186.148327 284.142786 
L 186.307684 280.305434 
L 187.21071 280.305434 
L 187.370067 276.968607 
L 187.476305 276.968607 
L 187.635663 274.799669 
L 187.848139 274.799669 
L 187.901258 274.632828 
L 188.060616 272.46389 
L 189.388594 272.46389 
L 189.547952 272.797572 
L 189.919786 272.797572 
L 190.079143 276.1344 
L 191.991432 276.1344 
L 192.044552 276.468083 
L 192.203909 287.813297 
L 200.490495 287.813297 
L 200.649853 287.646455 
L 204.368193 287.646455 
L 204.52755 287.479614 
L 204.899384 287.479614 
L 204.952503 287.312772 
L 205.005622 287.479614 
L 205.16498 287.479614 
L 205.324337 287.312772 
L 206.068005 287.312772 
L 206.227363 287.479614 
L 208.352129 287.479614 
L 208.511486 287.646455 
L 210.370656 287.646455 
L 210.530013 287.312772 
L 212.867256 287.312772 
L 213.079732 287.646455 
L 216.638715 287.646455 
L 216.798072 287.479614 
L 218.072932 287.479614 
L 218.232289 287.646455 
L 223.11925 287.646455 
L 223.278608 287.479614 
L 227.687497 287.479614 
L 227.846854 287.312772 
L 230.343454 287.312772 
L 230.502811 287.145931 
L 231.299598 287.145931 
L 231.458956 287.312772 
L 233.849317 287.312772 
L 234.008675 287.145931 
L 236.505274 287.145931 
L 236.664632 286.97909 
L 239.320589 286.97909 
L 239.479946 287.145931 
L 247.607175 287.145931 
L 247.92589 285.644359 
L 248.510201 285.644359 
L 248.56332 285.477517 
L 248.722677 284.476469 
L 248.882035 284.476469 
L 249.041392 282.808055 
L 249.20075 274.632828 
L 249.360107 273.798621 
L 249.519465 268.126014 
L 250.369371 268.126014 
L 250.634967 263.788138 
L 250.741205 263.621297 
L 251.113039 250.107145 
L 251.272396 249.940303 
L 251.431754 249.940303 
L 251.591111 248.772414 
L 251.750469 248.772414 
L 251.909826 248.605572 
L 251.962945 248.605572 
L 252.122303 248.438731 
L 253.928353 248.438731 
L 254.406426 247.270841 
L 254.77826 247.270841 
L 254.937617 246.269793 
L 255.256332 246.269793 
L 255.415689 246.102952 
L 255.787523 246.102952 
L 255.946881 245.602428 
L 261.630629 245.602428 
L 261.789987 245.769269 
L 263.542918 245.769269 
L 263.702276 245.602428 
L 266.251995 245.602428 
L 266.51759 246.102952 
L 268.42988 246.102952 
L 268.589237 246.603476 
L 268.907952 259.783945 
L 268.961071 259.783945 
L 269.120428 260.784993 
L 269.173548 260.784993 
L 269.226667 260.951834 
L 269.279786 263.788138 
L 269.439143 276.468083 
L 269.492262 276.468083 
L 269.65162 276.634924 
L 269.704739 276.634924 
L 269.864096 278.803862 
L 275.441606 278.803862 
L 275.600964 278.970703 
L 275.919679 278.970703 
L 276.079036 279.304386 
L 276.344632 279.304386 
L 276.557108 279.638069 
L 277.885087 279.638069 
L 277.938206 279.471228 
L 277.991325 279.638069 
L 278.044444 279.638069 
L 278.203802 280.138593 
L 278.31004 280.138593 
L 278.575636 282.474372 
L 282.400214 282.474372 
L 282.559572 246.269793 
L 282.825167 246.269793 
L 282.984525 245.268745 
L 283.143882 245.268745 
L 283.30324 244.768221 
L 283.356359 244.768221 
L 283.515716 244.434538 
L 283.675074 244.267697 
L 284.949933 244.267697 
L 285.10929 243.266648 
L 286.702865 243.266648 
L 286.755984 243.43349 
L 286.915341 243.099807 
L 287.074699 243.767172 
L 287.287175 243.767172 
L 287.340295 242.599283 
L 287.499652 205.059972 
L 287.60589 205.059972 
L 287.765248 205.560497 
L 287.818367 205.560497 
L 287.924605 206.227862 
L 288.083963 203.892083 
L 288.190201 203.892083 
L 288.349558 203.391559 
L 288.933869 203.391559 
L 289.146345 204.058924 
L 289.411941 204.058924 
L 289.571299 203.725241 
L 296.742383 203.725241 
L 297.061098 203.057876 
L 297.220455 203.057876 
L 297.379813 202.891034 
L 297.645408 202.891034 
L 297.751647 201.889986 
L 297.804766 200.722097 
L 297.964123 190.544772 
L 298.017242 190.544772 
L 298.1766 181.869021 
L 298.654672 177.197462 
L 298.76091 173.526952 
L 298.814029 173.693793 
L 298.973387 169.6896 
L 299.39834 166.686455 
L 299.504578 166.352772 
L 299.770174 163.349628 
L 299.823293 162.849103 
L 300.03577 126.477683 
L 300.088889 126.477683 
L 300.301365 125.643476 
L 300.407604 124.97611 
L 300.62008 108.792497 
L 300.673199 108.792497 
L 300.832557 76.758952 
L 300.885676 76.425269 
L 301.045033 72.087393 
L 301.098153 71.920552 
L 301.25751 69.084248 
L 301.363748 69.084248 
L 301.523106 65.914262 
L 301.735582 65.246897 
L 302.001178 65.246897 
L 302.160535 62.577434 
L 302.585489 62.577434 
L 302.744846 62.744276 
L 302.797965 62.744276 
L 302.957323 58.4064 
L 303.11668 58.4064 
L 303.276037 57.739034 
L 303.435395 57.572193 
L 304.072825 57.572193 
L 304.232182 57.405352 
L 304.391539 53.568 
L 304.550897 54.402207 
L 304.710254 54.235366 
L 304.816493 54.235366 
L 305.082088 54.902731 
L 305.241446 54.73589 
L 305.453922 54.73589 
L 305.61328 54.569048 
L 305.772637 54.569048 
L 305.931995 54.402207 
L 306.144471 56.404303 
L 306.25071 56.404303 
L 306.463186 57.071669 
L 306.569424 57.071669 
L 306.728782 88.938372 
L 306.888139 91.774676 
L 307.206854 92.442041 
L 307.366212 92.442041 
L 307.525569 92.775724 
L 307.578688 92.775724 
L 307.738046 95.445186 
L 307.844284 95.445186 
L 308.003641 97.1136 
L 308.05676 97.1136 
L 308.216118 97.447283 
L 308.481714 97.447283 
L 308.747309 97.947807 
L 308.800428 97.947807 
L 308.959786 97.780966 
L 312.146934 97.780966 
L 312.306292 100.450428 
L 312.359411 100.450428 
L 312.518768 101.785159 
L 312.625007 101.785159 
L 312.784364 102.619366 
L 312.890602 102.619366 
L 313.04996 103.453572 
L 313.421794 103.453572 
L 313.581151 105.956193 
L 313.740509 106.123034 
L 314.537296 106.123034 
L 314.696653 106.289876 
L 314.962249 106.289876 
L 315.121606 112.296166 
L 315.387202 112.296166 
L 315.54656 112.129324 
L 315.971513 112.129324 
L 316.237108 112.629848 
L 316.343347 112.629848 
L 316.502704 112.79669 
L 316.7683 112.79669 
L 316.927657 113.297214 
L 317.087015 113.297214 
L 317.140134 113.464055 
L 317.40573 115.966676 
L 317.458849 115.966676 
L 317.618206 117.63509 
L 317.777564 129.981352 
L 318.043159 129.981352 
L 318.361874 132.650814 
L 318.521232 149.501793 
L 318.680589 151.170207 
L 318.946185 182.369545 
L 319.105542 182.369545 
L 319.2649 183.03691 
L 319.318019 183.03691 
L 319.477376 183.871117 
L 319.530495 189.710566 
L 319.689853 217.406234 
L 319.84921 218.407283 
L 319.902329 218.407283 
L 320.167925 218.907807 
L 320.274163 218.907807 
L 320.327282 219.074648 
L 320.48664 227.083034 
L 320.645997 227.416717 
L 320.911593 228.417766 
L 321.07095 230.086179 
L 321.12407 230.086179 
L 321.389665 238.428248 
L 321.442784 238.428248 
L 321.495904 238.59509 
L 321.549023 239.262455 
L 321.70838 245.435586 
L 321.867738 245.435586 
L 322.027095 245.93611 
L 322.186452 246.102952 
L 322.34581 246.102952 
L 322.505167 246.269793 
L 322.558286 246.269793 
L 322.717644 246.436634 
L 322.98324 246.436634 
L 323.142597 246.603476 
L 323.514431 246.603476 
L 323.673788 246.770317 
L 323.780027 246.770317 
L 324.045622 247.270841 
L 324.417456 247.270841 
L 324.576814 247.771366 
L 324.736171 247.938207 
L 324.895529 247.938207 
L 325.054886 248.939255 
L 325.108005 248.939255 
L 325.267363 252.109241 
L 325.639197 252.109241 
L 325.692316 252.276083 
L 326.011031 256.447117 
L 326.170388 258.949738 
L 326.276627 258.949738 
L 326.382865 259.116579 
L 326.542222 259.950786 
L 326.807818 261.118676 
L 326.860937 261.118676 
L 327.020295 261.952883 
L 327.92332 261.952883 
L 328.082677 262.286566 
L 328.242035 262.286566 
L 328.401392 262.453407 
L 328.56075 262.453407 
L 328.720107 265.28971 
L 328.773226 265.28971 
L 328.932584 266.958124 
L 334.775689 266.958124 
L 334.935047 267.124966 
L 335.519357 267.124966 
L 335.678715 266.958124 
L 343.380991 266.958124 
L 343.540348 267.458648 
L 344.337135 267.458648 
L 344.496493 267.62549 
L 347.364926 267.62549 
L 347.524284 267.792331 
L 348.639786 267.792331 
L 348.799143 274.96651 
L 348.852262 274.96651 
L 349.117858 280.472276 
L 353.420509 280.472276 
L 353.526747 280.9728 
L 353.686104 283.141738 
L 356.4483 283.141738 
L 356.607657 287.479614 
L 356.660776 287.479614 
L 356.820134 293.152221 
L 377.749076 293.152221 
L 377.908434 292.985379 
L 398.996734 292.985379 
L 399.049853 292.818538 
L 399.20921 291.81749 
L 408.717537 291.81749 
L 409.036252 290.983283 
L 409.089371 289.648552 
L 409.248728 282.14069 
L 410.36423 282.14069 
L 410.523588 285.477517 
L 411.161017 285.477517 
L 411.320375 285.644359 
L 412.86083 285.644359 
L 413.020187 285.8112 
L 413.232664 285.8112 
L 413.392021 285.978041 
L 413.49826 285.978041 
L 413.551379 286.311724 
L 413.710736 290.315917 
L 413.870094 290.482759 
L 413.976332 290.482759 
L 414.135689 290.816441 
L 414.241928 290.816441 
L 414.454404 291.316966 
L 414.613762 295.321159 
L 414.666881 295.488 
L 414.666881 295.488 
" clip-path="url(#pb782cc1ef2)" style="fill: none; stroke: #1f77b4; stroke-width: 1.5; stroke-linecap: square"/>
   </g>
   <g id="patch_3">
    <path d="M 57.6 307.584 
L 57.6 41.472 
" style="fill: none; stroke: #000000; stroke-width: 0.8; stroke-linejoin: miter; stroke-linecap: square"/>
   </g>
   <g id="patch_4">
    <path d="M 414.72 307.584 
L 414.72 41.472 
" style="fill: none; stroke: #000000; stroke-width: 0.8; stroke-linejoin: miter; stroke-linecap: square"/>
   </g>
   <g id="patch_5">
    <path d="M 57.6 307.584 
L 414.72 307.584 
" style="fill: none; stroke: #000000; stroke-width: 0.8; stroke-linejoin: miter; stroke-linecap: square"/>
   </g>
   <g id="patch_6">
    <path d="M 57.6 41.472 
L 414.72 41.472 
" style="fill: none; stroke: #000000; stroke-width: 0.8; stroke-linejoin: miter; stroke-linecap: square"/>
   </g>
  </g>
 </g>
 <defs>
  <clipPath id="pb782cc1ef2">
   <rect x="57.6" y="41.472" width="357.12" height="266.112"/>
  </clipPath>
 </defs>
</svg>
