<?xml version="1.0" encoding="utf-8" standalone="no"?>
<!DOCTYPE svg PUBLIC "-//W3C//DTD SVG 1.1//EN"
  "http://www.w3.org/Graphics/SVG/1.1/DTD/svg11.dtd">
<svg xmlns:xlink="http://www.w3.org/1999/xlink" width="460.8pt" height="345.6pt" viewBox="0 0 460.8 345.6" xmlns="http://www.w3.org/2000/svg" version="1.1">
 <metadata>
  <rdf:RDF xmlns:dc="http://purl.org/dc/elements/1.1/" xmlns:cc="http://creativecommons.org/ns#" xmlns:rdf="http://www.w3.org/1999/02/22-rdf-syntax-ns#">
   <cc:Work>
    <dc:type rdf:resource="http://purl.org/dc/dcmitype/StillImage"/>
    <dc:date>2024-07-27T18:16:41.041309</dc:date>
    <dc:format>image/svg+xml</dc:format>
    <dc:creator>
     <cc:Agent>
      <dc:title>Matplotlib v3.9.1, https://matplotlib.org/</dc:title>
     </cc:Agent>
    </dc:creator>
   </cc:Work>
  </rdf:RDF>
 </metadata>
 <defs>
  <style type="text/css">*{stroke-linejoin: round; stroke-linecap: butt}</style>
 </defs>
 <g id="figure_1">
  <g id="patch_1">
   <path d="M 0 345.6 
L 460.8 345.6 
L 460.8 0 
L 0 0 
z
" style="fill: #ffffff"/>
  </g>
  <g id="axes_1">
   <g id="patch_2">
    <path d="M 57.6 307.584 
L 414.72 307.584 
L 414.72 41.472 
L 57.6 41.472 
z
" style="fill: #ffffff"/>
   </g>
   <g id="matplotlib.axis_1">
    <g id="xtick_1">
     <g id="line2d_1">
      <defs>
       <path id="med1525b23b" d="M 0 0 
L 0 3.5 
" style="stroke: #000000; stroke-width: 0.8"/>
      </defs>
      <g>
       <use xlink:href="#med1525b23b" x="57.6" y="307.584" style="stroke: #000000; stroke-width: 0.8"/>
      </g>
     </g>
     <g id="text_1">
      <!-- 0 -->
      <g transform="translate(54.41875 322.182437) scale(0.1 -0.1)">
       <defs>
        <path id="DejaVuSans-30" d="M 2034 4250 
Q 1547 4250 1301 3770 
Q 1056 3291 1056 2328 
Q 1056 1369 1301 889 
Q 1547 409 2034 409 
Q 2525 409 2770 889 
Q 3016 1369 3016 2328 
Q 3016 3291 2770 3770 
Q 2525 4250 2034 4250 
z
M 2034 4750 
Q 2819 4750 3233 4129 
Q 3647 3509 3647 2328 
Q 3647 1150 3233 529 
Q 2819 -91 2034 -91 
Q 1250 -91 836 529 
Q 422 1150 422 2328 
Q 422 3509 836 4129 
Q 1250 4750 2034 4750 
z
" transform="scale(0.015625)"/>
       </defs>
       <use xlink:href="#DejaVuSans-30"/>
      </g>
     </g>
    </g>
    <g id="xtick_2">
     <g id="line2d_2">
      <g>
       <use xlink:href="#med1525b23b" x="110.60089" y="307.584" style="stroke: #000000; stroke-width: 0.8"/>
      </g>
     </g>
     <g id="text_2">
      <!-- 1000 -->
      <g transform="translate(97.87589 322.182437) scale(0.1 -0.1)">
       <defs>
        <path id="DejaVuSans-31" d="M 794 531 
L 1825 531 
L 1825 4091 
L 703 3866 
L 703 4441 
L 1819 4666 
L 2450 4666 
L 2450 531 
L 3481 531 
L 3481 0 
L 794 0 
L 794 531 
z
" transform="scale(0.015625)"/>
       </defs>
       <use xlink:href="#DejaVuSans-31"/>
       <use xlink:href="#DejaVuSans-30" x="63.623047"/>
       <use xlink:href="#DejaVuSans-30" x="127.246094"/>
       <use xlink:href="#DejaVuSans-30" x="190.869141"/>
      </g>
     </g>
    </g>
    <g id="xtick_3">
     <g id="line2d_3">
      <g>
       <use xlink:href="#med1525b23b" x="163.601781" y="307.584" style="stroke: #000000; stroke-width: 0.8"/>
      </g>
     </g>
     <g id="text_3">
      <!-- 2000 -->
      <g transform="translate(150.876781 322.182437) scale(0.1 -0.1)">
       <defs>
        <path id="DejaVuSans-32" d="M 1228 531 
L 3431 531 
L 3431 0 
L 469 0 
L 469 531 
Q 828 903 1448 1529 
Q 2069 2156 2228 2338 
Q 2531 2678 2651 2914 
Q 2772 3150 2772 3378 
Q 2772 3750 2511 3984 
Q 2250 4219 1831 4219 
Q 1534 4219 1204 4116 
Q 875 4013 500 3803 
L 500 4441 
Q 881 4594 1212 4672 
Q 1544 4750 1819 4750 
Q 2544 4750 2975 4387 
Q 3406 4025 3406 3419 
Q 3406 3131 3298 2873 
Q 3191 2616 2906 2266 
Q 2828 2175 2409 1742 
Q 1991 1309 1228 531 
z
" transform="scale(0.015625)"/>
       </defs>
       <use xlink:href="#DejaVuSans-32"/>
       <use xlink:href="#DejaVuSans-30" x="63.623047"/>
       <use xlink:href="#DejaVuSans-30" x="127.246094"/>
       <use xlink:href="#DejaVuSans-30" x="190.869141"/>
      </g>
     </g>
    </g>
    <g id="xtick_4">
     <g id="line2d_4">
      <g>
       <use xlink:href="#med1525b23b" x="216.602671" y="307.584" style="stroke: #000000; stroke-width: 0.8"/>
      </g>
     </g>
     <g id="text_4">
      <!-- 3000 -->
      <g transform="translate(203.877671 322.182437) scale(0.1 -0.1)">
       <defs>
        <path id="DejaVuSans-33" d="M 2597 2516 
Q 3050 2419 3304 2112 
Q 3559 1806 3559 1356 
Q 3559 666 3084 287 
Q 2609 -91 1734 -91 
Q 1441 -91 1130 -33 
Q 819 25 488 141 
L 488 750 
Q 750 597 1062 519 
Q 1375 441 1716 441 
Q 2309 441 2620 675 
Q 2931 909 2931 1356 
Q 2931 1769 2642 2001 
Q 2353 2234 1838 2234 
L 1294 2234 
L 1294 2753 
L 1863 2753 
Q 2328 2753 2575 2939 
Q 2822 3125 2822 3475 
Q 2822 3834 2567 4026 
Q 2313 4219 1838 4219 
Q 1578 4219 1281 4162 
Q 984 4106 628 3988 
L 628 4550 
Q 988 4650 1302 4700 
Q 1616 4750 1894 4750 
Q 2613 4750 3031 4423 
Q 3450 4097 3450 3541 
Q 3450 3153 3228 2886 
Q 3006 2619 2597 2516 
z
" transform="scale(0.015625)"/>
       </defs>
       <use xlink:href="#DejaVuSans-33"/>
       <use xlink:href="#DejaVuSans-30" x="63.623047"/>
       <use xlink:href="#DejaVuSans-30" x="127.246094"/>
       <use xlink:href="#DejaVuSans-30" x="190.869141"/>
      </g>
     </g>
    </g>
    <g id="xtick_5">
     <g id="line2d_5">
      <g>
       <use xlink:href="#med1525b23b" x="269.603562" y="307.584" style="stroke: #000000; stroke-width: 0.8"/>
      </g>
     </g>
     <g id="text_5">
      <!-- 4000 -->
      <g transform="translate(256.878562 322.182437) scale(0.1 -0.1)">
       <defs>
        <path id="DejaVuSans-34" d="M 2419 4116 
L 825 1625 
L 2419 1625 
L 2419 4116 
z
M 2253 4666 
L 3047 4666 
L 3047 1625 
L 3713 1625 
L 3713 1100 
L 3047 1100 
L 3047 0 
L 2419 0 
L 2419 1100 
L 313 1100 
L 313 1709 
L 2253 4666 
z
" transform="scale(0.015625)"/>
       </defs>
       <use xlink:href="#DejaVuSans-34"/>
       <use xlink:href="#DejaVuSans-30" x="63.623047"/>
       <use xlink:href="#DejaVuSans-30" x="127.246094"/>
       <use xlink:href="#DejaVuSans-30" x="190.869141"/>
      </g>
     </g>
    </g>
    <g id="xtick_6">
     <g id="line2d_6">
      <g>
       <use xlink:href="#med1525b23b" x="322.604452" y="307.584" style="stroke: #000000; stroke-width: 0.8"/>
      </g>
     </g>
     <g id="text_6">
      <!-- 5000 -->
      <g transform="translate(309.879452 322.182437) scale(0.1 -0.1)">
       <defs>
        <path id="DejaVuSans-35" d="M 691 4666 
L 3169 4666 
L 3169 4134 
L 1269 4134 
L 1269 2991 
Q 1406 3038 1543 3061 
Q 1681 3084 1819 3084 
Q 2600 3084 3056 2656 
Q 3513 2228 3513 1497 
Q 3513 744 3044 326 
Q 2575 -91 1722 -91 
Q 1428 -91 1123 -41 
Q 819 9 494 109 
L 494 744 
Q 775 591 1075 516 
Q 1375 441 1709 441 
Q 2250 441 2565 725 
Q 2881 1009 2881 1497 
Q 2881 1984 2565 2268 
Q 2250 2553 1709 2553 
Q 1456 2553 1204 2497 
Q 953 2441 691 2322 
L 691 4666 
z
" transform="scale(0.015625)"/>
       </defs>
       <use xlink:href="#DejaVuSans-35"/>
       <use xlink:href="#DejaVuSans-30" x="63.623047"/>
       <use xlink:href="#DejaVuSans-30" x="127.246094"/>
       <use xlink:href="#DejaVuSans-30" x="190.869141"/>
      </g>
     </g>
    </g>
    <g id="xtick_7">
     <g id="line2d_7">
      <g>
       <use xlink:href="#med1525b23b" x="375.605343" y="307.584" style="stroke: #000000; stroke-width: 0.8"/>
      </g>
     </g>
     <g id="text_7">
      <!-- 6000 -->
      <g transform="translate(362.880343 322.182437) scale(0.1 -0.1)">
       <defs>
        <path id="DejaVuSans-36" d="M 2113 2584 
Q 1688 2584 1439 2293 
Q 1191 2003 1191 1497 
Q 1191 994 1439 701 
Q 1688 409 2113 409 
Q 2538 409 2786 701 
Q 3034 994 3034 1497 
Q 3034 2003 2786 2293 
Q 2538 2584 2113 2584 
z
M 3366 4563 
L 3366 3988 
Q 3128 4100 2886 4159 
Q 2644 4219 2406 4219 
Q 1781 4219 1451 3797 
Q 1122 3375 1075 2522 
Q 1259 2794 1537 2939 
Q 1816 3084 2150 3084 
Q 2853 3084 3261 2657 
Q 3669 2231 3669 1497 
Q 3669 778 3244 343 
Q 2819 -91 2113 -91 
Q 1303 -91 875 529 
Q 447 1150 447 2328 
Q 447 3434 972 4092 
Q 1497 4750 2381 4750 
Q 2619 4750 2861 4703 
Q 3103 4656 3366 4563 
z
" transform="scale(0.015625)"/>
       </defs>
       <use xlink:href="#DejaVuSans-36"/>
       <use xlink:href="#DejaVuSans-30" x="63.623047"/>
       <use xlink:href="#DejaVuSans-30" x="127.246094"/>
       <use xlink:href="#DejaVuSans-30" x="190.869141"/>
      </g>
     </g>
    </g>
    <g id="text_8">
     <!-- Position in genome, nt -->
     <g transform="translate(180.227187 335.860562) scale(0.1 -0.1)">
      <defs>
       <path id="DejaVuSans-50" d="M 1259 4147 
L 1259 2394 
L 2053 2394 
Q 2494 2394 2734 2622 
Q 2975 2850 2975 3272 
Q 2975 3691 2734 3919 
Q 2494 4147 2053 4147 
L 1259 4147 
z
M 628 4666 
L 2053 4666 
Q 2838 4666 3239 4311 
Q 3641 3956 3641 3272 
Q 3641 2581 3239 2228 
Q 2838 1875 2053 1875 
L 1259 1875 
L 1259 0 
L 628 0 
L 628 4666 
z
" transform="scale(0.015625)"/>
       <path id="DejaVuSans-6f" d="M 1959 3097 
Q 1497 3097 1228 2736 
Q 959 2375 959 1747 
Q 959 1119 1226 758 
Q 1494 397 1959 397 
Q 2419 397 2687 759 
Q 2956 1122 2956 1747 
Q 2956 2369 2687 2733 
Q 2419 3097 1959 3097 
z
M 1959 3584 
Q 2709 3584 3137 3096 
Q 3566 2609 3566 1747 
Q 3566 888 3137 398 
Q 2709 -91 1959 -91 
Q 1206 -91 779 398 
Q 353 888 353 1747 
Q 353 2609 779 3096 
Q 1206 3584 1959 3584 
z
" transform="scale(0.015625)"/>
       <path id="DejaVuSans-73" d="M 2834 3397 
L 2834 2853 
Q 2591 2978 2328 3040 
Q 2066 3103 1784 3103 
Q 1356 3103 1142 2972 
Q 928 2841 928 2578 
Q 928 2378 1081 2264 
Q 1234 2150 1697 2047 
L 1894 2003 
Q 2506 1872 2764 1633 
Q 3022 1394 3022 966 
Q 3022 478 2636 193 
Q 2250 -91 1575 -91 
Q 1294 -91 989 -36 
Q 684 19 347 128 
L 347 722 
Q 666 556 975 473 
Q 1284 391 1588 391 
Q 1994 391 2212 530 
Q 2431 669 2431 922 
Q 2431 1156 2273 1281 
Q 2116 1406 1581 1522 
L 1381 1569 
Q 847 1681 609 1914 
Q 372 2147 372 2553 
Q 372 3047 722 3315 
Q 1072 3584 1716 3584 
Q 2034 3584 2315 3537 
Q 2597 3491 2834 3397 
z
" transform="scale(0.015625)"/>
       <path id="DejaVuSans-69" d="M 603 3500 
L 1178 3500 
L 1178 0 
L 603 0 
L 603 3500 
z
M 603 4863 
L 1178 4863 
L 1178 4134 
L 603 4134 
L 603 4863 
z
" transform="scale(0.015625)"/>
       <path id="DejaVuSans-74" d="M 1172 4494 
L 1172 3500 
L 2356 3500 
L 2356 3053 
L 1172 3053 
L 1172 1153 
Q 1172 725 1289 603 
Q 1406 481 1766 481 
L 2356 481 
L 2356 0 
L 1766 0 
Q 1100 0 847 248 
Q 594 497 594 1153 
L 594 3053 
L 172 3053 
L 172 3500 
L 594 3500 
L 594 4494 
L 1172 4494 
z
" transform="scale(0.015625)"/>
       <path id="DejaVuSans-6e" d="M 3513 2113 
L 3513 0 
L 2938 0 
L 2938 2094 
Q 2938 2591 2744 2837 
Q 2550 3084 2163 3084 
Q 1697 3084 1428 2787 
Q 1159 2491 1159 1978 
L 1159 0 
L 581 0 
L 581 3500 
L 1159 3500 
L 1159 2956 
Q 1366 3272 1645 3428 
Q 1925 3584 2291 3584 
Q 2894 3584 3203 3211 
Q 3513 2838 3513 2113 
z
" transform="scale(0.015625)"/>
       <path id="DejaVuSans-20" transform="scale(0.015625)"/>
       <path id="DejaVuSans-67" d="M 2906 1791 
Q 2906 2416 2648 2759 
Q 2391 3103 1925 3103 
Q 1463 3103 1205 2759 
Q 947 2416 947 1791 
Q 947 1169 1205 825 
Q 1463 481 1925 481 
Q 2391 481 2648 825 
Q 2906 1169 2906 1791 
z
M 3481 434 
Q 3481 -459 3084 -895 
Q 2688 -1331 1869 -1331 
Q 1566 -1331 1297 -1286 
Q 1028 -1241 775 -1147 
L 775 -588 
Q 1028 -725 1275 -790 
Q 1522 -856 1778 -856 
Q 2344 -856 2625 -561 
Q 2906 -266 2906 331 
L 2906 616 
Q 2728 306 2450 153 
Q 2172 0 1784 0 
Q 1141 0 747 490 
Q 353 981 353 1791 
Q 353 2603 747 3093 
Q 1141 3584 1784 3584 
Q 2172 3584 2450 3431 
Q 2728 3278 2906 2969 
L 2906 3500 
L 3481 3500 
L 3481 434 
z
" transform="scale(0.015625)"/>
       <path id="DejaVuSans-65" d="M 3597 1894 
L 3597 1613 
L 953 1613 
Q 991 1019 1311 708 
Q 1631 397 2203 397 
Q 2534 397 2845 478 
Q 3156 559 3463 722 
L 3463 178 
Q 3153 47 2828 -22 
Q 2503 -91 2169 -91 
Q 1331 -91 842 396 
Q 353 884 353 1716 
Q 353 2575 817 3079 
Q 1281 3584 2069 3584 
Q 2775 3584 3186 3129 
Q 3597 2675 3597 1894 
z
M 3022 2063 
Q 3016 2534 2758 2815 
Q 2500 3097 2075 3097 
Q 1594 3097 1305 2825 
Q 1016 2553 972 2059 
L 3022 2063 
z
" transform="scale(0.015625)"/>
       <path id="DejaVuSans-6d" d="M 3328 2828 
Q 3544 3216 3844 3400 
Q 4144 3584 4550 3584 
Q 5097 3584 5394 3201 
Q 5691 2819 5691 2113 
L 5691 0 
L 5113 0 
L 5113 2094 
Q 5113 2597 4934 2840 
Q 4756 3084 4391 3084 
Q 3944 3084 3684 2787 
Q 3425 2491 3425 1978 
L 3425 0 
L 2847 0 
L 2847 2094 
Q 2847 2600 2669 2842 
Q 2491 3084 2119 3084 
Q 1678 3084 1418 2786 
Q 1159 2488 1159 1978 
L 1159 0 
L 581 0 
L 581 3500 
L 1159 3500 
L 1159 2956 
Q 1356 3278 1631 3431 
Q 1906 3584 2284 3584 
Q 2666 3584 2933 3390 
Q 3200 3197 3328 2828 
z
" transform="scale(0.015625)"/>
       <path id="DejaVuSans-2c" d="M 750 794 
L 1409 794 
L 1409 256 
L 897 -744 
L 494 -744 
L 750 256 
L 750 794 
z
" transform="scale(0.015625)"/>
      </defs>
      <use xlink:href="#DejaVuSans-50"/>
      <use xlink:href="#DejaVuSans-6f" x="56.677734"/>
      <use xlink:href="#DejaVuSans-73" x="117.859375"/>
      <use xlink:href="#DejaVuSans-69" x="169.958984"/>
      <use xlink:href="#DejaVuSans-74" x="197.742188"/>
      <use xlink:href="#DejaVuSans-69" x="236.951172"/>
      <use xlink:href="#DejaVuSans-6f" x="264.734375"/>
      <use xlink:href="#DejaVuSans-6e" x="325.916016"/>
      <use xlink:href="#DejaVuSans-20" x="389.294922"/>
      <use xlink:href="#DejaVuSans-69" x="421.082031"/>
      <use xlink:href="#DejaVuSans-6e" x="448.865234"/>
      <use xlink:href="#DejaVuSans-20" x="512.244141"/>
      <use xlink:href="#DejaVuSans-67" x="544.03125"/>
      <use xlink:href="#DejaVuSans-65" x="607.507812"/>
      <use xlink:href="#DejaVuSans-6e" x="669.03125"/>
      <use xlink:href="#DejaVuSans-6f" x="732.410156"/>
      <use xlink:href="#DejaVuSans-6d" x="793.591797"/>
      <use xlink:href="#DejaVuSans-65" x="891.003906"/>
      <use xlink:href="#DejaVuSans-2c" x="952.527344"/>
      <use xlink:href="#DejaVuSans-20" x="984.314453"/>
      <use xlink:href="#DejaVuSans-6e" x="1016.101562"/>
      <use xlink:href="#DejaVuSans-74" x="1079.480469"/>
     </g>
    </g>
   </g>
   <g id="matplotlib.axis_2">
    <g id="ytick_1">
     <g id="line2d_8">
      <defs>
       <path id="ma26f077da9" d="M 0 0 
L -3.5 0 
" style="stroke: #000000; stroke-width: 0.8"/>
      </defs>
      <g>
       <use xlink:href="#ma26f077da9" x="57.6" y="297.155264" style="stroke: #000000; stroke-width: 0.8"/>
      </g>
     </g>
     <g id="text_9">
      <!-- 0 -->
      <g transform="translate(44.2375 300.954483) scale(0.1 -0.1)">
       <use xlink:href="#DejaVuSans-30"/>
      </g>
     </g>
    </g>
    <g id="ytick_2">
     <g id="line2d_9">
      <g>
       <use xlink:href="#ma26f077da9" x="57.6" y="263.809985" style="stroke: #000000; stroke-width: 0.8"/>
      </g>
     </g>
     <g id="text_10">
      <!-- 200 -->
      <g transform="translate(31.5125 267.609204) scale(0.1 -0.1)">
       <use xlink:href="#DejaVuSans-32"/>
       <use xlink:href="#DejaVuSans-30" x="63.623047"/>
       <use xlink:href="#DejaVuSans-30" x="127.246094"/>
      </g>
     </g>
    </g>
    <g id="ytick_3">
     <g id="line2d_10">
      <g>
       <use xlink:href="#ma26f077da9" x="57.6" y="230.464706" style="stroke: #000000; stroke-width: 0.8"/>
      </g>
     </g>
     <g id="text_11">
      <!-- 400 -->
      <g transform="translate(31.5125 234.263924) scale(0.1 -0.1)">
       <use xlink:href="#DejaVuSans-34"/>
       <use xlink:href="#DejaVuSans-30" x="63.623047"/>
       <use xlink:href="#DejaVuSans-30" x="127.246094"/>
      </g>
     </g>
    </g>
    <g id="ytick_4">
     <g id="line2d_11">
      <g>
       <use xlink:href="#ma26f077da9" x="57.6" y="197.119427" style="stroke: #000000; stroke-width: 0.8"/>
      </g>
     </g>
     <g id="text_12">
      <!-- 600 -->
      <g transform="translate(31.5125 200.918645) scale(0.1 -0.1)">
       <use xlink:href="#DejaVuSans-36"/>
       <use xlink:href="#DejaVuSans-30" x="63.623047"/>
       <use xlink:href="#DejaVuSans-30" x="127.246094"/>
      </g>
     </g>
    </g>
    <g id="ytick_5">
     <g id="line2d_12">
      <g>
       <use xlink:href="#ma26f077da9" x="57.6" y="163.774147" style="stroke: #000000; stroke-width: 0.8"/>
      </g>
     </g>
     <g id="text_13">
      <!-- 800 -->
      <g transform="translate(31.5125 167.573366) scale(0.1 -0.1)">
       <defs>
        <path id="DejaVuSans-38" d="M 2034 2216 
Q 1584 2216 1326 1975 
Q 1069 1734 1069 1313 
Q 1069 891 1326 650 
Q 1584 409 2034 409 
Q 2484 409 2743 651 
Q 3003 894 3003 1313 
Q 3003 1734 2745 1975 
Q 2488 2216 2034 2216 
z
M 1403 2484 
Q 997 2584 770 2862 
Q 544 3141 544 3541 
Q 544 4100 942 4425 
Q 1341 4750 2034 4750 
Q 2731 4750 3128 4425 
Q 3525 4100 3525 3541 
Q 3525 3141 3298 2862 
Q 3072 2584 2669 2484 
Q 3125 2378 3379 2068 
Q 3634 1759 3634 1313 
Q 3634 634 3220 271 
Q 2806 -91 2034 -91 
Q 1263 -91 848 271 
Q 434 634 434 1313 
Q 434 1759 690 2068 
Q 947 2378 1403 2484 
z
M 1172 3481 
Q 1172 3119 1398 2916 
Q 1625 2713 2034 2713 
Q 2441 2713 2670 2916 
Q 2900 3119 2900 3481 
Q 2900 3844 2670 4047 
Q 2441 4250 2034 4250 
Q 1625 4250 1398 4047 
Q 1172 3844 1172 3481 
z
" transform="scale(0.015625)"/>
       </defs>
       <use xlink:href="#DejaVuSans-38"/>
       <use xlink:href="#DejaVuSans-30" x="63.623047"/>
       <use xlink:href="#DejaVuSans-30" x="127.246094"/>
      </g>
     </g>
    </g>
    <g id="ytick_6">
     <g id="line2d_13">
      <g>
       <use xlink:href="#ma26f077da9" x="57.6" y="130.428868" style="stroke: #000000; stroke-width: 0.8"/>
      </g>
     </g>
     <g id="text_14">
      <!-- 1000 -->
      <g transform="translate(25.15 134.228087) scale(0.1 -0.1)">
       <use xlink:href="#DejaVuSans-31"/>
       <use xlink:href="#DejaVuSans-30" x="63.623047"/>
       <use xlink:href="#DejaVuSans-30" x="127.246094"/>
       <use xlink:href="#DejaVuSans-30" x="190.869141"/>
      </g>
     </g>
    </g>
    <g id="ytick_7">
     <g id="line2d_14">
      <g>
       <use xlink:href="#ma26f077da9" x="57.6" y="97.083589" style="stroke: #000000; stroke-width: 0.8"/>
      </g>
     </g>
     <g id="text_15">
      <!-- 1200 -->
      <g transform="translate(25.15 100.882808) scale(0.1 -0.1)">
       <use xlink:href="#DejaVuSans-31"/>
       <use xlink:href="#DejaVuSans-32" x="63.623047"/>
       <use xlink:href="#DejaVuSans-30" x="127.246094"/>
       <use xlink:href="#DejaVuSans-30" x="190.869141"/>
      </g>
     </g>
    </g>
    <g id="ytick_8">
     <g id="line2d_15">
      <g>
       <use xlink:href="#ma26f077da9" x="57.6" y="63.73831" style="stroke: #000000; stroke-width: 0.8"/>
      </g>
     </g>
     <g id="text_16">
      <!-- 1400 -->
      <g transform="translate(25.15 67.537529) scale(0.1 -0.1)">
       <use xlink:href="#DejaVuSans-31"/>
       <use xlink:href="#DejaVuSans-34" x="63.623047"/>
       <use xlink:href="#DejaVuSans-30" x="127.246094"/>
       <use xlink:href="#DejaVuSans-30" x="190.869141"/>
      </g>
     </g>
    </g>
    <g id="text_17">
     <!-- Number of sequences in GenBank -->
     <g transform="translate(19.070312 259.725656) rotate(-90) scale(0.1 -0.1)">
      <defs>
       <path id="DejaVuSans-4e" d="M 628 4666 
L 1478 4666 
L 3547 763 
L 3547 4666 
L 4159 4666 
L 4159 0 
L 3309 0 
L 1241 3903 
L 1241 0 
L 628 0 
L 628 4666 
z
" transform="scale(0.015625)"/>
       <path id="DejaVuSans-75" d="M 544 1381 
L 544 3500 
L 1119 3500 
L 1119 1403 
Q 1119 906 1312 657 
Q 1506 409 1894 409 
Q 2359 409 2629 706 
Q 2900 1003 2900 1516 
L 2900 3500 
L 3475 3500 
L 3475 0 
L 2900 0 
L 2900 538 
Q 2691 219 2414 64 
Q 2138 -91 1772 -91 
Q 1169 -91 856 284 
Q 544 659 544 1381 
z
M 1991 3584 
L 1991 3584 
z
" transform="scale(0.015625)"/>
       <path id="DejaVuSans-62" d="M 3116 1747 
Q 3116 2381 2855 2742 
Q 2594 3103 2138 3103 
Q 1681 3103 1420 2742 
Q 1159 2381 1159 1747 
Q 1159 1113 1420 752 
Q 1681 391 2138 391 
Q 2594 391 2855 752 
Q 3116 1113 3116 1747 
z
M 1159 2969 
Q 1341 3281 1617 3432 
Q 1894 3584 2278 3584 
Q 2916 3584 3314 3078 
Q 3713 2572 3713 1747 
Q 3713 922 3314 415 
Q 2916 -91 2278 -91 
Q 1894 -91 1617 61 
Q 1341 213 1159 525 
L 1159 0 
L 581 0 
L 581 4863 
L 1159 4863 
L 1159 2969 
z
" transform="scale(0.015625)"/>
       <path id="DejaVuSans-72" d="M 2631 2963 
Q 2534 3019 2420 3045 
Q 2306 3072 2169 3072 
Q 1681 3072 1420 2755 
Q 1159 2438 1159 1844 
L 1159 0 
L 581 0 
L 581 3500 
L 1159 3500 
L 1159 2956 
Q 1341 3275 1631 3429 
Q 1922 3584 2338 3584 
Q 2397 3584 2469 3576 
Q 2541 3569 2628 3553 
L 2631 2963 
z
" transform="scale(0.015625)"/>
       <path id="DejaVuSans-66" d="M 2375 4863 
L 2375 4384 
L 1825 4384 
Q 1516 4384 1395 4259 
Q 1275 4134 1275 3809 
L 1275 3500 
L 2222 3500 
L 2222 3053 
L 1275 3053 
L 1275 0 
L 697 0 
L 697 3053 
L 147 3053 
L 147 3500 
L 697 3500 
L 697 3744 
Q 697 4328 969 4595 
Q 1241 4863 1831 4863 
L 2375 4863 
z
" transform="scale(0.015625)"/>
       <path id="DejaVuSans-71" d="M 947 1747 
Q 947 1113 1208 752 
Q 1469 391 1925 391 
Q 2381 391 2643 752 
Q 2906 1113 2906 1747 
Q 2906 2381 2643 2742 
Q 2381 3103 1925 3103 
Q 1469 3103 1208 2742 
Q 947 2381 947 1747 
z
M 2906 525 
Q 2725 213 2448 61 
Q 2172 -91 1784 -91 
Q 1150 -91 751 415 
Q 353 922 353 1747 
Q 353 2572 751 3078 
Q 1150 3584 1784 3584 
Q 2172 3584 2448 3432 
Q 2725 3281 2906 2969 
L 2906 3500 
L 3481 3500 
L 3481 -1331 
L 2906 -1331 
L 2906 525 
z
" transform="scale(0.015625)"/>
       <path id="DejaVuSans-63" d="M 3122 3366 
L 3122 2828 
Q 2878 2963 2633 3030 
Q 2388 3097 2138 3097 
Q 1578 3097 1268 2742 
Q 959 2388 959 1747 
Q 959 1106 1268 751 
Q 1578 397 2138 397 
Q 2388 397 2633 464 
Q 2878 531 3122 666 
L 3122 134 
Q 2881 22 2623 -34 
Q 2366 -91 2075 -91 
Q 1284 -91 818 406 
Q 353 903 353 1747 
Q 353 2603 823 3093 
Q 1294 3584 2113 3584 
Q 2378 3584 2631 3529 
Q 2884 3475 3122 3366 
z
" transform="scale(0.015625)"/>
       <path id="DejaVuSans-47" d="M 3809 666 
L 3809 1919 
L 2778 1919 
L 2778 2438 
L 4434 2438 
L 4434 434 
Q 4069 175 3628 42 
Q 3188 -91 2688 -91 
Q 1594 -91 976 548 
Q 359 1188 359 2328 
Q 359 3472 976 4111 
Q 1594 4750 2688 4750 
Q 3144 4750 3555 4637 
Q 3966 4525 4313 4306 
L 4313 3634 
Q 3963 3931 3569 4081 
Q 3175 4231 2741 4231 
Q 1884 4231 1454 3753 
Q 1025 3275 1025 2328 
Q 1025 1384 1454 906 
Q 1884 428 2741 428 
Q 3075 428 3337 486 
Q 3600 544 3809 666 
z
" transform="scale(0.015625)"/>
       <path id="DejaVuSans-42" d="M 1259 2228 
L 1259 519 
L 2272 519 
Q 2781 519 3026 730 
Q 3272 941 3272 1375 
Q 3272 1813 3026 2020 
Q 2781 2228 2272 2228 
L 1259 2228 
z
M 1259 4147 
L 1259 2741 
L 2194 2741 
Q 2656 2741 2882 2914 
Q 3109 3088 3109 3444 
Q 3109 3797 2882 3972 
Q 2656 4147 2194 4147 
L 1259 4147 
z
M 628 4666 
L 2241 4666 
Q 2963 4666 3353 4366 
Q 3744 4066 3744 3513 
Q 3744 3084 3544 2831 
Q 3344 2578 2956 2516 
Q 3422 2416 3680 2098 
Q 3938 1781 3938 1306 
Q 3938 681 3513 340 
Q 3088 0 2303 0 
L 628 0 
L 628 4666 
z
" transform="scale(0.015625)"/>
       <path id="DejaVuSans-61" d="M 2194 1759 
Q 1497 1759 1228 1600 
Q 959 1441 959 1056 
Q 959 750 1161 570 
Q 1363 391 1709 391 
Q 2188 391 2477 730 
Q 2766 1069 2766 1631 
L 2766 1759 
L 2194 1759 
z
M 3341 1997 
L 3341 0 
L 2766 0 
L 2766 531 
Q 2569 213 2275 61 
Q 1981 -91 1556 -91 
Q 1019 -91 701 211 
Q 384 513 384 1019 
Q 384 1609 779 1909 
Q 1175 2209 1959 2209 
L 2766 2209 
L 2766 2266 
Q 2766 2663 2505 2880 
Q 2244 3097 1772 3097 
Q 1472 3097 1187 3025 
Q 903 2953 641 2809 
L 641 3341 
Q 956 3463 1253 3523 
Q 1550 3584 1831 3584 
Q 2591 3584 2966 3190 
Q 3341 2797 3341 1997 
z
" transform="scale(0.015625)"/>
       <path id="DejaVuSans-6b" d="M 581 4863 
L 1159 4863 
L 1159 1991 
L 2875 3500 
L 3609 3500 
L 1753 1863 
L 3688 0 
L 2938 0 
L 1159 1709 
L 1159 0 
L 581 0 
L 581 4863 
z
" transform="scale(0.015625)"/>
      </defs>
      <use xlink:href="#DejaVuSans-4e"/>
      <use xlink:href="#DejaVuSans-75" x="74.804688"/>
      <use xlink:href="#DejaVuSans-6d" x="138.183594"/>
      <use xlink:href="#DejaVuSans-62" x="235.595703"/>
      <use xlink:href="#DejaVuSans-65" x="299.072266"/>
      <use xlink:href="#DejaVuSans-72" x="360.595703"/>
      <use xlink:href="#DejaVuSans-20" x="401.708984"/>
      <use xlink:href="#DejaVuSans-6f" x="433.496094"/>
      <use xlink:href="#DejaVuSans-66" x="494.677734"/>
      <use xlink:href="#DejaVuSans-20" x="529.882812"/>
      <use xlink:href="#DejaVuSans-73" x="561.669922"/>
      <use xlink:href="#DejaVuSans-65" x="613.769531"/>
      <use xlink:href="#DejaVuSans-71" x="675.292969"/>
      <use xlink:href="#DejaVuSans-75" x="738.769531"/>
      <use xlink:href="#DejaVuSans-65" x="802.148438"/>
      <use xlink:href="#DejaVuSans-6e" x="863.671875"/>
      <use xlink:href="#DejaVuSans-63" x="927.050781"/>
      <use xlink:href="#DejaVuSans-65" x="982.03125"/>
      <use xlink:href="#DejaVuSans-73" x="1043.554688"/>
      <use xlink:href="#DejaVuSans-20" x="1095.654297"/>
      <use xlink:href="#DejaVuSans-69" x="1127.441406"/>
      <use xlink:href="#DejaVuSans-6e" x="1155.224609"/>
      <use xlink:href="#DejaVuSans-20" x="1218.603516"/>
      <use xlink:href="#DejaVuSans-47" x="1250.390625"/>
      <use xlink:href="#DejaVuSans-65" x="1327.880859"/>
      <use xlink:href="#DejaVuSans-6e" x="1389.404297"/>
      <use xlink:href="#DejaVuSans-42" x="1452.783203"/>
      <use xlink:href="#DejaVuSans-61" x="1521.386719"/>
      <use xlink:href="#DejaVuSans-6e" x="1582.666016"/>
      <use xlink:href="#DejaVuSans-6b" x="1646.044922"/>
     </g>
    </g>
   </g>
   <g id="line2d_16">
    <path d="M 57.6 294.320915 
L 57.812004 293.15383 
L 58.130009 292.486925 
L 58.18301 292.486925 
L 58.342012 292.153472 
L 58.448014 292.153472 
L 58.607017 291.986746 
L 58.872021 291.986746 
L 59.190027 291.31984 
L 60.303045 291.31984 
L 60.462048 290.319482 
L 60.674052 290.319482 
L 60.833054 290.152755 
L 61.893072 290.152755 
L 61.946073 289.986029 
L 62.105076 289.319123 
L 64.17211 289.319123 
L 64.384114 288.985671 
L 64.490116 288.985671 
L 64.649118 288.818944 
L 65.126126 288.818944 
L 65.285129 288.652218 
L 67.087159 288.652218 
L 67.246162 288.318765 
L 73.447266 288.318765 
L 73.606269 288.152039 
L 82.139412 288.152039 
L 82.298415 287.985312 
L 84.100445 287.985312 
L 84.259448 287.651859 
L 98.781692 287.651859 
L 98.940695 287.818586 
L 103.339768 287.818586 
L 103.498771 287.985312 
L 105.353802 287.985312 
L 105.512805 287.818586 
L 111.978914 287.818586 
L 112.137916 287.985312 
L 114.628958 287.985312 
L 114.787961 287.818586 
L 116.271986 287.818586 
L 116.430988 287.651859 
L 118.763028 287.651859 
L 118.92203 284.150605 
L 119.028032 284.150605 
L 119.187035 283.817152 
L 119.982048 283.817152 
L 120.141051 283.650426 
L 120.777061 283.650426 
L 120.936064 280.315898 
L 121.254069 280.315898 
L 121.413072 278.481908 
L 121.572075 278.315181 
L 121.996082 278.315181 
L 122.155085 278.481908 
L 131.059234 278.481908 
L 131.218237 278.81536 
L 131.324239 278.81536 
L 131.483241 278.982087 
L 131.589243 278.982087 
L 131.748246 281.649709 
L 131.907248 282.316615 
L 132.01325 282.316615 
L 132.172253 282.483341 
L 132.914265 282.483341 
L 133.073268 282.816794 
L 133.603277 282.816794 
L 133.709279 282.98352 
L 133.868281 282.816794 
L 133.974283 282.816794 
L 134.080285 283.150247 
L 134.239288 287.651859 
L 144.415459 287.651859 
L 144.574461 287.818586 
L 151.570579 287.818586 
L 151.729581 287.651859 
L 154.750632 287.651859 
L 154.909635 287.818586 
L 182.417097 287.818586 
L 182.682102 277.148096 
L 182.788103 277.148096 
L 183.000107 276.814644 
L 183.053108 276.814644 
L 183.21211 276.647917 
L 183.689118 276.647917 
L 183.954123 273.646842 
L 185.862155 273.646842 
L 186.021158 271.479399 
L 186.233161 271.479399 
L 186.286162 271.312673 
L 186.445165 269.145229 
L 187.134176 269.145229 
L 187.293179 269.311956 
L 187.558183 269.311956 
L 187.717186 269.645409 
L 188.300196 269.645409 
L 188.459199 273.646842 
L 190.367231 273.646842 
L 190.420232 273.980295 
L 190.579234 287.818586 
L 198.847373 287.818586 
L 199.006376 287.651859 
L 202.716438 287.651859 
L 202.875441 287.485133 
L 203.246447 287.485133 
L 203.299448 287.318407 
L 203.352449 287.485133 
L 203.511451 287.485133 
L 203.670454 287.318407 
L 204.412467 287.318407 
L 204.571469 287.485133 
L 206.691505 287.485133 
L 206.850508 287.651859 
L 208.705539 287.651859 
L 208.864541 287.318407 
L 211.196581 287.318407 
L 211.408584 287.651859 
L 214.959644 287.651859 
L 215.118646 287.485133 
L 216.390668 287.485133 
L 216.549671 287.651859 
L 221.425752 287.651859 
L 221.584755 287.485133 
L 225.983829 287.485133 
L 226.142832 287.318407 
L 229.322885 287.318407 
L 229.481888 287.15168 
L 229.58789 287.15168 
L 229.746892 287.318407 
L 232.131932 287.318407 
L 232.290935 287.15168 
L 234.781977 287.15168 
L 234.94098 286.984954 
L 237.591024 286.984954 
L 237.750027 287.15168 
L 245.859163 287.15168 
L 246.177168 285.651143 
L 246.813179 285.651143 
L 246.972182 284.484058 
L 247.131184 284.484058 
L 247.290187 282.650068 
L 247.44919 273.313389 
L 247.608192 272.479757 
L 247.767195 266.644334 
L 248.403206 266.644334 
L 248.562208 266.144154 
L 248.721211 266.144154 
L 248.880214 263.643258 
L 248.986215 263.476532 
L 249.357222 249.971694 
L 249.516224 249.804968 
L 249.675227 249.804968 
L 249.83423 248.637883 
L 249.993232 248.637883 
L 250.152235 248.471156 
L 250.205236 248.471156 
L 250.364239 248.30443 
L 250.41724 248.30443 
L 250.576242 248.471156 
L 252.166269 248.471156 
L 252.643277 247.304072 
L 253.014283 247.304072 
L 253.173286 246.303713 
L 253.491291 246.303713 
L 253.650294 246.136987 
L 253.968299 246.136987 
L 254.286305 245.470081 
L 259.639394 245.470081 
L 259.851398 245.803534 
L 261.706429 245.803534 
L 261.865432 245.636808 
L 264.462476 245.636808 
L 264.621478 245.803534 
L 264.674479 245.803534 
L 264.833482 246.136987 
L 266.476509 246.136987 
L 266.635512 246.303713 
L 266.794515 249.471515 
L 266.847516 249.638241 
L 266.953517 250.6386 
L 267.11252 259.808551 
L 267.271523 260.80891 
L 267.377524 260.80891 
L 267.430525 260.975636 
L 267.483526 263.809985 
L 267.642529 276.98137 
L 267.69553 276.98137 
L 267.748531 277.148096 
L 267.907533 278.148455 
L 267.960534 278.148455 
L 268.119537 278.81536 
L 273.63163 278.81536 
L 273.790632 279.31554 
L 274.214639 279.31554 
L 274.373642 279.482266 
L 274.638646 279.482266 
L 274.797649 279.648992 
L 276.069671 279.648992 
L 276.122671 279.482266 
L 276.175672 279.648992 
L 276.228673 279.648992 
L 276.387676 280.149172 
L 276.493678 280.149172 
L 276.758682 282.483341 
L 280.574746 282.483341 
L 280.733749 246.303713 
L 280.998753 246.303713 
L 281.157756 245.303355 
L 281.316759 245.303355 
L 281.475761 244.803176 
L 281.528762 244.803176 
L 281.687765 244.469723 
L 281.793767 244.469723 
L 281.952769 244.302997 
L 283.118789 244.302997 
L 283.277792 243.302638 
L 284.867818 243.302638 
L 284.920819 243.469365 
L 284.97382 243.302638 
L 285.079822 243.302638 
L 285.238825 243.969544 
L 285.450828 243.969544 
L 285.503829 242.802459 
L 285.662832 208.290095 
L 285.768833 208.290095 
L 285.927836 208.790274 
L 285.980837 208.790274 
L 286.13984 209.45718 
L 286.192841 209.45718 
L 286.351843 208.957001 
L 286.404844 208.957001 
L 286.563847 207.12301 
L 287.093856 207.12301 
L 287.305859 207.789916 
L 287.517863 207.789916 
L 287.676866 203.788482 
L 294.725984 203.788482 
L 295.043989 203.121577 
L 295.202992 203.121577 
L 295.361995 202.95485 
L 295.626999 202.95485 
L 295.733001 201.954492 
L 295.786002 200.787407 
L 295.945004 190.617097 
L 295.998005 190.617097 
L 296.157008 181.780598 
L 296.634016 177.112259 
L 296.793019 173.110826 
L 296.952021 169.609571 
L 297.376028 166.608496 
L 297.48203 166.275043 
L 297.747035 163.273968 
L 297.906037 160.773072 
L 298.06504 126.260708 
L 298.277044 125.427076 
L 298.383045 124.760171 
L 298.542048 87.246732 
L 298.64805 85.912921 
L 298.807053 76.909695 
L 298.860053 76.909695 
L 299.019056 71.907904 
L 299.072057 71.907904 
L 299.23106 69.240281 
L 299.337061 69.240281 
L 299.496064 66.739385 
L 299.655067 66.239206 
L 299.973072 65.238848 
L 300.132075 59.069971 
L 300.662084 59.069971 
L 300.768085 58.736518 
L 300.927088 57.73616 
L 301.086091 57.569433 
L 301.245093 57.569433 
L 301.404096 57.402707 
L 301.563099 57.569433 
L 301.934105 57.569433 
L 302.146109 57.235981 
L 302.19911 57.235981 
L 302.358112 53.568 
L 302.517115 54.401632 
L 302.676118 54.234906 
L 302.782119 54.234906 
L 302.941122 54.735085 
L 302.994123 54.735085 
L 303.047124 54.568358 
L 303.100125 54.735085 
L 303.41813 54.735085 
L 303.577133 54.568358 
L 303.736135 54.568358 
L 303.895138 54.401632 
L 304.054141 55.568717 
L 304.213143 56.569075 
L 304.425147 57.235981 
L 304.531149 57.235981 
L 304.690151 91.748345 
L 304.849154 91.748345 
L 305.008157 92.248524 
L 305.114159 92.248524 
L 305.273161 92.41525 
L 305.326162 92.41525 
L 305.485165 92.748703 
L 305.538166 92.748703 
L 305.697168 95.416325 
L 305.80317 95.416325 
L 305.962173 97.083589 
L 306.015174 97.083589 
L 306.174176 97.417042 
L 306.439181 97.417042 
L 306.704185 97.917221 
L 306.757186 97.917221 
L 306.916189 97.750495 
L 310.255245 97.750495 
L 310.414248 103.919371 
L 310.57325 104.753003 
L 310.732253 104.753003 
L 310.891256 105.586635 
L 311.527266 105.586635 
L 311.686269 105.753362 
L 312.640285 105.753362 
L 312.799288 105.920088 
L 312.905289 105.920088 
L 313.064292 112.088965 
L 313.170294 112.088965 
L 313.329297 111.922238 
L 313.435298 111.922238 
L 313.594301 112.422418 
L 314.12431 112.422418 
L 314.336313 112.75587 
L 314.760321 112.75587 
L 315.184328 114.256408 
L 315.396331 123.259633 
L 315.502333 123.593086 
L 315.661336 158.939082 
L 315.979341 158.939082 
L 316.191345 161.273252 
L 316.350347 161.273252 
L 316.615352 172.610646 
L 316.774354 172.777373 
L 316.933357 183.948041 
L 317.145361 184.281494 
L 317.410365 184.281494 
L 317.569368 187.449296 
L 317.781371 217.960226 
L 318.099377 218.627132 
L 318.205378 218.627132 
L 318.258379 218.793858 
L 318.417382 226.796725 
L 318.576385 227.130178 
L 318.841389 228.130536 
L 319.000392 229.297621 
L 319.159394 233.132328 
L 319.212395 233.132328 
L 319.371398 238.13412 
L 319.424399 238.300846 
L 319.583402 239.467931 
L 319.636402 239.467931 
L 319.795405 240.301563 
L 319.954408 245.803534 
L 320.113411 245.970261 
L 320.272413 245.970261 
L 320.537418 246.47044 
L 321.385432 246.47044 
L 321.544435 246.803892 
L 321.703437 246.803892 
L 321.915441 247.137345 
L 322.339448 247.137345 
L 322.551451 247.470798 
L 322.710454 247.470798 
L 322.869457 249.471515 
L 323.134461 249.471515 
L 323.346465 249.804968 
L 323.399466 249.804968 
L 323.452467 249.971694 
L 323.66447 251.972411 
L 323.717471 251.972411 
L 323.929475 253.973127 
L 324.141478 256.140571 
L 324.24748 256.140571 
L 324.406483 256.807476 
L 324.565485 260.308731 
L 324.724488 260.642183 
L 324.936492 261.475815 
L 325.095494 261.975994 
L 325.837507 261.975994 
L 326.04951 262.309447 
L 326.155512 262.309447 
L 326.314515 262.476174 
L 326.526518 262.476174 
L 326.63252 262.809626 
L 326.791523 266.310881 
L 326.950525 266.977786 
L 327.427533 266.977786 
L 327.586536 267.144513 
L 335.006661 267.144513 
L 335.165663 266.977786 
L 341.260766 266.977786 
L 341.419768 267.477966 
L 342.055779 267.477966 
L 342.214782 267.644692 
L 345.394835 267.644692 
L 345.553838 267.811418 
L 346.507854 267.811418 
L 346.666857 273.813569 
L 346.825859 274.313748 
L 346.984862 274.313748 
L 347.143865 274.980653 
L 350.217916 274.980653 
L 350.376919 274.813927 
L 351.277934 274.813927 
L 351.436937 281.14953 
L 351.595939 283.150247 
L 352.867961 283.150247 
L 353.026963 283.316973 
L 357.320036 283.316973 
L 357.373037 283.4837 
L 357.532039 291.153114 
L 391.823615 291.153114 
L 391.876616 290.819661 
L 392.08862 273.480116 
L 393.466643 273.480116 
L 393.678646 273.146663 
L 398.501728 273.146663 
L 398.66073 269.645409 
L 398.925735 269.645409 
L 399.084737 269.478682 
L 400.40976 269.478682 
L 400.568762 269.645409 
L 405.550846 269.645409 
L 405.709849 269.145229 
L 407.193874 269.145229 
L 407.458878 269.645409 
L 408.518896 269.645409 
L 408.571897 269.478682 
L 408.730899 268.478324 
L 408.836901 268.478324 
L 408.995904 266.977786 
L 410.002921 266.977786 
L 410.161923 267.311239 
L 410.320926 283.4837 
L 410.53293 283.4837 
L 410.691932 283.650426 
L 410.903936 283.650426 
L 411.115939 284.484058 
L 412.069955 284.484058 
L 412.228958 284.650784 
L 412.599964 284.650784 
L 412.758967 285.651143 
L 412.864969 285.651143 
L 413.023972 285.817869 
L 413.235975 285.817869 
L 413.394978 285.984595 
L 413.50098 285.984595 
L 413.55398 286.318048 
L 413.712983 290.319482 
L 413.871986 290.486208 
L 413.977988 290.486208 
L 414.13699 290.819661 
L 414.242992 290.819661 
L 414.507996 291.486567 
L 414.666999 295.488 
L 414.666999 295.488 
" clip-path="url(#pe8b5373b5c)" style="fill: none; stroke: #1f77b4; stroke-width: 1.5; stroke-linecap: square"/>
   </g>
   <g id="patch_3">
    <path d="M 57.6 307.584 
L 57.6 41.472 
" style="fill: none; stroke: #000000; stroke-width: 0.8; stroke-linejoin: miter; stroke-linecap: square"/>
   </g>
   <g id="patch_4">
    <path d="M 414.72 307.584 
L 414.72 41.472 
" style="fill: none; stroke: #000000; stroke-width: 0.8; stroke-linejoin: miter; stroke-linecap: square"/>
   </g>
   <g id="patch_5">
    <path d="M 57.6 307.584 
L 414.72 307.584 
" style="fill: none; stroke: #000000; stroke-width: 0.8; stroke-linejoin: miter; stroke-linecap: square"/>
   </g>
   <g id="patch_6">
    <path d="M 57.6 41.472 
L 414.72 41.472 
" style="fill: none; stroke: #000000; stroke-width: 0.8; stroke-linejoin: miter; stroke-linecap: square"/>
   </g>
  </g>
 </g>
 <defs>
  <clipPath id="pe8b5373b5c">
   <rect x="57.6" y="41.472" width="357.12" height="266.112"/>
  </clipPath>
 </defs>
</svg>
